G04 EAGLE Gerber RS-274X export*
G75*
%MOMM*%
%FSLAX34Y34*%
%LPD*%
%INSilkscreen Bottom*%
%IPPOS*%
%AMOC8*
5,1,8,0,0,1.08239X$1,22.5*%
G01*
%ADD10C,0.203200*%

G36*
X247938Y20472D02*
X247938Y20472D01*
X247946Y20474D01*
X248146Y20974D01*
X248142Y20987D01*
X248149Y20992D01*
X248149Y105192D01*
X248135Y105210D01*
X248138Y105223D01*
X247738Y105723D01*
X247724Y105726D01*
X247722Y105736D01*
X241722Y108736D01*
X241712Y108734D01*
X241708Y108741D01*
X241108Y108841D01*
X241089Y108831D01*
X241078Y108836D01*
X234978Y105736D01*
X234977Y105733D01*
X234975Y105734D01*
X234475Y105434D01*
X234467Y105414D01*
X234464Y105412D01*
X234465Y105411D01*
X234461Y105400D01*
X234451Y105392D01*
X234451Y20692D01*
X234480Y20654D01*
X234482Y20646D01*
X234982Y20446D01*
X234995Y20450D01*
X235000Y20443D01*
X247900Y20443D01*
X247938Y20472D01*
G37*
G36*
X196918Y20404D02*
X196918Y20404D01*
X196930Y20401D01*
X197330Y20701D01*
X197334Y20717D01*
X197341Y20722D01*
X197337Y20728D01*
X197339Y20732D01*
X197349Y20740D01*
X197349Y60440D01*
X197338Y60455D01*
X197342Y60465D01*
X197042Y60965D01*
X197024Y60973D01*
X197022Y60984D01*
X191022Y63984D01*
X191017Y63983D01*
X191016Y63987D01*
X190416Y64187D01*
X190390Y64178D01*
X190378Y64184D01*
X183678Y60884D01*
X183659Y60847D01*
X183651Y60840D01*
X183651Y20840D01*
X183664Y20822D01*
X183661Y20810D01*
X183961Y20410D01*
X183992Y20402D01*
X184000Y20391D01*
X196900Y20391D01*
X196918Y20404D01*
G37*
G36*
X95318Y20534D02*
X95318Y20534D01*
X95330Y20531D01*
X95730Y20831D01*
X95734Y20847D01*
X95741Y20852D01*
X95737Y20858D01*
X95739Y20862D01*
X95749Y20870D01*
X95749Y55070D01*
X95746Y55074D01*
X95749Y55077D01*
X95549Y56477D01*
X95544Y56482D01*
X95547Y56486D01*
X95347Y57086D01*
X95342Y57089D01*
X95344Y57092D01*
X94744Y58292D01*
X94740Y58294D01*
X94741Y58297D01*
X94341Y58897D01*
X94338Y58898D01*
X94338Y58901D01*
X93938Y59401D01*
X93934Y59402D01*
X93935Y59405D01*
X93435Y59905D01*
X93431Y59905D01*
X93431Y59908D01*
X92931Y60308D01*
X92927Y60309D01*
X92927Y60311D01*
X92327Y60711D01*
X92323Y60711D01*
X92322Y60714D01*
X91722Y61014D01*
X91717Y61013D01*
X91716Y61017D01*
X91116Y61217D01*
X91114Y61216D01*
X91114Y61217D01*
X90414Y61417D01*
X90410Y61416D01*
X90408Y61419D01*
X89808Y61519D01*
X89807Y61518D01*
X89807Y61519D01*
X89107Y61619D01*
X89102Y61616D01*
X89100Y61619D01*
X88400Y61619D01*
X88396Y61616D01*
X88393Y61619D01*
X87693Y61519D01*
X87688Y61514D01*
X87684Y61517D01*
X87085Y61317D01*
X86386Y61117D01*
X86382Y61112D01*
X86378Y61114D01*
X85178Y60514D01*
X85175Y60507D01*
X85169Y60508D01*
X84169Y59708D01*
X84168Y59704D01*
X84165Y59705D01*
X83665Y59205D01*
X83664Y59198D01*
X83659Y59197D01*
X83259Y58597D01*
X83259Y58596D01*
X83258Y58595D01*
X82958Y58095D01*
X82958Y58090D01*
X82955Y58089D01*
X82655Y57391D01*
X82356Y56792D01*
X82357Y56786D01*
X82352Y56782D01*
X82354Y56780D01*
X82351Y56778D01*
X82251Y56178D01*
X82252Y56177D01*
X82251Y56177D01*
X82051Y54777D01*
X82054Y54772D01*
X82051Y54770D01*
X82051Y20970D01*
X82064Y20952D01*
X82061Y20940D01*
X82361Y20540D01*
X82392Y20532D01*
X82400Y20521D01*
X95300Y20521D01*
X95318Y20534D01*
G37*
G36*
X222430Y20543D02*
X222430Y20543D01*
X222442Y20545D01*
X222742Y21045D01*
X222742Y21048D01*
X222743Y21049D01*
X222742Y21051D01*
X222740Y21063D01*
X222749Y21070D01*
X222749Y57870D01*
X222733Y57891D01*
X222735Y57905D01*
X222335Y58305D01*
X222324Y58306D01*
X222323Y58314D01*
X216323Y61414D01*
X216306Y61411D01*
X216300Y61419D01*
X215700Y61419D01*
X215687Y61410D01*
X215678Y61414D01*
X209578Y58414D01*
X209577Y58411D01*
X209575Y58412D01*
X209075Y58112D01*
X209061Y58078D01*
X209051Y58070D01*
X209051Y20870D01*
X209073Y20840D01*
X209075Y20828D01*
X209575Y20528D01*
X209593Y20530D01*
X209600Y20521D01*
X222400Y20521D01*
X222430Y20543D01*
G37*
G36*
X36854Y162474D02*
X36854Y162474D01*
X36857Y162471D01*
X38257Y162671D01*
X38262Y162676D01*
X38266Y162673D01*
X38865Y162873D01*
X39564Y163073D01*
X39568Y163078D01*
X39572Y163076D01*
X40172Y163376D01*
X40175Y163383D01*
X40181Y163382D01*
X40679Y163780D01*
X41277Y164179D01*
X41280Y164186D01*
X41285Y164185D01*
X41785Y164685D01*
X41785Y164689D01*
X41788Y164689D01*
X42188Y165189D01*
X42189Y165193D01*
X42191Y165193D01*
X42591Y165793D01*
X42591Y165797D01*
X42594Y165798D01*
X43194Y166998D01*
X43193Y167003D01*
X43197Y167004D01*
X43397Y167604D01*
X43395Y167611D01*
X43399Y167613D01*
X43599Y169013D01*
X43596Y169018D01*
X43599Y169020D01*
X43599Y169720D01*
X43596Y169725D01*
X43599Y169728D01*
X43499Y170328D01*
X43495Y170331D01*
X43497Y170334D01*
X43297Y171034D01*
X43296Y171035D01*
X43297Y171036D01*
X43097Y171635D01*
X42897Y172334D01*
X42892Y172338D01*
X42894Y172342D01*
X42594Y172942D01*
X42587Y172945D01*
X42588Y172951D01*
X42188Y173451D01*
X42184Y173452D01*
X42185Y173455D01*
X41185Y174455D01*
X41181Y174455D01*
X41181Y174458D01*
X40681Y174858D01*
X40677Y174859D01*
X40677Y174861D01*
X40077Y175261D01*
X40073Y175261D01*
X40072Y175264D01*
X39472Y175564D01*
X39467Y175563D01*
X39466Y175567D01*
X38266Y175967D01*
X38261Y175965D01*
X38259Y175965D01*
X38257Y175969D01*
X36857Y176169D01*
X36852Y176166D01*
X36850Y176169D01*
X7650Y176169D01*
X7646Y176166D01*
X7643Y176169D01*
X6943Y176069D01*
X6939Y176065D01*
X6936Y176067D01*
X6236Y175867D01*
X6235Y175866D01*
X6234Y175867D01*
X5634Y175667D01*
X5631Y175662D01*
X5628Y175664D01*
X4428Y175064D01*
X4426Y175060D01*
X4423Y175061D01*
X3823Y174661D01*
X3820Y174654D01*
X3815Y174655D01*
X3315Y174155D01*
X3315Y174151D01*
X3312Y174151D01*
X2512Y173151D01*
X2511Y173147D01*
X2509Y173147D01*
X2109Y172547D01*
X2109Y172543D01*
X2106Y172542D01*
X1806Y171942D01*
X1806Y171940D01*
X1806Y171939D01*
X1807Y171935D01*
X1803Y171934D01*
X1762Y171792D01*
X1748Y171743D01*
X1706Y171595D01*
X1664Y171448D01*
X1650Y171398D01*
X1608Y171251D01*
X1603Y171234D01*
X1604Y171230D01*
X1601Y171228D01*
X1501Y170628D01*
X1502Y170627D01*
X1501Y170627D01*
X1301Y169227D01*
X1306Y169218D01*
X1301Y169213D01*
X1401Y168513D01*
X1402Y168512D01*
X1401Y168512D01*
X1501Y167912D01*
X1505Y167909D01*
X1503Y167906D01*
X1703Y167206D01*
X1704Y167205D01*
X1703Y167204D01*
X1903Y166604D01*
X1908Y166601D01*
X1906Y166598D01*
X2206Y165998D01*
X2210Y165996D01*
X2209Y165993D01*
X2609Y165393D01*
X2612Y165392D01*
X2612Y165389D01*
X3412Y164389D01*
X3419Y164387D01*
X3418Y164382D01*
X4018Y163882D01*
X4024Y163882D01*
X4025Y163878D01*
X4524Y163578D01*
X5123Y163179D01*
X5132Y163180D01*
X5134Y163173D01*
X5734Y162973D01*
X5736Y162974D01*
X5736Y162973D01*
X6435Y162773D01*
X7034Y162573D01*
X7041Y162575D01*
X7043Y162571D01*
X7743Y162471D01*
X7748Y162474D01*
X7750Y162471D01*
X36850Y162471D01*
X36854Y162474D01*
G37*
G36*
X146547Y20457D02*
X146547Y20457D01*
X146542Y20464D01*
X146549Y20470D01*
X146549Y23770D01*
X146529Y23797D01*
X146529Y23810D01*
X146500Y23831D01*
X146531Y23832D01*
X146530Y23856D01*
X146549Y23870D01*
X146549Y57670D01*
X146546Y57675D01*
X146549Y57678D01*
X146449Y58278D01*
X146405Y58319D01*
X146403Y58316D01*
X146400Y58319D01*
X132900Y58319D01*
X132853Y58283D01*
X132858Y58276D01*
X132851Y58270D01*
X132851Y21070D01*
X132854Y21065D01*
X132851Y21062D01*
X132951Y20462D01*
X132995Y20421D01*
X132998Y20424D01*
X133000Y20421D01*
X146500Y20421D01*
X146547Y20457D01*
G37*
G36*
X120611Y19459D02*
X120611Y19459D01*
X120618Y19454D01*
X121118Y19654D01*
X121133Y19678D01*
X121140Y19684D01*
X121138Y19687D01*
X121143Y19695D01*
X121149Y19700D01*
X121149Y56100D01*
X121146Y56105D01*
X121149Y56108D01*
X121049Y56708D01*
X121005Y56749D01*
X121003Y56746D01*
X121000Y56749D01*
X108100Y56749D01*
X108095Y56746D01*
X108092Y56749D01*
X107492Y56649D01*
X107451Y56605D01*
X107454Y56603D01*
X107451Y56600D01*
X107451Y20000D01*
X107459Y19989D01*
X107454Y19982D01*
X107654Y19482D01*
X107695Y19457D01*
X107700Y19451D01*
X120600Y19451D01*
X120611Y19459D01*
G37*
G36*
X69705Y20654D02*
X69705Y20654D01*
X69708Y20651D01*
X70308Y20751D01*
X70349Y20795D01*
X70346Y20798D01*
X70349Y20800D01*
X70349Y52600D01*
X70346Y52604D01*
X70349Y52607D01*
X70249Y53307D01*
X70244Y53312D01*
X70247Y53316D01*
X70047Y53915D01*
X69847Y54614D01*
X69842Y54618D01*
X69844Y54622D01*
X69244Y55822D01*
X69237Y55825D01*
X69238Y55831D01*
X68838Y56331D01*
X68834Y56332D01*
X68835Y56335D01*
X67835Y57335D01*
X67831Y57335D01*
X67831Y57338D01*
X67331Y57738D01*
X67323Y57739D01*
X67322Y57744D01*
X65522Y58644D01*
X65511Y58642D01*
X65507Y58649D01*
X64808Y58749D01*
X64208Y58849D01*
X64207Y58848D01*
X64207Y58849D01*
X63507Y58949D01*
X63498Y58944D01*
X63493Y58949D01*
X62093Y58749D01*
X62088Y58744D01*
X62084Y58747D01*
X61485Y58547D01*
X60786Y58347D01*
X60782Y58342D01*
X60778Y58344D01*
X60178Y58044D01*
X60177Y58041D01*
X60175Y58042D01*
X59675Y57742D01*
X59673Y57737D01*
X59668Y57738D01*
X59069Y57238D01*
X58569Y56838D01*
X58567Y56831D01*
X58562Y56831D01*
X58162Y56331D01*
X58161Y56327D01*
X58159Y56327D01*
X57359Y55127D01*
X57360Y55118D01*
X57353Y55116D01*
X56953Y53916D01*
X56954Y53914D01*
X56953Y53914D01*
X56951Y53908D01*
X56909Y53760D01*
X56895Y53711D01*
X56853Y53563D01*
X56810Y53415D01*
X56796Y53366D01*
X56754Y53218D01*
X56753Y53214D01*
X56755Y53209D01*
X56751Y53207D01*
X56651Y52507D01*
X56654Y52502D01*
X56651Y52500D01*
X56651Y21400D01*
X56654Y21396D01*
X56651Y21393D01*
X56751Y20693D01*
X56794Y20651D01*
X56797Y20655D01*
X56800Y20651D01*
X69700Y20651D01*
X69705Y20654D01*
G37*
G36*
X227365Y161134D02*
X227365Y161134D01*
X227368Y161131D01*
X227968Y161231D01*
X227971Y161235D01*
X227974Y161233D01*
X228674Y161433D01*
X228675Y161434D01*
X228676Y161433D01*
X229276Y161633D01*
X229277Y161636D01*
X229279Y161635D01*
X229979Y161935D01*
X229981Y161937D01*
X229982Y161936D01*
X230582Y162236D01*
X230585Y162243D01*
X230591Y162242D01*
X231591Y163042D01*
X231592Y163046D01*
X231595Y163045D01*
X232095Y163545D01*
X232096Y163552D01*
X232101Y163553D01*
X232501Y164153D01*
X232501Y164157D01*
X232504Y164158D01*
X233404Y165958D01*
X233402Y165969D01*
X233409Y165973D01*
X233509Y166672D01*
X233609Y167272D01*
X233608Y167273D01*
X233609Y167273D01*
X233709Y167973D01*
X233704Y167982D01*
X233709Y167987D01*
X233609Y168687D01*
X233608Y168688D01*
X233609Y168688D01*
X233509Y169288D01*
X233409Y169987D01*
X233401Y169995D01*
X233404Y170002D01*
X232504Y171802D01*
X232500Y171804D01*
X232501Y171807D01*
X232101Y172407D01*
X232094Y172410D01*
X232095Y172415D01*
X231595Y172915D01*
X231591Y172915D01*
X231591Y172918D01*
X230591Y173718D01*
X230583Y173719D01*
X230582Y173724D01*
X229382Y174324D01*
X229375Y174323D01*
X229374Y174327D01*
X227974Y174727D01*
X227970Y174726D01*
X227968Y174729D01*
X227368Y174829D01*
X227363Y174826D01*
X227360Y174829D01*
X202460Y174829D01*
X202456Y174826D01*
X202453Y174829D01*
X201753Y174729D01*
X201752Y174728D01*
X201752Y174729D01*
X201152Y174629D01*
X201146Y174622D01*
X201141Y174625D01*
X200442Y174326D01*
X199844Y174127D01*
X199839Y174119D01*
X199833Y174121D01*
X199234Y173722D01*
X198735Y173422D01*
X198731Y173414D01*
X198725Y173415D01*
X197725Y172415D01*
X197725Y172411D01*
X197722Y172411D01*
X197322Y171911D01*
X197321Y171907D01*
X197319Y171907D01*
X196919Y171307D01*
X196919Y171303D01*
X196916Y171302D01*
X196616Y170702D01*
X196616Y170699D01*
X196615Y170699D01*
X196617Y170697D01*
X196613Y170696D01*
X196413Y170096D01*
X196414Y170094D01*
X196413Y170094D01*
X196389Y170009D01*
X196346Y169861D01*
X196332Y169812D01*
X196290Y169664D01*
X196248Y169517D01*
X196234Y169467D01*
X196213Y169394D01*
X196214Y169390D01*
X196211Y169388D01*
X196111Y168788D01*
X196112Y168787D01*
X196111Y168787D01*
X196011Y168087D01*
X196016Y168078D01*
X196011Y168073D01*
X196211Y166673D01*
X196212Y166672D01*
X196211Y166672D01*
X196311Y166072D01*
X196316Y166068D01*
X196313Y166064D01*
X196513Y165464D01*
X196516Y165463D01*
X196515Y165461D01*
X196815Y164761D01*
X196823Y164756D01*
X196822Y164749D01*
X197220Y164251D01*
X197619Y163653D01*
X197622Y163652D01*
X197622Y163649D01*
X198022Y163149D01*
X198029Y163147D01*
X198029Y163142D01*
X198529Y162742D01*
X198533Y162741D01*
X198533Y162739D01*
X199131Y162340D01*
X199629Y161942D01*
X199639Y161941D01*
X199641Y161935D01*
X200341Y161635D01*
X200344Y161636D01*
X200344Y161633D01*
X200944Y161433D01*
X200946Y161434D01*
X200946Y161433D01*
X201646Y161233D01*
X201656Y161236D01*
X201660Y161231D01*
X202257Y161231D01*
X202953Y161131D01*
X202958Y161134D01*
X202960Y161131D01*
X227360Y161131D01*
X227365Y161134D01*
G37*
G36*
X171411Y20489D02*
X171411Y20489D01*
X171418Y20484D01*
X171918Y20684D01*
X171933Y20708D01*
X171940Y20714D01*
X171938Y20717D01*
X171943Y20725D01*
X171949Y20730D01*
X171949Y56430D01*
X171947Y56433D01*
X171949Y56435D01*
X171942Y56439D01*
X171913Y56477D01*
X171898Y56466D01*
X171882Y56476D01*
X171382Y56276D01*
X171380Y56273D01*
X171378Y56274D01*
X165293Y53281D01*
X164715Y53377D01*
X158622Y56374D01*
X158596Y56369D01*
X158584Y56377D01*
X158284Y56277D01*
X158254Y56233D01*
X158251Y56230D01*
X158251Y21030D01*
X158262Y21015D01*
X158258Y21005D01*
X158558Y20505D01*
X158592Y20491D01*
X158600Y20481D01*
X171400Y20481D01*
X171411Y20489D01*
G37*
G36*
X70046Y221858D02*
X70046Y221858D01*
X70112Y221863D01*
X70130Y221874D01*
X70151Y221879D01*
X70236Y221939D01*
X70260Y221953D01*
X70263Y221958D01*
X70268Y221962D01*
X72468Y224262D01*
X72476Y224275D01*
X72489Y224285D01*
X72520Y224349D01*
X72556Y224411D01*
X72557Y224427D01*
X72564Y224441D01*
X72563Y224512D01*
X72569Y224583D01*
X72563Y224598D01*
X72562Y224614D01*
X72505Y224739D01*
X72503Y224743D01*
X72503Y224744D01*
X70635Y227359D01*
X70637Y227370D01*
X70646Y227383D01*
X70657Y227441D01*
X70666Y227462D01*
X70666Y227484D01*
X70672Y227517D01*
X70673Y227522D01*
X70673Y227523D01*
X70673Y227524D01*
X70673Y227534D01*
X70706Y227599D01*
X70762Y227656D01*
X70773Y227674D01*
X70785Y227683D01*
X70793Y227702D01*
X70833Y227754D01*
X70906Y227899D01*
X70962Y227956D01*
X71002Y228020D01*
X71046Y228083D01*
X71048Y228095D01*
X71053Y228103D01*
X71057Y228138D01*
X71073Y228224D01*
X71073Y228273D01*
X71102Y228320D01*
X71146Y228383D01*
X71148Y228395D01*
X71153Y228403D01*
X71157Y228438D01*
X71173Y228524D01*
X71173Y228634D01*
X71206Y228699D01*
X71262Y228756D01*
X71302Y228820D01*
X71346Y228883D01*
X71348Y228895D01*
X71353Y228903D01*
X71357Y228938D01*
X71363Y228971D01*
X71366Y228979D01*
X71366Y228987D01*
X71373Y229024D01*
X71373Y229073D01*
X71402Y229120D01*
X71446Y229183D01*
X71448Y229195D01*
X71453Y229203D01*
X71457Y229238D01*
X71473Y229324D01*
X71473Y229434D01*
X71502Y229492D01*
X74758Y230050D01*
X74776Y230057D01*
X74795Y230058D01*
X74855Y230091D01*
X74917Y230117D01*
X74930Y230132D01*
X74947Y230141D01*
X74986Y230197D01*
X75030Y230248D01*
X75035Y230267D01*
X75046Y230283D01*
X75068Y230394D01*
X75073Y230416D01*
X75072Y230420D01*
X75073Y230424D01*
X75073Y233624D01*
X75069Y233643D01*
X75071Y233662D01*
X75060Y233696D01*
X75059Y233703D01*
X75054Y233713D01*
X75049Y233726D01*
X75034Y233792D01*
X75021Y233807D01*
X75015Y233825D01*
X74967Y233873D01*
X74924Y233926D01*
X74906Y233933D01*
X74892Y233947D01*
X74786Y233987D01*
X74766Y233996D01*
X74762Y233996D01*
X74758Y233998D01*
X71546Y234548D01*
X71535Y234587D01*
X71534Y234592D01*
X71533Y234593D01*
X71473Y234713D01*
X71473Y234724D01*
X71470Y234739D01*
X71472Y234755D01*
X71452Y234825D01*
X71452Y234840D01*
X71444Y234854D01*
X71435Y234887D01*
X71434Y234892D01*
X71433Y234893D01*
X71373Y235013D01*
X71373Y235024D01*
X71370Y235039D01*
X71372Y235055D01*
X71335Y235187D01*
X71334Y235192D01*
X71333Y235193D01*
X71173Y235513D01*
X71173Y235524D01*
X71170Y235539D01*
X71172Y235555D01*
X71135Y235687D01*
X71134Y235692D01*
X71133Y235693D01*
X71033Y235893D01*
X71010Y235921D01*
X70973Y235975D01*
X70973Y236024D01*
X70956Y236098D01*
X70942Y236173D01*
X70936Y236183D01*
X70934Y236192D01*
X70911Y236220D01*
X70862Y236292D01*
X70806Y236348D01*
X70733Y236493D01*
X70710Y236521D01*
X70673Y236575D01*
X70673Y236624D01*
X70656Y236698D01*
X70652Y236720D01*
X72506Y239408D01*
X72512Y239424D01*
X72524Y239437D01*
X72544Y239504D01*
X72569Y239569D01*
X72568Y239587D01*
X72573Y239603D01*
X72560Y239672D01*
X72554Y239742D01*
X72545Y239756D01*
X72542Y239773D01*
X72471Y239879D01*
X72464Y239890D01*
X72463Y239890D01*
X72462Y239892D01*
X70262Y242092D01*
X70248Y242101D01*
X70237Y242115D01*
X70175Y242146D01*
X70115Y242183D01*
X70098Y242185D01*
X70083Y242192D01*
X70013Y242193D01*
X69943Y242199D01*
X69927Y242193D01*
X69910Y242193D01*
X69792Y242142D01*
X69781Y242138D01*
X69780Y242137D01*
X69779Y242136D01*
X67080Y240274D01*
X67062Y240292D01*
X66997Y240332D01*
X66935Y240376D01*
X66923Y240378D01*
X66915Y240383D01*
X66880Y240386D01*
X66794Y240403D01*
X66744Y240403D01*
X66732Y240411D01*
X66664Y240463D01*
X66519Y240535D01*
X66462Y240592D01*
X66397Y240632D01*
X66335Y240676D01*
X66323Y240678D01*
X66315Y240683D01*
X66280Y240686D01*
X66194Y240703D01*
X66144Y240703D01*
X66132Y240711D01*
X66064Y240763D01*
X65864Y240863D01*
X65848Y240867D01*
X65835Y240876D01*
X65701Y240902D01*
X65695Y240903D01*
X65694Y240903D01*
X65684Y240903D01*
X65564Y240963D01*
X65548Y240967D01*
X65535Y240976D01*
X65401Y241002D01*
X65395Y241003D01*
X65394Y241003D01*
X65344Y241003D01*
X65297Y241032D01*
X65235Y241076D01*
X65223Y241078D01*
X65215Y241083D01*
X65180Y241086D01*
X65094Y241103D01*
X64984Y241103D01*
X64926Y241132D01*
X64368Y244388D01*
X64360Y244406D01*
X64359Y244425D01*
X64327Y244484D01*
X64300Y244547D01*
X64286Y244560D01*
X64276Y244577D01*
X64221Y244616D01*
X64169Y244660D01*
X64150Y244665D01*
X64135Y244676D01*
X64024Y244697D01*
X64002Y244703D01*
X63998Y244702D01*
X63994Y244703D01*
X60794Y244703D01*
X60775Y244699D01*
X60756Y244701D01*
X60692Y244679D01*
X60626Y244663D01*
X60611Y244651D01*
X60592Y244645D01*
X60545Y244597D01*
X60492Y244553D01*
X60484Y244536D01*
X60471Y244522D01*
X60431Y244416D01*
X60422Y244395D01*
X60422Y244392D01*
X60420Y244388D01*
X59870Y241176D01*
X59831Y241165D01*
X59826Y241163D01*
X59825Y241163D01*
X59824Y241163D01*
X59704Y241103D01*
X59694Y241103D01*
X59678Y241099D01*
X59662Y241102D01*
X59531Y241065D01*
X59526Y241063D01*
X59525Y241063D01*
X59524Y241063D01*
X59404Y241003D01*
X59394Y241003D01*
X59378Y240999D01*
X59362Y241002D01*
X59231Y240965D01*
X59226Y240963D01*
X59225Y240963D01*
X59224Y240963D01*
X59104Y240903D01*
X58994Y240903D01*
X58920Y240886D01*
X58844Y240872D01*
X58835Y240866D01*
X58826Y240863D01*
X58798Y240841D01*
X58726Y240792D01*
X58669Y240735D01*
X58604Y240703D01*
X58594Y240703D01*
X58578Y240699D01*
X58562Y240702D01*
X58431Y240665D01*
X58426Y240663D01*
X58425Y240663D01*
X58424Y240663D01*
X58224Y240563D01*
X58197Y240540D01*
X58126Y240492D01*
X58069Y240435D01*
X58004Y240403D01*
X57994Y240403D01*
X57978Y240399D01*
X57962Y240402D01*
X57831Y240365D01*
X57826Y240363D01*
X57825Y240363D01*
X57824Y240363D01*
X57683Y240292D01*
X55009Y242136D01*
X54997Y242141D01*
X54988Y242150D01*
X54917Y242172D01*
X54848Y242199D01*
X54835Y242198D01*
X54823Y242202D01*
X54750Y242190D01*
X54676Y242184D01*
X54665Y242177D01*
X54652Y242175D01*
X54532Y242098D01*
X52232Y239898D01*
X52218Y239876D01*
X52198Y239860D01*
X52171Y239804D01*
X52137Y239753D01*
X52134Y239727D01*
X52123Y239704D01*
X52124Y239642D01*
X52117Y239581D01*
X52126Y239557D01*
X52126Y239531D01*
X52164Y239451D01*
X52175Y239418D01*
X52182Y239412D01*
X52187Y239401D01*
X54122Y236728D01*
X54082Y236648D01*
X54026Y236592D01*
X53986Y236527D01*
X53942Y236464D01*
X53940Y236453D01*
X53935Y236445D01*
X53931Y236410D01*
X53915Y236324D01*
X53915Y236274D01*
X53907Y236261D01*
X53855Y236193D01*
X53782Y236048D01*
X53726Y235992D01*
X53686Y235927D01*
X53642Y235864D01*
X53640Y235853D01*
X53635Y235845D01*
X53631Y235810D01*
X53615Y235724D01*
X53615Y235674D01*
X53586Y235627D01*
X53542Y235564D01*
X53540Y235553D01*
X53535Y235545D01*
X53531Y235510D01*
X53515Y235424D01*
X53515Y235313D01*
X53482Y235248D01*
X53426Y235192D01*
X53386Y235127D01*
X53342Y235064D01*
X53340Y235053D01*
X53335Y235045D01*
X53331Y235010D01*
X53315Y234924D01*
X53315Y234874D01*
X53286Y234827D01*
X53242Y234764D01*
X53240Y234753D01*
X53235Y234745D01*
X53231Y234710D01*
X53215Y234624D01*
X53215Y234545D01*
X49932Y233998D01*
X49913Y233990D01*
X49893Y233989D01*
X49834Y233957D01*
X49772Y233931D01*
X49759Y233916D01*
X49741Y233906D01*
X49703Y233851D01*
X49659Y233801D01*
X49653Y233781D01*
X49642Y233764D01*
X49626Y233683D01*
X49622Y233673D01*
X49622Y233662D01*
X49621Y233658D01*
X49615Y233633D01*
X49616Y233629D01*
X49615Y233624D01*
X49615Y230424D01*
X49619Y230405D01*
X49617Y230386D01*
X49639Y230321D01*
X49654Y230255D01*
X49667Y230240D01*
X49673Y230222D01*
X49721Y230174D01*
X49764Y230122D01*
X49782Y230114D01*
X49796Y230100D01*
X49902Y230060D01*
X49922Y230051D01*
X49926Y230051D01*
X49930Y230050D01*
X53218Y229486D01*
X53253Y229361D01*
X53254Y229355D01*
X53255Y229355D01*
X53255Y229354D01*
X53315Y229234D01*
X53315Y229224D01*
X53318Y229208D01*
X53316Y229192D01*
X53353Y229061D01*
X53354Y229055D01*
X53355Y229055D01*
X53355Y229054D01*
X53415Y228934D01*
X53415Y228924D01*
X53418Y228908D01*
X53416Y228892D01*
X53453Y228761D01*
X53454Y228755D01*
X53455Y228755D01*
X53455Y228754D01*
X53615Y228434D01*
X53615Y228424D01*
X53618Y228408D01*
X53616Y228392D01*
X53653Y228261D01*
X53654Y228255D01*
X53655Y228255D01*
X53655Y228254D01*
X53755Y228054D01*
X53778Y228026D01*
X53826Y227956D01*
X53882Y227899D01*
X53915Y227834D01*
X53915Y227824D01*
X53918Y227808D01*
X53916Y227792D01*
X53953Y227661D01*
X53954Y227655D01*
X53955Y227655D01*
X53955Y227654D01*
X54055Y227454D01*
X54078Y227426D01*
X54126Y227356D01*
X54136Y227345D01*
X52191Y224751D01*
X52181Y224729D01*
X52164Y224710D01*
X52146Y224650D01*
X52121Y224593D01*
X52122Y224568D01*
X52115Y224544D01*
X52126Y224483D01*
X52129Y224420D01*
X52141Y224398D01*
X52146Y224374D01*
X52197Y224299D01*
X52213Y224269D01*
X52220Y224264D01*
X52226Y224256D01*
X54526Y221956D01*
X54540Y221947D01*
X54551Y221933D01*
X54613Y221901D01*
X54673Y221864D01*
X54690Y221863D01*
X54705Y221855D01*
X54776Y221855D01*
X54845Y221848D01*
X54861Y221854D01*
X54878Y221854D01*
X54996Y221906D01*
X55007Y221910D01*
X55008Y221911D01*
X55009Y221911D01*
X57708Y223773D01*
X57726Y223756D01*
X57791Y223715D01*
X57853Y223671D01*
X57865Y223669D01*
X57873Y223664D01*
X57908Y223661D01*
X57923Y223658D01*
X57926Y223656D01*
X57991Y223615D01*
X58053Y223571D01*
X58065Y223569D01*
X58073Y223564D01*
X58108Y223561D01*
X58194Y223544D01*
X58244Y223544D01*
X58291Y223515D01*
X58353Y223471D01*
X58365Y223469D01*
X58373Y223464D01*
X58408Y223461D01*
X58423Y223458D01*
X58426Y223456D01*
X58491Y223415D01*
X58553Y223371D01*
X58565Y223369D01*
X58573Y223364D01*
X58608Y223361D01*
X58623Y223358D01*
X58626Y223356D01*
X58691Y223315D01*
X58753Y223271D01*
X58765Y223269D01*
X58773Y223264D01*
X58808Y223261D01*
X58837Y223255D01*
X58864Y223222D01*
X58883Y223214D01*
X58898Y223199D01*
X58961Y223179D01*
X59022Y223151D01*
X59043Y223152D01*
X59062Y223146D01*
X59128Y223156D01*
X59195Y223158D01*
X59213Y223168D01*
X59233Y223171D01*
X59288Y223209D01*
X59347Y223241D01*
X59359Y223258D01*
X59375Y223270D01*
X59432Y223362D01*
X59446Y223383D01*
X59447Y223388D01*
X59450Y223392D01*
X61450Y228792D01*
X61454Y228823D01*
X61466Y228851D01*
X61464Y228907D01*
X61471Y228964D01*
X61461Y228993D01*
X61460Y229024D01*
X61433Y229074D01*
X61414Y229127D01*
X61392Y229149D01*
X61377Y229176D01*
X61317Y229222D01*
X61290Y229248D01*
X61277Y229252D01*
X61264Y229263D01*
X60719Y229535D01*
X60562Y229692D01*
X60532Y229711D01*
X60464Y229763D01*
X60319Y229835D01*
X60006Y230148D01*
X59933Y230293D01*
X59910Y230321D01*
X59862Y230392D01*
X59706Y230548D01*
X59645Y230669D01*
X59554Y230944D01*
X59542Y230963D01*
X59533Y230993D01*
X59473Y231113D01*
X59473Y231224D01*
X59465Y231259D01*
X59454Y231344D01*
X59373Y231585D01*
X59373Y232362D01*
X59454Y232604D01*
X59457Y232640D01*
X59473Y232724D01*
X59473Y232909D01*
X59610Y233113D01*
X59623Y233148D01*
X59654Y233204D01*
X59738Y233456D01*
X60089Y233982D01*
X60436Y234329D01*
X60962Y234680D01*
X61214Y234764D01*
X61232Y234775D01*
X61246Y234778D01*
X61259Y234789D01*
X61304Y234808D01*
X61509Y234944D01*
X61694Y234944D01*
X61729Y234953D01*
X61814Y234964D01*
X62056Y235044D01*
X62647Y235044D01*
X63002Y234956D01*
X63038Y234955D01*
X63094Y234944D01*
X63279Y234944D01*
X63484Y234808D01*
X63519Y234795D01*
X63568Y234767D01*
X63570Y234766D01*
X63571Y234766D01*
X63574Y234764D01*
X63826Y234680D01*
X64053Y234529D01*
X64226Y234356D01*
X64252Y234339D01*
X64284Y234308D01*
X64553Y234129D01*
X64699Y233982D01*
X65050Y233456D01*
X65415Y232362D01*
X65415Y231885D01*
X65334Y231644D01*
X65331Y231608D01*
X65315Y231524D01*
X65315Y231313D01*
X65155Y230993D01*
X65149Y230971D01*
X65134Y230944D01*
X65043Y230669D01*
X64882Y230348D01*
X64726Y230192D01*
X64707Y230161D01*
X64655Y230093D01*
X64582Y229948D01*
X64469Y229835D01*
X64324Y229763D01*
X64297Y229740D01*
X64226Y229692D01*
X64069Y229535D01*
X63748Y229375D01*
X63474Y229283D01*
X63425Y229253D01*
X63372Y229231D01*
X63352Y229209D01*
X63327Y229193D01*
X63296Y229144D01*
X63259Y229101D01*
X63251Y229072D01*
X63235Y229046D01*
X63229Y228989D01*
X63215Y228933D01*
X63221Y228899D01*
X63218Y228874D01*
X63230Y228842D01*
X63238Y228792D01*
X65238Y223392D01*
X65264Y223354D01*
X65280Y223311D01*
X65311Y223283D01*
X65334Y223248D01*
X65374Y223225D01*
X65407Y223194D01*
X65447Y223182D01*
X65484Y223161D01*
X65529Y223158D01*
X65573Y223145D01*
X65614Y223152D01*
X65656Y223150D01*
X65699Y223167D01*
X65744Y223175D01*
X65785Y223203D01*
X65816Y223216D01*
X65833Y223236D01*
X65846Y223244D01*
X65894Y223244D01*
X65968Y223262D01*
X66044Y223275D01*
X66053Y223282D01*
X66062Y223284D01*
X66090Y223307D01*
X66162Y223356D01*
X66169Y223362D01*
X66244Y223375D01*
X66253Y223382D01*
X66262Y223384D01*
X66290Y223407D01*
X66362Y223456D01*
X66369Y223462D01*
X66444Y223475D01*
X66453Y223482D01*
X66462Y223484D01*
X66490Y223507D01*
X66562Y223556D01*
X66569Y223562D01*
X66644Y223575D01*
X66653Y223582D01*
X66662Y223584D01*
X66690Y223607D01*
X66762Y223656D01*
X66769Y223662D01*
X66844Y223675D01*
X66853Y223682D01*
X66862Y223684D01*
X66890Y223707D01*
X66962Y223756D01*
X66969Y223762D01*
X67044Y223775D01*
X67053Y223782D01*
X67062Y223784D01*
X67063Y223784D01*
X69779Y221911D01*
X69799Y221904D01*
X69815Y221890D01*
X69878Y221872D01*
X69940Y221848D01*
X69961Y221850D01*
X69982Y221845D01*
X70046Y221858D01*
G37*
G36*
X200075Y220402D02*
X200075Y220402D01*
X200101Y220403D01*
X200155Y220433D01*
X200213Y220455D01*
X200230Y220474D01*
X200253Y220486D01*
X200288Y220537D01*
X200330Y220582D01*
X200338Y220607D01*
X200353Y220628D01*
X200369Y220712D01*
X200380Y220748D01*
X200378Y220758D01*
X200380Y220770D01*
X200380Y234470D01*
X200376Y234490D01*
X200377Y234517D01*
X200277Y235317D01*
X200269Y235341D01*
X200266Y235374D01*
X200066Y236074D01*
X200047Y236108D01*
X200026Y236166D01*
X199426Y237166D01*
X199406Y237186D01*
X199338Y237267D01*
X198838Y237667D01*
X198833Y237669D01*
X198828Y237674D01*
X198428Y237974D01*
X198393Y237989D01*
X198341Y238023D01*
X197841Y238223D01*
X197812Y238227D01*
X197775Y238243D01*
X197275Y238343D01*
X197269Y238343D01*
X197263Y238345D01*
X196663Y238445D01*
X196636Y238443D01*
X196600Y238450D01*
X195400Y238450D01*
X195385Y238447D01*
X195370Y238449D01*
X195238Y238412D01*
X195231Y238411D01*
X195231Y238410D01*
X195230Y238410D01*
X194854Y238222D01*
X194830Y238210D01*
X194811Y238194D01*
X194787Y238185D01*
X194745Y238139D01*
X194697Y238099D01*
X194687Y238077D01*
X194670Y238058D01*
X194652Y237998D01*
X194626Y237941D01*
X194628Y237916D01*
X194620Y237892D01*
X194631Y237830D01*
X194634Y237768D01*
X194646Y237746D01*
X194650Y237721D01*
X194699Y237648D01*
X194717Y237616D01*
X194725Y237611D01*
X194731Y237601D01*
X194831Y237501D01*
X194863Y237481D01*
X194930Y237430D01*
X195330Y237230D01*
X195353Y237224D01*
X195380Y237209D01*
X195595Y237138D01*
X196068Y236665D01*
X196120Y236508D01*
X196120Y236232D01*
X196055Y236039D01*
X195905Y235812D01*
X195386Y235294D01*
X194991Y235136D01*
X194562Y235050D01*
X193847Y235050D01*
X193156Y235223D01*
X192660Y235554D01*
X192339Y235955D01*
X192180Y236432D01*
X192180Y237001D01*
X192427Y237659D01*
X193069Y238301D01*
X193074Y238310D01*
X193084Y238317D01*
X193884Y239217D01*
X193885Y239219D01*
X193886Y239220D01*
X194586Y240020D01*
X194602Y240049D01*
X194632Y240085D01*
X195132Y240985D01*
X195143Y241023D01*
X195171Y241088D01*
X195371Y241988D01*
X195371Y241990D01*
X195372Y241992D01*
X195371Y242021D01*
X195380Y242070D01*
X195380Y242870D01*
X195372Y242907D01*
X195361Y242990D01*
X195061Y243890D01*
X195042Y243921D01*
X195022Y243972D01*
X194522Y244772D01*
X194501Y244793D01*
X194433Y244870D01*
X193533Y245570D01*
X193509Y245581D01*
X193482Y245604D01*
X192382Y246204D01*
X192363Y246209D01*
X192349Y246219D01*
X192316Y246226D01*
X192268Y246244D01*
X191168Y246444D01*
X191139Y246443D01*
X191100Y246450D01*
X190100Y246450D01*
X190067Y246443D01*
X190018Y246441D01*
X189118Y246241D01*
X189085Y246225D01*
X189030Y246210D01*
X189024Y246207D01*
X188264Y245827D01*
X187630Y245510D01*
X187608Y245492D01*
X187572Y245474D01*
X187172Y245174D01*
X187157Y245156D01*
X187131Y245139D01*
X187031Y245039D01*
X187018Y245017D01*
X186998Y245001D01*
X186972Y244944D01*
X186940Y244892D01*
X186937Y244866D01*
X186927Y244842D01*
X186929Y244781D01*
X186923Y244719D01*
X186932Y244695D01*
X186933Y244669D01*
X186963Y244615D01*
X186985Y244557D01*
X187004Y244540D01*
X187016Y244517D01*
X187067Y244482D01*
X187112Y244440D01*
X187137Y244432D01*
X187158Y244417D01*
X187242Y244401D01*
X187278Y244390D01*
X187288Y244392D01*
X187300Y244390D01*
X187400Y244390D01*
X187415Y244393D01*
X187430Y244391D01*
X187562Y244428D01*
X187569Y244429D01*
X187569Y244430D01*
X187570Y244430D01*
X187690Y244490D01*
X188153Y244490D01*
X188508Y244401D01*
X188516Y244401D01*
X188525Y244397D01*
X188976Y244307D01*
X189299Y244145D01*
X189620Y243905D01*
X189771Y243679D01*
X189848Y243524D01*
X189920Y243308D01*
X189920Y242817D01*
X189847Y242526D01*
X189505Y242012D01*
X188950Y241458D01*
X188580Y241181D01*
X188309Y241000D01*
X188077Y240884D01*
X187967Y240829D01*
X187253Y240650D01*
X187062Y240650D01*
X186905Y240702D01*
X186713Y240895D01*
X186652Y241016D01*
X186580Y241232D01*
X186580Y242070D01*
X186568Y242121D01*
X186567Y242165D01*
X186559Y242179D01*
X186555Y242206D01*
X186545Y242221D01*
X186541Y242239D01*
X186499Y242290D01*
X186484Y242317D01*
X186476Y242322D01*
X186458Y242350D01*
X186442Y242359D01*
X186431Y242372D01*
X186367Y242401D01*
X186355Y242408D01*
X186342Y242417D01*
X186338Y242418D01*
X186307Y242435D01*
X186289Y242436D01*
X186272Y242443D01*
X186216Y242441D01*
X186200Y242444D01*
X186190Y242444D01*
X186180Y242442D01*
X186134Y242444D01*
X186115Y242437D01*
X186099Y242437D01*
X186065Y242418D01*
X186044Y242410D01*
X186022Y242405D01*
X186014Y242398D01*
X185998Y242392D01*
X185198Y241892D01*
X185171Y241865D01*
X185116Y241823D01*
X184316Y240923D01*
X184303Y240900D01*
X184279Y240874D01*
X183579Y239774D01*
X183567Y239740D01*
X183539Y239690D01*
X183039Y238190D01*
X183037Y238168D01*
X183026Y238140D01*
X182726Y236540D01*
X182728Y236504D01*
X182720Y236448D01*
X182820Y234748D01*
X182829Y234717D01*
X182832Y234673D01*
X183332Y232773D01*
X183350Y232741D01*
X183368Y232685D01*
X184368Y230885D01*
X184385Y230867D01*
X184400Y230837D01*
X185100Y229937D01*
X185116Y229923D01*
X185131Y229901D01*
X185931Y229101D01*
X185941Y229095D01*
X185950Y229084D01*
X186750Y228384D01*
X186775Y228370D01*
X186804Y228344D01*
X187804Y227744D01*
X187829Y227736D01*
X187859Y227717D01*
X188859Y227317D01*
X188878Y227314D01*
X188900Y227303D01*
X190000Y227003D01*
X190017Y227003D01*
X190038Y226995D01*
X191238Y226795D01*
X191264Y226797D01*
X191300Y226790D01*
X193169Y226790D01*
X193666Y226707D01*
X194564Y226168D01*
X195521Y225212D01*
X196711Y223823D01*
X196722Y223815D01*
X196731Y223801D01*
X197919Y222613D01*
X198408Y222027D01*
X198420Y222017D01*
X198431Y222001D01*
X198898Y221534D01*
X199174Y221074D01*
X199199Y221048D01*
X199231Y221001D01*
X199731Y220501D01*
X199753Y220488D01*
X199769Y220468D01*
X199826Y220442D01*
X199878Y220410D01*
X199904Y220407D01*
X199928Y220397D01*
X199989Y220399D01*
X200051Y220393D01*
X200075Y220402D01*
G37*
G36*
X117961Y80483D02*
X117961Y80483D01*
X117962Y80481D01*
X119062Y80581D01*
X119080Y80597D01*
X119093Y80595D01*
X119693Y81195D01*
X119694Y81206D01*
X119695Y81206D01*
X119694Y81207D01*
X119696Y81219D01*
X119707Y81226D01*
X119807Y82326D01*
X119805Y82328D01*
X119807Y82330D01*
X119807Y93530D01*
X119800Y93539D01*
X119805Y93546D01*
X119505Y94446D01*
X119484Y94460D01*
X119482Y94473D01*
X118782Y94873D01*
X118765Y94870D01*
X118758Y94879D01*
X113958Y94879D01*
X113955Y94877D01*
X113953Y94879D01*
X112953Y94779D01*
X112948Y94774D01*
X112944Y94777D01*
X111944Y94477D01*
X111941Y94473D01*
X111938Y94475D01*
X111038Y94075D01*
X111034Y94068D01*
X111028Y94069D01*
X110228Y93469D01*
X110228Y93467D01*
X110226Y93467D01*
X109426Y92767D01*
X109425Y92765D01*
X109423Y92765D01*
X108723Y92065D01*
X108722Y92058D01*
X108717Y92057D01*
X108117Y91157D01*
X108117Y91151D01*
X108113Y91150D01*
X107713Y90250D01*
X107714Y90247D01*
X107712Y90246D01*
X107711Y90246D01*
X107411Y89346D01*
X107414Y89338D01*
X107409Y89334D01*
X107309Y88234D01*
X107311Y88232D01*
X107309Y88230D01*
X107309Y87230D01*
X107311Y87227D01*
X107309Y87225D01*
X107409Y86225D01*
X107414Y86220D01*
X107411Y86216D01*
X107711Y85216D01*
X107715Y85213D01*
X107713Y85210D01*
X108113Y84310D01*
X108120Y84306D01*
X108119Y84300D01*
X109319Y82700D01*
X109326Y82698D01*
X109326Y82693D01*
X110126Y81993D01*
X110128Y81993D01*
X110128Y81991D01*
X110928Y81391D01*
X110937Y81391D01*
X110938Y81385D01*
X111838Y80985D01*
X111843Y80986D01*
X111844Y80983D01*
X112844Y80683D01*
X112847Y80684D01*
X112848Y80682D01*
X113848Y80482D01*
X113855Y80485D01*
X113858Y80481D01*
X117958Y80481D01*
X117961Y80483D01*
G37*
G36*
X166679Y61941D02*
X166679Y61941D01*
X166680Y61939D01*
X167880Y62039D01*
X167900Y62057D01*
X167914Y62056D01*
X168414Y62656D01*
X168414Y62664D01*
X168415Y62664D01*
X168414Y62665D01*
X168415Y62677D01*
X168425Y62684D01*
X168525Y63784D01*
X168523Y63786D01*
X168525Y63788D01*
X168525Y74988D01*
X168520Y74994D01*
X168524Y74999D01*
X168324Y75899D01*
X168302Y75917D01*
X168300Y75931D01*
X167600Y76331D01*
X167583Y76328D01*
X167576Y76337D01*
X162676Y76337D01*
X162673Y76335D01*
X162671Y76337D01*
X161671Y76237D01*
X161665Y76232D01*
X161660Y76235D01*
X160760Y75935D01*
X160758Y75932D01*
X160756Y75933D01*
X159856Y75533D01*
X159853Y75528D01*
X159849Y75529D01*
X158949Y74929D01*
X158947Y74924D01*
X158944Y74925D01*
X158144Y74225D01*
X158143Y74223D01*
X158141Y74223D01*
X157441Y73523D01*
X157440Y73513D01*
X157433Y73512D01*
X156933Y72612D01*
X156933Y72609D01*
X156931Y72608D01*
X156531Y71708D01*
X156532Y71705D01*
X156530Y71704D01*
X156529Y71704D01*
X156229Y70804D01*
X156231Y70799D01*
X156228Y70797D01*
X156028Y69697D01*
X156032Y69688D01*
X156027Y69683D01*
X156227Y67683D01*
X156232Y67678D01*
X156229Y67674D01*
X156529Y66674D01*
X156533Y66671D01*
X156531Y66668D01*
X156931Y65768D01*
X156936Y65765D01*
X156934Y65762D01*
X157434Y64962D01*
X157440Y64960D01*
X157439Y64956D01*
X158139Y64156D01*
X158141Y64155D01*
X158141Y64153D01*
X158841Y63453D01*
X158848Y63452D01*
X158849Y63447D01*
X159749Y62847D01*
X159755Y62847D01*
X159756Y62843D01*
X160656Y62443D01*
X160660Y62444D01*
X160660Y62441D01*
X161560Y62141D01*
X161565Y62143D01*
X161566Y62140D01*
X162566Y61940D01*
X162573Y61943D01*
X162576Y61939D01*
X166676Y61939D01*
X166679Y61941D01*
G37*
G36*
X179467Y80488D02*
X179467Y80488D01*
X179474Y80483D01*
X180374Y80783D01*
X180389Y80805D01*
X180402Y80808D01*
X180802Y81608D01*
X180799Y81624D01*
X180807Y81630D01*
X180807Y88680D01*
X183218Y85401D01*
X183718Y84701D01*
X183733Y84697D01*
X183734Y84687D01*
X184634Y84187D01*
X184655Y84190D01*
X184663Y84181D01*
X185663Y84281D01*
X185677Y84294D01*
X185688Y84291D01*
X186488Y84891D01*
X186491Y84901D01*
X186498Y84901D01*
X189089Y88488D01*
X189309Y88562D01*
X189309Y81530D01*
X189320Y81516D01*
X189315Y81506D01*
X189715Y80806D01*
X189739Y80795D01*
X189744Y80783D01*
X190744Y80483D01*
X190756Y80487D01*
X190762Y80481D01*
X191962Y80581D01*
X191978Y80595D01*
X191990Y80593D01*
X192690Y81193D01*
X192693Y81206D01*
X192696Y81222D01*
X192707Y81230D01*
X192707Y93430D01*
X192703Y93436D01*
X192706Y93440D01*
X192506Y94440D01*
X192483Y94461D01*
X192480Y94474D01*
X191680Y94874D01*
X191664Y94871D01*
X191658Y94879D01*
X190458Y94879D01*
X190446Y94870D01*
X190438Y94875D01*
X189538Y94475D01*
X189530Y94460D01*
X189519Y94460D01*
X188919Y93660D01*
X185245Y88794D01*
X184591Y89168D01*
X182297Y92160D01*
X181197Y93560D01*
X181196Y93561D01*
X180396Y94561D01*
X180377Y94566D01*
X180374Y94577D01*
X179474Y94877D01*
X179460Y94872D01*
X179454Y94879D01*
X178154Y94779D01*
X178138Y94765D01*
X178126Y94768D01*
X177526Y94268D01*
X177521Y94246D01*
X177510Y94241D01*
X177310Y93341D01*
X177313Y93333D01*
X177309Y93330D01*
X177309Y82030D01*
X177315Y82022D01*
X177311Y82016D01*
X177611Y81016D01*
X177629Y81003D01*
X177629Y80990D01*
X178329Y80490D01*
X178351Y80491D01*
X178358Y80481D01*
X179458Y80481D01*
X179467Y80488D01*
G37*
G36*
X89779Y61941D02*
X89779Y61941D01*
X89781Y61939D01*
X90781Y62039D01*
X90786Y62044D01*
X90790Y62041D01*
X91790Y62341D01*
X91795Y62347D01*
X91800Y62345D01*
X92700Y62845D01*
X92703Y62852D01*
X92708Y62851D01*
X93508Y63551D01*
X93511Y63561D01*
X93518Y63562D01*
X94018Y64362D01*
X94017Y64367D01*
X94021Y64368D01*
X94421Y65268D01*
X94420Y65272D01*
X94423Y65272D01*
X94723Y66172D01*
X94721Y66177D01*
X94724Y66178D01*
X94924Y67178D01*
X94923Y67182D01*
X94925Y67183D01*
X95025Y68183D01*
X95025Y68184D01*
X95125Y69284D01*
X95122Y69289D01*
X95125Y69292D01*
X95025Y70492D01*
X95025Y70493D01*
X94925Y71493D01*
X94922Y71496D01*
X94924Y71499D01*
X94724Y72399D01*
X94723Y72400D01*
X94724Y72401D01*
X94424Y73501D01*
X94417Y73506D01*
X94419Y73512D01*
X93919Y74412D01*
X93915Y74414D01*
X93916Y74417D01*
X93417Y75116D01*
X93017Y75715D01*
X93001Y75721D01*
X93000Y75731D01*
X92100Y76231D01*
X92098Y76231D01*
X92098Y76232D01*
X91298Y76632D01*
X91289Y76630D01*
X91286Y76636D01*
X90286Y76836D01*
X90279Y76833D01*
X90276Y76837D01*
X89076Y76837D01*
X89070Y76833D01*
X89066Y76836D01*
X88066Y76636D01*
X88061Y76630D01*
X88056Y76633D01*
X87156Y76233D01*
X87152Y76226D01*
X87146Y76227D01*
X86346Y75627D01*
X86345Y75622D01*
X86341Y75623D01*
X85641Y74923D01*
X85640Y74915D01*
X85634Y74914D01*
X85134Y74114D01*
X85135Y74108D01*
X85130Y74106D01*
X84730Y73106D01*
X84731Y73103D01*
X84729Y73102D01*
X84429Y72102D01*
X84430Y72099D01*
X84428Y72098D01*
X84228Y71098D01*
X84229Y71094D01*
X84227Y71093D01*
X84127Y70093D01*
X84129Y70090D01*
X84127Y70088D01*
X84127Y68988D01*
X84129Y68985D01*
X84127Y68984D01*
X84327Y66784D01*
X84332Y66778D01*
X84329Y66774D01*
X84629Y65774D01*
X84633Y65771D01*
X84631Y65768D01*
X85031Y64868D01*
X85033Y64867D01*
X85032Y64866D01*
X85432Y64066D01*
X85440Y64062D01*
X85439Y64056D01*
X86039Y63356D01*
X86046Y63354D01*
X86046Y63349D01*
X86846Y62749D01*
X86850Y62749D01*
X86850Y62746D01*
X87650Y62246D01*
X87660Y62247D01*
X87662Y62241D01*
X88662Y61941D01*
X88672Y61944D01*
X88676Y61939D01*
X89776Y61939D01*
X89779Y61941D01*
G37*
G36*
X103479Y61941D02*
X103479Y61941D01*
X103480Y61939D01*
X104580Y62039D01*
X104587Y62045D01*
X104592Y62041D01*
X105492Y62341D01*
X105495Y62347D01*
X105500Y62345D01*
X106400Y62845D01*
X106403Y62852D01*
X106408Y62851D01*
X107208Y63551D01*
X107210Y63556D01*
X107213Y63556D01*
X107813Y64256D01*
X107814Y64266D01*
X107821Y64268D01*
X108221Y65168D01*
X108220Y65173D01*
X108223Y65174D01*
X108523Y66174D01*
X108520Y66184D01*
X108525Y66188D01*
X108525Y67288D01*
X108519Y67296D01*
X108523Y67302D01*
X108223Y68302D01*
X108215Y68308D01*
X108217Y68315D01*
X107617Y69215D01*
X107610Y69218D01*
X107611Y69223D01*
X106946Y69888D01*
X107511Y70453D01*
X107513Y70467D01*
X107522Y70470D01*
X107922Y71470D01*
X107920Y71476D01*
X107924Y71478D01*
X108124Y72478D01*
X108119Y72490D01*
X108124Y72497D01*
X107924Y73597D01*
X107921Y73600D01*
X107923Y73604D01*
X107623Y74504D01*
X107613Y74510D01*
X107615Y74518D01*
X107015Y75318D01*
X107008Y75320D01*
X107008Y75325D01*
X106208Y76025D01*
X106202Y76025D01*
X106202Y76030D01*
X105402Y76530D01*
X105393Y76529D01*
X105390Y76535D01*
X104390Y76835D01*
X104384Y76833D01*
X104381Y76837D01*
X103381Y76937D01*
X103375Y76933D01*
X103372Y76937D01*
X102272Y76837D01*
X102268Y76834D01*
X102265Y76836D01*
X101365Y76636D01*
X101359Y76628D01*
X101352Y76631D01*
X100452Y76131D01*
X100449Y76124D01*
X100444Y76125D01*
X99644Y75425D01*
X99642Y75418D01*
X99637Y75418D01*
X99037Y74618D01*
X99037Y74611D01*
X99035Y74609D01*
X99031Y74608D01*
X98631Y73708D01*
X98633Y73700D01*
X98628Y73698D01*
X98428Y72698D01*
X98432Y72690D01*
X98430Y72689D01*
X98431Y72687D01*
X98427Y72683D01*
X98527Y71683D01*
X98536Y71674D01*
X98532Y71666D01*
X99032Y70666D01*
X99040Y70662D01*
X99039Y70656D01*
X99639Y69956D01*
X99673Y69949D01*
X99645Y69926D01*
X99644Y69926D01*
X99044Y69426D01*
X99042Y69414D01*
X99034Y69413D01*
X98434Y68413D01*
X98434Y68407D01*
X98430Y68404D01*
X98431Y68403D01*
X98429Y68402D01*
X98129Y67402D01*
X98130Y67399D01*
X98128Y67398D01*
X98028Y66898D01*
X98032Y66888D01*
X98027Y66884D01*
X98127Y65784D01*
X98133Y65777D01*
X98129Y65772D01*
X98429Y64872D01*
X98437Y64867D01*
X98435Y64861D01*
X99035Y63961D01*
X99042Y63958D01*
X99041Y63953D01*
X99741Y63253D01*
X99746Y63252D01*
X99746Y63249D01*
X100546Y62649D01*
X100555Y62649D01*
X100556Y62643D01*
X101456Y62243D01*
X101461Y62244D01*
X101462Y62241D01*
X102462Y61941D01*
X102472Y61944D01*
X102476Y61939D01*
X103476Y61939D01*
X103479Y61941D01*
G37*
G36*
X156432Y98107D02*
X156432Y98107D01*
X156446Y98119D01*
X156457Y98116D01*
X157157Y98616D01*
X157162Y98633D01*
X157163Y98634D01*
X157162Y98634D01*
X157165Y98644D01*
X157177Y98651D01*
X157277Y99651D01*
X157275Y99654D01*
X157277Y99656D01*
X157277Y110856D01*
X157275Y110859D01*
X157277Y110861D01*
X157177Y111861D01*
X157154Y111886D01*
X157152Y111899D01*
X156452Y112299D01*
X156437Y112297D01*
X156432Y112305D01*
X155132Y112405D01*
X155118Y112397D01*
X155110Y112402D01*
X154110Y112002D01*
X154096Y111979D01*
X154083Y111975D01*
X153783Y111275D01*
X153784Y111271D01*
X153781Y111268D01*
X153786Y111261D01*
X153779Y111256D01*
X153779Y107076D01*
X153308Y106605D01*
X149246Y106605D01*
X148677Y107079D01*
X148677Y111156D01*
X148670Y111165D01*
X148675Y111172D01*
X148375Y112072D01*
X148348Y112090D01*
X148344Y112103D01*
X147444Y112403D01*
X147433Y112399D01*
X147428Y112405D01*
X146328Y112405D01*
X146314Y112395D01*
X146304Y112399D01*
X145404Y111899D01*
X145392Y111872D01*
X145380Y111867D01*
X145180Y110967D01*
X145183Y110959D01*
X145179Y110956D01*
X145179Y99656D01*
X145184Y99650D01*
X145180Y99645D01*
X145380Y98745D01*
X145395Y98733D01*
X145393Y98721D01*
X145993Y98121D01*
X146017Y98118D01*
X146024Y98107D01*
X147224Y98007D01*
X147234Y98014D01*
X147241Y98009D01*
X148341Y98309D01*
X148361Y98335D01*
X148374Y98339D01*
X148674Y99139D01*
X148671Y99151D01*
X148677Y99156D01*
X148677Y103233D01*
X149246Y103707D01*
X153210Y103707D01*
X153779Y103233D01*
X153779Y99156D01*
X153788Y99143D01*
X153784Y99134D01*
X154184Y98334D01*
X154208Y98322D01*
X154212Y98309D01*
X155112Y98009D01*
X155126Y98014D01*
X155132Y98007D01*
X156432Y98107D01*
G37*
G36*
X120479Y61941D02*
X120479Y61941D01*
X120481Y61939D01*
X121481Y62039D01*
X121495Y62052D01*
X121506Y62049D01*
X122306Y62649D01*
X122312Y62670D01*
X122323Y62674D01*
X122623Y63674D01*
X122618Y63687D01*
X122625Y63693D01*
X122525Y64593D01*
X122515Y64604D01*
X122519Y64612D01*
X122019Y65512D01*
X122012Y65515D01*
X122013Y65520D01*
X121313Y66320D01*
X121306Y66322D01*
X121306Y66327D01*
X120506Y66927D01*
X120502Y66927D01*
X120502Y66930D01*
X117904Y68529D01*
X117108Y69125D01*
X116413Y69820D01*
X115822Y70609D01*
X115627Y71484D01*
X116016Y72455D01*
X116790Y72939D01*
X117862Y72939D01*
X118637Y72454D01*
X119028Y71575D01*
X119127Y70583D01*
X119136Y70574D01*
X119132Y70566D01*
X119532Y69766D01*
X119556Y69754D01*
X119560Y69741D01*
X120460Y69441D01*
X120474Y69446D01*
X120480Y69439D01*
X121780Y69539D01*
X121794Y69551D01*
X121805Y69548D01*
X122505Y70048D01*
X122513Y70076D01*
X122525Y70083D01*
X122625Y70983D01*
X122622Y70987D01*
X122621Y70989D01*
X122625Y70992D01*
X122525Y72092D01*
X122522Y72096D01*
X122524Y72099D01*
X122324Y72999D01*
X122318Y73003D01*
X122321Y73008D01*
X121921Y73908D01*
X121916Y73911D01*
X121917Y73915D01*
X121317Y74815D01*
X121310Y74818D01*
X121311Y74823D01*
X120611Y75523D01*
X120601Y75524D01*
X120600Y75531D01*
X119700Y76031D01*
X119693Y76030D01*
X119692Y76035D01*
X118792Y76335D01*
X118787Y76333D01*
X118786Y76336D01*
X117786Y76536D01*
X117779Y76533D01*
X117776Y76537D01*
X116676Y76537D01*
X116670Y76533D01*
X116666Y76536D01*
X115666Y76336D01*
X115661Y76330D01*
X115656Y76333D01*
X114756Y75933D01*
X114752Y75926D01*
X114746Y75927D01*
X113946Y75327D01*
X113945Y75322D01*
X113941Y75323D01*
X113241Y74623D01*
X113240Y74613D01*
X113233Y74612D01*
X112733Y73712D01*
X112733Y73709D01*
X112731Y73708D01*
X112331Y72808D01*
X112333Y72800D01*
X112328Y72798D01*
X112128Y71798D01*
X112129Y71794D01*
X112127Y71793D01*
X112027Y70793D01*
X112033Y70784D01*
X112028Y70778D01*
X112228Y69778D01*
X112234Y69773D01*
X112231Y69768D01*
X112631Y68868D01*
X112634Y68866D01*
X112633Y68864D01*
X113133Y67964D01*
X113144Y67959D01*
X113144Y67951D01*
X113944Y67251D01*
X113946Y67251D01*
X113946Y67249D01*
X114846Y66549D01*
X115646Y65949D01*
X115657Y65949D01*
X115659Y65942D01*
X116401Y65664D01*
X116250Y65437D01*
X113276Y65437D01*
X113274Y65436D01*
X113273Y65436D01*
X113272Y65437D01*
X112172Y65337D01*
X112152Y65319D01*
X112139Y65320D01*
X111539Y64620D01*
X111538Y64612D01*
X111537Y64612D01*
X111538Y64611D01*
X111537Y64599D01*
X111527Y64593D01*
X111427Y63593D01*
X111433Y63584D01*
X111428Y63578D01*
X111628Y62578D01*
X111647Y62561D01*
X111647Y62548D01*
X112347Y62048D01*
X112366Y62048D01*
X112372Y62039D01*
X113472Y61939D01*
X113474Y61941D01*
X113476Y61939D01*
X120476Y61939D01*
X120479Y61941D01*
G37*
G36*
X141795Y61953D02*
X141795Y61953D01*
X141808Y61951D01*
X142508Y62551D01*
X142511Y62564D01*
X142512Y62565D01*
X142521Y62567D01*
X143418Y64461D01*
X143999Y65139D01*
X149046Y65139D01*
X149932Y63366D01*
X149933Y63365D01*
X149933Y63364D01*
X150433Y62464D01*
X150449Y62457D01*
X150450Y62446D01*
X151250Y61946D01*
X151280Y61949D01*
X151292Y61941D01*
X152192Y62241D01*
X152195Y62247D01*
X152200Y62245D01*
X153300Y62845D01*
X153310Y62867D01*
X153322Y62871D01*
X153622Y63671D01*
X153616Y63692D01*
X153623Y63702D01*
X153323Y64702D01*
X153318Y64706D01*
X153320Y64710D01*
X148321Y74809D01*
X147921Y75708D01*
X147908Y75715D01*
X147908Y75725D01*
X147108Y76425D01*
X147087Y76427D01*
X147081Y76437D01*
X146081Y76537D01*
X146066Y76528D01*
X146056Y76533D01*
X145156Y76133D01*
X145145Y76112D01*
X145132Y76110D01*
X144832Y75510D01*
X139832Y65410D01*
X139832Y65407D01*
X139830Y65406D01*
X139430Y64406D01*
X139432Y64401D01*
X139428Y64399D01*
X139228Y63499D01*
X139238Y63478D01*
X139232Y63466D01*
X139632Y62666D01*
X139651Y62657D01*
X139652Y62645D01*
X140752Y62045D01*
X140766Y62047D01*
X140771Y62039D01*
X141771Y61939D01*
X141795Y61953D01*
G37*
G36*
X127538Y93616D02*
X127538Y93616D01*
X127548Y93611D01*
X128448Y94011D01*
X128461Y94035D01*
X128474Y94039D01*
X128774Y94839D01*
X128771Y94851D01*
X128777Y94856D01*
X128777Y107456D01*
X128766Y107471D01*
X128770Y107482D01*
X128270Y108282D01*
X128240Y108294D01*
X128232Y108305D01*
X127132Y108405D01*
X127127Y108402D01*
X127124Y108405D01*
X126024Y108305D01*
X126004Y108287D01*
X125990Y108288D01*
X125515Y107718D01*
X124950Y108000D01*
X124945Y107999D01*
X124944Y108003D01*
X124044Y108303D01*
X124036Y108300D01*
X124032Y108305D01*
X122932Y108405D01*
X122926Y108401D01*
X122923Y108405D01*
X122023Y108305D01*
X122014Y108296D01*
X122006Y108300D01*
X121206Y107900D01*
X121203Y107894D01*
X121198Y107895D01*
X120298Y107195D01*
X120296Y107188D01*
X120291Y107188D01*
X119591Y106388D01*
X119590Y106381D01*
X119585Y106380D01*
X119085Y105480D01*
X119086Y105473D01*
X119081Y105472D01*
X118781Y104572D01*
X118783Y104567D01*
X118780Y104566D01*
X118580Y103566D01*
X118584Y103556D01*
X118579Y103551D01*
X118679Y102551D01*
X118684Y102546D01*
X118681Y102542D01*
X118981Y101542D01*
X118985Y101539D01*
X118983Y101536D01*
X119383Y100636D01*
X119392Y100631D01*
X119391Y100624D01*
X120091Y99824D01*
X120096Y99823D01*
X120096Y99819D01*
X120896Y99119D01*
X120903Y99118D01*
X120904Y99113D01*
X121804Y98613D01*
X121814Y98614D01*
X121817Y98608D01*
X122717Y98408D01*
X122727Y98413D01*
X122732Y98407D01*
X123832Y98507D01*
X123839Y98513D01*
X123844Y98509D01*
X124744Y98809D01*
X124749Y98817D01*
X124755Y98815D01*
X125279Y99164D01*
X125279Y95156D01*
X125286Y95147D01*
X125281Y95140D01*
X125581Y94240D01*
X125601Y94227D01*
X125602Y94214D01*
X126402Y93714D01*
X126418Y93716D01*
X126424Y93707D01*
X127524Y93607D01*
X127538Y93616D01*
G37*
G36*
X134237Y98015D02*
X134237Y98015D01*
X134245Y98010D01*
X135045Y98310D01*
X135056Y98327D01*
X135068Y98327D01*
X135537Y98984D01*
X136196Y98419D01*
X136210Y98418D01*
X136212Y98409D01*
X137112Y98109D01*
X137120Y98112D01*
X137124Y98107D01*
X138224Y98007D01*
X138233Y98013D01*
X138239Y98008D01*
X139139Y98208D01*
X139143Y98214D01*
X139148Y98211D01*
X140048Y98611D01*
X140054Y98622D01*
X140063Y98621D01*
X140863Y99421D01*
X140863Y99424D01*
X140865Y99424D01*
X141565Y100224D01*
X141566Y100231D01*
X141571Y100232D01*
X142071Y101132D01*
X142070Y101139D01*
X142075Y101140D01*
X142375Y102040D01*
X142372Y102048D01*
X142377Y102051D01*
X142477Y103051D01*
X142473Y103057D01*
X142477Y103061D01*
X142377Y104061D01*
X142374Y104064D01*
X142376Y104066D01*
X142176Y105066D01*
X142168Y105073D01*
X142171Y105080D01*
X141671Y105980D01*
X141666Y105982D01*
X141667Y105986D01*
X141067Y106786D01*
X141062Y106787D01*
X141063Y106791D01*
X140263Y107591D01*
X140253Y107592D01*
X140252Y107599D01*
X139352Y108099D01*
X139342Y108098D01*
X139339Y108104D01*
X138439Y108304D01*
X138431Y108301D01*
X138428Y108305D01*
X137428Y108305D01*
X137421Y108300D01*
X137418Y108300D01*
X137414Y108303D01*
X136414Y108003D01*
X136406Y107993D01*
X136398Y107995D01*
X135598Y107395D01*
X135594Y107380D01*
X135584Y107378D01*
X135528Y107266D01*
X135172Y107978D01*
X135147Y107990D01*
X135142Y108003D01*
X134142Y108303D01*
X134134Y108300D01*
X134132Y108300D01*
X134128Y108305D01*
X133028Y108305D01*
X133021Y108300D01*
X133010Y108292D01*
X132998Y108295D01*
X132198Y107695D01*
X132194Y107679D01*
X132186Y107673D01*
X132190Y107668D01*
X132179Y107661D01*
X132079Y106761D01*
X132081Y106758D01*
X132079Y106756D01*
X132079Y99556D01*
X132081Y99553D01*
X132079Y99551D01*
X132179Y98651D01*
X132199Y98630D01*
X132199Y98616D01*
X132899Y98116D01*
X132918Y98116D01*
X132924Y98107D01*
X134224Y98007D01*
X134237Y98015D01*
G37*
G36*
X169664Y80485D02*
X169664Y80485D01*
X169668Y80482D01*
X170668Y80682D01*
X170673Y80688D01*
X170678Y80685D01*
X171578Y81085D01*
X171580Y81088D01*
X171582Y81087D01*
X172482Y81587D01*
X172486Y81596D01*
X172493Y81595D01*
X173193Y82295D01*
X173193Y82298D01*
X173195Y82298D01*
X173895Y83098D01*
X173896Y83108D01*
X173903Y83110D01*
X174303Y84010D01*
X174302Y84012D01*
X174304Y84013D01*
X174303Y84015D01*
X174305Y84016D01*
X174605Y85016D01*
X174602Y85026D01*
X174607Y85030D01*
X174607Y88230D01*
X174590Y88252D01*
X174592Y88266D01*
X173092Y89666D01*
X173088Y89666D01*
X173088Y89669D01*
X172288Y90269D01*
X172282Y90269D01*
X172282Y90273D01*
X171382Y90773D01*
X171375Y90772D01*
X171374Y90777D01*
X170474Y91077D01*
X170469Y91075D01*
X170468Y91078D01*
X169468Y91278D01*
X169458Y91274D01*
X169454Y91279D01*
X168354Y91179D01*
X168350Y91176D01*
X168347Y91178D01*
X167447Y90978D01*
X167442Y90971D01*
X167436Y90974D01*
X166436Y90474D01*
X166433Y90468D01*
X166428Y90469D01*
X165628Y89869D01*
X165627Y89864D01*
X165623Y89865D01*
X164923Y89165D01*
X164922Y89157D01*
X164916Y89156D01*
X164416Y88356D01*
X164417Y88350D01*
X164412Y88348D01*
X164012Y87348D01*
X164014Y87343D01*
X164010Y87340D01*
X164012Y87337D01*
X164009Y87335D01*
X163909Y86335D01*
X163911Y86332D01*
X163909Y86330D01*
X163909Y85230D01*
X163913Y85224D01*
X163910Y85220D01*
X164110Y84220D01*
X164116Y84215D01*
X164113Y84210D01*
X164513Y83310D01*
X164519Y83307D01*
X164517Y83303D01*
X165117Y82403D01*
X165124Y82400D01*
X165123Y82395D01*
X165823Y81695D01*
X165828Y81694D01*
X165828Y81691D01*
X166628Y81091D01*
X166638Y81091D01*
X166640Y81084D01*
X167640Y80684D01*
X167646Y80686D01*
X167648Y80682D01*
X168648Y80482D01*
X168655Y80485D01*
X168658Y80481D01*
X169658Y80481D01*
X169664Y80485D01*
G37*
G36*
X144764Y80485D02*
X144764Y80485D01*
X144768Y80482D01*
X145768Y80682D01*
X145773Y80688D01*
X145778Y80685D01*
X146678Y81085D01*
X146680Y81088D01*
X146682Y81087D01*
X147582Y81587D01*
X147586Y81596D01*
X147593Y81595D01*
X148293Y82295D01*
X148293Y82298D01*
X148295Y82298D01*
X148995Y83098D01*
X148996Y83108D01*
X149003Y83110D01*
X149403Y84010D01*
X149402Y84012D01*
X149404Y84013D01*
X149403Y84015D01*
X149405Y84016D01*
X149705Y85016D01*
X149702Y85026D01*
X149707Y85030D01*
X149707Y88230D01*
X149690Y88252D01*
X149692Y88266D01*
X148192Y89666D01*
X148188Y89666D01*
X148188Y89669D01*
X147388Y90269D01*
X147382Y90269D01*
X147382Y90273D01*
X146482Y90773D01*
X146475Y90772D01*
X146474Y90777D01*
X145574Y91077D01*
X145569Y91075D01*
X145568Y91078D01*
X144568Y91278D01*
X144558Y91274D01*
X144554Y91279D01*
X143454Y91179D01*
X143450Y91176D01*
X143447Y91178D01*
X142547Y90978D01*
X142541Y90970D01*
X142534Y90973D01*
X141634Y90473D01*
X141633Y90470D01*
X141631Y90471D01*
X140731Y89871D01*
X140728Y89864D01*
X140723Y89865D01*
X140023Y89165D01*
X140022Y89157D01*
X140016Y89156D01*
X139516Y88356D01*
X139517Y88347D01*
X139511Y88344D01*
X139211Y87344D01*
X139212Y87341D01*
X139210Y87340D01*
X139010Y86340D01*
X139013Y86333D01*
X139009Y86330D01*
X139009Y85230D01*
X139013Y85224D01*
X139010Y85220D01*
X139210Y84220D01*
X139216Y84215D01*
X139213Y84210D01*
X139613Y83310D01*
X139619Y83307D01*
X139617Y83303D01*
X140217Y82403D01*
X140224Y82400D01*
X140223Y82395D01*
X140923Y81695D01*
X140928Y81694D01*
X140928Y81691D01*
X141728Y81091D01*
X141738Y81091D01*
X141740Y81084D01*
X142740Y80684D01*
X142746Y80686D01*
X142748Y80682D01*
X143748Y80482D01*
X143755Y80485D01*
X143758Y80481D01*
X144758Y80481D01*
X144764Y80485D01*
G37*
G36*
X67764Y80485D02*
X67764Y80485D01*
X67768Y80482D01*
X68768Y80682D01*
X68772Y80687D01*
X68776Y80684D01*
X69776Y81084D01*
X69780Y81090D01*
X69784Y81088D01*
X70584Y81588D01*
X70587Y81596D01*
X70593Y81595D01*
X71293Y82295D01*
X71294Y82305D01*
X71301Y82306D01*
X71801Y83206D01*
X71800Y83211D01*
X71804Y83212D01*
X72204Y84212D01*
X72202Y84218D01*
X72206Y84219D01*
X72406Y85119D01*
X72403Y85127D01*
X72407Y85130D01*
X72407Y86230D01*
X72405Y86233D01*
X72407Y86234D01*
X72307Y87334D01*
X72299Y87343D01*
X72303Y87350D01*
X71903Y88250D01*
X71898Y88253D01*
X71900Y88256D01*
X71400Y89056D01*
X71397Y89057D01*
X71397Y89060D01*
X70797Y89860D01*
X70788Y89862D01*
X70788Y89869D01*
X69988Y90469D01*
X69979Y90469D01*
X69978Y90475D01*
X69078Y90875D01*
X69070Y90873D01*
X69068Y90878D01*
X68068Y91078D01*
X68067Y91078D01*
X66967Y91278D01*
X66958Y91274D01*
X66954Y91279D01*
X65854Y91179D01*
X65848Y91174D01*
X65844Y91177D01*
X64844Y90877D01*
X64840Y90872D01*
X64836Y90874D01*
X64036Y90474D01*
X64033Y90468D01*
X64028Y90469D01*
X63228Y89869D01*
X63225Y89858D01*
X63217Y89857D01*
X62617Y88957D01*
X62618Y88948D01*
X62611Y88946D01*
X62311Y88046D01*
X62314Y88038D01*
X62309Y88035D01*
X62209Y87035D01*
X62211Y87032D01*
X62209Y87030D01*
X62209Y85930D01*
X62225Y85909D01*
X62223Y85895D01*
X62923Y85195D01*
X62936Y85193D01*
X62938Y85185D01*
X63838Y84785D01*
X63852Y84788D01*
X63858Y84781D01*
X67948Y84781D01*
X68577Y84511D01*
X68028Y83871D01*
X67051Y83480D01*
X65962Y83579D01*
X65068Y83678D01*
X64072Y83977D01*
X64066Y83975D01*
X64064Y83978D01*
X64053Y83978D01*
X64047Y83972D01*
X64041Y83976D01*
X63241Y83676D01*
X63226Y83653D01*
X63213Y83650D01*
X62713Y82550D01*
X62717Y82531D01*
X62709Y82523D01*
X62809Y81823D01*
X62820Y81812D01*
X62817Y81803D01*
X63217Y81203D01*
X63232Y81197D01*
X63234Y81187D01*
X63934Y80787D01*
X63946Y80789D01*
X63950Y80781D01*
X65150Y80581D01*
X65153Y80583D01*
X65155Y80581D01*
X66555Y80481D01*
X66557Y80482D01*
X66558Y80481D01*
X67758Y80481D01*
X67764Y80485D01*
G37*
G36*
X132782Y61944D02*
X132782Y61944D01*
X132787Y61940D01*
X133687Y62140D01*
X133703Y62159D01*
X133716Y62159D01*
X134216Y62859D01*
X134215Y62881D01*
X134225Y62888D01*
X134225Y63888D01*
X134223Y63891D01*
X134225Y63893D01*
X134125Y64893D01*
X134120Y64898D01*
X134123Y64902D01*
X133523Y66902D01*
X133519Y66905D01*
X133521Y66908D01*
X133121Y67808D01*
X133118Y67810D01*
X133119Y67812D01*
X132119Y69612D01*
X132114Y69614D01*
X132115Y69618D01*
X131516Y70417D01*
X130917Y71315D01*
X130420Y72110D01*
X130147Y72839D01*
X135276Y72839D01*
X135290Y72850D01*
X135300Y72845D01*
X136000Y73245D01*
X136012Y73272D01*
X136024Y73278D01*
X136224Y74278D01*
X136221Y74285D01*
X136225Y74288D01*
X136225Y75388D01*
X136211Y75407D01*
X136213Y75420D01*
X135613Y76120D01*
X135591Y76125D01*
X135586Y76136D01*
X134586Y76336D01*
X134579Y76333D01*
X134576Y76337D01*
X127576Y76337D01*
X127571Y76333D01*
X127567Y76336D01*
X126467Y76136D01*
X126453Y76121D01*
X126441Y76123D01*
X125841Y75523D01*
X125839Y75503D01*
X125829Y75496D01*
X125832Y75492D01*
X125827Y75488D01*
X125827Y74388D01*
X125830Y74384D01*
X125827Y74382D01*
X125927Y73582D01*
X125933Y73576D01*
X125930Y73571D01*
X126330Y72471D01*
X126332Y72470D01*
X126331Y72468D01*
X126731Y71568D01*
X126734Y71566D01*
X126733Y71564D01*
X127233Y70664D01*
X127234Y70664D01*
X127234Y70663D01*
X128234Y68963D01*
X128235Y68963D01*
X128234Y68962D01*
X129433Y67064D01*
X129931Y66068D01*
X130329Y65073D01*
X130528Y64279D01*
X130627Y63482D01*
X130629Y63480D01*
X130628Y63478D01*
X130828Y62478D01*
X130849Y62460D01*
X130850Y62446D01*
X131650Y61946D01*
X131669Y61948D01*
X131676Y61939D01*
X132776Y61939D01*
X132782Y61944D01*
G37*
G36*
X156462Y80581D02*
X156462Y80581D01*
X156469Y80587D01*
X156474Y80583D01*
X157374Y80883D01*
X157377Y80888D01*
X157380Y80886D01*
X158180Y81286D01*
X158188Y81301D01*
X158198Y81301D01*
X158698Y82001D01*
X158698Y82007D01*
X158702Y82008D01*
X159102Y82808D01*
X159100Y82818D01*
X159106Y82821D01*
X159306Y83921D01*
X159303Y83927D01*
X159307Y83930D01*
X159307Y87094D01*
X160873Y87583D01*
X160895Y87614D01*
X160906Y87619D01*
X161106Y88519D01*
X161103Y88527D01*
X161107Y88530D01*
X161107Y89730D01*
X161098Y89743D01*
X161102Y89752D01*
X160702Y90552D01*
X160674Y90566D01*
X160669Y90578D01*
X159783Y90775D01*
X159307Y91250D01*
X159307Y93230D01*
X159298Y93243D01*
X159302Y93252D01*
X158902Y94052D01*
X158878Y94064D01*
X158874Y94077D01*
X157974Y94377D01*
X157960Y94372D01*
X157954Y94379D01*
X156654Y94279D01*
X156636Y94263D01*
X156623Y94265D01*
X156023Y93665D01*
X156021Y93652D01*
X156011Y93644D01*
X156013Y93642D01*
X156010Y93641D01*
X155810Y92741D01*
X155813Y92733D01*
X155809Y92730D01*
X155809Y90684D01*
X154863Y90779D01*
X154860Y90777D01*
X154858Y90779D01*
X153958Y90779D01*
X153951Y90774D01*
X153950Y90774D01*
X153942Y90768D01*
X153932Y90772D01*
X153132Y90272D01*
X153125Y90254D01*
X153114Y90246D01*
X153116Y90243D01*
X153110Y90240D01*
X152910Y89240D01*
X152914Y89231D01*
X152909Y89226D01*
X153009Y88026D01*
X153027Y88006D01*
X153026Y87993D01*
X153726Y87393D01*
X153746Y87391D01*
X153753Y87381D01*
X154653Y87281D01*
X154659Y87285D01*
X154663Y87281D01*
X155621Y87377D01*
X155809Y86624D01*
X155809Y84639D01*
X155523Y83876D01*
X154454Y83779D01*
X154444Y83770D01*
X154436Y83774D01*
X153636Y83374D01*
X153622Y83345D01*
X153610Y83339D01*
X153410Y82239D01*
X153415Y82227D01*
X153410Y82221D01*
X153610Y81121D01*
X153627Y81105D01*
X153626Y81092D01*
X154226Y80592D01*
X154247Y80591D01*
X154253Y80581D01*
X155253Y80481D01*
X155259Y80485D01*
X155262Y80481D01*
X156462Y80581D01*
G37*
G36*
X111532Y98107D02*
X111532Y98107D01*
X111539Y98113D01*
X111544Y98109D01*
X112444Y98409D01*
X112447Y98414D01*
X112450Y98412D01*
X113250Y98812D01*
X113258Y98827D01*
X113268Y98827D01*
X113768Y99527D01*
X113768Y99533D01*
X113772Y99534D01*
X114172Y100334D01*
X114170Y100347D01*
X114177Y100352D01*
X114377Y102552D01*
X114375Y102554D01*
X114377Y102556D01*
X114377Y104621D01*
X115844Y105109D01*
X115862Y105136D01*
X115875Y105140D01*
X116175Y106040D01*
X116171Y106051D01*
X116177Y106056D01*
X116177Y107256D01*
X116168Y107269D01*
X116172Y107278D01*
X115772Y108078D01*
X115744Y108092D01*
X115738Y108104D01*
X114755Y108301D01*
X114377Y108773D01*
X114377Y110756D01*
X114368Y110769D01*
X114372Y110778D01*
X113972Y111578D01*
X113947Y111590D01*
X113942Y111603D01*
X112942Y111903D01*
X112930Y111899D01*
X112924Y111905D01*
X111724Y111805D01*
X111708Y111791D01*
X111696Y111793D01*
X110996Y111193D01*
X110993Y111179D01*
X110981Y111170D01*
X110985Y111165D01*
X110979Y111161D01*
X110879Y110261D01*
X110881Y110258D01*
X110879Y110256D01*
X110879Y108210D01*
X109933Y108305D01*
X109930Y108303D01*
X109928Y108305D01*
X108928Y108305D01*
X108921Y108300D01*
X108911Y108293D01*
X108899Y108296D01*
X108199Y107796D01*
X108194Y107780D01*
X108184Y107772D01*
X108186Y107769D01*
X108180Y107766D01*
X107980Y106766D01*
X107984Y106757D01*
X107979Y106752D01*
X108079Y105552D01*
X108095Y105534D01*
X108093Y105521D01*
X108693Y104921D01*
X108716Y104918D01*
X108723Y104907D01*
X109723Y104807D01*
X109729Y104811D01*
X109733Y104807D01*
X110691Y104903D01*
X110879Y104150D01*
X110879Y102168D01*
X110496Y101402D01*
X109523Y101305D01*
X109514Y101296D01*
X109506Y101300D01*
X108706Y100900D01*
X108692Y100871D01*
X108680Y100865D01*
X108480Y99765D01*
X108485Y99753D01*
X108480Y99747D01*
X108680Y98647D01*
X108697Y98631D01*
X108696Y98618D01*
X109296Y98118D01*
X109317Y98117D01*
X109323Y98107D01*
X110323Y98007D01*
X110329Y98011D01*
X110332Y98007D01*
X111532Y98107D01*
G37*
%LPC*%
G36*
X186316Y44289D02*
X186316Y44289D01*
X185946Y44567D01*
X185850Y45340D01*
X185946Y46113D01*
X186320Y46393D01*
X186908Y46491D01*
X186935Y46520D01*
X186947Y46529D01*
X186946Y46531D01*
X186949Y46535D01*
X186946Y46538D01*
X186949Y46540D01*
X186949Y48340D01*
X186917Y48383D01*
X186916Y48387D01*
X186329Y48582D01*
X185947Y49060D01*
X185849Y49743D01*
X185849Y55126D01*
X186130Y55595D01*
X186800Y55690D01*
X187483Y55593D01*
X187955Y55310D01*
X188051Y54637D01*
X188051Y52240D01*
X188062Y52225D01*
X188064Y52206D01*
X188075Y52207D01*
X188087Y52193D01*
X188105Y52206D01*
X188109Y52206D01*
X188117Y52212D01*
X188142Y52215D01*
X188442Y52715D01*
X188442Y52718D01*
X188444Y52718D01*
X188742Y53313D01*
X189138Y53809D01*
X189635Y54405D01*
X190127Y54798D01*
X190718Y55094D01*
X191407Y55291D01*
X192097Y55291D01*
X192789Y55192D01*
X193381Y54994D01*
X193971Y54699D01*
X194463Y54207D01*
X194858Y53713D01*
X195154Y53121D01*
X195351Y52532D01*
X195351Y51048D01*
X195154Y50459D01*
X194859Y49869D01*
X194367Y49377D01*
X193873Y48982D01*
X193281Y48686D01*
X192689Y48488D01*
X192000Y48390D01*
X191320Y48487D01*
X190946Y48767D01*
X190850Y49540D01*
X190946Y50217D01*
X191320Y50591D01*
X192000Y50591D01*
X192009Y50598D01*
X192016Y50593D01*
X192616Y50793D01*
X192626Y50809D01*
X192638Y50808D01*
X193138Y51408D01*
X193139Y51432D01*
X193149Y51440D01*
X193149Y52140D01*
X193138Y52155D01*
X193142Y52165D01*
X192842Y52665D01*
X192828Y52671D01*
X192827Y52681D01*
X192227Y53081D01*
X192202Y53079D01*
X192192Y53089D01*
X191592Y52989D01*
X191585Y52981D01*
X191578Y52984D01*
X190978Y52684D01*
X190973Y52674D01*
X190965Y52675D01*
X190465Y52175D01*
X190464Y52168D01*
X190459Y52167D01*
X190059Y51567D01*
X190059Y51565D01*
X190058Y51565D01*
X189058Y49866D01*
X188663Y49274D01*
X188171Y48880D01*
X187582Y48487D01*
X186992Y48389D01*
X186951Y48345D01*
X186954Y48343D01*
X186951Y48340D01*
X186951Y46540D01*
X186987Y46493D01*
X186994Y46498D01*
X187000Y46491D01*
X194392Y46491D01*
X194967Y46299D01*
X195251Y45826D01*
X195251Y44954D01*
X194966Y44480D01*
X194491Y44289D01*
X186316Y44289D01*
G37*
%LPD*%
G36*
X82072Y80493D02*
X82072Y80493D01*
X82084Y80488D01*
X82884Y80988D01*
X82890Y81004D01*
X82901Y81005D01*
X87001Y88005D01*
X87000Y88008D01*
X87002Y88008D01*
X87502Y89008D01*
X87499Y89024D01*
X87507Y89030D01*
X87507Y89830D01*
X87489Y89853D01*
X87490Y89867D01*
X86690Y90567D01*
X86681Y90568D01*
X86680Y90574D01*
X85680Y91074D01*
X85661Y91070D01*
X85653Y91079D01*
X84753Y90979D01*
X84732Y90960D01*
X84719Y90960D01*
X84119Y90160D01*
X84119Y90153D01*
X84114Y90152D01*
X81828Y85579D01*
X81488Y85579D01*
X79202Y90052D01*
X79196Y90055D01*
X79197Y90060D01*
X78597Y90860D01*
X78574Y90866D01*
X78569Y90878D01*
X77669Y91078D01*
X77650Y91070D01*
X77640Y91076D01*
X76640Y90676D01*
X76634Y90665D01*
X76626Y90667D01*
X75826Y89967D01*
X75823Y89953D01*
X75818Y89950D01*
X75821Y89947D01*
X75810Y89942D01*
X75610Y89142D01*
X75620Y89118D01*
X75615Y89106D01*
X76115Y88206D01*
X79615Y82006D01*
X79617Y82005D01*
X79616Y82004D01*
X80116Y81204D01*
X80130Y81199D01*
X80131Y81189D01*
X81031Y80589D01*
X81048Y80590D01*
X81053Y80581D01*
X82053Y80481D01*
X82072Y80493D01*
G37*
%LPC*%
G36*
X245007Y75541D02*
X245007Y75541D01*
X244314Y75739D01*
X244258Y75718D01*
X244262Y75708D01*
X244252Y75703D01*
X244247Y75682D01*
X244224Y75735D01*
X244218Y75732D01*
X244216Y75739D01*
X237227Y78135D01*
X236746Y78616D01*
X236651Y79188D01*
X236841Y79760D01*
X237423Y80148D01*
X238217Y80446D01*
X240816Y81345D01*
X240819Y81350D01*
X240822Y81348D01*
X241622Y81748D01*
X241628Y81760D01*
X241641Y81764D01*
X241636Y81777D01*
X241648Y81801D01*
X241624Y81813D01*
X241616Y81839D01*
X237716Y83139D01*
X237129Y83334D01*
X236747Y83812D01*
X236651Y84480D01*
X237035Y85055D01*
X237521Y85347D01*
X244512Y87844D01*
X245194Y87941D01*
X245663Y87754D01*
X246051Y86882D01*
X246051Y86212D01*
X245674Y85836D01*
X244986Y85639D01*
X244985Y85638D01*
X244984Y85639D01*
X241084Y84339D01*
X241078Y84330D01*
X241068Y84329D01*
X241069Y84316D01*
X241051Y84290D01*
X241071Y84276D01*
X241073Y84251D01*
X241373Y84051D01*
X241382Y84052D01*
X241384Y84045D01*
X245276Y82748D01*
X245761Y82360D01*
X246047Y81788D01*
X245856Y81216D01*
X245469Y80732D01*
X244783Y80438D01*
X240985Y79239D01*
X240977Y79228D01*
X240964Y79225D01*
X240966Y79212D01*
X240951Y79190D01*
X240973Y79175D01*
X240978Y79148D01*
X241578Y78848D01*
X241584Y78849D01*
X241586Y78845D01*
X245480Y77647D01*
X245958Y77360D01*
X246148Y76695D01*
X245857Y76018D01*
X245476Y75541D01*
X245007Y75541D01*
G37*
%LPD*%
G36*
X93434Y98011D02*
X93434Y98011D01*
X93438Y98008D01*
X94438Y98208D01*
X94443Y98214D01*
X94448Y98211D01*
X95348Y98611D01*
X95350Y98614D01*
X95352Y98613D01*
X96252Y99113D01*
X96255Y99120D01*
X96260Y99119D01*
X97060Y99819D01*
X97062Y99826D01*
X97067Y99826D01*
X97667Y100626D01*
X97667Y100636D01*
X97674Y100638D01*
X98074Y101638D01*
X98073Y101641D01*
X98075Y101642D01*
X98375Y102642D01*
X98372Y102652D01*
X98377Y102656D01*
X98377Y103656D01*
X98375Y103659D01*
X98377Y103661D01*
X98277Y104661D01*
X98270Y104668D01*
X98274Y104674D01*
X97874Y105674D01*
X97870Y105677D01*
X97871Y105680D01*
X97371Y106580D01*
X97362Y106584D01*
X97363Y106591D01*
X96663Y107291D01*
X96656Y107292D01*
X96655Y107297D01*
X95755Y107897D01*
X95748Y107897D01*
X95746Y107902D01*
X94746Y108302D01*
X94741Y108300D01*
X94739Y108304D01*
X93839Y108504D01*
X93831Y108501D01*
X93828Y108505D01*
X92828Y108505D01*
X92825Y108503D01*
X92823Y108505D01*
X91823Y108405D01*
X91816Y108399D01*
X91811Y108402D01*
X90711Y108002D01*
X90707Y107996D01*
X90702Y107998D01*
X89902Y107498D01*
X89897Y107486D01*
X89889Y107486D01*
X89289Y106686D01*
X89289Y106656D01*
X89280Y106645D01*
X89480Y105745D01*
X89489Y105738D01*
X89486Y105731D01*
X90086Y104731D01*
X90101Y104725D01*
X90102Y104714D01*
X90902Y104214D01*
X90917Y104216D01*
X90919Y104212D01*
X90942Y104212D01*
X90945Y104210D01*
X91745Y104510D01*
X91748Y104515D01*
X91752Y104513D01*
X92639Y105006D01*
X93710Y104908D01*
X94488Y104324D01*
X94879Y103446D01*
X94879Y102480D01*
X94004Y101800D01*
X93127Y101508D01*
X92147Y101802D01*
X91252Y102299D01*
X91225Y102295D01*
X91214Y102303D01*
X90514Y102103D01*
X90503Y102088D01*
X90491Y102089D01*
X89691Y101189D01*
X89690Y101178D01*
X89683Y101176D01*
X89283Y100276D01*
X89289Y100250D01*
X89282Y100239D01*
X89582Y99439D01*
X89598Y99429D01*
X89598Y99417D01*
X90498Y98717D01*
X90504Y98717D01*
X90504Y98713D01*
X91404Y98213D01*
X91415Y98215D01*
X91418Y98208D01*
X92418Y98008D01*
X92425Y98011D01*
X92428Y98007D01*
X93428Y98007D01*
X93434Y98011D01*
G37*
%LPC*%
G36*
X245149Y90394D02*
X245149Y90394D01*
X245111Y90440D01*
X245105Y90435D01*
X245100Y90441D01*
X237703Y90441D01*
X237023Y90538D01*
X236649Y90912D01*
X236649Y91685D01*
X236680Y91793D01*
X236722Y91940D01*
X236736Y91990D01*
X236778Y92137D01*
X236779Y92137D01*
X236778Y92137D01*
X236821Y92285D01*
X236835Y92334D01*
X236841Y92355D01*
X237309Y92543D01*
X242000Y92543D01*
X242004Y92546D01*
X242009Y92544D01*
X242014Y92554D01*
X242047Y92579D01*
X242046Y92580D01*
X242046Y92581D01*
X242035Y92596D01*
X242044Y92614D01*
X241944Y92814D01*
X241930Y92821D01*
X241930Y92831D01*
X239535Y94628D01*
X239147Y95112D01*
X239051Y95780D01*
X239436Y96358D01*
X239829Y96652D01*
X242128Y98252D01*
X242134Y98268D01*
X242147Y98279D01*
X242140Y98288D01*
X242147Y98308D01*
X242118Y98317D01*
X242100Y98341D01*
X237314Y98341D01*
X236841Y98625D01*
X236649Y99200D01*
X236649Y99976D01*
X236930Y100349D01*
X237607Y100543D01*
X245096Y100543D01*
X245673Y100447D01*
X246051Y99975D01*
X246051Y99204D01*
X245760Y98623D01*
X244269Y97331D01*
X242270Y95831D01*
X242266Y95815D01*
X242262Y95812D01*
X242254Y95810D01*
X242054Y95310D01*
X242070Y95253D01*
X242071Y95253D01*
X242071Y95252D01*
X245370Y92853D01*
X245857Y92463D01*
X246051Y91785D01*
X246051Y91006D01*
X245770Y90537D01*
X245192Y90441D01*
X245151Y90397D01*
X245154Y90395D01*
X245151Y90392D01*
X245151Y90357D01*
X245149Y90394D01*
G37*
%LPD*%
%LPC*%
G36*
X136004Y34819D02*
X136004Y34819D01*
X135424Y34916D01*
X135049Y35290D01*
X135049Y36162D01*
X135241Y36737D01*
X135714Y37021D01*
X140400Y37021D01*
X140413Y37031D01*
X140430Y37031D01*
X140430Y37043D01*
X140447Y37057D01*
X140430Y37080D01*
X140430Y37109D01*
X135632Y40707D01*
X135049Y41290D01*
X135049Y41867D01*
X135147Y42647D01*
X135524Y43024D01*
X136108Y43121D01*
X136141Y43156D01*
X136147Y43161D01*
X136147Y43162D01*
X136149Y43165D01*
X136146Y43168D01*
X136149Y43170D01*
X136149Y43199D01*
X136151Y43168D01*
X136189Y43122D01*
X136195Y43127D01*
X136200Y43121D01*
X142897Y43121D01*
X143688Y43022D01*
X144166Y42830D01*
X144451Y42356D01*
X144451Y41590D01*
X143780Y40919D01*
X139000Y40919D01*
X138989Y40911D01*
X138976Y40913D01*
X138974Y40900D01*
X138953Y40883D01*
X138969Y40862D01*
X138965Y40835D01*
X139165Y40635D01*
X139170Y40634D01*
X139170Y40631D01*
X139970Y40031D01*
X143669Y37231D01*
X144258Y36741D01*
X144451Y36162D01*
X144451Y35485D01*
X144071Y34915D01*
X143496Y34819D01*
X136004Y34819D01*
G37*
%LPD*%
%LPC*%
G36*
X159709Y28879D02*
X159709Y28879D01*
X159241Y29067D01*
X159050Y29734D01*
X159147Y30603D01*
X159520Y30883D01*
X160104Y30981D01*
X164200Y30981D01*
X164221Y30997D01*
X164235Y30995D01*
X164335Y31095D01*
X164343Y31154D01*
X164330Y31156D01*
X164330Y31169D01*
X159241Y35061D01*
X159049Y35539D01*
X159049Y36416D01*
X159334Y36890D01*
X159809Y37081D01*
X167297Y37081D01*
X167980Y36983D01*
X168454Y36604D01*
X168550Y35933D01*
X168529Y35860D01*
X168515Y35811D01*
X168473Y35663D01*
X168430Y35515D01*
X168416Y35466D01*
X168374Y35318D01*
X168356Y35256D01*
X168076Y34976D01*
X167496Y34879D01*
X163400Y34879D01*
X163391Y34872D01*
X163384Y34877D01*
X163084Y34777D01*
X163079Y34769D01*
X163069Y34768D01*
X163069Y34755D01*
X163051Y34728D01*
X163071Y34714D01*
X163072Y34690D01*
X164771Y33490D01*
X167370Y31491D01*
X168165Y30895D01*
X168453Y30511D01*
X168550Y29833D01*
X168527Y29753D01*
X168513Y29704D01*
X168471Y29556D01*
X168428Y29408D01*
X168414Y29359D01*
X168372Y29211D01*
X168358Y29162D01*
X167886Y28879D01*
X159709Y28879D01*
G37*
%LPD*%
%LPC*%
G36*
X13954Y164669D02*
X13954Y164669D01*
X13361Y164768D01*
X12668Y164966D01*
X12073Y165263D01*
X11581Y165559D01*
X10591Y166549D01*
X9996Y167739D01*
X9798Y168331D01*
X9699Y169023D01*
X9699Y169717D01*
X9798Y170410D01*
X9806Y170436D01*
X9848Y170584D01*
X9890Y170731D01*
X9904Y170781D01*
X9946Y170928D01*
X9947Y170928D01*
X9946Y170928D01*
X9989Y171076D01*
X9996Y171100D01*
X10292Y171595D01*
X10292Y171598D01*
X10294Y171598D01*
X10591Y172191D01*
X11579Y173179D01*
X12769Y173774D01*
X13361Y173972D01*
X14053Y174071D01*
X17236Y174071D01*
X17710Y173786D01*
X17904Y173302D01*
X17939Y173281D01*
X17945Y173271D01*
X17974Y173268D01*
X17952Y173269D01*
X17903Y173236D01*
X17909Y173227D01*
X17901Y173220D01*
X17901Y171979D01*
X15662Y171572D01*
X15280Y171859D01*
X15258Y171859D01*
X15250Y171869D01*
X13950Y171869D01*
X13942Y171863D01*
X13936Y171867D01*
X13236Y171667D01*
X13228Y171656D01*
X13219Y171658D01*
X12719Y171258D01*
X12717Y171251D01*
X12712Y171252D01*
X12212Y170652D01*
X12212Y170638D01*
X12203Y170636D01*
X12003Y170036D01*
X12005Y170029D01*
X12001Y170027D01*
X11901Y169327D01*
X11907Y169317D01*
X11901Y169312D01*
X12001Y168712D01*
X12006Y168708D01*
X12003Y168704D01*
X12203Y168104D01*
X12214Y168097D01*
X12212Y168088D01*
X12712Y167488D01*
X12719Y167487D01*
X12719Y167482D01*
X13219Y167082D01*
X13235Y167081D01*
X13239Y167072D01*
X14139Y166872D01*
X14147Y166875D01*
X14150Y166871D01*
X15450Y166871D01*
X15488Y166900D01*
X15496Y166902D01*
X15696Y167402D01*
X15692Y167415D01*
X15699Y167420D01*
X15699Y171478D01*
X17901Y171828D01*
X17901Y165723D01*
X17804Y165047D01*
X17431Y164767D01*
X16747Y164669D01*
X13954Y164669D01*
G37*
%LPD*%
%LPC*%
G36*
X136103Y45219D02*
X136103Y45219D01*
X135427Y45316D01*
X135147Y45690D01*
X135049Y46373D01*
X135049Y49067D01*
X135148Y49759D01*
X135346Y50351D01*
X135643Y50945D01*
X136040Y51541D01*
X136435Y52035D01*
X137029Y52530D01*
X137523Y52827D01*
X138118Y53124D01*
X138807Y53321D01*
X140793Y53321D01*
X141482Y53124D01*
X142073Y52828D01*
X142569Y52432D01*
X143065Y52035D01*
X143560Y51441D01*
X143857Y50947D01*
X144154Y50352D01*
X144352Y49659D01*
X144451Y49066D01*
X144451Y45784D01*
X144170Y45315D01*
X143596Y45219D01*
X142474Y45219D01*
X141953Y47459D01*
X142239Y47840D01*
X142239Y47862D01*
X142249Y47870D01*
X142249Y49270D01*
X142240Y49283D01*
X142244Y49292D01*
X141944Y49892D01*
X141937Y49895D01*
X141938Y49901D01*
X141538Y50401D01*
X141531Y50403D01*
X141531Y50408D01*
X141031Y50808D01*
X141023Y50809D01*
X141022Y50814D01*
X140422Y51114D01*
X140411Y51112D01*
X140407Y51119D01*
X139707Y51219D01*
X139698Y51214D01*
X139693Y51219D01*
X138993Y51119D01*
X138985Y51111D01*
X138978Y51114D01*
X138378Y50814D01*
X138373Y50804D01*
X138365Y50805D01*
X137365Y49805D01*
X137364Y49793D01*
X137356Y49792D01*
X137256Y49592D01*
X137256Y49590D01*
X137256Y49589D01*
X137259Y49576D01*
X137251Y49570D01*
X137251Y47570D01*
X137287Y47523D01*
X137290Y47525D01*
X137292Y47521D01*
X137892Y47421D01*
X137897Y47424D01*
X137900Y47421D01*
X141861Y47421D01*
X142373Y45219D01*
X136103Y45219D01*
G37*
%LPD*%
%LPC*%
G36*
X20659Y164669D02*
X20659Y164669D01*
X20191Y164857D01*
X20000Y165524D01*
X20098Y166304D01*
X20380Y166775D01*
X21053Y166871D01*
X25050Y166871D01*
X25097Y166907D01*
X25092Y166914D01*
X25099Y166920D01*
X25099Y167620D01*
X25095Y167626D01*
X25098Y167630D01*
X24998Y168130D01*
X24954Y168169D01*
X24952Y168167D01*
X24950Y168169D01*
X22953Y168169D01*
X22261Y168268D01*
X21683Y168461D01*
X21401Y168931D01*
X21498Y169804D01*
X21784Y170280D01*
X22259Y170471D01*
X25050Y170471D01*
X25097Y170507D01*
X25092Y170514D01*
X25099Y170520D01*
X25099Y171720D01*
X25063Y171767D01*
X25060Y171765D01*
X25058Y171769D01*
X24458Y171869D01*
X24453Y171866D01*
X24450Y171869D01*
X21054Y171869D01*
X20470Y171967D01*
X20080Y172259D01*
X20052Y172259D01*
X20042Y172269D01*
X20059Y172272D01*
X20079Y172294D01*
X20097Y172307D01*
X20095Y172311D01*
X20099Y172315D01*
X20093Y172321D01*
X20099Y172326D01*
X20000Y173116D01*
X20008Y173145D01*
X20050Y173292D01*
X20051Y173292D01*
X20050Y173292D01*
X20093Y173440D01*
X20107Y173489D01*
X20149Y173637D01*
X20191Y173785D01*
X20192Y173788D01*
X20664Y174071D01*
X26736Y174071D01*
X27205Y173790D01*
X27301Y173117D01*
X27301Y165044D01*
X26833Y164669D01*
X20659Y164669D01*
G37*
%LPD*%
%LPC*%
G36*
X241103Y24241D02*
X241103Y24241D01*
X240410Y24340D01*
X239718Y24538D01*
X239127Y24834D01*
X238133Y25629D01*
X237638Y26123D01*
X237243Y26717D01*
X236946Y27311D01*
X236748Y27903D01*
X236649Y28595D01*
X236649Y30084D01*
X237046Y31273D01*
X237339Y31860D01*
X237827Y32250D01*
X238412Y32543D01*
X241786Y32543D01*
X242258Y32260D01*
X242451Y31585D01*
X242451Y29595D01*
X242354Y28822D01*
X241886Y28541D01*
X241114Y28541D01*
X240649Y28820D01*
X240649Y30192D01*
X240613Y30239D01*
X240610Y30237D01*
X240608Y30241D01*
X240008Y30341D01*
X240003Y30338D01*
X240000Y30341D01*
X239400Y30341D01*
X239379Y30325D01*
X239365Y30327D01*
X238965Y29927D01*
X238964Y29915D01*
X238959Y29912D01*
X238963Y29908D01*
X238962Y29905D01*
X238951Y29899D01*
X238851Y29199D01*
X238854Y29194D01*
X238851Y29192D01*
X238851Y28592D01*
X238858Y28583D01*
X238853Y28576D01*
X239053Y27976D01*
X239064Y27969D01*
X239062Y27960D01*
X239562Y27360D01*
X239566Y27360D01*
X239565Y27357D01*
X240065Y26857D01*
X240081Y26855D01*
X240084Y26845D01*
X241284Y26445D01*
X241299Y26450D01*
X241306Y26443D01*
X242106Y26543D01*
X242111Y26548D01*
X242116Y26545D01*
X242716Y26745D01*
X242719Y26750D01*
X242722Y26748D01*
X243322Y27048D01*
X243329Y27061D01*
X243338Y27061D01*
X243738Y27561D01*
X243739Y27569D01*
X243744Y27570D01*
X244044Y28170D01*
X244042Y28181D01*
X244049Y28185D01*
X244149Y28885D01*
X244144Y28894D01*
X244149Y28899D01*
X244049Y29599D01*
X244044Y29604D01*
X244047Y29608D01*
X243847Y30208D01*
X243841Y30212D01*
X243843Y30216D01*
X243452Y30900D01*
X243546Y31371D01*
X243933Y31854D01*
X244608Y32240D01*
X245076Y32147D01*
X245559Y31663D01*
X245855Y31071D01*
X246152Y30378D01*
X246251Y29784D01*
X246350Y29092D01*
X246251Y28400D01*
X246152Y27804D01*
X245954Y27211D01*
X245657Y26617D01*
X245262Y26023D01*
X244767Y25529D01*
X244271Y25132D01*
X243678Y24737D01*
X243084Y24539D01*
X242489Y24340D01*
X241797Y24241D01*
X241103Y24241D01*
G37*
%LPD*%
%LPC*%
G36*
X189910Y24288D02*
X189910Y24288D01*
X189215Y24487D01*
X188619Y24686D01*
X188027Y24982D01*
X187533Y25377D01*
X187037Y25873D01*
X186540Y26469D01*
X186245Y26961D01*
X186047Y27555D01*
X185849Y28247D01*
X185849Y29637D01*
X185948Y30429D01*
X186146Y31021D01*
X186441Y31611D01*
X187320Y32491D01*
X190600Y32491D01*
X190647Y32527D01*
X190643Y32533D01*
X190649Y32537D01*
X190653Y32601D01*
X190651Y32542D01*
X190685Y32493D01*
X190689Y32496D01*
X190692Y32491D01*
X191270Y32395D01*
X191552Y31924D01*
X191651Y31137D01*
X191651Y29843D01*
X191552Y29056D01*
X191270Y28585D01*
X190601Y28490D01*
X190037Y28584D01*
X189849Y29148D01*
X189849Y29840D01*
X189836Y29858D01*
X189839Y29870D01*
X189539Y30270D01*
X189508Y30279D01*
X189500Y30289D01*
X188800Y30289D01*
X188794Y30285D01*
X188790Y30288D01*
X188290Y30188D01*
X188263Y30158D01*
X188253Y30154D01*
X188211Y30008D01*
X188169Y29860D01*
X188155Y29811D01*
X188113Y29663D01*
X188070Y29515D01*
X188056Y29466D01*
X188053Y29454D01*
X188056Y29444D01*
X188051Y29440D01*
X188051Y28740D01*
X188054Y28735D01*
X188051Y28732D01*
X188151Y28132D01*
X188162Y28122D01*
X188159Y28113D01*
X188559Y27513D01*
X188566Y27510D01*
X188565Y27505D01*
X189065Y27005D01*
X189074Y27004D01*
X189075Y26998D01*
X189575Y26698D01*
X189584Y26699D01*
X189586Y26693D01*
X190286Y26493D01*
X190296Y26496D01*
X190300Y26491D01*
X191000Y26491D01*
X191004Y26494D01*
X191007Y26491D01*
X191707Y26591D01*
X191717Y26601D01*
X191725Y26598D01*
X192225Y26898D01*
X192227Y26902D01*
X192231Y26902D01*
X192731Y27302D01*
X192733Y27312D01*
X192741Y27313D01*
X193141Y27913D01*
X193140Y27927D01*
X193149Y27932D01*
X193249Y28532D01*
X193248Y28533D01*
X193249Y28534D01*
X193349Y29334D01*
X193341Y29347D01*
X193347Y29356D01*
X193147Y29956D01*
X193144Y29957D01*
X193145Y29959D01*
X192845Y30659D01*
X192655Y31136D01*
X192938Y31607D01*
X193524Y32096D01*
X194087Y32284D01*
X194562Y31809D01*
X194957Y31215D01*
X195254Y30621D01*
X195452Y30029D01*
X195551Y29337D01*
X195551Y28644D01*
X195452Y28051D01*
X195420Y27939D01*
X195378Y27792D01*
X195364Y27742D01*
X195322Y27595D01*
X195279Y27447D01*
X195265Y27398D01*
X195254Y27358D01*
X194957Y26763D01*
X194660Y26269D01*
X194165Y25675D01*
X193669Y25278D01*
X193173Y24882D01*
X192582Y24586D01*
X191889Y24388D01*
X191292Y24289D01*
X190600Y24190D01*
X189910Y24288D01*
G37*
%LPD*%
%LPC*%
G36*
X139304Y24219D02*
X139304Y24219D01*
X138711Y24318D01*
X138018Y24516D01*
X137427Y24812D01*
X136933Y25207D01*
X135938Y26201D01*
X135543Y26795D01*
X135247Y27385D01*
X135149Y27978D01*
X135049Y28673D01*
X135049Y29367D01*
X135149Y30163D01*
X135247Y30755D01*
X135543Y31347D01*
X135839Y31840D01*
X136327Y32327D01*
X136908Y32521D01*
X139597Y32521D01*
X140281Y32423D01*
X140657Y32141D01*
X140851Y31463D01*
X140851Y29278D01*
X140661Y28709D01*
X140092Y28519D01*
X139420Y28519D01*
X139048Y28892D01*
X138949Y30274D01*
X138910Y30318D01*
X138904Y30313D01*
X138900Y30319D01*
X137600Y30319D01*
X137567Y30294D01*
X137556Y30292D01*
X137256Y29692D01*
X137259Y29676D01*
X137251Y29670D01*
X137251Y28970D01*
X137254Y28965D01*
X137251Y28962D01*
X137351Y28362D01*
X137356Y28358D01*
X137353Y28354D01*
X137553Y27754D01*
X137564Y27747D01*
X137562Y27738D01*
X138062Y27138D01*
X138069Y27137D01*
X138069Y27132D01*
X138569Y26732D01*
X138582Y26731D01*
X138584Y26723D01*
X139184Y26523D01*
X139191Y26525D01*
X139193Y26521D01*
X139893Y26421D01*
X139902Y26426D01*
X139907Y26421D01*
X140607Y26521D01*
X140611Y26525D01*
X140614Y26523D01*
X141314Y26723D01*
X141322Y26734D01*
X141331Y26732D01*
X141831Y27132D01*
X141833Y27139D01*
X141838Y27139D01*
X142238Y27639D01*
X142239Y27646D01*
X142240Y27647D01*
X142239Y27649D01*
X142239Y27653D01*
X142247Y27656D01*
X142259Y27696D01*
X142301Y27844D01*
X142343Y27992D01*
X142357Y28041D01*
X142399Y28189D01*
X142400Y28189D01*
X142399Y28189D01*
X142442Y28337D01*
X142447Y28356D01*
X142446Y28361D01*
X142449Y28363D01*
X142549Y29063D01*
X142543Y29073D01*
X142549Y29078D01*
X142449Y29678D01*
X142442Y29685D01*
X142445Y29691D01*
X141851Y30976D01*
X141945Y31443D01*
X142527Y31929D01*
X143104Y32217D01*
X143668Y32029D01*
X144057Y31445D01*
X144354Y30851D01*
X144552Y30259D01*
X144651Y29563D01*
X144750Y28871D01*
X144651Y28278D01*
X144652Y28277D01*
X144651Y28277D01*
X144552Y27585D01*
X144256Y26992D01*
X143958Y26397D01*
X143563Y25903D01*
X143067Y25407D01*
X142571Y25010D01*
X141978Y24615D01*
X141389Y24418D01*
X139997Y24219D01*
X139304Y24219D01*
G37*
%LPD*%
%LPC*%
G36*
X215803Y24419D02*
X215803Y24419D01*
X215108Y24519D01*
X214515Y24617D01*
X213329Y25211D01*
X212337Y26203D01*
X211940Y26699D01*
X211545Y27292D01*
X211348Y27881D01*
X211249Y28573D01*
X211249Y29967D01*
X211348Y30657D01*
X211644Y31348D01*
X211940Y31842D01*
X212333Y32332D01*
X212817Y32623D01*
X213503Y32721D01*
X216191Y32621D01*
X216761Y32431D01*
X216951Y31861D01*
X217051Y29871D01*
X216954Y29000D01*
X216483Y28717D01*
X215808Y28621D01*
X215249Y28900D01*
X215249Y30170D01*
X215227Y30200D01*
X215225Y30212D01*
X214725Y30512D01*
X214707Y30510D01*
X214701Y30519D01*
X214700Y30519D01*
X214000Y30519D01*
X213979Y30503D01*
X213965Y30505D01*
X213565Y30105D01*
X213564Y30093D01*
X213558Y30089D01*
X213562Y30084D01*
X213551Y30078D01*
X213451Y29478D01*
X213454Y29473D01*
X213451Y29470D01*
X213451Y28770D01*
X213458Y28761D01*
X213453Y28754D01*
X213653Y28154D01*
X213661Y28149D01*
X213659Y28143D01*
X214059Y27543D01*
X214066Y27540D01*
X214065Y27535D01*
X214565Y27035D01*
X214577Y27034D01*
X214578Y27026D01*
X215178Y26726D01*
X215188Y26728D01*
X215189Y26726D01*
X215190Y26726D01*
X215193Y26721D01*
X215893Y26621D01*
X215898Y26624D01*
X215900Y26621D01*
X216600Y26621D01*
X216609Y26628D01*
X216616Y26623D01*
X217216Y26823D01*
X217219Y26828D01*
X217222Y26826D01*
X217822Y27126D01*
X217829Y27139D01*
X217838Y27139D01*
X218238Y27639D01*
X218239Y27647D01*
X218244Y27648D01*
X218544Y28248D01*
X218543Y28255D01*
X218547Y28256D01*
X218571Y28338D01*
X218585Y28387D01*
X218627Y28535D01*
X218669Y28683D01*
X218683Y28732D01*
X218725Y28880D01*
X218726Y28880D01*
X218725Y28880D01*
X218747Y28956D01*
X218742Y28970D01*
X218749Y28977D01*
X218649Y29677D01*
X218644Y29682D01*
X218647Y29686D01*
X218447Y30286D01*
X218444Y30287D01*
X218445Y30289D01*
X218147Y30985D01*
X218053Y31457D01*
X218433Y31932D01*
X219113Y32321D01*
X219676Y32321D01*
X220060Y31841D01*
X220457Y31245D01*
X220752Y30655D01*
X220851Y29963D01*
X220852Y29962D01*
X220851Y29962D01*
X220951Y29366D01*
X220951Y28677D01*
X220946Y28660D01*
X220904Y28513D01*
X220890Y28463D01*
X220848Y28316D01*
X220805Y28168D01*
X220791Y28119D01*
X220753Y27985D01*
X220554Y27389D01*
X220257Y26793D01*
X219958Y26295D01*
X219964Y26236D01*
X219968Y26237D01*
X219968Y26233D01*
X219995Y26209D01*
X219972Y26210D01*
X219971Y26204D01*
X219965Y26205D01*
X219467Y25707D01*
X218971Y25310D01*
X218375Y24913D01*
X217785Y24617D01*
X217192Y24519D01*
X216497Y24419D01*
X215803Y24419D01*
G37*
%LPD*%
G36*
X57462Y80486D02*
X57462Y80486D01*
X57468Y80482D01*
X58468Y80682D01*
X58489Y80705D01*
X58502Y80708D01*
X58902Y81508D01*
X58899Y81524D01*
X58907Y81530D01*
X58907Y89630D01*
X58900Y89640D01*
X58904Y89647D01*
X58604Y90447D01*
X58578Y90464D01*
X58574Y90477D01*
X57674Y90777D01*
X57666Y90774D01*
X57662Y90774D01*
X57658Y90779D01*
X56358Y90779D01*
X56351Y90774D01*
X56349Y90774D01*
X56342Y90769D01*
X56334Y90773D01*
X55634Y90373D01*
X55628Y90360D01*
X55619Y90360D01*
X55348Y89999D01*
X54588Y90569D01*
X54575Y90569D01*
X54572Y90577D01*
X53572Y90877D01*
X53562Y90874D01*
X53558Y90879D01*
X52558Y90879D01*
X52550Y90873D01*
X52544Y90877D01*
X51544Y90577D01*
X51529Y90557D01*
X51516Y90556D01*
X51016Y89756D01*
X51018Y89734D01*
X51009Y89725D01*
X51109Y88725D01*
X51116Y88718D01*
X51112Y88712D01*
X51512Y87712D01*
X51531Y87701D01*
X51532Y87688D01*
X52332Y87188D01*
X52358Y87191D01*
X52369Y87182D01*
X53268Y87382D01*
X54250Y87578D01*
X55120Y87095D01*
X55509Y86220D01*
X55509Y81230D01*
X55527Y81206D01*
X55526Y81193D01*
X56226Y80593D01*
X56247Y80591D01*
X56254Y80581D01*
X57454Y80481D01*
X57462Y80486D01*
G37*
G36*
X102862Y80486D02*
X102862Y80486D01*
X102868Y80482D01*
X103868Y80682D01*
X103889Y80705D01*
X103902Y80708D01*
X104302Y81508D01*
X104299Y81524D01*
X104307Y81530D01*
X104307Y89630D01*
X104300Y89640D01*
X104304Y89647D01*
X104004Y90447D01*
X103979Y90463D01*
X103975Y90476D01*
X103175Y90776D01*
X103168Y90774D01*
X103162Y90774D01*
X103158Y90779D01*
X101758Y90779D01*
X101751Y90774D01*
X101749Y90774D01*
X101742Y90769D01*
X101734Y90773D01*
X101034Y90373D01*
X101028Y90360D01*
X101019Y90360D01*
X100748Y89999D01*
X99988Y90569D01*
X99975Y90569D01*
X99972Y90577D01*
X98972Y90877D01*
X98962Y90874D01*
X98958Y90879D01*
X97958Y90879D01*
X97950Y90873D01*
X97944Y90877D01*
X96944Y90577D01*
X96929Y90557D01*
X96916Y90556D01*
X96416Y89756D01*
X96418Y89734D01*
X96409Y89725D01*
X96509Y88725D01*
X96516Y88718D01*
X96512Y88712D01*
X96912Y87712D01*
X96931Y87701D01*
X96932Y87688D01*
X97732Y87188D01*
X97758Y87191D01*
X97769Y87182D01*
X98668Y87382D01*
X99650Y87578D01*
X100520Y87095D01*
X100909Y86220D01*
X100909Y82230D01*
X100911Y82227D01*
X100909Y82225D01*
X101009Y81225D01*
X101025Y81208D01*
X101023Y81195D01*
X101623Y80595D01*
X101647Y80592D01*
X101654Y80581D01*
X102854Y80481D01*
X102862Y80486D01*
G37*
G36*
X134262Y80486D02*
X134262Y80486D01*
X134268Y80482D01*
X135268Y80682D01*
X135289Y80705D01*
X135302Y80708D01*
X135702Y81508D01*
X135699Y81524D01*
X135707Y81530D01*
X135707Y89630D01*
X135700Y89640D01*
X135704Y89647D01*
X135404Y90447D01*
X135378Y90464D01*
X135374Y90477D01*
X134474Y90777D01*
X134466Y90774D01*
X134462Y90774D01*
X134458Y90779D01*
X133158Y90779D01*
X133151Y90774D01*
X133149Y90774D01*
X133142Y90769D01*
X133134Y90773D01*
X132434Y90373D01*
X132428Y90360D01*
X132419Y90360D01*
X132148Y89999D01*
X131388Y90569D01*
X131375Y90569D01*
X131372Y90577D01*
X130372Y90877D01*
X130362Y90874D01*
X130358Y90879D01*
X129358Y90879D01*
X129350Y90873D01*
X129344Y90877D01*
X128344Y90577D01*
X128329Y90557D01*
X128316Y90556D01*
X127816Y89756D01*
X127818Y89734D01*
X127809Y89725D01*
X127909Y88725D01*
X127916Y88718D01*
X127912Y88712D01*
X128312Y87712D01*
X128331Y87701D01*
X128332Y87688D01*
X129132Y87188D01*
X129158Y87191D01*
X129169Y87182D01*
X130068Y87382D01*
X131050Y87578D01*
X131920Y87095D01*
X132309Y86220D01*
X132309Y82230D01*
X132311Y82227D01*
X132309Y82225D01*
X132409Y81225D01*
X132425Y81208D01*
X132423Y81195D01*
X133023Y80595D01*
X133047Y80592D01*
X133054Y80581D01*
X134254Y80481D01*
X134262Y80486D01*
G37*
%LPC*%
G36*
X215568Y163329D02*
X215568Y163329D01*
X214999Y163519D01*
X214810Y164085D01*
X214908Y164864D01*
X215193Y165339D01*
X215768Y165531D01*
X218160Y165531D01*
X218174Y165542D01*
X218192Y165543D01*
X218191Y165555D01*
X218207Y165567D01*
X218189Y165591D01*
X218187Y165621D01*
X217887Y165821D01*
X217886Y165821D01*
X217885Y165822D01*
X217386Y166122D01*
X216790Y166519D01*
X216195Y167015D01*
X215802Y167507D01*
X215506Y168099D01*
X215308Y168691D01*
X215210Y169380D01*
X215308Y170069D01*
X215506Y170661D01*
X215803Y171255D01*
X216197Y171846D01*
X216689Y172240D01*
X217282Y172635D01*
X217868Y172831D01*
X219253Y172831D01*
X219945Y172633D01*
X220536Y172436D01*
X221023Y172046D01*
X221419Y171453D01*
X221815Y170858D01*
X222012Y170268D01*
X222111Y169676D01*
X222111Y168892D01*
X221926Y168521D01*
X221253Y168329D01*
X220380Y168329D01*
X220006Y168703D01*
X219909Y169387D01*
X219908Y169388D01*
X219909Y169388D01*
X219809Y169988D01*
X219793Y170003D01*
X219795Y170015D01*
X219295Y170515D01*
X219273Y170518D01*
X219267Y170529D01*
X218567Y170629D01*
X218553Y170621D01*
X218544Y170627D01*
X217944Y170427D01*
X217933Y170410D01*
X217922Y170411D01*
X217522Y169911D01*
X217521Y169888D01*
X217511Y169880D01*
X217511Y169280D01*
X217520Y169267D01*
X217516Y169258D01*
X217816Y168658D01*
X217823Y168655D01*
X217822Y168649D01*
X218222Y168149D01*
X218229Y168147D01*
X218228Y168142D01*
X218828Y167642D01*
X218834Y167642D01*
X218835Y167638D01*
X219335Y167338D01*
X219335Y167337D01*
X220534Y166638D01*
X221126Y166243D01*
X221520Y165751D01*
X221915Y165158D01*
X222109Y164576D01*
X222013Y163998D01*
X221631Y163426D01*
X220957Y163329D01*
X215568Y163329D01*
G37*
%LPD*%
%LPC*%
G36*
X112111Y44448D02*
X112111Y44448D01*
X111421Y44645D01*
X110831Y45038D01*
X110438Y45431D01*
X110045Y46022D01*
X109847Y46616D01*
X109649Y47208D01*
X109649Y48692D01*
X109847Y49284D01*
X110045Y49878D01*
X110438Y50469D01*
X110931Y50961D01*
X111420Y51254D01*
X112110Y51452D01*
X112799Y51550D01*
X113382Y51453D01*
X113969Y51062D01*
X114465Y50565D01*
X114492Y50562D01*
X114500Y50551D01*
X114900Y50551D01*
X114925Y50570D01*
X114938Y50569D01*
X115329Y51058D01*
X115911Y51252D01*
X116597Y51350D01*
X117282Y51154D01*
X117873Y50858D01*
X118367Y50463D01*
X119351Y49480D01*
X119351Y47604D01*
X119252Y47014D01*
X118956Y46322D01*
X118661Y45831D01*
X118169Y45338D01*
X117578Y44945D01*
X117000Y44752D01*
X116433Y44941D01*
X116047Y45617D01*
X115952Y46190D01*
X116238Y46667D01*
X116731Y47062D01*
X116733Y47072D01*
X116741Y47073D01*
X117141Y47673D01*
X117140Y47693D01*
X117149Y47700D01*
X117149Y48400D01*
X117138Y48415D01*
X117142Y48425D01*
X116842Y48925D01*
X116814Y48937D01*
X116808Y48949D01*
X116208Y49049D01*
X116165Y49026D01*
X116158Y49025D01*
X115858Y48525D01*
X115858Y48522D01*
X115858Y48521D01*
X115859Y48511D01*
X115851Y48506D01*
X115751Y47708D01*
X115656Y47233D01*
X115091Y46951D01*
X114216Y47048D01*
X113744Y47331D01*
X113649Y47808D01*
X113549Y48606D01*
X113536Y48620D01*
X113538Y48631D01*
X113138Y49131D01*
X113119Y49136D01*
X113116Y49147D01*
X112516Y49347D01*
X112511Y49345D01*
X112511Y49346D01*
X112496Y49346D01*
X112484Y49336D01*
X112476Y49333D01*
X112465Y49335D01*
X111965Y48835D01*
X111964Y48822D01*
X111956Y48817D01*
X111957Y48817D01*
X111953Y48816D01*
X111753Y48216D01*
X111757Y48205D01*
X111751Y48200D01*
X111751Y47500D01*
X111763Y47484D01*
X111759Y47473D01*
X112159Y46873D01*
X112176Y46867D01*
X112178Y46856D01*
X112771Y46559D01*
X113153Y46177D01*
X113250Y45404D01*
X113226Y45320D01*
X113184Y45173D01*
X113170Y45123D01*
X113128Y44976D01*
X113085Y44828D01*
X113071Y44779D01*
X113056Y44726D01*
X112683Y44353D01*
X112111Y44448D01*
G37*
%LPD*%
%LPC*%
G36*
X111814Y23448D02*
X111814Y23448D01*
X111126Y23743D01*
X110635Y24135D01*
X110242Y24627D01*
X109946Y25219D01*
X109748Y25811D01*
X109649Y26503D01*
X109649Y27197D01*
X109748Y27890D01*
X109768Y27958D01*
X109782Y28007D01*
X109824Y28155D01*
X109866Y28302D01*
X109880Y28352D01*
X109922Y28499D01*
X109923Y28499D01*
X109922Y28499D01*
X109946Y28580D01*
X110240Y29072D01*
X110637Y29567D01*
X111129Y30059D01*
X111715Y30352D01*
X112403Y30451D01*
X113092Y30451D01*
X113676Y30256D01*
X114165Y29865D01*
X114662Y29268D01*
X114692Y29262D01*
X114699Y29252D01*
X114701Y29252D01*
X114709Y29258D01*
X114720Y29255D01*
X114723Y29269D01*
X114724Y29270D01*
X114738Y29269D01*
X115135Y29765D01*
X115620Y30153D01*
X116303Y30251D01*
X116892Y30251D01*
X117478Y30055D01*
X118069Y29662D01*
X119063Y28668D01*
X119351Y28284D01*
X119351Y27003D01*
X119251Y26307D01*
X119152Y25615D01*
X118858Y25027D01*
X118465Y24535D01*
X117873Y24042D01*
X117288Y23749D01*
X116717Y23749D01*
X116240Y24131D01*
X115949Y24810D01*
X115949Y25374D01*
X116527Y25759D01*
X116530Y25766D01*
X116535Y25765D01*
X117035Y26265D01*
X117037Y26278D01*
X117044Y26283D01*
X117041Y26288D01*
X117049Y26292D01*
X117149Y26892D01*
X117143Y26902D01*
X117149Y26907D01*
X117049Y27607D01*
X117030Y27625D01*
X117031Y27638D01*
X116531Y28038D01*
X116492Y28039D01*
X116482Y28046D01*
X115982Y27846D01*
X115961Y27812D01*
X115951Y27806D01*
X115851Y27006D01*
X115754Y26323D01*
X115475Y26045D01*
X114602Y25851D01*
X113932Y26042D01*
X113649Y26514D01*
X113649Y27100D01*
X113643Y27108D01*
X113647Y27114D01*
X113447Y27814D01*
X113428Y27828D01*
X113427Y27841D01*
X112827Y28241D01*
X112796Y28239D01*
X112784Y28247D01*
X112184Y28047D01*
X112171Y28027D01*
X112158Y28025D01*
X111858Y27525D01*
X111859Y27511D01*
X111851Y27507D01*
X111751Y26807D01*
X111758Y26794D01*
X111753Y26786D01*
X111953Y26086D01*
X111967Y26076D01*
X111965Y26065D01*
X112365Y25665D01*
X112372Y25664D01*
X112373Y25659D01*
X112963Y25265D01*
X113249Y24789D01*
X113152Y24011D01*
X112963Y23444D01*
X112400Y23350D01*
X111814Y23448D01*
G37*
%LPD*%
%LPC*%
G36*
X60616Y24549D02*
X60616Y24549D01*
X60232Y24837D01*
X59837Y25233D01*
X59342Y25827D01*
X59046Y26418D01*
X58849Y27107D01*
X58849Y28496D01*
X58947Y29085D01*
X59541Y30271D01*
X60029Y30759D01*
X60619Y31054D01*
X61211Y31252D01*
X62000Y31350D01*
X62689Y31252D01*
X63273Y31057D01*
X63763Y30567D01*
X64156Y30076D01*
X64353Y29486D01*
X64953Y27486D01*
X64964Y27478D01*
X64962Y27469D01*
X65362Y26969D01*
X65392Y26962D01*
X65397Y26955D01*
X65400Y26951D01*
X66000Y26951D01*
X66021Y26967D01*
X66035Y26965D01*
X66435Y27365D01*
X66437Y27378D01*
X66445Y27385D01*
X66442Y27390D01*
X66449Y27394D01*
X66549Y28194D01*
X66537Y28214D01*
X66542Y28226D01*
X65849Y29314D01*
X65849Y29880D01*
X66331Y30362D01*
X66910Y30748D01*
X67373Y30655D01*
X67860Y30071D01*
X68156Y29578D01*
X68452Y28887D01*
X68551Y28197D01*
X68551Y27503D01*
X68452Y26811D01*
X68255Y26222D01*
X67863Y25634D01*
X67369Y25238D01*
X66877Y24845D01*
X66193Y24649D01*
X65504Y24649D01*
X64914Y24748D01*
X64226Y25043D01*
X63735Y25435D01*
X63344Y25924D01*
X63147Y26516D01*
X63144Y26517D01*
X63145Y26519D01*
X62848Y27214D01*
X62749Y27907D01*
X62744Y27912D01*
X62747Y27916D01*
X62547Y28516D01*
X62536Y28523D01*
X62538Y28531D01*
X62138Y29031D01*
X62108Y29038D01*
X62100Y29049D01*
X61500Y29049D01*
X61479Y29033D01*
X61465Y29035D01*
X61065Y28635D01*
X61063Y28616D01*
X61052Y28612D01*
X60852Y27812D01*
X60862Y27790D01*
X60856Y27778D01*
X61156Y27178D01*
X61162Y27175D01*
X61161Y27170D01*
X62051Y25984D01*
X62051Y25515D01*
X61663Y24934D01*
X61183Y24549D01*
X60616Y24549D01*
G37*
%LPD*%
%LPC*%
G36*
X85923Y24514D02*
X85923Y24514D01*
X85532Y24807D01*
X85038Y25301D01*
X84643Y25895D01*
X84348Y26485D01*
X84249Y27173D01*
X84249Y28463D01*
X84256Y28486D01*
X84298Y28634D01*
X84340Y28781D01*
X84354Y28831D01*
X84396Y28978D01*
X84397Y28978D01*
X84396Y28978D01*
X84439Y29126D01*
X84446Y29152D01*
X84742Y29743D01*
X85137Y30237D01*
X85629Y30729D01*
X86215Y31023D01*
X86808Y31121D01*
X86849Y31165D01*
X86845Y31168D01*
X86849Y31171D01*
X86800Y33421D01*
X86802Y33421D01*
X86851Y31169D01*
X86888Y31122D01*
X86895Y31128D01*
X86900Y31121D01*
X87597Y31121D01*
X88283Y31023D01*
X88774Y30728D01*
X89362Y30336D01*
X89654Y29751D01*
X89853Y29155D01*
X90052Y28459D01*
X90151Y27862D01*
X90158Y27856D01*
X90155Y27851D01*
X90455Y27151D01*
X90466Y27144D01*
X90465Y27135D01*
X90865Y26735D01*
X90890Y26732D01*
X90895Y26726D01*
X90902Y26726D01*
X90907Y26721D01*
X91607Y26821D01*
X91631Y26846D01*
X91644Y26848D01*
X91944Y27448D01*
X91944Y27451D01*
X91945Y27452D01*
X91943Y27454D01*
X91940Y27468D01*
X91949Y27477D01*
X91849Y28177D01*
X91836Y28190D01*
X91838Y28201D01*
X91443Y28696D01*
X91153Y29371D01*
X91341Y29840D01*
X91927Y30328D01*
X92498Y30614D01*
X92967Y30332D01*
X93358Y29843D01*
X93654Y29252D01*
X93852Y28560D01*
X93951Y27867D01*
X93951Y27177D01*
X93924Y27084D01*
X93910Y27035D01*
X93868Y26887D01*
X93826Y26740D01*
X93812Y26690D01*
X93770Y26543D01*
X93753Y26485D01*
X93556Y25894D01*
X93163Y25403D01*
X92671Y24911D01*
X92085Y24617D01*
X91496Y24519D01*
X90803Y24519D01*
X90115Y24618D01*
X89529Y24911D01*
X89039Y25401D01*
X88744Y25892D01*
X88446Y26587D01*
X88248Y27281D01*
X88149Y27878D01*
X88144Y27882D01*
X88147Y27886D01*
X87947Y28486D01*
X87930Y28497D01*
X87931Y28508D01*
X87431Y28908D01*
X87403Y28909D01*
X87393Y28919D01*
X86693Y28819D01*
X86671Y28797D01*
X86658Y28795D01*
X86358Y28295D01*
X86359Y28281D01*
X86351Y28277D01*
X86251Y27577D01*
X86262Y27557D01*
X86257Y27546D01*
X86657Y26846D01*
X86663Y26843D01*
X86662Y26839D01*
X87060Y26341D01*
X87451Y25755D01*
X87451Y25188D01*
X86967Y24608D01*
X86494Y24324D01*
X85923Y24514D01*
G37*
%LPD*%
%LPC*%
G36*
X86898Y33519D02*
X86898Y33519D01*
X86850Y35721D01*
X91400Y35721D01*
X91447Y35757D01*
X91442Y35764D01*
X91449Y35770D01*
X91449Y37170D01*
X91446Y37174D01*
X91449Y37177D01*
X91349Y37877D01*
X91336Y37890D01*
X91338Y37901D01*
X90538Y38901D01*
X90528Y38903D01*
X90527Y38911D01*
X89927Y39311D01*
X89912Y39310D01*
X89907Y39319D01*
X89207Y39419D01*
X89202Y39416D01*
X89200Y39419D01*
X88500Y39419D01*
X88491Y39412D01*
X88484Y39417D01*
X87884Y39217D01*
X87879Y39209D01*
X87873Y39211D01*
X87273Y38811D01*
X87270Y38804D01*
X87265Y38805D01*
X86865Y38405D01*
X86863Y38392D01*
X86855Y38390D01*
X86470Y37524D01*
X84266Y37811D01*
X84447Y38354D01*
X84645Y38948D01*
X85041Y39543D01*
X85437Y40136D01*
X85931Y40532D01*
X86427Y40928D01*
X87021Y41225D01*
X87714Y41522D01*
X88304Y41621D01*
X89697Y41621D01*
X90385Y41522D01*
X90978Y41226D01*
X91573Y40928D01*
X92067Y40533D01*
X92562Y40039D01*
X92957Y39445D01*
X93254Y38851D01*
X93651Y37662D01*
X93651Y34477D01*
X93649Y34472D01*
X93635Y34423D01*
X93593Y34275D01*
X93551Y34127D01*
X93537Y34078D01*
X93495Y33930D01*
X93457Y33800D01*
X93084Y33519D01*
X86898Y33519D01*
G37*
%LPD*%
%LPC*%
G36*
X62949Y33395D02*
X62949Y33395D01*
X62918Y33446D01*
X62916Y33445D01*
X62916Y33447D01*
X61719Y33846D01*
X61125Y34143D01*
X60531Y34538D01*
X60037Y35033D01*
X59642Y35527D01*
X59344Y36122D01*
X59048Y36715D01*
X58949Y37407D01*
X58849Y38103D01*
X58849Y38697D01*
X58948Y39390D01*
X59146Y40181D01*
X59440Y40672D01*
X59833Y41162D01*
X60325Y41458D01*
X60341Y41497D01*
X60349Y41504D01*
X60348Y41520D01*
X60351Y41494D01*
X60381Y41463D01*
X60384Y41453D01*
X60976Y41256D01*
X61559Y40770D01*
X61746Y40302D01*
X61256Y39322D01*
X61257Y39317D01*
X61253Y39316D01*
X61053Y38716D01*
X61057Y38705D01*
X61051Y38700D01*
X61051Y38000D01*
X61054Y37995D01*
X61051Y37992D01*
X61151Y37392D01*
X61161Y37383D01*
X61157Y37376D01*
X61557Y36676D01*
X61563Y36673D01*
X61562Y36669D01*
X61962Y36169D01*
X61976Y36166D01*
X61978Y36156D01*
X62578Y35856D01*
X62583Y35857D01*
X62584Y35853D01*
X63184Y35653D01*
X63195Y35657D01*
X63200Y35651D01*
X63900Y35651D01*
X63904Y35654D01*
X63907Y35651D01*
X64607Y35751D01*
X64618Y35762D01*
X64627Y35759D01*
X65227Y36159D01*
X65228Y36162D01*
X65231Y36162D01*
X65731Y36562D01*
X65735Y36578D01*
X65745Y36581D01*
X66045Y37281D01*
X66045Y37283D01*
X66046Y37284D01*
X66047Y37284D01*
X66247Y37884D01*
X66243Y37895D01*
X66249Y37900D01*
X66249Y38600D01*
X66243Y38608D01*
X66247Y38614D01*
X66047Y39314D01*
X66040Y39319D01*
X66042Y39325D01*
X65745Y39821D01*
X65552Y40398D01*
X65741Y40870D01*
X66324Y41356D01*
X66989Y41546D01*
X67465Y41165D01*
X67858Y40673D01*
X68154Y40082D01*
X68352Y39390D01*
X68451Y38697D01*
X68451Y38103D01*
X68351Y37408D01*
X68252Y36814D01*
X67955Y36121D01*
X67658Y35527D01*
X67263Y35033D01*
X66767Y34537D01*
X66274Y34143D01*
X65582Y33846D01*
X64984Y33647D01*
X64392Y33449D01*
X63000Y33449D01*
X62953Y33413D01*
X62956Y33409D01*
X62951Y33407D01*
X62948Y33384D01*
X62949Y33395D01*
G37*
%LPD*%
%LPC*%
G36*
X207263Y163329D02*
X207263Y163329D01*
X206573Y163428D01*
X205882Y163724D01*
X205388Y164020D01*
X204902Y164409D01*
X204713Y164978D01*
X205002Y165652D01*
X205484Y166135D01*
X205950Y166228D01*
X206533Y165839D01*
X206540Y165840D01*
X206542Y165834D01*
X207042Y165634D01*
X207049Y165636D01*
X207052Y165631D01*
X207652Y165531D01*
X207657Y165534D01*
X207660Y165531D01*
X208360Y165531D01*
X208369Y165538D01*
X208376Y165533D01*
X208976Y165733D01*
X208981Y165741D01*
X208987Y165739D01*
X209587Y166139D01*
X209590Y166146D01*
X209595Y166145D01*
X210095Y166645D01*
X210096Y166657D01*
X210104Y166658D01*
X210404Y167258D01*
X210402Y167269D01*
X210409Y167272D01*
X210509Y167872D01*
X210506Y167877D01*
X210509Y167880D01*
X210509Y168680D01*
X210502Y168689D01*
X210507Y168696D01*
X210307Y169296D01*
X210299Y169301D01*
X210301Y169307D01*
X209901Y169907D01*
X209891Y169911D01*
X209891Y169918D01*
X209391Y170318D01*
X209381Y170319D01*
X209379Y170325D01*
X208679Y170625D01*
X208671Y170623D01*
X208668Y170629D01*
X208068Y170729D01*
X208063Y170726D01*
X208060Y170729D01*
X207360Y170729D01*
X207351Y170722D01*
X207344Y170727D01*
X206744Y170527D01*
X206740Y170521D01*
X206736Y170523D01*
X206042Y170126D01*
X205669Y170033D01*
X205096Y170416D01*
X204709Y170995D01*
X204709Y171563D01*
X205094Y172043D01*
X205682Y172435D01*
X206275Y172633D01*
X206970Y172832D01*
X207663Y172931D01*
X208257Y172931D01*
X208949Y172832D01*
X209542Y172634D01*
X210239Y172335D01*
X210831Y172039D01*
X211722Y171149D01*
X212117Y170555D01*
X212414Y169962D01*
X212612Y169269D01*
X212711Y168676D01*
X212711Y167983D01*
X212611Y167287D01*
X212512Y166595D01*
X212216Y166002D01*
X211918Y165407D01*
X211523Y164913D01*
X211029Y164418D01*
X210435Y164023D01*
X209841Y163726D01*
X209245Y163527D01*
X208553Y163329D01*
X207263Y163329D01*
G37*
%LPD*%
%LPC*%
G36*
X117830Y32539D02*
X117830Y32539D01*
X117823Y32537D01*
X117822Y32544D01*
X117222Y32844D01*
X110522Y36144D01*
X109937Y36437D01*
X109649Y37012D01*
X109649Y37686D01*
X109937Y38165D01*
X110525Y38557D01*
X117218Y41854D01*
X117907Y42051D01*
X118380Y42051D01*
X118858Y41572D01*
X119051Y41091D01*
X119051Y40517D01*
X118671Y40042D01*
X118084Y39847D01*
X118082Y39843D01*
X118079Y39845D01*
X113079Y37545D01*
X113073Y37534D01*
X113065Y37535D01*
X112765Y37235D01*
X112765Y37233D01*
X112764Y37233D01*
X112764Y37229D01*
X112757Y37176D01*
X112775Y37173D01*
X112778Y37156D01*
X113378Y36856D01*
X113380Y36856D01*
X113380Y36855D01*
X117979Y34856D01*
X118574Y34558D01*
X118958Y34270D01*
X119147Y33702D01*
X118858Y33028D01*
X118380Y32549D01*
X117900Y32549D01*
X117865Y32523D01*
X117855Y32520D01*
X117843Y32493D01*
X117830Y32539D01*
G37*
%LPD*%
%LPC*%
G36*
X88250Y47336D02*
X88250Y47336D01*
X89518Y47824D01*
X89531Y47846D01*
X89544Y47848D01*
X89744Y48248D01*
X89733Y48306D01*
X89724Y48305D01*
X89722Y48314D01*
X88522Y48914D01*
X88484Y48907D01*
X88473Y48911D01*
X88173Y48711D01*
X88161Y48678D01*
X88151Y48670D01*
X88151Y47403D01*
X86349Y46644D01*
X86349Y49970D01*
X86324Y50003D01*
X86322Y50014D01*
X85122Y50614D01*
X84535Y50908D01*
X84252Y51380D01*
X84347Y51953D01*
X84736Y52634D01*
X85206Y52916D01*
X85781Y52724D01*
X93151Y49239D01*
X93151Y49170D01*
X93170Y49145D01*
X93169Y49132D01*
X93654Y48744D01*
X93750Y48075D01*
X93558Y47499D01*
X93074Y47112D01*
X88294Y44829D01*
X88250Y47336D01*
G37*
%LPD*%
G36*
X92762Y80581D02*
X92762Y80581D01*
X92780Y80597D01*
X92793Y80595D01*
X93393Y81195D01*
X93394Y81206D01*
X93395Y81206D01*
X93394Y81207D01*
X93396Y81218D01*
X93407Y81225D01*
X93507Y82125D01*
X93505Y82128D01*
X93507Y82130D01*
X93507Y89030D01*
X93505Y89033D01*
X93507Y89035D01*
X93407Y90035D01*
X93391Y90052D01*
X93393Y90065D01*
X92793Y90665D01*
X92769Y90668D01*
X92762Y90679D01*
X91562Y90779D01*
X91554Y90774D01*
X91553Y90774D01*
X91548Y90778D01*
X90548Y90578D01*
X90531Y90559D01*
X90518Y90559D01*
X90018Y89859D01*
X90018Y89853D01*
X90016Y89852D01*
X90018Y89849D01*
X90019Y89837D01*
X90009Y89830D01*
X90009Y81530D01*
X90020Y81516D01*
X90015Y81506D01*
X90415Y80806D01*
X90439Y80795D01*
X90444Y80783D01*
X91444Y80483D01*
X91456Y80487D01*
X91462Y80481D01*
X92762Y80581D01*
G37*
%LPC*%
G36*
X161810Y65437D02*
X161810Y65437D01*
X161822Y65471D01*
X161822Y65472D01*
X161805Y65528D01*
X161803Y65528D01*
X161803Y65529D01*
X161509Y65725D01*
X160813Y66520D01*
X160811Y66521D01*
X160811Y66523D01*
X160117Y67216D01*
X159724Y68101D01*
X159625Y69188D01*
X159724Y70175D01*
X160118Y71061D01*
X160810Y71852D01*
X161599Y72444D01*
X162486Y72740D01*
X163478Y72839D01*
X164556Y72839D01*
X165027Y72368D01*
X165027Y66293D01*
X164837Y65437D01*
X161810Y65437D01*
G37*
%LPD*%
%LPC*%
G36*
X113091Y83979D02*
X113091Y83979D01*
X113104Y84012D01*
X113103Y84013D01*
X113104Y84013D01*
X113103Y84015D01*
X113088Y84069D01*
X113085Y84068D01*
X113085Y84071D01*
X112789Y84268D01*
X111994Y85063D01*
X111400Y85757D01*
X111005Y86645D01*
X110808Y87730D01*
X111005Y88715D01*
X111401Y89605D01*
X111993Y90395D01*
X112781Y90985D01*
X113768Y91281D01*
X114760Y91381D01*
X115738Y91381D01*
X116209Y90910D01*
X116209Y84835D01*
X116019Y83979D01*
X113091Y83979D01*
G37*
%LPD*%
G36*
X103732Y98107D02*
X103732Y98107D01*
X103750Y98123D01*
X103763Y98121D01*
X104363Y98721D01*
X104364Y98732D01*
X104365Y98732D01*
X104364Y98733D01*
X104366Y98744D01*
X104377Y98751D01*
X104477Y99651D01*
X104475Y99654D01*
X104477Y99656D01*
X104477Y107556D01*
X104461Y107577D01*
X104463Y107591D01*
X103863Y108191D01*
X103839Y108194D01*
X103832Y108205D01*
X102532Y108305D01*
X102524Y108300D01*
X102523Y108300D01*
X102518Y108304D01*
X101518Y108104D01*
X101499Y108082D01*
X101485Y108080D01*
X101085Y107380D01*
X101086Y107378D01*
X101085Y107378D01*
X101086Y107377D01*
X101088Y107363D01*
X101079Y107356D01*
X101079Y99056D01*
X101087Y99045D01*
X101083Y99037D01*
X101383Y98337D01*
X101409Y98322D01*
X101414Y98309D01*
X102414Y98009D01*
X102426Y98013D01*
X102432Y98007D01*
X103732Y98107D01*
G37*
%LPC*%
G36*
X169849Y24449D02*
X169849Y24449D01*
X169849Y49126D01*
X169942Y49681D01*
X170596Y49681D01*
X171151Y49588D01*
X171151Y24152D01*
X169849Y24449D01*
G37*
%LPD*%
%LPC*%
G36*
X166844Y39067D02*
X166844Y39067D01*
X166749Y39733D01*
X166749Y41730D01*
X166742Y41739D01*
X166747Y41746D01*
X166547Y42346D01*
X166503Y42376D01*
X166500Y42379D01*
X159709Y42379D01*
X159240Y42567D01*
X159049Y43138D01*
X159049Y43913D01*
X159426Y44384D01*
X160103Y44481D01*
X166200Y44481D01*
X166211Y44489D01*
X166218Y44484D01*
X166718Y44684D01*
X166743Y44725D01*
X166749Y44730D01*
X166749Y47410D01*
X167123Y47784D01*
X167795Y47880D01*
X168360Y47692D01*
X168551Y47023D01*
X168551Y40233D01*
X168453Y39353D01*
X168077Y38976D01*
X167405Y38880D01*
X166844Y39067D01*
G37*
%LPD*%
%LPC*%
G36*
X240704Y48441D02*
X240704Y48441D01*
X240108Y48541D01*
X240107Y48540D01*
X240107Y48541D01*
X239411Y48640D01*
X238819Y48838D01*
X238225Y49135D01*
X237631Y49530D01*
X237242Y49920D01*
X236946Y50610D01*
X236748Y51203D01*
X236649Y51895D01*
X236649Y52588D01*
X236747Y53177D01*
X237042Y53765D01*
X237535Y54357D01*
X238028Y54752D01*
X238522Y55048D01*
X239018Y55246D01*
X239046Y55292D01*
X239056Y55271D01*
X239108Y55243D01*
X239111Y55248D01*
X239116Y55245D01*
X239711Y55444D01*
X240403Y55543D01*
X242596Y55543D01*
X243143Y55452D01*
X242759Y53246D01*
X241905Y53341D01*
X241902Y53339D01*
X241900Y53341D01*
X240900Y53341D01*
X240896Y53338D01*
X240894Y53341D01*
X240094Y53241D01*
X240089Y53236D01*
X240084Y53239D01*
X239484Y53039D01*
X239475Y53025D01*
X239465Y53027D01*
X239065Y52627D01*
X239064Y52616D01*
X239064Y52615D01*
X239056Y52614D01*
X238856Y52214D01*
X238859Y52198D01*
X238851Y52192D01*
X238851Y51892D01*
X238856Y51885D01*
X238852Y51880D01*
X238952Y51480D01*
X238967Y51468D01*
X238965Y51457D01*
X239365Y51057D01*
X239381Y51055D01*
X239384Y51045D01*
X239984Y50845D01*
X239987Y50846D01*
X239988Y50844D01*
X240788Y50644D01*
X240796Y50648D01*
X240800Y50643D01*
X241800Y50643D01*
X241803Y50645D01*
X241805Y50643D01*
X242705Y50743D01*
X242710Y50747D01*
X242714Y50745D01*
X243368Y50932D01*
X244065Y48888D01*
X243486Y48640D01*
X242892Y48541D01*
X242197Y48441D01*
X240704Y48441D01*
G37*
%LPD*%
%LPC*%
G36*
X237309Y34941D02*
X237309Y34941D01*
X236840Y35129D01*
X236649Y35700D01*
X236649Y36576D01*
X236930Y36949D01*
X237607Y37143D01*
X238900Y37143D01*
X238926Y37162D01*
X238939Y37162D01*
X239239Y37562D01*
X239239Y37568D01*
X239240Y37568D01*
X239239Y37569D01*
X239239Y37584D01*
X239249Y37592D01*
X239249Y38889D01*
X239348Y39581D01*
X239545Y40170D01*
X239940Y40763D01*
X240337Y41259D01*
X240827Y41749D01*
X241415Y41945D01*
X242107Y42143D01*
X243488Y42143D01*
X244075Y41849D01*
X244671Y41452D01*
X245163Y41058D01*
X245529Y40509D01*
X243609Y39453D01*
X243235Y39827D01*
X243213Y39830D01*
X243207Y39841D01*
X242507Y39941D01*
X242493Y39933D01*
X242484Y39939D01*
X241884Y39739D01*
X241867Y39714D01*
X241854Y39710D01*
X241454Y38710D01*
X241458Y38697D01*
X241451Y38692D01*
X241451Y37392D01*
X241480Y37354D01*
X241482Y37346D01*
X241949Y37159D01*
X241853Y34941D01*
X237309Y34941D01*
G37*
%LPD*%
%LPC*%
G36*
X60103Y43849D02*
X60103Y43849D01*
X59413Y43948D01*
X58945Y44135D01*
X58849Y44803D01*
X58849Y49596D01*
X58945Y50270D01*
X59414Y50551D01*
X60083Y50551D01*
X60554Y50174D01*
X60651Y49497D01*
X60651Y46100D01*
X60687Y46053D01*
X60694Y46058D01*
X60700Y46051D01*
X67296Y46051D01*
X67870Y45955D01*
X68152Y45484D01*
X68250Y44705D01*
X68059Y44133D01*
X67586Y43849D01*
X60103Y43849D01*
G37*
%LPD*%
%LPC*%
G36*
X30354Y164669D02*
X30354Y164669D01*
X29781Y164765D01*
X29499Y165234D01*
X29499Y166000D01*
X29873Y166374D01*
X30553Y166471D01*
X33250Y166471D01*
X33269Y166485D01*
X33282Y166482D01*
X33882Y166982D01*
X33888Y167011D01*
X33899Y167019D01*
X33999Y173115D01*
X34096Y173693D01*
X34567Y174071D01*
X35441Y174071D01*
X35911Y173883D01*
X36101Y173312D01*
X36101Y165136D01*
X35823Y164766D01*
X35147Y164669D01*
X30354Y164669D01*
G37*
%LPD*%
%LPC*%
G36*
X216351Y35019D02*
X216351Y35019D01*
X216447Y37221D01*
X218400Y37221D01*
X218447Y37257D01*
X218442Y37264D01*
X218449Y37270D01*
X218449Y38670D01*
X218446Y38675D01*
X218449Y38678D01*
X218349Y39278D01*
X218338Y39288D01*
X218341Y39297D01*
X217941Y39897D01*
X217920Y39905D01*
X217916Y39917D01*
X217316Y40117D01*
X217296Y40110D01*
X217286Y40117D01*
X216586Y39917D01*
X216574Y39900D01*
X216562Y39901D01*
X216184Y39428D01*
X214069Y40197D01*
X214341Y40741D01*
X214835Y41235D01*
X214835Y41239D01*
X214838Y41239D01*
X215231Y41730D01*
X215918Y42024D01*
X216511Y42222D01*
X217203Y42321D01*
X217890Y42321D01*
X218579Y42025D01*
X219171Y41729D01*
X219663Y41237D01*
X220058Y40743D01*
X220354Y40151D01*
X220552Y39559D01*
X220651Y38867D01*
X220651Y36173D01*
X220553Y35393D01*
X220180Y35019D01*
X216351Y35019D01*
G37*
%LPD*%
%LPC*%
G36*
X190851Y34889D02*
X190851Y34889D01*
X190947Y37091D01*
X192900Y37091D01*
X192947Y37127D01*
X192945Y37130D01*
X192949Y37132D01*
X193049Y37732D01*
X193046Y37737D01*
X193049Y37740D01*
X193049Y39040D01*
X193037Y39056D01*
X193041Y39067D01*
X192641Y39667D01*
X192620Y39675D01*
X192616Y39687D01*
X192016Y39887D01*
X192005Y39883D01*
X192000Y39889D01*
X191300Y39889D01*
X191275Y39870D01*
X191262Y39871D01*
X190887Y39403D01*
X188971Y40457D01*
X189338Y41009D01*
X189831Y41501D01*
X190322Y41796D01*
X191014Y42092D01*
X191604Y42191D01*
X192293Y42191D01*
X192986Y41993D01*
X193042Y42014D01*
X193039Y42021D01*
X193046Y42023D01*
X193055Y42048D01*
X193073Y42000D01*
X193073Y41999D01*
X193671Y41600D01*
X194165Y41205D01*
X194560Y40711D01*
X194955Y40118D01*
X195152Y39529D01*
X195251Y38837D01*
X195251Y36143D01*
X195153Y35359D01*
X194872Y34985D01*
X194296Y34889D01*
X190851Y34889D01*
G37*
%LPD*%
%LPC*%
G36*
X217128Y48612D02*
X217128Y48612D01*
X216545Y49194D01*
X216452Y49663D01*
X216744Y50248D01*
X216743Y50252D01*
X216746Y50254D01*
X216742Y50260D01*
X216739Y50274D01*
X216747Y50286D01*
X216647Y50586D01*
X216603Y50616D01*
X216600Y50619D01*
X212503Y50619D01*
X211817Y50717D01*
X211345Y51001D01*
X211249Y51574D01*
X211249Y52450D01*
X211620Y52821D01*
X220370Y52821D01*
X220651Y52258D01*
X220651Y51584D01*
X220359Y51098D01*
X220062Y50702D01*
X218170Y48710D01*
X217598Y48424D01*
X217128Y48612D01*
G37*
%LPD*%
%LPC*%
G36*
X89392Y65535D02*
X89392Y65535D01*
X89390Y65534D01*
X89390Y65535D01*
X88706Y65731D01*
X88219Y66413D01*
X87824Y67300D01*
X87725Y68590D01*
X87725Y70086D01*
X87825Y71377D01*
X88219Y72362D01*
X88707Y72949D01*
X89288Y73239D01*
X90061Y73239D01*
X90641Y72852D01*
X91131Y72167D01*
X91427Y71080D01*
X91527Y69686D01*
X91527Y68194D01*
X91229Y67002D01*
X90934Y66117D01*
X90352Y65632D01*
X89677Y65440D01*
X89392Y65535D01*
G37*
%LPD*%
%LPC*%
G36*
X237944Y57613D02*
X237944Y57613D01*
X237906Y57633D01*
X237900Y57641D01*
X237320Y57641D01*
X236942Y58020D01*
X236651Y58698D01*
X236745Y59262D01*
X237723Y59849D01*
X245621Y63547D01*
X245649Y63600D01*
X245642Y63604D01*
X245646Y63610D01*
X245630Y63649D01*
X246307Y63843D01*
X246777Y63843D01*
X247256Y63268D01*
X247447Y62599D01*
X247163Y62127D01*
X246576Y61735D01*
X238579Y57937D01*
X238579Y57936D01*
X238578Y57936D01*
X237978Y57636D01*
X237955Y57590D01*
X237944Y57613D01*
G37*
%LPD*%
%LPC*%
G36*
X244553Y66441D02*
X244553Y66441D01*
X243654Y68690D01*
X243844Y69070D01*
X243841Y69084D01*
X243847Y69088D01*
X243846Y69090D01*
X243849Y69092D01*
X243849Y70492D01*
X243840Y70505D01*
X243844Y70514D01*
X243544Y71114D01*
X243524Y71124D01*
X243522Y71136D01*
X242922Y71436D01*
X242906Y71433D01*
X242900Y71441D01*
X242200Y71441D01*
X242182Y71427D01*
X242169Y71430D01*
X241669Y71030D01*
X241666Y71016D01*
X241656Y71014D01*
X241475Y70652D01*
X239462Y71323D01*
X239645Y71870D01*
X240038Y72461D01*
X240531Y72954D01*
X241122Y73347D01*
X241711Y73544D01*
X242403Y73643D01*
X243096Y73643D01*
X243692Y73543D01*
X243745Y73571D01*
X243741Y73578D01*
X243748Y73581D01*
X243753Y73602D01*
X243776Y73549D01*
X243778Y73550D01*
X243778Y73548D01*
X244373Y73250D01*
X244865Y72857D01*
X245358Y72265D01*
X245656Y71670D01*
X245953Y71077D01*
X246051Y70488D01*
X246051Y67006D01*
X245770Y66537D01*
X245196Y66441D01*
X244553Y66441D01*
G37*
%LPD*%
%LPC*%
G36*
X237120Y66441D02*
X237120Y66441D01*
X236747Y66815D01*
X236650Y67592D01*
X236745Y68262D01*
X237217Y68545D01*
X237903Y68643D01*
X239200Y68643D01*
X239247Y68679D01*
X239242Y68686D01*
X239249Y68692D01*
X239249Y70684D01*
X239431Y71230D01*
X241451Y70557D01*
X241451Y69292D01*
X241454Y69287D01*
X241451Y69284D01*
X241551Y68684D01*
X241595Y68643D01*
X241598Y68646D01*
X241600Y68643D01*
X243566Y68643D01*
X244430Y66441D01*
X237120Y66441D01*
G37*
%LPD*%
%LPC*%
G36*
X244928Y44333D02*
X244928Y44333D01*
X244911Y44327D01*
X244900Y44341D01*
X237405Y44341D01*
X236931Y44436D01*
X236649Y44906D01*
X236649Y45784D01*
X236839Y46353D01*
X237408Y46543D01*
X244897Y46543D01*
X245581Y46445D01*
X245954Y46165D01*
X246050Y45392D01*
X245954Y44622D01*
X245486Y44341D01*
X245000Y44341D01*
X244960Y44311D01*
X244954Y44309D01*
X244944Y44284D01*
X244928Y44333D01*
G37*
%LPD*%
%LPC*%
G36*
X212304Y44419D02*
X212304Y44419D01*
X211720Y44517D01*
X211346Y44797D01*
X211250Y45570D01*
X211346Y46340D01*
X211814Y46621D01*
X219892Y46621D01*
X220461Y46431D01*
X220651Y45862D01*
X220651Y44986D01*
X220370Y44612D01*
X219792Y44419D01*
X212304Y44419D01*
G37*
%LPD*%
%LPC*%
G36*
X224576Y163329D02*
X224576Y163329D01*
X224202Y163610D01*
X224007Y164196D01*
X223976Y164217D01*
X223971Y164228D01*
X223953Y164232D01*
X223956Y164234D01*
X223960Y164234D01*
X223969Y164241D01*
X224005Y164259D01*
X224002Y164265D01*
X224007Y164269D01*
X224003Y164275D01*
X224009Y164280D01*
X224009Y171677D01*
X224105Y172350D01*
X224576Y172632D01*
X225356Y172730D01*
X226023Y172539D01*
X226211Y172071D01*
X226211Y163989D01*
X226023Y163520D01*
X225452Y163329D01*
X224576Y163329D01*
G37*
%LPD*%
%LPC*%
G36*
X160403Y24479D02*
X160403Y24479D01*
X159713Y24578D01*
X159240Y24767D01*
X159050Y25335D01*
X159147Y26211D01*
X159428Y26585D01*
X160004Y26681D01*
X167496Y26681D01*
X168076Y26584D01*
X168451Y26210D01*
X168451Y25334D01*
X168356Y24768D01*
X168311Y24778D01*
X168287Y24767D01*
X168275Y24772D01*
X167786Y24479D01*
X160403Y24479D01*
G37*
%LPD*%
%LPC*%
G36*
X186804Y34889D02*
X186804Y34889D01*
X186224Y34986D01*
X185849Y35360D01*
X185849Y36137D01*
X185944Y36803D01*
X186512Y36992D01*
X187104Y37091D01*
X187800Y37091D01*
X187805Y37094D01*
X187808Y37091D01*
X188408Y37191D01*
X188449Y37235D01*
X188446Y37238D01*
X188449Y37240D01*
X188449Y39232D01*
X188646Y39821D01*
X188921Y40371D01*
X190743Y39316D01*
X190652Y38952D01*
X190656Y38944D01*
X190651Y38940D01*
X190651Y37640D01*
X190659Y37629D01*
X190654Y37622D01*
X190850Y37132D01*
X190704Y34889D01*
X186804Y34889D01*
G37*
%LPD*%
%LPC*%
G36*
X212104Y35019D02*
X212104Y35019D01*
X211531Y35115D01*
X211249Y35584D01*
X211249Y36462D01*
X211439Y37031D01*
X212008Y37221D01*
X213300Y37221D01*
X213311Y37229D01*
X213318Y37224D01*
X213818Y37424D01*
X213843Y37465D01*
X213849Y37470D01*
X213849Y38866D01*
X213949Y39462D01*
X214039Y40006D01*
X216141Y39337D01*
X216052Y38982D01*
X216056Y38974D01*
X216051Y38970D01*
X216051Y37670D01*
X216064Y37652D01*
X216061Y37640D01*
X216350Y37255D01*
X216253Y35019D01*
X212104Y35019D01*
G37*
%LPD*%
%LPC*%
G36*
X241951Y34941D02*
X241951Y34941D01*
X242047Y37143D01*
X243300Y37143D01*
X243311Y37151D01*
X243318Y37146D01*
X243818Y37346D01*
X243843Y37387D01*
X243849Y37392D01*
X243849Y38692D01*
X243846Y38697D01*
X243849Y38700D01*
X243754Y39268D01*
X245580Y40421D01*
X245854Y39874D01*
X246051Y39185D01*
X246051Y35799D01*
X246043Y35773D01*
X246029Y35724D01*
X245987Y35576D01*
X245945Y35428D01*
X245931Y35379D01*
X245889Y35231D01*
X245859Y35129D01*
X245391Y34941D01*
X241951Y34941D01*
G37*
%LPD*%
%LPC*%
G36*
X243459Y50970D02*
X243459Y50970D01*
X243925Y51250D01*
X243933Y51268D01*
X243944Y51270D01*
X244144Y51670D01*
X244141Y51686D01*
X244149Y51692D01*
X244149Y52292D01*
X244140Y52305D01*
X244144Y52314D01*
X243944Y52714D01*
X243930Y52721D01*
X243930Y52731D01*
X243530Y53031D01*
X243517Y53031D01*
X243514Y53039D01*
X242856Y53227D01*
X243239Y55430D01*
X243882Y55246D01*
X244478Y54948D01*
X245073Y54650D01*
X245563Y54258D01*
X245957Y53667D01*
X246253Y53077D01*
X246351Y52488D01*
X246351Y51696D01*
X246252Y51104D01*
X246054Y50511D01*
X245761Y49924D01*
X245272Y49532D01*
X244777Y49235D01*
X244179Y48937D01*
X244156Y48927D01*
X243459Y50970D01*
G37*
%LPD*%
%LPC*%
G36*
X169069Y84078D02*
X169069Y84078D01*
X168188Y84372D01*
X167604Y85150D01*
X167409Y86224D01*
X167798Y87098D01*
X168577Y87682D01*
X169548Y87779D01*
X170426Y87291D01*
X171010Y86610D01*
X171108Y85440D01*
X170719Y84662D01*
X169928Y84069D01*
X169922Y84047D01*
X169912Y84040D01*
X169918Y84033D01*
X169912Y84012D01*
X169917Y84011D01*
X169915Y84006D01*
X169928Y83983D01*
X169069Y84078D01*
G37*
%LPD*%
%LPC*%
G36*
X144169Y84078D02*
X144169Y84078D01*
X143288Y84372D01*
X142706Y85148D01*
X142608Y86224D01*
X142900Y87100D01*
X143677Y87682D01*
X144648Y87779D01*
X145526Y87291D01*
X146110Y86610D01*
X146208Y85440D01*
X145819Y84662D01*
X145028Y84069D01*
X145022Y84047D01*
X145012Y84040D01*
X145018Y84033D01*
X145012Y84012D01*
X145017Y84011D01*
X145015Y84006D01*
X145028Y83983D01*
X144169Y84078D01*
G37*
%LPD*%
G36*
X92663Y92281D02*
X92663Y92281D01*
X92680Y92297D01*
X92693Y92295D01*
X93393Y92995D01*
X93396Y93018D01*
X93407Y93025D01*
X93507Y94025D01*
X93501Y94035D01*
X93506Y94041D01*
X93306Y94941D01*
X93289Y94955D01*
X93290Y94968D01*
X92690Y95468D01*
X92668Y95469D01*
X92662Y95479D01*
X91362Y95579D01*
X91361Y95579D01*
X91357Y95579D01*
X91349Y95573D01*
X91344Y95577D01*
X90344Y95277D01*
X90325Y95251D01*
X90312Y95247D01*
X90012Y94447D01*
X90016Y94435D01*
X90009Y94430D01*
X90009Y93330D01*
X90016Y93321D01*
X90011Y93314D01*
X90311Y92414D01*
X90338Y92396D01*
X90342Y92383D01*
X90642Y92283D01*
X90650Y92286D01*
X90653Y92281D01*
X91653Y92181D01*
X91659Y92185D01*
X91663Y92181D01*
X92663Y92281D01*
G37*
G36*
X103732Y109807D02*
X103732Y109807D01*
X103750Y109823D01*
X103763Y109821D01*
X104463Y110521D01*
X104467Y110548D01*
X104477Y110556D01*
X104477Y111556D01*
X104475Y111559D01*
X104477Y111561D01*
X104377Y112461D01*
X104359Y112480D01*
X104360Y112494D01*
X103760Y112994D01*
X103738Y112995D01*
X103732Y113005D01*
X102332Y113105D01*
X102331Y113105D01*
X102327Y113105D01*
X102319Y113098D01*
X102312Y113103D01*
X101412Y112803D01*
X101395Y112777D01*
X101382Y112773D01*
X101082Y111973D01*
X101086Y111961D01*
X101079Y111956D01*
X101079Y110856D01*
X101086Y110847D01*
X101081Y110840D01*
X101381Y109940D01*
X101408Y109922D01*
X101412Y109909D01*
X101712Y109809D01*
X101720Y109812D01*
X101723Y109807D01*
X102623Y109707D01*
X102629Y109711D01*
X102632Y109707D01*
X103732Y109807D01*
G37*
%LPC*%
G36*
X84909Y33519D02*
X84909Y33519D01*
X84440Y33707D01*
X84249Y34278D01*
X84249Y37714D01*
X86451Y37427D01*
X86451Y36170D01*
X86460Y36157D01*
X86456Y36148D01*
X86651Y35758D01*
X86700Y33519D01*
X84909Y33519D01*
G37*
%LPD*%
%LPC*%
G36*
X84638Y43803D02*
X84638Y43803D01*
X84249Y44483D01*
X84249Y45053D01*
X84631Y45530D01*
X85921Y46125D01*
X85927Y46136D01*
X85935Y46135D01*
X86328Y46528D01*
X88152Y47296D01*
X88196Y44782D01*
X86379Y43914D01*
X86378Y43912D01*
X86376Y43913D01*
X85683Y43517D01*
X85114Y43422D01*
X84638Y43803D01*
G37*
%LPD*%
%LPC*%
G36*
X136648Y101703D02*
X136648Y101703D01*
X135971Y102284D01*
X135680Y103255D01*
X135970Y104128D01*
X136749Y104809D01*
X137716Y104905D01*
X138491Y104421D01*
X138980Y103541D01*
X139077Y102574D01*
X138500Y101997D01*
X137620Y101606D01*
X136648Y101703D01*
G37*
%LPD*%
%LPC*%
G36*
X122563Y102194D02*
X122563Y102194D01*
X122079Y103066D01*
X122175Y104036D01*
X122756Y104713D01*
X123728Y105005D01*
X124700Y104713D01*
X125279Y104038D01*
X125279Y103561D01*
X125083Y102580D01*
X124406Y101903D01*
X123436Y101806D01*
X122563Y102194D01*
G37*
%LPD*%
%LPC*%
G36*
X102986Y65337D02*
X102986Y65337D01*
X102110Y65727D01*
X101628Y66498D01*
X101821Y67462D01*
X102498Y68042D01*
X103570Y68237D01*
X104442Y67849D01*
X104924Y67079D01*
X104730Y66111D01*
X104054Y65337D01*
X102986Y65337D01*
G37*
%LPD*%
%LPC*%
G36*
X102196Y71933D02*
X102196Y71933D01*
X102183Y71930D01*
X102207Y71950D01*
X102211Y71965D01*
X102221Y71972D01*
X102216Y71978D01*
X102225Y71984D01*
X102323Y73155D01*
X103179Y73536D01*
X104141Y73247D01*
X104520Y72489D01*
X104045Y71634D01*
X103084Y71538D01*
X102196Y71933D01*
G37*
%LPD*%
%LPC*%
G36*
X66271Y86579D02*
X66271Y86579D01*
X65620Y86952D01*
X65994Y87888D01*
X66856Y88079D01*
X67830Y87787D01*
X68501Y87020D01*
X68325Y86579D01*
X66271Y86579D01*
G37*
%LPD*%
%LPC*%
G36*
X145252Y68137D02*
X145252Y68137D01*
X145620Y68967D01*
X146467Y70660D01*
X146529Y70472D01*
X146533Y70470D01*
X146532Y70467D01*
X147420Y68591D01*
X147148Y68137D01*
X145252Y68137D01*
G37*
%LPD*%
%LPC*%
G36*
X170309Y23979D02*
X170309Y23979D01*
X169849Y24163D01*
X169849Y24335D01*
X171151Y24046D01*
X171151Y23979D01*
X170309Y23979D01*
G37*
%LPD*%
%LPC*%
G36*
X239039Y55303D02*
X239039Y55303D01*
X239040Y55304D01*
X239040Y55302D01*
X239039Y55303D01*
G37*
%LPD*%
D10*
X11557Y176530D02*
X26797Y176530D01*
X6985Y192278D02*
X6987Y192411D01*
X6993Y192544D01*
X7002Y192676D01*
X7016Y192809D01*
X7033Y192941D01*
X7054Y193072D01*
X7079Y193203D01*
X7108Y193332D01*
X7141Y193461D01*
X7177Y193589D01*
X7217Y193716D01*
X7261Y193842D01*
X7308Y193966D01*
X7359Y194089D01*
X7413Y194210D01*
X7471Y194330D01*
X7533Y194448D01*
X7598Y194564D01*
X7666Y194678D01*
X7737Y194790D01*
X7812Y194900D01*
X7890Y195008D01*
X7971Y195114D01*
X8055Y195217D01*
X8142Y195317D01*
X8231Y195415D01*
X8324Y195511D01*
X8420Y195604D01*
X8518Y195693D01*
X8618Y195780D01*
X8721Y195864D01*
X8827Y195945D01*
X8935Y196023D01*
X9045Y196098D01*
X9157Y196169D01*
X9271Y196237D01*
X9387Y196302D01*
X9505Y196364D01*
X9625Y196422D01*
X9746Y196476D01*
X9869Y196527D01*
X9993Y196574D01*
X10119Y196618D01*
X10246Y196658D01*
X10374Y196694D01*
X10503Y196727D01*
X10632Y196756D01*
X10763Y196781D01*
X10894Y196802D01*
X11026Y196819D01*
X11159Y196833D01*
X11291Y196842D01*
X11424Y196848D01*
X11557Y196850D01*
X26797Y196850D02*
X26930Y196848D01*
X27063Y196842D01*
X27195Y196833D01*
X27328Y196819D01*
X27460Y196802D01*
X27591Y196781D01*
X27722Y196756D01*
X27851Y196727D01*
X27980Y196694D01*
X28108Y196658D01*
X28235Y196618D01*
X28361Y196574D01*
X28485Y196527D01*
X28608Y196476D01*
X28729Y196422D01*
X28849Y196364D01*
X28967Y196302D01*
X29083Y196237D01*
X29197Y196169D01*
X29309Y196098D01*
X29419Y196023D01*
X29527Y195945D01*
X29633Y195864D01*
X29736Y195780D01*
X29836Y195693D01*
X29934Y195604D01*
X30030Y195511D01*
X30123Y195415D01*
X30212Y195317D01*
X30299Y195217D01*
X30383Y195114D01*
X30464Y195008D01*
X30542Y194900D01*
X30617Y194790D01*
X30688Y194678D01*
X30756Y194564D01*
X30821Y194448D01*
X30883Y194330D01*
X30941Y194210D01*
X30995Y194089D01*
X31046Y193966D01*
X31093Y193842D01*
X31137Y193716D01*
X31177Y193589D01*
X31213Y193461D01*
X31246Y193332D01*
X31275Y193203D01*
X31300Y193072D01*
X31321Y192941D01*
X31338Y192809D01*
X31352Y192676D01*
X31361Y192544D01*
X31367Y192411D01*
X31369Y192278D01*
X31369Y181102D02*
X31367Y180969D01*
X31361Y180836D01*
X31352Y180704D01*
X31338Y180571D01*
X31321Y180439D01*
X31300Y180308D01*
X31275Y180177D01*
X31246Y180048D01*
X31213Y179919D01*
X31177Y179791D01*
X31137Y179664D01*
X31093Y179538D01*
X31046Y179414D01*
X30995Y179291D01*
X30941Y179170D01*
X30883Y179050D01*
X30821Y178932D01*
X30756Y178816D01*
X30688Y178702D01*
X30617Y178590D01*
X30542Y178480D01*
X30464Y178372D01*
X30383Y178266D01*
X30299Y178163D01*
X30212Y178063D01*
X30123Y177965D01*
X30030Y177869D01*
X29934Y177776D01*
X29836Y177687D01*
X29736Y177600D01*
X29633Y177516D01*
X29527Y177435D01*
X29419Y177357D01*
X29309Y177282D01*
X29197Y177211D01*
X29083Y177143D01*
X28967Y177078D01*
X28849Y177016D01*
X28729Y176958D01*
X28608Y176904D01*
X28485Y176853D01*
X28361Y176806D01*
X28235Y176762D01*
X28108Y176722D01*
X27980Y176686D01*
X27851Y176653D01*
X27722Y176624D01*
X27591Y176599D01*
X27460Y176578D01*
X27328Y176561D01*
X27195Y176547D01*
X27063Y176538D01*
X26930Y176532D01*
X26797Y176530D01*
X11557Y176530D02*
X11424Y176532D01*
X11291Y176538D01*
X11159Y176547D01*
X11026Y176561D01*
X10894Y176578D01*
X10763Y176599D01*
X10632Y176624D01*
X10503Y176653D01*
X10374Y176686D01*
X10246Y176722D01*
X10119Y176762D01*
X9993Y176806D01*
X9869Y176853D01*
X9746Y176904D01*
X9625Y176958D01*
X9505Y177016D01*
X9387Y177078D01*
X9271Y177143D01*
X9157Y177211D01*
X9045Y177282D01*
X8935Y177357D01*
X8827Y177435D01*
X8721Y177516D01*
X8618Y177600D01*
X8518Y177687D01*
X8420Y177776D01*
X8324Y177869D01*
X8231Y177965D01*
X8142Y178063D01*
X8055Y178163D01*
X7971Y178266D01*
X7890Y178372D01*
X7812Y178480D01*
X7737Y178590D01*
X7666Y178702D01*
X7598Y178816D01*
X7533Y178932D01*
X7471Y179050D01*
X7413Y179170D01*
X7359Y179291D01*
X7308Y179414D01*
X7261Y179538D01*
X7217Y179664D01*
X7177Y179791D01*
X7141Y179919D01*
X7108Y180048D01*
X7079Y180177D01*
X7054Y180308D01*
X7033Y180439D01*
X7016Y180571D01*
X7002Y180704D01*
X6993Y180836D01*
X6987Y180969D01*
X6985Y181102D01*
X6985Y192278D01*
X31369Y192278D02*
X31369Y181102D01*
X26797Y196850D02*
X11557Y196850D01*
X201676Y195580D02*
X227076Y195580D01*
X231648Y179832D02*
X231646Y179699D01*
X231640Y179566D01*
X231631Y179434D01*
X231617Y179301D01*
X231600Y179169D01*
X231579Y179038D01*
X231554Y178907D01*
X231525Y178778D01*
X231492Y178649D01*
X231456Y178521D01*
X231416Y178394D01*
X231372Y178268D01*
X231325Y178144D01*
X231274Y178021D01*
X231220Y177900D01*
X231162Y177780D01*
X231100Y177662D01*
X231035Y177546D01*
X230967Y177432D01*
X230896Y177320D01*
X230821Y177210D01*
X230743Y177102D01*
X230662Y176996D01*
X230578Y176893D01*
X230491Y176793D01*
X230402Y176695D01*
X230309Y176599D01*
X230213Y176506D01*
X230115Y176417D01*
X230015Y176330D01*
X229912Y176246D01*
X229806Y176165D01*
X229698Y176087D01*
X229588Y176012D01*
X229476Y175941D01*
X229362Y175873D01*
X229246Y175808D01*
X229128Y175746D01*
X229008Y175688D01*
X228887Y175634D01*
X228764Y175583D01*
X228640Y175536D01*
X228514Y175492D01*
X228387Y175452D01*
X228259Y175416D01*
X228130Y175383D01*
X228001Y175354D01*
X227870Y175329D01*
X227739Y175308D01*
X227607Y175291D01*
X227474Y175277D01*
X227342Y175268D01*
X227209Y175262D01*
X227076Y175260D01*
X201676Y175260D02*
X201543Y175262D01*
X201410Y175268D01*
X201278Y175277D01*
X201145Y175291D01*
X201013Y175308D01*
X200882Y175329D01*
X200751Y175354D01*
X200622Y175383D01*
X200493Y175416D01*
X200365Y175452D01*
X200238Y175492D01*
X200112Y175536D01*
X199988Y175583D01*
X199865Y175634D01*
X199744Y175688D01*
X199624Y175746D01*
X199506Y175808D01*
X199390Y175873D01*
X199276Y175941D01*
X199164Y176012D01*
X199054Y176087D01*
X198946Y176165D01*
X198840Y176246D01*
X198737Y176330D01*
X198637Y176417D01*
X198539Y176506D01*
X198443Y176599D01*
X198350Y176695D01*
X198261Y176793D01*
X198174Y176893D01*
X198090Y176996D01*
X198009Y177102D01*
X197931Y177210D01*
X197856Y177320D01*
X197785Y177432D01*
X197717Y177546D01*
X197652Y177662D01*
X197590Y177780D01*
X197532Y177900D01*
X197478Y178021D01*
X197427Y178144D01*
X197380Y178268D01*
X197336Y178394D01*
X197296Y178521D01*
X197260Y178649D01*
X197227Y178778D01*
X197198Y178907D01*
X197173Y179038D01*
X197152Y179169D01*
X197135Y179301D01*
X197121Y179434D01*
X197112Y179566D01*
X197106Y179699D01*
X197104Y179832D01*
X197104Y191008D02*
X197106Y191141D01*
X197112Y191274D01*
X197121Y191406D01*
X197135Y191539D01*
X197152Y191671D01*
X197173Y191802D01*
X197198Y191933D01*
X197227Y192062D01*
X197260Y192191D01*
X197296Y192319D01*
X197336Y192446D01*
X197380Y192572D01*
X197427Y192696D01*
X197478Y192819D01*
X197532Y192940D01*
X197590Y193060D01*
X197652Y193178D01*
X197717Y193294D01*
X197785Y193408D01*
X197856Y193520D01*
X197931Y193630D01*
X198009Y193738D01*
X198090Y193844D01*
X198174Y193947D01*
X198261Y194047D01*
X198350Y194145D01*
X198443Y194241D01*
X198539Y194334D01*
X198637Y194423D01*
X198737Y194510D01*
X198840Y194594D01*
X198946Y194675D01*
X199054Y194753D01*
X199164Y194828D01*
X199276Y194899D01*
X199390Y194967D01*
X199506Y195032D01*
X199624Y195094D01*
X199744Y195152D01*
X199865Y195206D01*
X199988Y195257D01*
X200112Y195304D01*
X200238Y195348D01*
X200365Y195388D01*
X200493Y195424D01*
X200622Y195457D01*
X200751Y195486D01*
X200882Y195511D01*
X201013Y195532D01*
X201145Y195549D01*
X201278Y195563D01*
X201410Y195572D01*
X201543Y195578D01*
X201676Y195580D01*
X227076Y195580D02*
X227209Y195578D01*
X227342Y195572D01*
X227474Y195563D01*
X227607Y195549D01*
X227739Y195532D01*
X227870Y195511D01*
X228001Y195486D01*
X228130Y195457D01*
X228259Y195424D01*
X228387Y195388D01*
X228514Y195348D01*
X228640Y195304D01*
X228764Y195257D01*
X228887Y195206D01*
X229008Y195152D01*
X229128Y195094D01*
X229246Y195032D01*
X229362Y194967D01*
X229476Y194899D01*
X229588Y194828D01*
X229698Y194753D01*
X229806Y194675D01*
X229912Y194594D01*
X230015Y194510D01*
X230115Y194423D01*
X230213Y194334D01*
X230309Y194241D01*
X230402Y194145D01*
X230491Y194047D01*
X230578Y193947D01*
X230662Y193844D01*
X230743Y193738D01*
X230821Y193630D01*
X230896Y193520D01*
X230967Y193408D01*
X231035Y193294D01*
X231100Y193178D01*
X231162Y193060D01*
X231220Y192940D01*
X231274Y192819D01*
X231325Y192696D01*
X231372Y192572D01*
X231416Y192446D01*
X231456Y192319D01*
X231492Y192191D01*
X231525Y192062D01*
X231554Y191933D01*
X231579Y191802D01*
X231600Y191671D01*
X231617Y191539D01*
X231631Y191406D01*
X231640Y191274D01*
X231646Y191141D01*
X231648Y191008D01*
X231648Y179832D01*
X197104Y179832D02*
X197104Y191008D01*
X201676Y175260D02*
X227076Y175260D01*
M02*
