G04 EAGLE Gerber RS-274X export*
G75*
%MOMM*%
%FSLAX34Y34*%
%LPD*%
%IN*%
%IPPOS*%
%AMOC8*
5,1,8,0,0,1.08239X$1,22.5*%
G01*
%ADD10C,0.203200*%
%ADD11C,0.000000*%
%ADD12C,0.100000*%
%ADD13C,0.076200*%
%ADD14C,0.254000*%


D10*
X0Y254000D02*
X0Y0D01*
X254000Y0D01*
X254000Y254000D01*
X76200Y254000D02*
X0Y254000D01*
X76200Y254000D02*
X88900Y237490D01*
X165100Y237490D01*
X177800Y254000D01*
X254000Y254000D01*
D11*
X213360Y228600D02*
X213365Y228974D01*
X213378Y229348D01*
X213401Y229721D01*
X213433Y230094D01*
X213475Y230466D01*
X213525Y230836D01*
X213584Y231205D01*
X213653Y231573D01*
X213730Y231939D01*
X213817Y232303D01*
X213912Y232665D01*
X214016Y233024D01*
X214129Y233381D01*
X214251Y233734D01*
X214381Y234085D01*
X214520Y234432D01*
X214667Y234776D01*
X214823Y235116D01*
X214987Y235452D01*
X215160Y235784D01*
X215340Y236112D01*
X215528Y236435D01*
X215724Y236753D01*
X215928Y237067D01*
X216140Y237375D01*
X216359Y237678D01*
X216586Y237976D01*
X216819Y238268D01*
X217060Y238554D01*
X217308Y238835D01*
X217562Y239109D01*
X217824Y239376D01*
X218091Y239638D01*
X218365Y239892D01*
X218646Y240140D01*
X218932Y240381D01*
X219224Y240614D01*
X219522Y240841D01*
X219825Y241060D01*
X220133Y241272D01*
X220447Y241476D01*
X220765Y241672D01*
X221088Y241860D01*
X221416Y242040D01*
X221748Y242213D01*
X222084Y242377D01*
X222424Y242533D01*
X222768Y242680D01*
X223115Y242819D01*
X223466Y242949D01*
X223819Y243071D01*
X224176Y243184D01*
X224535Y243288D01*
X224897Y243383D01*
X225261Y243470D01*
X225627Y243547D01*
X225995Y243616D01*
X226364Y243675D01*
X226734Y243725D01*
X227106Y243767D01*
X227479Y243799D01*
X227852Y243822D01*
X228226Y243835D01*
X228600Y243840D01*
X228974Y243835D01*
X229348Y243822D01*
X229721Y243799D01*
X230094Y243767D01*
X230466Y243725D01*
X230836Y243675D01*
X231205Y243616D01*
X231573Y243547D01*
X231939Y243470D01*
X232303Y243383D01*
X232665Y243288D01*
X233024Y243184D01*
X233381Y243071D01*
X233734Y242949D01*
X234085Y242819D01*
X234432Y242680D01*
X234776Y242533D01*
X235116Y242377D01*
X235452Y242213D01*
X235784Y242040D01*
X236112Y241860D01*
X236435Y241672D01*
X236753Y241476D01*
X237067Y241272D01*
X237375Y241060D01*
X237678Y240841D01*
X237976Y240614D01*
X238268Y240381D01*
X238554Y240140D01*
X238835Y239892D01*
X239109Y239638D01*
X239376Y239376D01*
X239638Y239109D01*
X239892Y238835D01*
X240140Y238554D01*
X240381Y238268D01*
X240614Y237976D01*
X240841Y237678D01*
X241060Y237375D01*
X241272Y237067D01*
X241476Y236753D01*
X241672Y236435D01*
X241860Y236112D01*
X242040Y235784D01*
X242213Y235452D01*
X242377Y235116D01*
X242533Y234776D01*
X242680Y234432D01*
X242819Y234085D01*
X242949Y233734D01*
X243071Y233381D01*
X243184Y233024D01*
X243288Y232665D01*
X243383Y232303D01*
X243470Y231939D01*
X243547Y231573D01*
X243616Y231205D01*
X243675Y230836D01*
X243725Y230466D01*
X243767Y230094D01*
X243799Y229721D01*
X243822Y229348D01*
X243835Y228974D01*
X243840Y228600D01*
X243835Y228226D01*
X243822Y227852D01*
X243799Y227479D01*
X243767Y227106D01*
X243725Y226734D01*
X243675Y226364D01*
X243616Y225995D01*
X243547Y225627D01*
X243470Y225261D01*
X243383Y224897D01*
X243288Y224535D01*
X243184Y224176D01*
X243071Y223819D01*
X242949Y223466D01*
X242819Y223115D01*
X242680Y222768D01*
X242533Y222424D01*
X242377Y222084D01*
X242213Y221748D01*
X242040Y221416D01*
X241860Y221088D01*
X241672Y220765D01*
X241476Y220447D01*
X241272Y220133D01*
X241060Y219825D01*
X240841Y219522D01*
X240614Y219224D01*
X240381Y218932D01*
X240140Y218646D01*
X239892Y218365D01*
X239638Y218091D01*
X239376Y217824D01*
X239109Y217562D01*
X238835Y217308D01*
X238554Y217060D01*
X238268Y216819D01*
X237976Y216586D01*
X237678Y216359D01*
X237375Y216140D01*
X237067Y215928D01*
X236753Y215724D01*
X236435Y215528D01*
X236112Y215340D01*
X235784Y215160D01*
X235452Y214987D01*
X235116Y214823D01*
X234776Y214667D01*
X234432Y214520D01*
X234085Y214381D01*
X233734Y214251D01*
X233381Y214129D01*
X233024Y214016D01*
X232665Y213912D01*
X232303Y213817D01*
X231939Y213730D01*
X231573Y213653D01*
X231205Y213584D01*
X230836Y213525D01*
X230466Y213475D01*
X230094Y213433D01*
X229721Y213401D01*
X229348Y213378D01*
X228974Y213365D01*
X228600Y213360D01*
X228226Y213365D01*
X227852Y213378D01*
X227479Y213401D01*
X227106Y213433D01*
X226734Y213475D01*
X226364Y213525D01*
X225995Y213584D01*
X225627Y213653D01*
X225261Y213730D01*
X224897Y213817D01*
X224535Y213912D01*
X224176Y214016D01*
X223819Y214129D01*
X223466Y214251D01*
X223115Y214381D01*
X222768Y214520D01*
X222424Y214667D01*
X222084Y214823D01*
X221748Y214987D01*
X221416Y215160D01*
X221088Y215340D01*
X220765Y215528D01*
X220447Y215724D01*
X220133Y215928D01*
X219825Y216140D01*
X219522Y216359D01*
X219224Y216586D01*
X218932Y216819D01*
X218646Y217060D01*
X218365Y217308D01*
X218091Y217562D01*
X217824Y217824D01*
X217562Y218091D01*
X217308Y218365D01*
X217060Y218646D01*
X216819Y218932D01*
X216586Y219224D01*
X216359Y219522D01*
X216140Y219825D01*
X215928Y220133D01*
X215724Y220447D01*
X215528Y220765D01*
X215340Y221088D01*
X215160Y221416D01*
X214987Y221748D01*
X214823Y222084D01*
X214667Y222424D01*
X214520Y222768D01*
X214381Y223115D01*
X214251Y223466D01*
X214129Y223819D01*
X214016Y224176D01*
X213912Y224535D01*
X213817Y224897D01*
X213730Y225261D01*
X213653Y225627D01*
X213584Y225995D01*
X213525Y226364D01*
X213475Y226734D01*
X213433Y227106D01*
X213401Y227479D01*
X213378Y227852D01*
X213365Y228226D01*
X213360Y228600D01*
X10160Y228600D02*
X10165Y228974D01*
X10178Y229348D01*
X10201Y229721D01*
X10233Y230094D01*
X10275Y230466D01*
X10325Y230836D01*
X10384Y231205D01*
X10453Y231573D01*
X10530Y231939D01*
X10617Y232303D01*
X10712Y232665D01*
X10816Y233024D01*
X10929Y233381D01*
X11051Y233734D01*
X11181Y234085D01*
X11320Y234432D01*
X11467Y234776D01*
X11623Y235116D01*
X11787Y235452D01*
X11960Y235784D01*
X12140Y236112D01*
X12328Y236435D01*
X12524Y236753D01*
X12728Y237067D01*
X12940Y237375D01*
X13159Y237678D01*
X13386Y237976D01*
X13619Y238268D01*
X13860Y238554D01*
X14108Y238835D01*
X14362Y239109D01*
X14624Y239376D01*
X14891Y239638D01*
X15165Y239892D01*
X15446Y240140D01*
X15732Y240381D01*
X16024Y240614D01*
X16322Y240841D01*
X16625Y241060D01*
X16933Y241272D01*
X17247Y241476D01*
X17565Y241672D01*
X17888Y241860D01*
X18216Y242040D01*
X18548Y242213D01*
X18884Y242377D01*
X19224Y242533D01*
X19568Y242680D01*
X19915Y242819D01*
X20266Y242949D01*
X20619Y243071D01*
X20976Y243184D01*
X21335Y243288D01*
X21697Y243383D01*
X22061Y243470D01*
X22427Y243547D01*
X22795Y243616D01*
X23164Y243675D01*
X23534Y243725D01*
X23906Y243767D01*
X24279Y243799D01*
X24652Y243822D01*
X25026Y243835D01*
X25400Y243840D01*
X25774Y243835D01*
X26148Y243822D01*
X26521Y243799D01*
X26894Y243767D01*
X27266Y243725D01*
X27636Y243675D01*
X28005Y243616D01*
X28373Y243547D01*
X28739Y243470D01*
X29103Y243383D01*
X29465Y243288D01*
X29824Y243184D01*
X30181Y243071D01*
X30534Y242949D01*
X30885Y242819D01*
X31232Y242680D01*
X31576Y242533D01*
X31916Y242377D01*
X32252Y242213D01*
X32584Y242040D01*
X32912Y241860D01*
X33235Y241672D01*
X33553Y241476D01*
X33867Y241272D01*
X34175Y241060D01*
X34478Y240841D01*
X34776Y240614D01*
X35068Y240381D01*
X35354Y240140D01*
X35635Y239892D01*
X35909Y239638D01*
X36176Y239376D01*
X36438Y239109D01*
X36692Y238835D01*
X36940Y238554D01*
X37181Y238268D01*
X37414Y237976D01*
X37641Y237678D01*
X37860Y237375D01*
X38072Y237067D01*
X38276Y236753D01*
X38472Y236435D01*
X38660Y236112D01*
X38840Y235784D01*
X39013Y235452D01*
X39177Y235116D01*
X39333Y234776D01*
X39480Y234432D01*
X39619Y234085D01*
X39749Y233734D01*
X39871Y233381D01*
X39984Y233024D01*
X40088Y232665D01*
X40183Y232303D01*
X40270Y231939D01*
X40347Y231573D01*
X40416Y231205D01*
X40475Y230836D01*
X40525Y230466D01*
X40567Y230094D01*
X40599Y229721D01*
X40622Y229348D01*
X40635Y228974D01*
X40640Y228600D01*
X40635Y228226D01*
X40622Y227852D01*
X40599Y227479D01*
X40567Y227106D01*
X40525Y226734D01*
X40475Y226364D01*
X40416Y225995D01*
X40347Y225627D01*
X40270Y225261D01*
X40183Y224897D01*
X40088Y224535D01*
X39984Y224176D01*
X39871Y223819D01*
X39749Y223466D01*
X39619Y223115D01*
X39480Y222768D01*
X39333Y222424D01*
X39177Y222084D01*
X39013Y221748D01*
X38840Y221416D01*
X38660Y221088D01*
X38472Y220765D01*
X38276Y220447D01*
X38072Y220133D01*
X37860Y219825D01*
X37641Y219522D01*
X37414Y219224D01*
X37181Y218932D01*
X36940Y218646D01*
X36692Y218365D01*
X36438Y218091D01*
X36176Y217824D01*
X35909Y217562D01*
X35635Y217308D01*
X35354Y217060D01*
X35068Y216819D01*
X34776Y216586D01*
X34478Y216359D01*
X34175Y216140D01*
X33867Y215928D01*
X33553Y215724D01*
X33235Y215528D01*
X32912Y215340D01*
X32584Y215160D01*
X32252Y214987D01*
X31916Y214823D01*
X31576Y214667D01*
X31232Y214520D01*
X30885Y214381D01*
X30534Y214251D01*
X30181Y214129D01*
X29824Y214016D01*
X29465Y213912D01*
X29103Y213817D01*
X28739Y213730D01*
X28373Y213653D01*
X28005Y213584D01*
X27636Y213525D01*
X27266Y213475D01*
X26894Y213433D01*
X26521Y213401D01*
X26148Y213378D01*
X25774Y213365D01*
X25400Y213360D01*
X25026Y213365D01*
X24652Y213378D01*
X24279Y213401D01*
X23906Y213433D01*
X23534Y213475D01*
X23164Y213525D01*
X22795Y213584D01*
X22427Y213653D01*
X22061Y213730D01*
X21697Y213817D01*
X21335Y213912D01*
X20976Y214016D01*
X20619Y214129D01*
X20266Y214251D01*
X19915Y214381D01*
X19568Y214520D01*
X19224Y214667D01*
X18884Y214823D01*
X18548Y214987D01*
X18216Y215160D01*
X17888Y215340D01*
X17565Y215528D01*
X17247Y215724D01*
X16933Y215928D01*
X16625Y216140D01*
X16322Y216359D01*
X16024Y216586D01*
X15732Y216819D01*
X15446Y217060D01*
X15165Y217308D01*
X14891Y217562D01*
X14624Y217824D01*
X14362Y218091D01*
X14108Y218365D01*
X13860Y218646D01*
X13619Y218932D01*
X13386Y219224D01*
X13159Y219522D01*
X12940Y219825D01*
X12728Y220133D01*
X12524Y220447D01*
X12328Y220765D01*
X12140Y221088D01*
X11960Y221416D01*
X11787Y221748D01*
X11623Y222084D01*
X11467Y222424D01*
X11320Y222768D01*
X11181Y223115D01*
X11051Y223466D01*
X10929Y223819D01*
X10816Y224176D01*
X10712Y224535D01*
X10617Y224897D01*
X10530Y225261D01*
X10453Y225627D01*
X10384Y225995D01*
X10325Y226364D01*
X10275Y226734D01*
X10233Y227106D01*
X10201Y227479D01*
X10178Y227852D01*
X10165Y228226D01*
X10160Y228600D01*
X10160Y25400D02*
X10165Y25774D01*
X10178Y26148D01*
X10201Y26521D01*
X10233Y26894D01*
X10275Y27266D01*
X10325Y27636D01*
X10384Y28005D01*
X10453Y28373D01*
X10530Y28739D01*
X10617Y29103D01*
X10712Y29465D01*
X10816Y29824D01*
X10929Y30181D01*
X11051Y30534D01*
X11181Y30885D01*
X11320Y31232D01*
X11467Y31576D01*
X11623Y31916D01*
X11787Y32252D01*
X11960Y32584D01*
X12140Y32912D01*
X12328Y33235D01*
X12524Y33553D01*
X12728Y33867D01*
X12940Y34175D01*
X13159Y34478D01*
X13386Y34776D01*
X13619Y35068D01*
X13860Y35354D01*
X14108Y35635D01*
X14362Y35909D01*
X14624Y36176D01*
X14891Y36438D01*
X15165Y36692D01*
X15446Y36940D01*
X15732Y37181D01*
X16024Y37414D01*
X16322Y37641D01*
X16625Y37860D01*
X16933Y38072D01*
X17247Y38276D01*
X17565Y38472D01*
X17888Y38660D01*
X18216Y38840D01*
X18548Y39013D01*
X18884Y39177D01*
X19224Y39333D01*
X19568Y39480D01*
X19915Y39619D01*
X20266Y39749D01*
X20619Y39871D01*
X20976Y39984D01*
X21335Y40088D01*
X21697Y40183D01*
X22061Y40270D01*
X22427Y40347D01*
X22795Y40416D01*
X23164Y40475D01*
X23534Y40525D01*
X23906Y40567D01*
X24279Y40599D01*
X24652Y40622D01*
X25026Y40635D01*
X25400Y40640D01*
X25774Y40635D01*
X26148Y40622D01*
X26521Y40599D01*
X26894Y40567D01*
X27266Y40525D01*
X27636Y40475D01*
X28005Y40416D01*
X28373Y40347D01*
X28739Y40270D01*
X29103Y40183D01*
X29465Y40088D01*
X29824Y39984D01*
X30181Y39871D01*
X30534Y39749D01*
X30885Y39619D01*
X31232Y39480D01*
X31576Y39333D01*
X31916Y39177D01*
X32252Y39013D01*
X32584Y38840D01*
X32912Y38660D01*
X33235Y38472D01*
X33553Y38276D01*
X33867Y38072D01*
X34175Y37860D01*
X34478Y37641D01*
X34776Y37414D01*
X35068Y37181D01*
X35354Y36940D01*
X35635Y36692D01*
X35909Y36438D01*
X36176Y36176D01*
X36438Y35909D01*
X36692Y35635D01*
X36940Y35354D01*
X37181Y35068D01*
X37414Y34776D01*
X37641Y34478D01*
X37860Y34175D01*
X38072Y33867D01*
X38276Y33553D01*
X38472Y33235D01*
X38660Y32912D01*
X38840Y32584D01*
X39013Y32252D01*
X39177Y31916D01*
X39333Y31576D01*
X39480Y31232D01*
X39619Y30885D01*
X39749Y30534D01*
X39871Y30181D01*
X39984Y29824D01*
X40088Y29465D01*
X40183Y29103D01*
X40270Y28739D01*
X40347Y28373D01*
X40416Y28005D01*
X40475Y27636D01*
X40525Y27266D01*
X40567Y26894D01*
X40599Y26521D01*
X40622Y26148D01*
X40635Y25774D01*
X40640Y25400D01*
X40635Y25026D01*
X40622Y24652D01*
X40599Y24279D01*
X40567Y23906D01*
X40525Y23534D01*
X40475Y23164D01*
X40416Y22795D01*
X40347Y22427D01*
X40270Y22061D01*
X40183Y21697D01*
X40088Y21335D01*
X39984Y20976D01*
X39871Y20619D01*
X39749Y20266D01*
X39619Y19915D01*
X39480Y19568D01*
X39333Y19224D01*
X39177Y18884D01*
X39013Y18548D01*
X38840Y18216D01*
X38660Y17888D01*
X38472Y17565D01*
X38276Y17247D01*
X38072Y16933D01*
X37860Y16625D01*
X37641Y16322D01*
X37414Y16024D01*
X37181Y15732D01*
X36940Y15446D01*
X36692Y15165D01*
X36438Y14891D01*
X36176Y14624D01*
X35909Y14362D01*
X35635Y14108D01*
X35354Y13860D01*
X35068Y13619D01*
X34776Y13386D01*
X34478Y13159D01*
X34175Y12940D01*
X33867Y12728D01*
X33553Y12524D01*
X33235Y12328D01*
X32912Y12140D01*
X32584Y11960D01*
X32252Y11787D01*
X31916Y11623D01*
X31576Y11467D01*
X31232Y11320D01*
X30885Y11181D01*
X30534Y11051D01*
X30181Y10929D01*
X29824Y10816D01*
X29465Y10712D01*
X29103Y10617D01*
X28739Y10530D01*
X28373Y10453D01*
X28005Y10384D01*
X27636Y10325D01*
X27266Y10275D01*
X26894Y10233D01*
X26521Y10201D01*
X26148Y10178D01*
X25774Y10165D01*
X25400Y10160D01*
X25026Y10165D01*
X24652Y10178D01*
X24279Y10201D01*
X23906Y10233D01*
X23534Y10275D01*
X23164Y10325D01*
X22795Y10384D01*
X22427Y10453D01*
X22061Y10530D01*
X21697Y10617D01*
X21335Y10712D01*
X20976Y10816D01*
X20619Y10929D01*
X20266Y11051D01*
X19915Y11181D01*
X19568Y11320D01*
X19224Y11467D01*
X18884Y11623D01*
X18548Y11787D01*
X18216Y11960D01*
X17888Y12140D01*
X17565Y12328D01*
X17247Y12524D01*
X16933Y12728D01*
X16625Y12940D01*
X16322Y13159D01*
X16024Y13386D01*
X15732Y13619D01*
X15446Y13860D01*
X15165Y14108D01*
X14891Y14362D01*
X14624Y14624D01*
X14362Y14891D01*
X14108Y15165D01*
X13860Y15446D01*
X13619Y15732D01*
X13386Y16024D01*
X13159Y16322D01*
X12940Y16625D01*
X12728Y16933D01*
X12524Y17247D01*
X12328Y17565D01*
X12140Y17888D01*
X11960Y18216D01*
X11787Y18548D01*
X11623Y18884D01*
X11467Y19224D01*
X11320Y19568D01*
X11181Y19915D01*
X11051Y20266D01*
X10929Y20619D01*
X10816Y20976D01*
X10712Y21335D01*
X10617Y21697D01*
X10530Y22061D01*
X10453Y22427D01*
X10384Y22795D01*
X10325Y23164D01*
X10275Y23534D01*
X10233Y23906D01*
X10201Y24279D01*
X10178Y24652D01*
X10165Y25026D01*
X10160Y25400D01*
D12*
X75000Y165100D02*
X75016Y166376D01*
X75063Y167652D01*
X75141Y168925D01*
X75250Y170197D01*
X75391Y171465D01*
X75563Y172730D01*
X75766Y173990D01*
X75999Y175245D01*
X76263Y176493D01*
X76558Y177735D01*
X76884Y178969D01*
X77239Y180195D01*
X77625Y181411D01*
X78040Y182618D01*
X78484Y183815D01*
X78958Y185000D01*
X79461Y186173D01*
X79993Y187333D01*
X80552Y188480D01*
X81140Y189613D01*
X81755Y190731D01*
X82398Y191833D01*
X83068Y192920D01*
X83764Y193990D01*
X84486Y195042D01*
X85233Y196076D01*
X86006Y197092D01*
X86803Y198088D01*
X87625Y199065D01*
X88471Y200021D01*
X89339Y200956D01*
X90230Y201870D01*
X91144Y202761D01*
X92079Y203629D01*
X93035Y204475D01*
X94012Y205297D01*
X95008Y206094D01*
X96024Y206867D01*
X97058Y207614D01*
X98110Y208336D01*
X99180Y209032D01*
X100267Y209702D01*
X101369Y210345D01*
X102487Y210960D01*
X103620Y211548D01*
X104767Y212107D01*
X105927Y212639D01*
X107100Y213142D01*
X108285Y213616D01*
X109482Y214060D01*
X110689Y214475D01*
X111905Y214861D01*
X113131Y215216D01*
X114365Y215542D01*
X115607Y215837D01*
X116855Y216101D01*
X118110Y216334D01*
X119370Y216537D01*
X120635Y216709D01*
X121903Y216850D01*
X123175Y216959D01*
X124448Y217037D01*
X125724Y217084D01*
X127000Y217100D01*
X128276Y217084D01*
X129552Y217037D01*
X130825Y216959D01*
X132097Y216850D01*
X133365Y216709D01*
X134630Y216537D01*
X135890Y216334D01*
X137145Y216101D01*
X138393Y215837D01*
X139635Y215542D01*
X140869Y215216D01*
X142095Y214861D01*
X143311Y214475D01*
X144518Y214060D01*
X145715Y213616D01*
X146900Y213142D01*
X148073Y212639D01*
X149233Y212107D01*
X150380Y211548D01*
X151513Y210960D01*
X152631Y210345D01*
X153733Y209702D01*
X154820Y209032D01*
X155890Y208336D01*
X156942Y207614D01*
X157976Y206867D01*
X158992Y206094D01*
X159988Y205297D01*
X160965Y204475D01*
X161921Y203629D01*
X162856Y202761D01*
X163770Y201870D01*
X164661Y200956D01*
X165529Y200021D01*
X166375Y199065D01*
X167197Y198088D01*
X167994Y197092D01*
X168767Y196076D01*
X169514Y195042D01*
X170236Y193990D01*
X170932Y192920D01*
X171602Y191833D01*
X172245Y190731D01*
X172860Y189613D01*
X173448Y188480D01*
X174007Y187333D01*
X174539Y186173D01*
X175042Y185000D01*
X175516Y183815D01*
X175960Y182618D01*
X176375Y181411D01*
X176761Y180195D01*
X177116Y178969D01*
X177442Y177735D01*
X177737Y176493D01*
X178001Y175245D01*
X178234Y173990D01*
X178437Y172730D01*
X178609Y171465D01*
X178750Y170197D01*
X178859Y168925D01*
X178937Y167652D01*
X178984Y166376D01*
X179000Y165100D01*
X178984Y163824D01*
X178937Y162548D01*
X178859Y161275D01*
X178750Y160003D01*
X178609Y158735D01*
X178437Y157470D01*
X178234Y156210D01*
X178001Y154955D01*
X177737Y153707D01*
X177442Y152465D01*
X177116Y151231D01*
X176761Y150005D01*
X176375Y148789D01*
X175960Y147582D01*
X175516Y146385D01*
X175042Y145200D01*
X174539Y144027D01*
X174007Y142867D01*
X173448Y141720D01*
X172860Y140587D01*
X172245Y139469D01*
X171602Y138367D01*
X170932Y137280D01*
X170236Y136210D01*
X169514Y135158D01*
X168767Y134124D01*
X167994Y133108D01*
X167197Y132112D01*
X166375Y131135D01*
X165529Y130179D01*
X164661Y129244D01*
X163770Y128330D01*
X162856Y127439D01*
X161921Y126571D01*
X160965Y125725D01*
X159988Y124903D01*
X158992Y124106D01*
X157976Y123333D01*
X156942Y122586D01*
X155890Y121864D01*
X154820Y121168D01*
X153733Y120498D01*
X152631Y119855D01*
X151513Y119240D01*
X150380Y118652D01*
X149233Y118093D01*
X148073Y117561D01*
X146900Y117058D01*
X145715Y116584D01*
X144518Y116140D01*
X143311Y115725D01*
X142095Y115339D01*
X140869Y114984D01*
X139635Y114658D01*
X138393Y114363D01*
X137145Y114099D01*
X135890Y113866D01*
X134630Y113663D01*
X133365Y113491D01*
X132097Y113350D01*
X130825Y113241D01*
X129552Y113163D01*
X128276Y113116D01*
X127000Y113100D01*
X125724Y113116D01*
X124448Y113163D01*
X123175Y113241D01*
X121903Y113350D01*
X120635Y113491D01*
X119370Y113663D01*
X118110Y113866D01*
X116855Y114099D01*
X115607Y114363D01*
X114365Y114658D01*
X113131Y114984D01*
X111905Y115339D01*
X110689Y115725D01*
X109482Y116140D01*
X108285Y116584D01*
X107100Y117058D01*
X105927Y117561D01*
X104767Y118093D01*
X103620Y118652D01*
X102487Y119240D01*
X101369Y119855D01*
X100267Y120498D01*
X99180Y121168D01*
X98110Y121864D01*
X97058Y122586D01*
X96024Y123333D01*
X95008Y124106D01*
X94012Y124903D01*
X93035Y125725D01*
X92079Y126571D01*
X91144Y127439D01*
X90230Y128330D01*
X89339Y129244D01*
X88471Y130179D01*
X87625Y131135D01*
X86803Y132112D01*
X86006Y133108D01*
X85233Y134124D01*
X84486Y135158D01*
X83764Y136210D01*
X83068Y137280D01*
X82398Y138367D01*
X81755Y139469D01*
X81140Y140587D01*
X80552Y141720D01*
X79993Y142867D01*
X79461Y144027D01*
X78958Y145200D01*
X78484Y146385D01*
X78040Y147582D01*
X77625Y148789D01*
X77239Y150005D01*
X76884Y151231D01*
X76558Y152465D01*
X76263Y153707D01*
X75999Y154955D01*
X75766Y156210D01*
X75563Y157470D01*
X75391Y158735D01*
X75250Y160003D01*
X75141Y161275D01*
X75063Y162548D01*
X75016Y163824D01*
X75000Y165100D01*
D13*
X114881Y147669D02*
X124119Y147669D01*
X114881Y147669D02*
X114881Y150235D01*
X114883Y150334D01*
X114889Y150434D01*
X114898Y150533D01*
X114912Y150631D01*
X114929Y150729D01*
X114950Y150827D01*
X114975Y150923D01*
X115004Y151018D01*
X115036Y151113D01*
X115072Y151205D01*
X115111Y151297D01*
X115154Y151387D01*
X115200Y151475D01*
X115250Y151561D01*
X115303Y151645D01*
X115359Y151727D01*
X115419Y151807D01*
X115481Y151884D01*
X115547Y151959D01*
X115615Y152032D01*
X115686Y152101D01*
X115760Y152168D01*
X115836Y152232D01*
X115915Y152293D01*
X115996Y152351D01*
X116079Y152406D01*
X116164Y152457D01*
X116251Y152505D01*
X116340Y152550D01*
X116431Y152591D01*
X116523Y152629D01*
X116616Y152663D01*
X116711Y152693D01*
X116807Y152720D01*
X116904Y152743D01*
X117001Y152762D01*
X117100Y152777D01*
X117199Y152789D01*
X117298Y152797D01*
X117397Y152801D01*
X117497Y152801D01*
X117596Y152797D01*
X117695Y152789D01*
X117794Y152777D01*
X117893Y152762D01*
X117990Y152743D01*
X118087Y152720D01*
X118183Y152693D01*
X118278Y152663D01*
X118371Y152629D01*
X118463Y152591D01*
X118554Y152550D01*
X118643Y152505D01*
X118730Y152457D01*
X118815Y152406D01*
X118898Y152351D01*
X118979Y152293D01*
X119058Y152232D01*
X119134Y152168D01*
X119208Y152101D01*
X119279Y152032D01*
X119347Y151959D01*
X119413Y151884D01*
X119475Y151807D01*
X119535Y151727D01*
X119591Y151645D01*
X119644Y151561D01*
X119694Y151475D01*
X119740Y151387D01*
X119783Y151297D01*
X119822Y151205D01*
X119858Y151113D01*
X119890Y151018D01*
X119919Y150923D01*
X119944Y150827D01*
X119965Y150729D01*
X119982Y150631D01*
X119996Y150533D01*
X120005Y150434D01*
X120011Y150334D01*
X120013Y150235D01*
X120013Y147669D01*
X120013Y150748D02*
X124119Y152801D01*
X122066Y156525D02*
X120013Y156525D01*
X119923Y156527D01*
X119834Y156533D01*
X119745Y156543D01*
X119657Y156556D01*
X119569Y156574D01*
X119482Y156595D01*
X119396Y156620D01*
X119311Y156649D01*
X119227Y156681D01*
X119145Y156717D01*
X119065Y156757D01*
X118987Y156800D01*
X118910Y156847D01*
X118835Y156896D01*
X118763Y156949D01*
X118693Y157005D01*
X118626Y157064D01*
X118561Y157126D01*
X118499Y157191D01*
X118440Y157258D01*
X118384Y157328D01*
X118331Y157400D01*
X118282Y157475D01*
X118235Y157552D01*
X118192Y157630D01*
X118152Y157710D01*
X118116Y157792D01*
X118084Y157876D01*
X118055Y157961D01*
X118030Y158047D01*
X118009Y158134D01*
X117991Y158222D01*
X117978Y158310D01*
X117968Y158399D01*
X117962Y158488D01*
X117960Y158578D01*
X117962Y158668D01*
X117968Y158757D01*
X117978Y158846D01*
X117991Y158934D01*
X118009Y159022D01*
X118030Y159109D01*
X118055Y159195D01*
X118084Y159280D01*
X118116Y159364D01*
X118152Y159446D01*
X118192Y159526D01*
X118235Y159605D01*
X118282Y159681D01*
X118331Y159756D01*
X118384Y159828D01*
X118440Y159898D01*
X118499Y159965D01*
X118561Y160030D01*
X118626Y160092D01*
X118693Y160151D01*
X118763Y160207D01*
X118835Y160260D01*
X118910Y160309D01*
X118987Y160356D01*
X119065Y160399D01*
X119145Y160439D01*
X119227Y160475D01*
X119311Y160507D01*
X119396Y160536D01*
X119482Y160561D01*
X119569Y160582D01*
X119657Y160600D01*
X119745Y160613D01*
X119834Y160623D01*
X119923Y160629D01*
X120013Y160631D01*
X122066Y160631D01*
X122156Y160629D01*
X122245Y160623D01*
X122334Y160613D01*
X122422Y160600D01*
X122510Y160582D01*
X122597Y160561D01*
X122683Y160536D01*
X122768Y160507D01*
X122852Y160475D01*
X122934Y160439D01*
X123014Y160399D01*
X123093Y160356D01*
X123169Y160309D01*
X123244Y160260D01*
X123316Y160207D01*
X123386Y160151D01*
X123453Y160092D01*
X123518Y160030D01*
X123580Y159965D01*
X123639Y159898D01*
X123695Y159828D01*
X123748Y159756D01*
X123797Y159681D01*
X123844Y159605D01*
X123887Y159526D01*
X123927Y159446D01*
X123963Y159364D01*
X123995Y159280D01*
X124024Y159195D01*
X124049Y159109D01*
X124070Y159022D01*
X124088Y158934D01*
X124101Y158846D01*
X124111Y158757D01*
X124117Y158668D01*
X124119Y158578D01*
X124117Y158488D01*
X124111Y158399D01*
X124101Y158310D01*
X124088Y158222D01*
X124070Y158134D01*
X124049Y158047D01*
X124024Y157961D01*
X123995Y157876D01*
X123963Y157792D01*
X123927Y157710D01*
X123887Y157630D01*
X123844Y157552D01*
X123797Y157475D01*
X123748Y157400D01*
X123695Y157328D01*
X123639Y157258D01*
X123580Y157191D01*
X123518Y157126D01*
X123453Y157064D01*
X123386Y157005D01*
X123316Y156949D01*
X123244Y156896D01*
X123169Y156847D01*
X123093Y156800D01*
X123014Y156757D01*
X122934Y156717D01*
X122852Y156681D01*
X122768Y156649D01*
X122683Y156620D01*
X122597Y156595D01*
X122510Y156574D01*
X122422Y156556D01*
X122334Y156543D01*
X122245Y156533D01*
X122156Y156527D01*
X122066Y156525D01*
X122579Y164625D02*
X117960Y164625D01*
X122579Y164625D02*
X122655Y164627D01*
X122730Y164632D01*
X122805Y164642D01*
X122879Y164655D01*
X122953Y164671D01*
X123026Y164691D01*
X123098Y164715D01*
X123168Y164742D01*
X123237Y164773D01*
X123305Y164807D01*
X123371Y164844D01*
X123435Y164885D01*
X123496Y164928D01*
X123556Y164975D01*
X123613Y165024D01*
X123668Y165076D01*
X123720Y165131D01*
X123769Y165188D01*
X123816Y165248D01*
X123859Y165309D01*
X123900Y165373D01*
X123937Y165439D01*
X123971Y165507D01*
X124002Y165576D01*
X124029Y165646D01*
X124053Y165718D01*
X124073Y165791D01*
X124089Y165865D01*
X124102Y165939D01*
X124112Y166014D01*
X124117Y166089D01*
X124119Y166165D01*
X124119Y168731D01*
X117960Y168731D01*
X117960Y171968D02*
X117960Y175047D01*
X114881Y172994D02*
X122579Y172994D01*
X122655Y172996D01*
X122730Y173001D01*
X122805Y173011D01*
X122879Y173024D01*
X122953Y173040D01*
X123026Y173060D01*
X123098Y173084D01*
X123168Y173111D01*
X123237Y173142D01*
X123305Y173176D01*
X123371Y173213D01*
X123435Y173254D01*
X123496Y173297D01*
X123556Y173344D01*
X123613Y173393D01*
X123668Y173445D01*
X123720Y173500D01*
X123769Y173557D01*
X123816Y173617D01*
X123859Y173678D01*
X123900Y173742D01*
X123937Y173808D01*
X123971Y173876D01*
X124002Y173945D01*
X124029Y174015D01*
X124053Y174087D01*
X124073Y174160D01*
X124089Y174234D01*
X124102Y174308D01*
X124112Y174383D01*
X124117Y174458D01*
X124119Y174534D01*
X124119Y175047D01*
X124119Y179965D02*
X124119Y182531D01*
X124119Y179965D02*
X124117Y179887D01*
X124111Y179809D01*
X124101Y179732D01*
X124087Y179655D01*
X124070Y179579D01*
X124048Y179504D01*
X124023Y179430D01*
X123994Y179358D01*
X123962Y179287D01*
X123925Y179218D01*
X123886Y179150D01*
X123843Y179085D01*
X123797Y179022D01*
X123747Y178962D01*
X123695Y178904D01*
X123640Y178849D01*
X123582Y178797D01*
X123522Y178747D01*
X123459Y178701D01*
X123394Y178658D01*
X123326Y178619D01*
X123257Y178582D01*
X123186Y178550D01*
X123114Y178521D01*
X123040Y178496D01*
X122965Y178474D01*
X122889Y178457D01*
X122812Y178443D01*
X122735Y178433D01*
X122657Y178427D01*
X122579Y178425D01*
X120013Y178425D01*
X119923Y178427D01*
X119834Y178433D01*
X119745Y178443D01*
X119657Y178456D01*
X119569Y178474D01*
X119482Y178495D01*
X119396Y178520D01*
X119311Y178549D01*
X119227Y178581D01*
X119145Y178617D01*
X119065Y178657D01*
X118987Y178700D01*
X118910Y178747D01*
X118835Y178796D01*
X118763Y178849D01*
X118693Y178905D01*
X118626Y178964D01*
X118561Y179026D01*
X118499Y179091D01*
X118440Y179158D01*
X118384Y179228D01*
X118331Y179300D01*
X118282Y179375D01*
X118235Y179452D01*
X118192Y179530D01*
X118152Y179610D01*
X118116Y179692D01*
X118084Y179776D01*
X118055Y179861D01*
X118030Y179947D01*
X118009Y180034D01*
X117991Y180122D01*
X117978Y180210D01*
X117968Y180299D01*
X117962Y180388D01*
X117960Y180478D01*
X117962Y180568D01*
X117968Y180657D01*
X117978Y180746D01*
X117991Y180834D01*
X118009Y180922D01*
X118030Y181009D01*
X118055Y181095D01*
X118084Y181180D01*
X118116Y181264D01*
X118152Y181346D01*
X118192Y181426D01*
X118235Y181505D01*
X118282Y181581D01*
X118331Y181656D01*
X118384Y181728D01*
X118440Y181798D01*
X118499Y181865D01*
X118561Y181930D01*
X118626Y181992D01*
X118693Y182051D01*
X118763Y182107D01*
X118835Y182160D01*
X118910Y182209D01*
X118987Y182256D01*
X119065Y182299D01*
X119145Y182339D01*
X119227Y182375D01*
X119311Y182407D01*
X119396Y182436D01*
X119482Y182461D01*
X119569Y182482D01*
X119657Y182500D01*
X119745Y182513D01*
X119834Y182523D01*
X119923Y182529D01*
X120013Y182531D01*
X121040Y182531D01*
X121040Y178425D01*
X132447Y155283D02*
X136553Y155283D01*
X132447Y155283D02*
X132348Y155285D01*
X132248Y155291D01*
X132149Y155300D01*
X132051Y155314D01*
X131953Y155331D01*
X131855Y155352D01*
X131759Y155377D01*
X131664Y155406D01*
X131569Y155438D01*
X131477Y155474D01*
X131385Y155513D01*
X131295Y155556D01*
X131207Y155602D01*
X131121Y155652D01*
X131037Y155705D01*
X130955Y155761D01*
X130875Y155821D01*
X130798Y155883D01*
X130723Y155949D01*
X130650Y156017D01*
X130581Y156088D01*
X130514Y156162D01*
X130450Y156238D01*
X130389Y156317D01*
X130331Y156398D01*
X130276Y156481D01*
X130225Y156566D01*
X130177Y156653D01*
X130132Y156742D01*
X130091Y156833D01*
X130053Y156925D01*
X130019Y157018D01*
X129989Y157113D01*
X129962Y157209D01*
X129939Y157306D01*
X129920Y157403D01*
X129905Y157502D01*
X129893Y157601D01*
X129885Y157700D01*
X129881Y157799D01*
X129881Y157899D01*
X129885Y157998D01*
X129893Y158097D01*
X129905Y158196D01*
X129920Y158295D01*
X129939Y158392D01*
X129962Y158489D01*
X129989Y158585D01*
X130019Y158680D01*
X130053Y158773D01*
X130091Y158865D01*
X130132Y158956D01*
X130177Y159045D01*
X130225Y159132D01*
X130276Y159217D01*
X130331Y159300D01*
X130389Y159381D01*
X130450Y159460D01*
X130514Y159536D01*
X130581Y159610D01*
X130650Y159681D01*
X130723Y159749D01*
X130798Y159815D01*
X130875Y159877D01*
X130955Y159937D01*
X131037Y159993D01*
X131121Y160046D01*
X131207Y160096D01*
X131295Y160142D01*
X131385Y160185D01*
X131477Y160224D01*
X131569Y160260D01*
X131664Y160292D01*
X131759Y160321D01*
X131855Y160346D01*
X131953Y160367D01*
X132051Y160384D01*
X132149Y160398D01*
X132248Y160407D01*
X132348Y160413D01*
X132447Y160415D01*
X136553Y160415D01*
X136652Y160413D01*
X136752Y160407D01*
X136851Y160398D01*
X136949Y160384D01*
X137047Y160367D01*
X137145Y160346D01*
X137241Y160321D01*
X137336Y160292D01*
X137431Y160260D01*
X137523Y160224D01*
X137615Y160185D01*
X137705Y160142D01*
X137793Y160096D01*
X137879Y160046D01*
X137963Y159993D01*
X138045Y159937D01*
X138125Y159877D01*
X138202Y159815D01*
X138277Y159749D01*
X138350Y159681D01*
X138419Y159610D01*
X138486Y159536D01*
X138550Y159460D01*
X138611Y159381D01*
X138669Y159300D01*
X138724Y159217D01*
X138775Y159132D01*
X138823Y159045D01*
X138868Y158956D01*
X138909Y158865D01*
X138947Y158773D01*
X138981Y158680D01*
X139011Y158585D01*
X139038Y158489D01*
X139061Y158392D01*
X139080Y158295D01*
X139095Y158196D01*
X139107Y158097D01*
X139115Y157998D01*
X139119Y157899D01*
X139119Y157799D01*
X139115Y157700D01*
X139107Y157601D01*
X139095Y157502D01*
X139080Y157403D01*
X139061Y157306D01*
X139038Y157209D01*
X139011Y157113D01*
X138981Y157018D01*
X138947Y156925D01*
X138909Y156833D01*
X138868Y156742D01*
X138823Y156653D01*
X138775Y156566D01*
X138724Y156481D01*
X138669Y156398D01*
X138611Y156317D01*
X138550Y156238D01*
X138486Y156162D01*
X138419Y156088D01*
X138350Y156017D01*
X138277Y155949D01*
X138202Y155883D01*
X138125Y155821D01*
X138045Y155761D01*
X137963Y155705D01*
X137879Y155652D01*
X137793Y155602D01*
X137705Y155556D01*
X137615Y155513D01*
X137523Y155474D01*
X137431Y155438D01*
X137336Y155406D01*
X137241Y155377D01*
X137145Y155352D01*
X137047Y155331D01*
X136949Y155314D01*
X136851Y155300D01*
X136752Y155291D01*
X136652Y155285D01*
X136553Y155283D01*
X137579Y164496D02*
X132960Y164496D01*
X137579Y164496D02*
X137655Y164498D01*
X137730Y164503D01*
X137805Y164513D01*
X137879Y164526D01*
X137953Y164542D01*
X138026Y164562D01*
X138098Y164586D01*
X138168Y164613D01*
X138237Y164644D01*
X138305Y164678D01*
X138371Y164715D01*
X138435Y164756D01*
X138496Y164799D01*
X138556Y164846D01*
X138613Y164895D01*
X138668Y164947D01*
X138720Y165002D01*
X138769Y165059D01*
X138816Y165119D01*
X138859Y165180D01*
X138900Y165244D01*
X138937Y165310D01*
X138971Y165378D01*
X139002Y165447D01*
X139029Y165517D01*
X139053Y165589D01*
X139073Y165662D01*
X139089Y165736D01*
X139102Y165810D01*
X139112Y165885D01*
X139117Y165960D01*
X139119Y166036D01*
X139119Y168602D01*
X132960Y168602D01*
X132960Y171838D02*
X132960Y174917D01*
X129881Y172865D02*
X137579Y172865D01*
X137579Y172864D02*
X137655Y172866D01*
X137730Y172871D01*
X137805Y172881D01*
X137879Y172894D01*
X137953Y172910D01*
X138026Y172930D01*
X138098Y172954D01*
X138168Y172981D01*
X138237Y173012D01*
X138305Y173046D01*
X138371Y173083D01*
X138435Y173124D01*
X138496Y173167D01*
X138556Y173214D01*
X138613Y173263D01*
X138668Y173315D01*
X138720Y173370D01*
X138769Y173427D01*
X138816Y173487D01*
X138859Y173548D01*
X138900Y173612D01*
X138937Y173678D01*
X138971Y173746D01*
X139002Y173815D01*
X139029Y173885D01*
X139053Y173957D01*
X139073Y174030D01*
X139089Y174104D01*
X139102Y174178D01*
X139112Y174253D01*
X139117Y174328D01*
X139119Y174404D01*
X139119Y174917D01*
D14*
X0Y0D02*
X254000Y0D01*
X254000Y254000D01*
X177800Y254000D01*
X165100Y237490D01*
X88900Y237490D01*
X76200Y254000D01*
X0Y254000D01*
X0Y0D01*
X213360Y229144D02*
X213438Y230230D01*
X213593Y231308D01*
X213824Y232371D01*
X214131Y233416D01*
X214511Y234436D01*
X214963Y235426D01*
X215485Y236381D01*
X216074Y237297D01*
X216726Y238169D01*
X217439Y238991D01*
X218209Y239761D01*
X219031Y240474D01*
X219903Y241126D01*
X220819Y241715D01*
X221774Y242237D01*
X222764Y242689D01*
X223784Y243069D01*
X224829Y243376D01*
X225892Y243607D01*
X226970Y243762D01*
X228056Y243840D01*
X229144Y243840D01*
X230230Y243762D01*
X231308Y243607D01*
X232371Y243376D01*
X233416Y243069D01*
X234436Y242689D01*
X235426Y242237D01*
X236381Y241715D01*
X237297Y241126D01*
X238169Y240474D01*
X238991Y239761D01*
X239761Y238991D01*
X240474Y238169D01*
X241126Y237297D01*
X241715Y236381D01*
X242237Y235426D01*
X242689Y234436D01*
X243069Y233416D01*
X243376Y232371D01*
X243607Y231308D01*
X243762Y230230D01*
X243840Y229144D01*
X243840Y228056D01*
X243762Y226970D01*
X243607Y225892D01*
X243376Y224829D01*
X243069Y223784D01*
X242689Y222764D01*
X242237Y221774D01*
X241715Y220819D01*
X241126Y219903D01*
X240474Y219031D01*
X239761Y218209D01*
X238991Y217439D01*
X238169Y216726D01*
X237297Y216074D01*
X236381Y215485D01*
X235426Y214963D01*
X234436Y214511D01*
X233416Y214131D01*
X232371Y213824D01*
X231308Y213593D01*
X230230Y213438D01*
X229144Y213360D01*
X228056Y213360D01*
X226970Y213438D01*
X225892Y213593D01*
X224829Y213824D01*
X223784Y214131D01*
X222764Y214511D01*
X221774Y214963D01*
X220819Y215485D01*
X219903Y216074D01*
X219031Y216726D01*
X218209Y217439D01*
X217439Y218209D01*
X216726Y219031D01*
X216074Y219903D01*
X215485Y220819D01*
X214963Y221774D01*
X214511Y222764D01*
X214131Y223784D01*
X213824Y224829D01*
X213593Y225892D01*
X213438Y226970D01*
X213360Y228056D01*
X213360Y229144D01*
X10160Y229144D02*
X10238Y230230D01*
X10393Y231308D01*
X10624Y232371D01*
X10931Y233416D01*
X11311Y234436D01*
X11763Y235426D01*
X12285Y236381D01*
X12874Y237297D01*
X13526Y238169D01*
X14239Y238991D01*
X15009Y239761D01*
X15831Y240474D01*
X16703Y241126D01*
X17619Y241715D01*
X18574Y242237D01*
X19564Y242689D01*
X20584Y243069D01*
X21629Y243376D01*
X22692Y243607D01*
X23770Y243762D01*
X24856Y243840D01*
X25944Y243840D01*
X27030Y243762D01*
X28108Y243607D01*
X29171Y243376D01*
X30216Y243069D01*
X31236Y242689D01*
X32226Y242237D01*
X33181Y241715D01*
X34097Y241126D01*
X34969Y240474D01*
X35791Y239761D01*
X36561Y238991D01*
X37274Y238169D01*
X37926Y237297D01*
X38515Y236381D01*
X39037Y235426D01*
X39489Y234436D01*
X39869Y233416D01*
X40176Y232371D01*
X40407Y231308D01*
X40562Y230230D01*
X40640Y229144D01*
X40640Y228056D01*
X40562Y226970D01*
X40407Y225892D01*
X40176Y224829D01*
X39869Y223784D01*
X39489Y222764D01*
X39037Y221774D01*
X38515Y220819D01*
X37926Y219903D01*
X37274Y219031D01*
X36561Y218209D01*
X35791Y217439D01*
X34969Y216726D01*
X34097Y216074D01*
X33181Y215485D01*
X32226Y214963D01*
X31236Y214511D01*
X30216Y214131D01*
X29171Y213824D01*
X28108Y213593D01*
X27030Y213438D01*
X25944Y213360D01*
X24856Y213360D01*
X23770Y213438D01*
X22692Y213593D01*
X21629Y213824D01*
X20584Y214131D01*
X19564Y214511D01*
X18574Y214963D01*
X17619Y215485D01*
X16703Y216074D01*
X15831Y216726D01*
X15009Y217439D01*
X14239Y218209D01*
X13526Y219031D01*
X12874Y219903D01*
X12285Y220819D01*
X11763Y221774D01*
X11311Y222764D01*
X10931Y223784D01*
X10624Y224829D01*
X10393Y225892D01*
X10238Y226970D01*
X10160Y228056D01*
X10160Y229144D01*
X10160Y25944D02*
X10238Y27030D01*
X10393Y28108D01*
X10624Y29171D01*
X10931Y30216D01*
X11311Y31236D01*
X11763Y32226D01*
X12285Y33181D01*
X12874Y34097D01*
X13526Y34969D01*
X14239Y35791D01*
X15009Y36561D01*
X15831Y37274D01*
X16703Y37926D01*
X17619Y38515D01*
X18574Y39037D01*
X19564Y39489D01*
X20584Y39869D01*
X21629Y40176D01*
X22692Y40407D01*
X23770Y40562D01*
X24856Y40640D01*
X25944Y40640D01*
X27030Y40562D01*
X28108Y40407D01*
X29171Y40176D01*
X30216Y39869D01*
X31236Y39489D01*
X32226Y39037D01*
X33181Y38515D01*
X34097Y37926D01*
X34969Y37274D01*
X35791Y36561D01*
X36561Y35791D01*
X37274Y34969D01*
X37926Y34097D01*
X38515Y33181D01*
X39037Y32226D01*
X39489Y31236D01*
X39869Y30216D01*
X40176Y29171D01*
X40407Y28108D01*
X40562Y27030D01*
X40640Y25944D01*
X40640Y24856D01*
X40562Y23770D01*
X40407Y22692D01*
X40176Y21629D01*
X39869Y20584D01*
X39489Y19564D01*
X39037Y18574D01*
X38515Y17619D01*
X37926Y16703D01*
X37274Y15831D01*
X36561Y15009D01*
X35791Y14239D01*
X34969Y13526D01*
X34097Y12874D01*
X33181Y12285D01*
X32226Y11763D01*
X31236Y11311D01*
X30216Y10931D01*
X29171Y10624D01*
X28108Y10393D01*
X27030Y10238D01*
X25944Y10160D01*
X24856Y10160D01*
X23770Y10238D01*
X22692Y10393D01*
X21629Y10624D01*
X20584Y10931D01*
X19564Y11311D01*
X18574Y11763D01*
X17619Y12285D01*
X16703Y12874D01*
X15831Y13526D01*
X15009Y14239D01*
X14239Y15009D01*
X13526Y15831D01*
X12874Y16703D01*
X12285Y17619D01*
X11763Y18574D01*
X11311Y19564D01*
X10931Y20584D01*
X10624Y21629D01*
X10393Y22692D01*
X10238Y23770D01*
X10160Y24856D01*
X10160Y25944D01*
M02*
