G04 EAGLE Gerber RS-274X export*
G75*
%MOMM*%
%FSLAX34Y34*%
%LPD*%
%INSoldermask Top*%
%IPPOS*%
%AMOC8*
5,1,8,0,0,1.08239X$1,22.5*%
G01*
%ADD10C,0.505344*%
%ADD11C,0.838200*%
%ADD12C,3.251200*%
%ADD13R,2.203200X1.403200*%
%ADD14R,1.553200X0.803200*%
%ADD15C,2.082800*%
%ADD16R,1.203200X1.303200*%
%ADD17R,0.453200X0.703200*%
%ADD18R,2.153200X2.153200*%
%ADD19R,1.303200X1.203200*%

G36*
X150016Y215556D02*
X150016Y215556D01*
X150033Y215553D01*
X150083Y215575D01*
X150134Y215590D01*
X150145Y215603D01*
X150161Y215610D01*
X150191Y215655D01*
X150226Y215695D01*
X150229Y215712D01*
X150238Y215727D01*
X150249Y215800D01*
X150249Y235100D01*
X150244Y235116D01*
X150247Y235133D01*
X150225Y235183D01*
X150210Y235234D01*
X150197Y235245D01*
X150190Y235261D01*
X150145Y235291D01*
X150105Y235326D01*
X150088Y235329D01*
X150074Y235338D01*
X150000Y235349D01*
X130600Y235349D01*
X130584Y235344D01*
X130567Y235347D01*
X130517Y235325D01*
X130466Y235310D01*
X130455Y235297D01*
X130439Y235290D01*
X130409Y235245D01*
X130374Y235205D01*
X130371Y235188D01*
X130362Y235174D01*
X130351Y235100D01*
X130351Y220800D01*
X130355Y220787D01*
X130352Y220773D01*
X130374Y220720D01*
X130390Y220666D01*
X130400Y220657D01*
X130406Y220644D01*
X130452Y220611D01*
X130495Y220574D01*
X130509Y220572D01*
X130520Y220564D01*
X130594Y220551D01*
X133640Y220472D01*
X136618Y219920D01*
X139472Y218908D01*
X142132Y217461D01*
X144548Y215602D01*
X144589Y215586D01*
X144627Y215562D01*
X144669Y215556D01*
X144678Y215552D01*
X144685Y215553D01*
X144700Y215551D01*
X150000Y215551D01*
X150016Y215556D01*
G37*
G36*
X109843Y215463D02*
X109843Y215463D01*
X109887Y215466D01*
X109924Y215487D01*
X109934Y215490D01*
X109939Y215495D01*
X109952Y215502D01*
X112368Y217361D01*
X115028Y218808D01*
X117882Y219820D01*
X120860Y220372D01*
X123906Y220451D01*
X123920Y220455D01*
X123933Y220453D01*
X123985Y220476D01*
X124040Y220494D01*
X124048Y220504D01*
X124061Y220510D01*
X124093Y220557D01*
X124129Y220601D01*
X124131Y220615D01*
X124138Y220627D01*
X124149Y220700D01*
X124149Y235000D01*
X124144Y235016D01*
X124147Y235033D01*
X124125Y235083D01*
X124110Y235134D01*
X124097Y235145D01*
X124090Y235161D01*
X124045Y235191D01*
X124005Y235226D01*
X123988Y235229D01*
X123974Y235238D01*
X123900Y235249D01*
X104500Y235249D01*
X104484Y235244D01*
X104467Y235247D01*
X104417Y235225D01*
X104366Y235210D01*
X104355Y235197D01*
X104339Y235190D01*
X104309Y235145D01*
X104274Y235105D01*
X104271Y235088D01*
X104262Y235074D01*
X104251Y235000D01*
X104251Y215700D01*
X104256Y215684D01*
X104253Y215667D01*
X104275Y215617D01*
X104290Y215566D01*
X104303Y215555D01*
X104310Y215539D01*
X104355Y215509D01*
X104395Y215474D01*
X104412Y215471D01*
X104427Y215462D01*
X104500Y215451D01*
X109800Y215451D01*
X109843Y215463D01*
G37*
D10*
X26990Y178870D02*
X33970Y178870D01*
X33970Y171890D01*
X26990Y171890D01*
X26990Y178870D01*
X26990Y176690D02*
X33970Y176690D01*
X33970Y196410D02*
X26990Y196410D01*
X33970Y196410D02*
X33970Y189430D01*
X26990Y189430D01*
X26990Y196410D01*
X26990Y194230D02*
X33970Y194230D01*
D11*
X10160Y67310D03*
X241300Y198120D03*
D12*
X228600Y228600D03*
X25400Y228600D03*
X25400Y25400D03*
D13*
X14050Y155000D03*
X14050Y99000D03*
D14*
X50800Y142000D03*
X50800Y132000D03*
X50800Y122000D03*
X50800Y112000D03*
D13*
X239950Y99000D03*
X239950Y155000D03*
D14*
X203200Y112000D03*
X203200Y122000D03*
X203200Y132000D03*
X203200Y142000D03*
D15*
X139700Y12700D03*
X114300Y12700D03*
X88900Y12700D03*
X63500Y12700D03*
D16*
X222250Y174770D03*
X222250Y191770D03*
X205740Y174770D03*
X205740Y191770D03*
X13970Y192260D03*
X13970Y175260D03*
D17*
G36*
X135613Y63715D02*
X132408Y60510D01*
X127437Y65481D01*
X130642Y68686D01*
X135613Y63715D01*
G37*
G36*
X140210Y68311D02*
X137005Y65106D01*
X132034Y70077D01*
X135239Y73282D01*
X140210Y68311D01*
G37*
G36*
X144806Y72907D02*
X141601Y69702D01*
X136630Y74673D01*
X139835Y77878D01*
X144806Y72907D01*
G37*
G36*
X141601Y87071D02*
X144806Y83866D01*
X139835Y78895D01*
X136630Y82100D01*
X141601Y87071D01*
G37*
G36*
X137005Y91667D02*
X140210Y88462D01*
X135239Y83491D01*
X132034Y86696D01*
X137005Y91667D01*
G37*
G36*
X132408Y96263D02*
X135613Y93058D01*
X130642Y88087D01*
X127437Y91292D01*
X132408Y96263D01*
G37*
G36*
X118245Y93058D02*
X121450Y96263D01*
X126421Y91292D01*
X123216Y88087D01*
X118245Y93058D01*
G37*
G36*
X113649Y88462D02*
X116854Y91667D01*
X121825Y86696D01*
X118620Y83491D01*
X113649Y88462D01*
G37*
G36*
X109053Y83866D02*
X112258Y87071D01*
X117229Y82100D01*
X114024Y78895D01*
X109053Y83866D01*
G37*
G36*
X112258Y69702D02*
X109053Y72907D01*
X114024Y77878D01*
X117229Y74673D01*
X112258Y69702D01*
G37*
G36*
X116854Y65106D02*
X113649Y68311D01*
X118620Y73282D01*
X121825Y70077D01*
X116854Y65106D01*
G37*
G36*
X121450Y60510D02*
X118245Y63715D01*
X123216Y68686D01*
X126421Y65481D01*
X121450Y60510D01*
G37*
D18*
X113900Y233800D03*
X139900Y233800D03*
D19*
G36*
X150111Y99034D02*
X159325Y89820D01*
X150817Y81312D01*
X141603Y90526D01*
X150111Y99034D01*
G37*
G36*
X138091Y111055D02*
X147305Y101841D01*
X138797Y93333D01*
X129583Y102547D01*
X138091Y111055D01*
G37*
D15*
X241300Y12700D03*
X215900Y12700D03*
X190500Y12700D03*
X165100Y12700D03*
D19*
X241926Y81788D03*
X224926Y81788D03*
M02*
