G04 EAGLE Gerber RS-274X export*
G75*
%MOMM*%
%FSLAX34Y34*%
%LPD*%
%INSoldermask Top*%
%IPPOS*%
%AMOC8*
5,1,8,0,0,1.08239X$1,22.5*%
G01*
%ADD10C,0.505344*%
%ADD11C,0.838200*%
%ADD12C,3.251200*%
%ADD13R,2.203200X1.403200*%
%ADD14R,1.553200X0.803200*%
%ADD15C,2.082800*%
%ADD16R,1.203200X1.303200*%
%ADD17R,0.453200X0.703200*%
%ADD18R,2.153200X2.153200*%
%ADD19R,1.303200X1.203200*%
%ADD20C,1.203200*%
%ADD21C,1.270000*%
%ADD22C,1.703200*%

G36*
X382496Y1646556D02*
X382496Y1646556D01*
X382513Y1646553D01*
X382563Y1646575D01*
X382614Y1646590D01*
X382625Y1646603D01*
X382641Y1646610D01*
X382671Y1646655D01*
X382706Y1646695D01*
X382709Y1646712D01*
X382718Y1646727D01*
X382729Y1646800D01*
X382729Y1661100D01*
X382725Y1661113D01*
X382728Y1661127D01*
X382706Y1661180D01*
X382690Y1661234D01*
X382680Y1661243D01*
X382674Y1661256D01*
X382628Y1661289D01*
X382585Y1661326D01*
X382571Y1661328D01*
X382560Y1661336D01*
X382486Y1661349D01*
X379440Y1661428D01*
X376462Y1661980D01*
X373608Y1662992D01*
X370948Y1664439D01*
X368532Y1666298D01*
X368491Y1666314D01*
X368454Y1666338D01*
X368411Y1666345D01*
X368402Y1666348D01*
X368395Y1666347D01*
X368380Y1666349D01*
X363080Y1666349D01*
X363064Y1666344D01*
X363047Y1666347D01*
X362997Y1666325D01*
X362946Y1666310D01*
X362935Y1666297D01*
X362919Y1666290D01*
X362889Y1666245D01*
X362854Y1666205D01*
X362851Y1666188D01*
X362842Y1666174D01*
X362831Y1666100D01*
X362831Y1646800D01*
X362836Y1646784D01*
X362833Y1646767D01*
X362855Y1646717D01*
X362870Y1646666D01*
X362883Y1646655D01*
X362890Y1646639D01*
X362935Y1646609D01*
X362975Y1646574D01*
X362992Y1646571D01*
X363007Y1646562D01*
X363080Y1646551D01*
X382480Y1646551D01*
X382496Y1646556D01*
G37*
G36*
X1159736Y1349376D02*
X1159736Y1349376D01*
X1159753Y1349373D01*
X1159803Y1349395D01*
X1159854Y1349410D01*
X1159865Y1349423D01*
X1159881Y1349430D01*
X1159911Y1349475D01*
X1159946Y1349515D01*
X1159949Y1349532D01*
X1159958Y1349547D01*
X1159969Y1349620D01*
X1159969Y1363920D01*
X1159965Y1363933D01*
X1159968Y1363947D01*
X1159946Y1364000D01*
X1159930Y1364054D01*
X1159920Y1364063D01*
X1159914Y1364076D01*
X1159868Y1364109D01*
X1159825Y1364146D01*
X1159811Y1364148D01*
X1159800Y1364156D01*
X1159726Y1364169D01*
X1156680Y1364248D01*
X1153702Y1364800D01*
X1150848Y1365812D01*
X1148188Y1367259D01*
X1145772Y1369118D01*
X1145731Y1369134D01*
X1145694Y1369158D01*
X1145651Y1369165D01*
X1145642Y1369168D01*
X1145635Y1369167D01*
X1145620Y1369169D01*
X1140320Y1369169D01*
X1140304Y1369164D01*
X1140287Y1369167D01*
X1140237Y1369145D01*
X1140186Y1369130D01*
X1140175Y1369117D01*
X1140159Y1369110D01*
X1140129Y1369065D01*
X1140094Y1369025D01*
X1140091Y1369008D01*
X1140082Y1368994D01*
X1140071Y1368920D01*
X1140071Y1349620D01*
X1140076Y1349604D01*
X1140073Y1349587D01*
X1140095Y1349537D01*
X1140110Y1349486D01*
X1140123Y1349475D01*
X1140130Y1349459D01*
X1140175Y1349429D01*
X1140215Y1349394D01*
X1140232Y1349391D01*
X1140247Y1349382D01*
X1140320Y1349371D01*
X1159720Y1349371D01*
X1159736Y1349376D01*
G37*
G36*
X123416Y1349376D02*
X123416Y1349376D01*
X123433Y1349373D01*
X123483Y1349395D01*
X123534Y1349410D01*
X123545Y1349423D01*
X123561Y1349430D01*
X123591Y1349475D01*
X123626Y1349515D01*
X123629Y1349532D01*
X123638Y1349547D01*
X123649Y1349620D01*
X123649Y1363920D01*
X123645Y1363933D01*
X123648Y1363947D01*
X123626Y1364000D01*
X123610Y1364054D01*
X123600Y1364063D01*
X123594Y1364076D01*
X123548Y1364109D01*
X123505Y1364146D01*
X123491Y1364148D01*
X123480Y1364156D01*
X123406Y1364169D01*
X120360Y1364248D01*
X117382Y1364800D01*
X114528Y1365812D01*
X111868Y1367259D01*
X109452Y1369118D01*
X109411Y1369134D01*
X109374Y1369158D01*
X109331Y1369165D01*
X109322Y1369168D01*
X109315Y1369167D01*
X109300Y1369169D01*
X104000Y1369169D01*
X103984Y1369164D01*
X103967Y1369167D01*
X103917Y1369145D01*
X103866Y1369130D01*
X103855Y1369117D01*
X103839Y1369110D01*
X103809Y1369065D01*
X103774Y1369025D01*
X103771Y1369008D01*
X103762Y1368994D01*
X103751Y1368920D01*
X103751Y1349620D01*
X103756Y1349604D01*
X103753Y1349587D01*
X103775Y1349537D01*
X103790Y1349486D01*
X103803Y1349475D01*
X103810Y1349459D01*
X103855Y1349429D01*
X103895Y1349394D01*
X103912Y1349391D01*
X103927Y1349382D01*
X104000Y1349371D01*
X123400Y1349371D01*
X123416Y1349376D01*
G37*
G36*
X900656Y1349376D02*
X900656Y1349376D01*
X900673Y1349373D01*
X900723Y1349395D01*
X900774Y1349410D01*
X900785Y1349423D01*
X900801Y1349430D01*
X900831Y1349475D01*
X900866Y1349515D01*
X900869Y1349532D01*
X900878Y1349547D01*
X900889Y1349620D01*
X900889Y1363920D01*
X900885Y1363933D01*
X900888Y1363947D01*
X900866Y1364000D01*
X900850Y1364054D01*
X900840Y1364063D01*
X900834Y1364076D01*
X900788Y1364109D01*
X900745Y1364146D01*
X900731Y1364148D01*
X900720Y1364156D01*
X900646Y1364169D01*
X897600Y1364248D01*
X894622Y1364800D01*
X891768Y1365812D01*
X889108Y1367259D01*
X886692Y1369118D01*
X886651Y1369134D01*
X886614Y1369158D01*
X886571Y1369165D01*
X886562Y1369168D01*
X886555Y1369167D01*
X886540Y1369169D01*
X881240Y1369169D01*
X881224Y1369164D01*
X881207Y1369167D01*
X881157Y1369145D01*
X881106Y1369130D01*
X881095Y1369117D01*
X881079Y1369110D01*
X881049Y1369065D01*
X881014Y1369025D01*
X881011Y1369008D01*
X881002Y1368994D01*
X880991Y1368920D01*
X880991Y1349620D01*
X880996Y1349604D01*
X880993Y1349587D01*
X881015Y1349537D01*
X881030Y1349486D01*
X881043Y1349475D01*
X881050Y1349459D01*
X881095Y1349429D01*
X881135Y1349394D01*
X881152Y1349391D01*
X881167Y1349382D01*
X881240Y1349371D01*
X900640Y1349371D01*
X900656Y1349376D01*
G37*
G36*
X382496Y1052196D02*
X382496Y1052196D01*
X382513Y1052193D01*
X382563Y1052215D01*
X382614Y1052230D01*
X382625Y1052243D01*
X382641Y1052250D01*
X382671Y1052295D01*
X382706Y1052335D01*
X382709Y1052352D01*
X382718Y1052367D01*
X382729Y1052440D01*
X382729Y1066740D01*
X382725Y1066753D01*
X382728Y1066767D01*
X382706Y1066820D01*
X382690Y1066874D01*
X382680Y1066883D01*
X382674Y1066896D01*
X382628Y1066929D01*
X382585Y1066966D01*
X382571Y1066968D01*
X382560Y1066976D01*
X382486Y1066989D01*
X379440Y1067068D01*
X376462Y1067620D01*
X373608Y1068632D01*
X370948Y1070079D01*
X368532Y1071938D01*
X368491Y1071954D01*
X368454Y1071978D01*
X368411Y1071985D01*
X368402Y1071988D01*
X368395Y1071987D01*
X368380Y1071989D01*
X363080Y1071989D01*
X363064Y1071984D01*
X363047Y1071987D01*
X362997Y1071965D01*
X362946Y1071950D01*
X362935Y1071937D01*
X362919Y1071930D01*
X362889Y1071885D01*
X362854Y1071845D01*
X362851Y1071828D01*
X362842Y1071814D01*
X362831Y1071740D01*
X362831Y1052440D01*
X362836Y1052424D01*
X362833Y1052407D01*
X362855Y1052357D01*
X362870Y1052306D01*
X362883Y1052295D01*
X362890Y1052279D01*
X362935Y1052249D01*
X362975Y1052214D01*
X362992Y1052211D01*
X363007Y1052202D01*
X363080Y1052191D01*
X382480Y1052191D01*
X382496Y1052196D01*
G37*
G36*
X641576Y1646556D02*
X641576Y1646556D01*
X641593Y1646553D01*
X641643Y1646575D01*
X641694Y1646590D01*
X641705Y1646603D01*
X641721Y1646610D01*
X641751Y1646655D01*
X641786Y1646695D01*
X641789Y1646712D01*
X641798Y1646727D01*
X641809Y1646800D01*
X641809Y1661100D01*
X641805Y1661113D01*
X641808Y1661127D01*
X641786Y1661180D01*
X641770Y1661234D01*
X641760Y1661243D01*
X641754Y1661256D01*
X641708Y1661289D01*
X641665Y1661326D01*
X641651Y1661328D01*
X641640Y1661336D01*
X641566Y1661349D01*
X638520Y1661428D01*
X635542Y1661980D01*
X632688Y1662992D01*
X630028Y1664439D01*
X627612Y1666298D01*
X627571Y1666314D01*
X627534Y1666338D01*
X627491Y1666345D01*
X627482Y1666348D01*
X627475Y1666347D01*
X627460Y1666349D01*
X622160Y1666349D01*
X622144Y1666344D01*
X622127Y1666347D01*
X622077Y1666325D01*
X622026Y1666310D01*
X622015Y1666297D01*
X621999Y1666290D01*
X621969Y1666245D01*
X621934Y1666205D01*
X621931Y1666188D01*
X621922Y1666174D01*
X621911Y1666100D01*
X621911Y1646800D01*
X621916Y1646784D01*
X621913Y1646767D01*
X621935Y1646717D01*
X621950Y1646666D01*
X621963Y1646655D01*
X621970Y1646639D01*
X622015Y1646609D01*
X622055Y1646574D01*
X622072Y1646571D01*
X622087Y1646562D01*
X622160Y1646551D01*
X641560Y1646551D01*
X641576Y1646556D01*
G37*
G36*
X1159736Y1646556D02*
X1159736Y1646556D01*
X1159753Y1646553D01*
X1159803Y1646575D01*
X1159854Y1646590D01*
X1159865Y1646603D01*
X1159881Y1646610D01*
X1159911Y1646655D01*
X1159946Y1646695D01*
X1159949Y1646712D01*
X1159958Y1646727D01*
X1159969Y1646800D01*
X1159969Y1661100D01*
X1159965Y1661113D01*
X1159968Y1661127D01*
X1159946Y1661180D01*
X1159930Y1661234D01*
X1159920Y1661243D01*
X1159914Y1661256D01*
X1159868Y1661289D01*
X1159825Y1661326D01*
X1159811Y1661328D01*
X1159800Y1661336D01*
X1159726Y1661349D01*
X1156680Y1661428D01*
X1153702Y1661980D01*
X1150848Y1662992D01*
X1148188Y1664439D01*
X1145772Y1666298D01*
X1145731Y1666314D01*
X1145694Y1666338D01*
X1145651Y1666345D01*
X1145642Y1666348D01*
X1145635Y1666347D01*
X1145620Y1666349D01*
X1140320Y1666349D01*
X1140304Y1666344D01*
X1140287Y1666347D01*
X1140237Y1666325D01*
X1140186Y1666310D01*
X1140175Y1666297D01*
X1140159Y1666290D01*
X1140129Y1666245D01*
X1140094Y1666205D01*
X1140091Y1666188D01*
X1140082Y1666174D01*
X1140071Y1666100D01*
X1140071Y1646800D01*
X1140076Y1646784D01*
X1140073Y1646767D01*
X1140095Y1646717D01*
X1140110Y1646666D01*
X1140123Y1646655D01*
X1140130Y1646639D01*
X1140175Y1646609D01*
X1140215Y1646574D01*
X1140232Y1646571D01*
X1140247Y1646562D01*
X1140320Y1646551D01*
X1159720Y1646551D01*
X1159736Y1646556D01*
G37*
G36*
X123416Y160656D02*
X123416Y160656D01*
X123433Y160653D01*
X123483Y160675D01*
X123534Y160690D01*
X123545Y160703D01*
X123561Y160710D01*
X123591Y160755D01*
X123626Y160795D01*
X123629Y160812D01*
X123638Y160827D01*
X123649Y160900D01*
X123649Y175200D01*
X123645Y175213D01*
X123648Y175227D01*
X123626Y175280D01*
X123610Y175334D01*
X123600Y175343D01*
X123594Y175356D01*
X123548Y175389D01*
X123505Y175426D01*
X123491Y175428D01*
X123480Y175436D01*
X123406Y175449D01*
X120360Y175528D01*
X117382Y176080D01*
X114528Y177092D01*
X111868Y178539D01*
X109452Y180398D01*
X109411Y180414D01*
X109374Y180438D01*
X109331Y180445D01*
X109322Y180448D01*
X109315Y180447D01*
X109300Y180449D01*
X104000Y180449D01*
X103984Y180444D01*
X103967Y180447D01*
X103917Y180425D01*
X103866Y180410D01*
X103855Y180397D01*
X103839Y180390D01*
X103809Y180345D01*
X103774Y180305D01*
X103771Y180288D01*
X103762Y180274D01*
X103751Y180200D01*
X103751Y160900D01*
X103756Y160884D01*
X103753Y160867D01*
X103775Y160817D01*
X103790Y160766D01*
X103803Y160755D01*
X103810Y160739D01*
X103855Y160709D01*
X103895Y160674D01*
X103912Y160671D01*
X103927Y160662D01*
X104000Y160651D01*
X123400Y160651D01*
X123416Y160656D01*
G37*
G36*
X123416Y1646556D02*
X123416Y1646556D01*
X123433Y1646553D01*
X123483Y1646575D01*
X123534Y1646590D01*
X123545Y1646603D01*
X123561Y1646610D01*
X123591Y1646655D01*
X123626Y1646695D01*
X123629Y1646712D01*
X123638Y1646727D01*
X123649Y1646800D01*
X123649Y1661100D01*
X123645Y1661113D01*
X123648Y1661127D01*
X123626Y1661180D01*
X123610Y1661234D01*
X123600Y1661243D01*
X123594Y1661256D01*
X123548Y1661289D01*
X123505Y1661326D01*
X123491Y1661328D01*
X123480Y1661336D01*
X123406Y1661349D01*
X120360Y1661428D01*
X117382Y1661980D01*
X114528Y1662992D01*
X111868Y1664439D01*
X109452Y1666298D01*
X109411Y1666314D01*
X109374Y1666338D01*
X109331Y1666345D01*
X109322Y1666348D01*
X109315Y1666347D01*
X109300Y1666349D01*
X104000Y1666349D01*
X103984Y1666344D01*
X103967Y1666347D01*
X103917Y1666325D01*
X103866Y1666310D01*
X103855Y1666297D01*
X103839Y1666290D01*
X103809Y1666245D01*
X103774Y1666205D01*
X103771Y1666188D01*
X103762Y1666174D01*
X103751Y1666100D01*
X103751Y1646800D01*
X103756Y1646784D01*
X103753Y1646767D01*
X103775Y1646717D01*
X103790Y1646666D01*
X103803Y1646655D01*
X103810Y1646639D01*
X103855Y1646609D01*
X103895Y1646574D01*
X103912Y1646571D01*
X103927Y1646562D01*
X104000Y1646551D01*
X123400Y1646551D01*
X123416Y1646556D01*
G37*
G36*
X900656Y1646556D02*
X900656Y1646556D01*
X900673Y1646553D01*
X900723Y1646575D01*
X900774Y1646590D01*
X900785Y1646603D01*
X900801Y1646610D01*
X900831Y1646655D01*
X900866Y1646695D01*
X900869Y1646712D01*
X900878Y1646727D01*
X900889Y1646800D01*
X900889Y1661100D01*
X900885Y1661113D01*
X900888Y1661127D01*
X900866Y1661180D01*
X900850Y1661234D01*
X900840Y1661243D01*
X900834Y1661256D01*
X900788Y1661289D01*
X900745Y1661326D01*
X900731Y1661328D01*
X900720Y1661336D01*
X900646Y1661349D01*
X897600Y1661428D01*
X894622Y1661980D01*
X891768Y1662992D01*
X889108Y1664439D01*
X886692Y1666298D01*
X886651Y1666314D01*
X886614Y1666338D01*
X886571Y1666345D01*
X886562Y1666348D01*
X886555Y1666347D01*
X886540Y1666349D01*
X881240Y1666349D01*
X881224Y1666344D01*
X881207Y1666347D01*
X881157Y1666325D01*
X881106Y1666310D01*
X881095Y1666297D01*
X881079Y1666290D01*
X881049Y1666245D01*
X881014Y1666205D01*
X881011Y1666188D01*
X881002Y1666174D01*
X880991Y1666100D01*
X880991Y1646800D01*
X880996Y1646784D01*
X880993Y1646767D01*
X881015Y1646717D01*
X881030Y1646666D01*
X881043Y1646655D01*
X881050Y1646639D01*
X881095Y1646609D01*
X881135Y1646574D01*
X881152Y1646571D01*
X881167Y1646562D01*
X881240Y1646551D01*
X900640Y1646551D01*
X900656Y1646556D01*
G37*
G36*
X1159736Y1052196D02*
X1159736Y1052196D01*
X1159753Y1052193D01*
X1159803Y1052215D01*
X1159854Y1052230D01*
X1159865Y1052243D01*
X1159881Y1052250D01*
X1159911Y1052295D01*
X1159946Y1052335D01*
X1159949Y1052352D01*
X1159958Y1052367D01*
X1159969Y1052440D01*
X1159969Y1066740D01*
X1159965Y1066753D01*
X1159968Y1066767D01*
X1159946Y1066820D01*
X1159930Y1066874D01*
X1159920Y1066883D01*
X1159914Y1066896D01*
X1159868Y1066929D01*
X1159825Y1066966D01*
X1159811Y1066968D01*
X1159800Y1066976D01*
X1159726Y1066989D01*
X1156680Y1067068D01*
X1153702Y1067620D01*
X1150848Y1068632D01*
X1148188Y1070079D01*
X1145772Y1071938D01*
X1145731Y1071954D01*
X1145694Y1071978D01*
X1145651Y1071985D01*
X1145642Y1071988D01*
X1145635Y1071987D01*
X1145620Y1071989D01*
X1140320Y1071989D01*
X1140304Y1071984D01*
X1140287Y1071987D01*
X1140237Y1071965D01*
X1140186Y1071950D01*
X1140175Y1071937D01*
X1140159Y1071930D01*
X1140129Y1071885D01*
X1140094Y1071845D01*
X1140091Y1071828D01*
X1140082Y1071814D01*
X1140071Y1071740D01*
X1140071Y1052440D01*
X1140076Y1052424D01*
X1140073Y1052407D01*
X1140095Y1052357D01*
X1140110Y1052306D01*
X1140123Y1052295D01*
X1140130Y1052279D01*
X1140175Y1052249D01*
X1140215Y1052214D01*
X1140232Y1052211D01*
X1140247Y1052202D01*
X1140320Y1052191D01*
X1159720Y1052191D01*
X1159736Y1052196D01*
G37*
G36*
X900656Y1052196D02*
X900656Y1052196D01*
X900673Y1052193D01*
X900723Y1052215D01*
X900774Y1052230D01*
X900785Y1052243D01*
X900801Y1052250D01*
X900831Y1052295D01*
X900866Y1052335D01*
X900869Y1052352D01*
X900878Y1052367D01*
X900889Y1052440D01*
X900889Y1066740D01*
X900885Y1066753D01*
X900888Y1066767D01*
X900866Y1066820D01*
X900850Y1066874D01*
X900840Y1066883D01*
X900834Y1066896D01*
X900788Y1066929D01*
X900745Y1066966D01*
X900731Y1066968D01*
X900720Y1066976D01*
X900646Y1066989D01*
X897600Y1067068D01*
X894622Y1067620D01*
X891768Y1068632D01*
X889108Y1070079D01*
X886692Y1071938D01*
X886651Y1071954D01*
X886614Y1071978D01*
X886571Y1071985D01*
X886562Y1071988D01*
X886555Y1071987D01*
X886540Y1071989D01*
X881240Y1071989D01*
X881224Y1071984D01*
X881207Y1071987D01*
X881157Y1071965D01*
X881106Y1071950D01*
X881095Y1071937D01*
X881079Y1071930D01*
X881049Y1071885D01*
X881014Y1071845D01*
X881011Y1071828D01*
X881002Y1071814D01*
X880991Y1071740D01*
X880991Y1052440D01*
X880996Y1052424D01*
X880993Y1052407D01*
X881015Y1052357D01*
X881030Y1052306D01*
X881043Y1052295D01*
X881050Y1052279D01*
X881095Y1052249D01*
X881135Y1052214D01*
X881152Y1052211D01*
X881167Y1052202D01*
X881240Y1052191D01*
X900640Y1052191D01*
X900656Y1052196D01*
G37*
G36*
X382496Y755016D02*
X382496Y755016D01*
X382513Y755013D01*
X382563Y755035D01*
X382614Y755050D01*
X382625Y755063D01*
X382641Y755070D01*
X382671Y755115D01*
X382706Y755155D01*
X382709Y755172D01*
X382718Y755187D01*
X382729Y755260D01*
X382729Y769560D01*
X382725Y769573D01*
X382728Y769587D01*
X382706Y769640D01*
X382690Y769694D01*
X382680Y769703D01*
X382674Y769716D01*
X382628Y769749D01*
X382585Y769786D01*
X382571Y769788D01*
X382560Y769796D01*
X382486Y769809D01*
X379440Y769888D01*
X376462Y770440D01*
X373608Y771452D01*
X370948Y772899D01*
X368532Y774758D01*
X368491Y774774D01*
X368454Y774798D01*
X368411Y774805D01*
X368402Y774808D01*
X368395Y774807D01*
X368380Y774809D01*
X363080Y774809D01*
X363064Y774804D01*
X363047Y774807D01*
X362997Y774785D01*
X362946Y774770D01*
X362935Y774757D01*
X362919Y774750D01*
X362889Y774705D01*
X362854Y774665D01*
X362851Y774648D01*
X362842Y774634D01*
X362831Y774560D01*
X362831Y755260D01*
X362836Y755244D01*
X362833Y755227D01*
X362855Y755177D01*
X362870Y755126D01*
X362883Y755115D01*
X362890Y755099D01*
X362935Y755069D01*
X362975Y755034D01*
X362992Y755031D01*
X363007Y755022D01*
X363080Y755011D01*
X382480Y755011D01*
X382496Y755016D01*
G37*
G36*
X641576Y1052196D02*
X641576Y1052196D01*
X641593Y1052193D01*
X641643Y1052215D01*
X641694Y1052230D01*
X641705Y1052243D01*
X641721Y1052250D01*
X641751Y1052295D01*
X641786Y1052335D01*
X641789Y1052352D01*
X641798Y1052367D01*
X641809Y1052440D01*
X641809Y1066740D01*
X641805Y1066753D01*
X641808Y1066767D01*
X641786Y1066820D01*
X641770Y1066874D01*
X641760Y1066883D01*
X641754Y1066896D01*
X641708Y1066929D01*
X641665Y1066966D01*
X641651Y1066968D01*
X641640Y1066976D01*
X641566Y1066989D01*
X638520Y1067068D01*
X635542Y1067620D01*
X632688Y1068632D01*
X630028Y1070079D01*
X627612Y1071938D01*
X627571Y1071954D01*
X627534Y1071978D01*
X627491Y1071985D01*
X627482Y1071988D01*
X627475Y1071987D01*
X627460Y1071989D01*
X622160Y1071989D01*
X622144Y1071984D01*
X622127Y1071987D01*
X622077Y1071965D01*
X622026Y1071950D01*
X622015Y1071937D01*
X621999Y1071930D01*
X621969Y1071885D01*
X621934Y1071845D01*
X621931Y1071828D01*
X621922Y1071814D01*
X621911Y1071740D01*
X621911Y1052440D01*
X621916Y1052424D01*
X621913Y1052407D01*
X621935Y1052357D01*
X621950Y1052306D01*
X621963Y1052295D01*
X621970Y1052279D01*
X622015Y1052249D01*
X622055Y1052214D01*
X622072Y1052211D01*
X622087Y1052202D01*
X622160Y1052191D01*
X641560Y1052191D01*
X641576Y1052196D01*
G37*
G36*
X123416Y1052196D02*
X123416Y1052196D01*
X123433Y1052193D01*
X123483Y1052215D01*
X123534Y1052230D01*
X123545Y1052243D01*
X123561Y1052250D01*
X123591Y1052295D01*
X123626Y1052335D01*
X123629Y1052352D01*
X123638Y1052367D01*
X123649Y1052440D01*
X123649Y1066740D01*
X123645Y1066753D01*
X123648Y1066767D01*
X123626Y1066820D01*
X123610Y1066874D01*
X123600Y1066883D01*
X123594Y1066896D01*
X123548Y1066929D01*
X123505Y1066966D01*
X123491Y1066968D01*
X123480Y1066976D01*
X123406Y1066989D01*
X120360Y1067068D01*
X117382Y1067620D01*
X114528Y1068632D01*
X111868Y1070079D01*
X109452Y1071938D01*
X109411Y1071954D01*
X109374Y1071978D01*
X109331Y1071985D01*
X109322Y1071988D01*
X109315Y1071987D01*
X109300Y1071989D01*
X104000Y1071989D01*
X103984Y1071984D01*
X103967Y1071987D01*
X103917Y1071965D01*
X103866Y1071950D01*
X103855Y1071937D01*
X103839Y1071930D01*
X103809Y1071885D01*
X103774Y1071845D01*
X103771Y1071828D01*
X103762Y1071814D01*
X103751Y1071740D01*
X103751Y1052440D01*
X103756Y1052424D01*
X103753Y1052407D01*
X103775Y1052357D01*
X103790Y1052306D01*
X103803Y1052295D01*
X103810Y1052279D01*
X103855Y1052249D01*
X103895Y1052214D01*
X103912Y1052211D01*
X103927Y1052202D01*
X104000Y1052191D01*
X123400Y1052191D01*
X123416Y1052196D01*
G37*
G36*
X641576Y1349376D02*
X641576Y1349376D01*
X641593Y1349373D01*
X641643Y1349395D01*
X641694Y1349410D01*
X641705Y1349423D01*
X641721Y1349430D01*
X641751Y1349475D01*
X641786Y1349515D01*
X641789Y1349532D01*
X641798Y1349547D01*
X641809Y1349620D01*
X641809Y1363920D01*
X641805Y1363933D01*
X641808Y1363947D01*
X641786Y1364000D01*
X641770Y1364054D01*
X641760Y1364063D01*
X641754Y1364076D01*
X641708Y1364109D01*
X641665Y1364146D01*
X641651Y1364148D01*
X641640Y1364156D01*
X641566Y1364169D01*
X638520Y1364248D01*
X635542Y1364800D01*
X632688Y1365812D01*
X630028Y1367259D01*
X627612Y1369118D01*
X627571Y1369134D01*
X627534Y1369158D01*
X627491Y1369165D01*
X627482Y1369168D01*
X627475Y1369167D01*
X627460Y1369169D01*
X622160Y1369169D01*
X622144Y1369164D01*
X622127Y1369167D01*
X622077Y1369145D01*
X622026Y1369130D01*
X622015Y1369117D01*
X621999Y1369110D01*
X621969Y1369065D01*
X621934Y1369025D01*
X621931Y1369008D01*
X621922Y1368994D01*
X621911Y1368920D01*
X621911Y1349620D01*
X621916Y1349604D01*
X621913Y1349587D01*
X621935Y1349537D01*
X621950Y1349486D01*
X621963Y1349475D01*
X621970Y1349459D01*
X622015Y1349429D01*
X622055Y1349394D01*
X622072Y1349391D01*
X622087Y1349382D01*
X622160Y1349371D01*
X641560Y1349371D01*
X641576Y1349376D01*
G37*
G36*
X382496Y1349376D02*
X382496Y1349376D01*
X382513Y1349373D01*
X382563Y1349395D01*
X382614Y1349410D01*
X382625Y1349423D01*
X382641Y1349430D01*
X382671Y1349475D01*
X382706Y1349515D01*
X382709Y1349532D01*
X382718Y1349547D01*
X382729Y1349620D01*
X382729Y1363920D01*
X382725Y1363933D01*
X382728Y1363947D01*
X382706Y1364000D01*
X382690Y1364054D01*
X382680Y1364063D01*
X382674Y1364076D01*
X382628Y1364109D01*
X382585Y1364146D01*
X382571Y1364148D01*
X382560Y1364156D01*
X382486Y1364169D01*
X379440Y1364248D01*
X376462Y1364800D01*
X373608Y1365812D01*
X370948Y1367259D01*
X368532Y1369118D01*
X368491Y1369134D01*
X368454Y1369158D01*
X368411Y1369165D01*
X368402Y1369168D01*
X368395Y1369167D01*
X368380Y1369169D01*
X363080Y1369169D01*
X363064Y1369164D01*
X363047Y1369167D01*
X362997Y1369145D01*
X362946Y1369130D01*
X362935Y1369117D01*
X362919Y1369110D01*
X362889Y1369065D01*
X362854Y1369025D01*
X362851Y1369008D01*
X362842Y1368994D01*
X362831Y1368920D01*
X362831Y1349620D01*
X362836Y1349604D01*
X362833Y1349587D01*
X362855Y1349537D01*
X362870Y1349486D01*
X362883Y1349475D01*
X362890Y1349459D01*
X362935Y1349429D01*
X362975Y1349394D01*
X362992Y1349391D01*
X363007Y1349382D01*
X363080Y1349371D01*
X382480Y1349371D01*
X382496Y1349376D01*
G37*
G36*
X123416Y755016D02*
X123416Y755016D01*
X123433Y755013D01*
X123483Y755035D01*
X123534Y755050D01*
X123545Y755063D01*
X123561Y755070D01*
X123591Y755115D01*
X123626Y755155D01*
X123629Y755172D01*
X123638Y755187D01*
X123649Y755260D01*
X123649Y769560D01*
X123645Y769573D01*
X123648Y769587D01*
X123626Y769640D01*
X123610Y769694D01*
X123600Y769703D01*
X123594Y769716D01*
X123548Y769749D01*
X123505Y769786D01*
X123491Y769788D01*
X123480Y769796D01*
X123406Y769809D01*
X120360Y769888D01*
X117382Y770440D01*
X114528Y771452D01*
X111868Y772899D01*
X109452Y774758D01*
X109411Y774774D01*
X109374Y774798D01*
X109331Y774805D01*
X109322Y774808D01*
X109315Y774807D01*
X109300Y774809D01*
X104000Y774809D01*
X103984Y774804D01*
X103967Y774807D01*
X103917Y774785D01*
X103866Y774770D01*
X103855Y774757D01*
X103839Y774750D01*
X103809Y774705D01*
X103774Y774665D01*
X103771Y774648D01*
X103762Y774634D01*
X103751Y774560D01*
X103751Y755260D01*
X103756Y755244D01*
X103753Y755227D01*
X103775Y755177D01*
X103790Y755126D01*
X103803Y755115D01*
X103810Y755099D01*
X103855Y755069D01*
X103895Y755034D01*
X103912Y755031D01*
X103927Y755022D01*
X104000Y755011D01*
X123400Y755011D01*
X123416Y755016D01*
G37*
G36*
X900656Y755016D02*
X900656Y755016D01*
X900673Y755013D01*
X900723Y755035D01*
X900774Y755050D01*
X900785Y755063D01*
X900801Y755070D01*
X900831Y755115D01*
X900866Y755155D01*
X900869Y755172D01*
X900878Y755187D01*
X900889Y755260D01*
X900889Y769560D01*
X900885Y769573D01*
X900888Y769587D01*
X900866Y769640D01*
X900850Y769694D01*
X900840Y769703D01*
X900834Y769716D01*
X900788Y769749D01*
X900745Y769786D01*
X900731Y769788D01*
X900720Y769796D01*
X900646Y769809D01*
X897600Y769888D01*
X894622Y770440D01*
X891768Y771452D01*
X889108Y772899D01*
X886692Y774758D01*
X886651Y774774D01*
X886614Y774798D01*
X886571Y774805D01*
X886562Y774808D01*
X886555Y774807D01*
X886540Y774809D01*
X881240Y774809D01*
X881224Y774804D01*
X881207Y774807D01*
X881157Y774785D01*
X881106Y774770D01*
X881095Y774757D01*
X881079Y774750D01*
X881049Y774705D01*
X881014Y774665D01*
X881011Y774648D01*
X881002Y774634D01*
X880991Y774560D01*
X880991Y755260D01*
X880996Y755244D01*
X880993Y755227D01*
X881015Y755177D01*
X881030Y755126D01*
X881043Y755115D01*
X881050Y755099D01*
X881095Y755069D01*
X881135Y755034D01*
X881152Y755031D01*
X881167Y755022D01*
X881240Y755011D01*
X900640Y755011D01*
X900656Y755016D01*
G37*
G36*
X1159736Y755016D02*
X1159736Y755016D01*
X1159753Y755013D01*
X1159803Y755035D01*
X1159854Y755050D01*
X1159865Y755063D01*
X1159881Y755070D01*
X1159911Y755115D01*
X1159946Y755155D01*
X1159949Y755172D01*
X1159958Y755187D01*
X1159969Y755260D01*
X1159969Y769560D01*
X1159965Y769573D01*
X1159968Y769587D01*
X1159946Y769640D01*
X1159930Y769694D01*
X1159920Y769703D01*
X1159914Y769716D01*
X1159868Y769749D01*
X1159825Y769786D01*
X1159811Y769788D01*
X1159800Y769796D01*
X1159726Y769809D01*
X1156680Y769888D01*
X1153702Y770440D01*
X1150848Y771452D01*
X1148188Y772899D01*
X1145772Y774758D01*
X1145731Y774774D01*
X1145694Y774798D01*
X1145651Y774805D01*
X1145642Y774808D01*
X1145635Y774807D01*
X1145620Y774809D01*
X1140320Y774809D01*
X1140304Y774804D01*
X1140287Y774807D01*
X1140237Y774785D01*
X1140186Y774770D01*
X1140175Y774757D01*
X1140159Y774750D01*
X1140129Y774705D01*
X1140094Y774665D01*
X1140091Y774648D01*
X1140082Y774634D01*
X1140071Y774560D01*
X1140071Y755260D01*
X1140076Y755244D01*
X1140073Y755227D01*
X1140095Y755177D01*
X1140110Y755126D01*
X1140123Y755115D01*
X1140130Y755099D01*
X1140175Y755069D01*
X1140215Y755034D01*
X1140232Y755031D01*
X1140247Y755022D01*
X1140320Y755011D01*
X1159720Y755011D01*
X1159736Y755016D01*
G37*
G36*
X641576Y755016D02*
X641576Y755016D01*
X641593Y755013D01*
X641643Y755035D01*
X641694Y755050D01*
X641705Y755063D01*
X641721Y755070D01*
X641751Y755115D01*
X641786Y755155D01*
X641789Y755172D01*
X641798Y755187D01*
X641809Y755260D01*
X641809Y769560D01*
X641805Y769573D01*
X641808Y769587D01*
X641786Y769640D01*
X641770Y769694D01*
X641760Y769703D01*
X641754Y769716D01*
X641708Y769749D01*
X641665Y769786D01*
X641651Y769788D01*
X641640Y769796D01*
X641566Y769809D01*
X638520Y769888D01*
X635542Y770440D01*
X632688Y771452D01*
X630028Y772899D01*
X627612Y774758D01*
X627571Y774774D01*
X627534Y774798D01*
X627491Y774805D01*
X627482Y774808D01*
X627475Y774807D01*
X627460Y774809D01*
X622160Y774809D01*
X622144Y774804D01*
X622127Y774807D01*
X622077Y774785D01*
X622026Y774770D01*
X622015Y774757D01*
X621999Y774750D01*
X621969Y774705D01*
X621934Y774665D01*
X621931Y774648D01*
X621922Y774634D01*
X621911Y774560D01*
X621911Y755260D01*
X621916Y755244D01*
X621913Y755227D01*
X621935Y755177D01*
X621950Y755126D01*
X621963Y755115D01*
X621970Y755099D01*
X622015Y755069D01*
X622055Y755034D01*
X622072Y755031D01*
X622087Y755022D01*
X622160Y755011D01*
X641560Y755011D01*
X641576Y755016D01*
G37*
G36*
X382496Y457836D02*
X382496Y457836D01*
X382513Y457833D01*
X382563Y457855D01*
X382614Y457870D01*
X382625Y457883D01*
X382641Y457890D01*
X382671Y457935D01*
X382706Y457975D01*
X382709Y457992D01*
X382718Y458007D01*
X382729Y458080D01*
X382729Y472380D01*
X382725Y472393D01*
X382728Y472407D01*
X382706Y472460D01*
X382690Y472514D01*
X382680Y472523D01*
X382674Y472536D01*
X382628Y472569D01*
X382585Y472606D01*
X382571Y472608D01*
X382560Y472616D01*
X382486Y472629D01*
X379440Y472708D01*
X376462Y473260D01*
X373608Y474272D01*
X370948Y475719D01*
X368532Y477578D01*
X368491Y477594D01*
X368454Y477618D01*
X368411Y477625D01*
X368402Y477628D01*
X368395Y477627D01*
X368380Y477629D01*
X363080Y477629D01*
X363064Y477624D01*
X363047Y477627D01*
X362997Y477605D01*
X362946Y477590D01*
X362935Y477577D01*
X362919Y477570D01*
X362889Y477525D01*
X362854Y477485D01*
X362851Y477468D01*
X362842Y477454D01*
X362831Y477380D01*
X362831Y458080D01*
X362836Y458064D01*
X362833Y458047D01*
X362855Y457997D01*
X362870Y457946D01*
X362883Y457935D01*
X362890Y457919D01*
X362935Y457889D01*
X362975Y457854D01*
X362992Y457851D01*
X363007Y457842D01*
X363080Y457831D01*
X382480Y457831D01*
X382496Y457836D01*
G37*
G36*
X1159736Y457836D02*
X1159736Y457836D01*
X1159753Y457833D01*
X1159803Y457855D01*
X1159854Y457870D01*
X1159865Y457883D01*
X1159881Y457890D01*
X1159911Y457935D01*
X1159946Y457975D01*
X1159949Y457992D01*
X1159958Y458007D01*
X1159969Y458080D01*
X1159969Y472380D01*
X1159965Y472393D01*
X1159968Y472407D01*
X1159946Y472460D01*
X1159930Y472514D01*
X1159920Y472523D01*
X1159914Y472536D01*
X1159868Y472569D01*
X1159825Y472606D01*
X1159811Y472608D01*
X1159800Y472616D01*
X1159726Y472629D01*
X1156680Y472708D01*
X1153702Y473260D01*
X1150848Y474272D01*
X1148188Y475719D01*
X1145772Y477578D01*
X1145731Y477594D01*
X1145694Y477618D01*
X1145651Y477625D01*
X1145642Y477628D01*
X1145635Y477627D01*
X1145620Y477629D01*
X1140320Y477629D01*
X1140304Y477624D01*
X1140287Y477627D01*
X1140237Y477605D01*
X1140186Y477590D01*
X1140175Y477577D01*
X1140159Y477570D01*
X1140129Y477525D01*
X1140094Y477485D01*
X1140091Y477468D01*
X1140082Y477454D01*
X1140071Y477380D01*
X1140071Y458080D01*
X1140076Y458064D01*
X1140073Y458047D01*
X1140095Y457997D01*
X1140110Y457946D01*
X1140123Y457935D01*
X1140130Y457919D01*
X1140175Y457889D01*
X1140215Y457854D01*
X1140232Y457851D01*
X1140247Y457842D01*
X1140320Y457831D01*
X1159720Y457831D01*
X1159736Y457836D01*
G37*
G36*
X123416Y457836D02*
X123416Y457836D01*
X123433Y457833D01*
X123483Y457855D01*
X123534Y457870D01*
X123545Y457883D01*
X123561Y457890D01*
X123591Y457935D01*
X123626Y457975D01*
X123629Y457992D01*
X123638Y458007D01*
X123649Y458080D01*
X123649Y472380D01*
X123645Y472393D01*
X123648Y472407D01*
X123626Y472460D01*
X123610Y472514D01*
X123600Y472523D01*
X123594Y472536D01*
X123548Y472569D01*
X123505Y472606D01*
X123491Y472608D01*
X123480Y472616D01*
X123406Y472629D01*
X120360Y472708D01*
X117382Y473260D01*
X114528Y474272D01*
X111868Y475719D01*
X109452Y477578D01*
X109411Y477594D01*
X109374Y477618D01*
X109331Y477625D01*
X109322Y477628D01*
X109315Y477627D01*
X109300Y477629D01*
X104000Y477629D01*
X103984Y477624D01*
X103967Y477627D01*
X103917Y477605D01*
X103866Y477590D01*
X103855Y477577D01*
X103839Y477570D01*
X103809Y477525D01*
X103774Y477485D01*
X103771Y477468D01*
X103762Y477454D01*
X103751Y477380D01*
X103751Y458080D01*
X103756Y458064D01*
X103753Y458047D01*
X103775Y457997D01*
X103790Y457946D01*
X103803Y457935D01*
X103810Y457919D01*
X103855Y457889D01*
X103895Y457854D01*
X103912Y457851D01*
X103927Y457842D01*
X104000Y457831D01*
X123400Y457831D01*
X123416Y457836D01*
G37*
G36*
X641576Y457836D02*
X641576Y457836D01*
X641593Y457833D01*
X641643Y457855D01*
X641694Y457870D01*
X641705Y457883D01*
X641721Y457890D01*
X641751Y457935D01*
X641786Y457975D01*
X641789Y457992D01*
X641798Y458007D01*
X641809Y458080D01*
X641809Y472380D01*
X641805Y472393D01*
X641808Y472407D01*
X641786Y472460D01*
X641770Y472514D01*
X641760Y472523D01*
X641754Y472536D01*
X641708Y472569D01*
X641665Y472606D01*
X641651Y472608D01*
X641640Y472616D01*
X641566Y472629D01*
X638520Y472708D01*
X635542Y473260D01*
X632688Y474272D01*
X630028Y475719D01*
X627612Y477578D01*
X627571Y477594D01*
X627534Y477618D01*
X627491Y477625D01*
X627482Y477628D01*
X627475Y477627D01*
X627460Y477629D01*
X622160Y477629D01*
X622144Y477624D01*
X622127Y477627D01*
X622077Y477605D01*
X622026Y477590D01*
X622015Y477577D01*
X621999Y477570D01*
X621969Y477525D01*
X621934Y477485D01*
X621931Y477468D01*
X621922Y477454D01*
X621911Y477380D01*
X621911Y458080D01*
X621916Y458064D01*
X621913Y458047D01*
X621935Y457997D01*
X621950Y457946D01*
X621963Y457935D01*
X621970Y457919D01*
X622015Y457889D01*
X622055Y457854D01*
X622072Y457851D01*
X622087Y457842D01*
X622160Y457831D01*
X641560Y457831D01*
X641576Y457836D01*
G37*
G36*
X900656Y457836D02*
X900656Y457836D01*
X900673Y457833D01*
X900723Y457855D01*
X900774Y457870D01*
X900785Y457883D01*
X900801Y457890D01*
X900831Y457935D01*
X900866Y457975D01*
X900869Y457992D01*
X900878Y458007D01*
X900889Y458080D01*
X900889Y472380D01*
X900885Y472393D01*
X900888Y472407D01*
X900866Y472460D01*
X900850Y472514D01*
X900840Y472523D01*
X900834Y472536D01*
X900788Y472569D01*
X900745Y472606D01*
X900731Y472608D01*
X900720Y472616D01*
X900646Y472629D01*
X897600Y472708D01*
X894622Y473260D01*
X891768Y474272D01*
X889108Y475719D01*
X886692Y477578D01*
X886651Y477594D01*
X886614Y477618D01*
X886571Y477625D01*
X886562Y477628D01*
X886555Y477627D01*
X886540Y477629D01*
X881240Y477629D01*
X881224Y477624D01*
X881207Y477627D01*
X881157Y477605D01*
X881106Y477590D01*
X881095Y477577D01*
X881079Y477570D01*
X881049Y477525D01*
X881014Y477485D01*
X881011Y477468D01*
X881002Y477454D01*
X880991Y477380D01*
X880991Y458080D01*
X880996Y458064D01*
X880993Y458047D01*
X881015Y457997D01*
X881030Y457946D01*
X881043Y457935D01*
X881050Y457919D01*
X881095Y457889D01*
X881135Y457854D01*
X881152Y457851D01*
X881167Y457842D01*
X881240Y457831D01*
X900640Y457831D01*
X900656Y457836D01*
G37*
G36*
X900656Y160656D02*
X900656Y160656D01*
X900673Y160653D01*
X900723Y160675D01*
X900774Y160690D01*
X900785Y160703D01*
X900801Y160710D01*
X900831Y160755D01*
X900866Y160795D01*
X900869Y160812D01*
X900878Y160827D01*
X900889Y160900D01*
X900889Y175200D01*
X900885Y175213D01*
X900888Y175227D01*
X900866Y175280D01*
X900850Y175334D01*
X900840Y175343D01*
X900834Y175356D01*
X900788Y175389D01*
X900745Y175426D01*
X900731Y175428D01*
X900720Y175436D01*
X900646Y175449D01*
X897600Y175528D01*
X894622Y176080D01*
X891768Y177092D01*
X889108Y178539D01*
X886692Y180398D01*
X886651Y180414D01*
X886614Y180438D01*
X886571Y180445D01*
X886562Y180448D01*
X886555Y180447D01*
X886540Y180449D01*
X881240Y180449D01*
X881224Y180444D01*
X881207Y180447D01*
X881157Y180425D01*
X881106Y180410D01*
X881095Y180397D01*
X881079Y180390D01*
X881049Y180345D01*
X881014Y180305D01*
X881011Y180288D01*
X881002Y180274D01*
X880991Y180200D01*
X880991Y160900D01*
X880996Y160884D01*
X880993Y160867D01*
X881015Y160817D01*
X881030Y160766D01*
X881043Y160755D01*
X881050Y160739D01*
X881095Y160709D01*
X881135Y160674D01*
X881152Y160671D01*
X881167Y160662D01*
X881240Y160651D01*
X900640Y160651D01*
X900656Y160656D01*
G37*
G36*
X1159736Y160656D02*
X1159736Y160656D01*
X1159753Y160653D01*
X1159803Y160675D01*
X1159854Y160690D01*
X1159865Y160703D01*
X1159881Y160710D01*
X1159911Y160755D01*
X1159946Y160795D01*
X1159949Y160812D01*
X1159958Y160827D01*
X1159969Y160900D01*
X1159969Y175200D01*
X1159965Y175213D01*
X1159968Y175227D01*
X1159946Y175280D01*
X1159930Y175334D01*
X1159920Y175343D01*
X1159914Y175356D01*
X1159868Y175389D01*
X1159825Y175426D01*
X1159811Y175428D01*
X1159800Y175436D01*
X1159726Y175449D01*
X1156680Y175528D01*
X1153702Y176080D01*
X1150848Y177092D01*
X1148188Y178539D01*
X1145772Y180398D01*
X1145731Y180414D01*
X1145694Y180438D01*
X1145651Y180445D01*
X1145642Y180448D01*
X1145635Y180447D01*
X1145620Y180449D01*
X1140320Y180449D01*
X1140304Y180444D01*
X1140287Y180447D01*
X1140237Y180425D01*
X1140186Y180410D01*
X1140175Y180397D01*
X1140159Y180390D01*
X1140129Y180345D01*
X1140094Y180305D01*
X1140091Y180288D01*
X1140082Y180274D01*
X1140071Y180200D01*
X1140071Y160900D01*
X1140076Y160884D01*
X1140073Y160867D01*
X1140095Y160817D01*
X1140110Y160766D01*
X1140123Y160755D01*
X1140130Y160739D01*
X1140175Y160709D01*
X1140215Y160674D01*
X1140232Y160671D01*
X1140247Y160662D01*
X1140320Y160651D01*
X1159720Y160651D01*
X1159736Y160656D01*
G37*
G36*
X641576Y160656D02*
X641576Y160656D01*
X641593Y160653D01*
X641643Y160675D01*
X641694Y160690D01*
X641705Y160703D01*
X641721Y160710D01*
X641751Y160755D01*
X641786Y160795D01*
X641789Y160812D01*
X641798Y160827D01*
X641809Y160900D01*
X641809Y175200D01*
X641805Y175213D01*
X641808Y175227D01*
X641786Y175280D01*
X641770Y175334D01*
X641760Y175343D01*
X641754Y175356D01*
X641708Y175389D01*
X641665Y175426D01*
X641651Y175428D01*
X641640Y175436D01*
X641566Y175449D01*
X638520Y175528D01*
X635542Y176080D01*
X632688Y177092D01*
X630028Y178539D01*
X627612Y180398D01*
X627571Y180414D01*
X627534Y180438D01*
X627491Y180445D01*
X627482Y180448D01*
X627475Y180447D01*
X627460Y180449D01*
X622160Y180449D01*
X622144Y180444D01*
X622127Y180447D01*
X622077Y180425D01*
X622026Y180410D01*
X622015Y180397D01*
X621999Y180390D01*
X621969Y180345D01*
X621934Y180305D01*
X621931Y180288D01*
X621922Y180274D01*
X621911Y180200D01*
X621911Y160900D01*
X621916Y160884D01*
X621913Y160867D01*
X621935Y160817D01*
X621950Y160766D01*
X621963Y160755D01*
X621970Y160739D01*
X622015Y160709D01*
X622055Y160674D01*
X622072Y160671D01*
X622087Y160662D01*
X622160Y160651D01*
X641560Y160651D01*
X641576Y160656D01*
G37*
G36*
X382496Y160656D02*
X382496Y160656D01*
X382513Y160653D01*
X382563Y160675D01*
X382614Y160690D01*
X382625Y160703D01*
X382641Y160710D01*
X382671Y160755D01*
X382706Y160795D01*
X382709Y160812D01*
X382718Y160827D01*
X382729Y160900D01*
X382729Y175200D01*
X382725Y175213D01*
X382728Y175227D01*
X382706Y175280D01*
X382690Y175334D01*
X382680Y175343D01*
X382674Y175356D01*
X382628Y175389D01*
X382585Y175426D01*
X382571Y175428D01*
X382560Y175436D01*
X382486Y175449D01*
X379440Y175528D01*
X376462Y176080D01*
X373608Y177092D01*
X370948Y178539D01*
X368532Y180398D01*
X368491Y180414D01*
X368454Y180438D01*
X368411Y180445D01*
X368402Y180448D01*
X368395Y180447D01*
X368380Y180449D01*
X363080Y180449D01*
X363064Y180444D01*
X363047Y180447D01*
X362997Y180425D01*
X362946Y180410D01*
X362935Y180397D01*
X362919Y180390D01*
X362889Y180345D01*
X362854Y180305D01*
X362851Y180288D01*
X362842Y180274D01*
X362831Y180200D01*
X362831Y160900D01*
X362836Y160884D01*
X362833Y160867D01*
X362855Y160817D01*
X362870Y160766D01*
X362883Y160755D01*
X362890Y160739D01*
X362935Y160709D01*
X362975Y160674D01*
X362992Y160671D01*
X363007Y160662D01*
X363080Y160651D01*
X382480Y160651D01*
X382496Y160656D01*
G37*
G36*
X1185836Y1646656D02*
X1185836Y1646656D01*
X1185853Y1646653D01*
X1185903Y1646675D01*
X1185954Y1646690D01*
X1185965Y1646703D01*
X1185981Y1646710D01*
X1186011Y1646755D01*
X1186046Y1646795D01*
X1186049Y1646812D01*
X1186058Y1646827D01*
X1186069Y1646900D01*
X1186069Y1666200D01*
X1186064Y1666216D01*
X1186067Y1666233D01*
X1186045Y1666283D01*
X1186030Y1666334D01*
X1186017Y1666345D01*
X1186010Y1666361D01*
X1185965Y1666391D01*
X1185925Y1666426D01*
X1185908Y1666429D01*
X1185894Y1666438D01*
X1185820Y1666449D01*
X1180520Y1666449D01*
X1180477Y1666437D01*
X1180433Y1666434D01*
X1180396Y1666413D01*
X1180386Y1666410D01*
X1180381Y1666405D01*
X1180368Y1666398D01*
X1177952Y1664539D01*
X1175292Y1663092D01*
X1172438Y1662080D01*
X1169460Y1661528D01*
X1166414Y1661449D01*
X1166400Y1661445D01*
X1166387Y1661447D01*
X1166335Y1661424D01*
X1166280Y1661407D01*
X1166272Y1661396D01*
X1166259Y1661390D01*
X1166227Y1661343D01*
X1166191Y1661299D01*
X1166190Y1661285D01*
X1166182Y1661274D01*
X1166171Y1661200D01*
X1166171Y1646900D01*
X1166176Y1646884D01*
X1166173Y1646867D01*
X1166195Y1646817D01*
X1166210Y1646766D01*
X1166223Y1646755D01*
X1166230Y1646739D01*
X1166275Y1646709D01*
X1166315Y1646674D01*
X1166332Y1646671D01*
X1166347Y1646662D01*
X1166420Y1646651D01*
X1185820Y1646651D01*
X1185836Y1646656D01*
G37*
G36*
X149516Y755116D02*
X149516Y755116D01*
X149533Y755113D01*
X149583Y755135D01*
X149634Y755150D01*
X149645Y755163D01*
X149661Y755170D01*
X149691Y755215D01*
X149726Y755255D01*
X149729Y755272D01*
X149738Y755287D01*
X149749Y755360D01*
X149749Y774660D01*
X149744Y774676D01*
X149747Y774693D01*
X149725Y774743D01*
X149710Y774794D01*
X149697Y774805D01*
X149690Y774821D01*
X149645Y774851D01*
X149605Y774886D01*
X149588Y774889D01*
X149574Y774898D01*
X149500Y774909D01*
X144200Y774909D01*
X144157Y774897D01*
X144113Y774894D01*
X144076Y774873D01*
X144066Y774870D01*
X144061Y774865D01*
X144048Y774858D01*
X141632Y772999D01*
X138972Y771552D01*
X136118Y770540D01*
X133140Y769988D01*
X130094Y769909D01*
X130080Y769905D01*
X130067Y769907D01*
X130015Y769884D01*
X129960Y769867D01*
X129952Y769856D01*
X129939Y769850D01*
X129907Y769803D01*
X129871Y769759D01*
X129870Y769745D01*
X129862Y769734D01*
X129851Y769660D01*
X129851Y755360D01*
X129856Y755344D01*
X129853Y755327D01*
X129875Y755277D01*
X129890Y755226D01*
X129903Y755215D01*
X129910Y755199D01*
X129955Y755169D01*
X129995Y755134D01*
X130012Y755131D01*
X130027Y755122D01*
X130100Y755111D01*
X149500Y755111D01*
X149516Y755116D01*
G37*
G36*
X1185836Y755116D02*
X1185836Y755116D01*
X1185853Y755113D01*
X1185903Y755135D01*
X1185954Y755150D01*
X1185965Y755163D01*
X1185981Y755170D01*
X1186011Y755215D01*
X1186046Y755255D01*
X1186049Y755272D01*
X1186058Y755287D01*
X1186069Y755360D01*
X1186069Y774660D01*
X1186064Y774676D01*
X1186067Y774693D01*
X1186045Y774743D01*
X1186030Y774794D01*
X1186017Y774805D01*
X1186010Y774821D01*
X1185965Y774851D01*
X1185925Y774886D01*
X1185908Y774889D01*
X1185894Y774898D01*
X1185820Y774909D01*
X1180520Y774909D01*
X1180477Y774897D01*
X1180433Y774894D01*
X1180396Y774873D01*
X1180386Y774870D01*
X1180381Y774865D01*
X1180368Y774858D01*
X1177952Y772999D01*
X1175292Y771552D01*
X1172438Y770540D01*
X1169460Y769988D01*
X1166414Y769909D01*
X1166400Y769905D01*
X1166387Y769907D01*
X1166335Y769884D01*
X1166280Y769867D01*
X1166272Y769856D01*
X1166259Y769850D01*
X1166227Y769803D01*
X1166191Y769759D01*
X1166190Y769745D01*
X1166182Y769734D01*
X1166171Y769660D01*
X1166171Y755360D01*
X1166176Y755344D01*
X1166173Y755327D01*
X1166195Y755277D01*
X1166210Y755226D01*
X1166223Y755215D01*
X1166230Y755199D01*
X1166275Y755169D01*
X1166315Y755134D01*
X1166332Y755131D01*
X1166347Y755122D01*
X1166420Y755111D01*
X1185820Y755111D01*
X1185836Y755116D01*
G37*
G36*
X926756Y755116D02*
X926756Y755116D01*
X926773Y755113D01*
X926823Y755135D01*
X926874Y755150D01*
X926885Y755163D01*
X926901Y755170D01*
X926931Y755215D01*
X926966Y755255D01*
X926969Y755272D01*
X926978Y755287D01*
X926989Y755360D01*
X926989Y774660D01*
X926984Y774676D01*
X926987Y774693D01*
X926965Y774743D01*
X926950Y774794D01*
X926937Y774805D01*
X926930Y774821D01*
X926885Y774851D01*
X926845Y774886D01*
X926828Y774889D01*
X926814Y774898D01*
X926740Y774909D01*
X921440Y774909D01*
X921397Y774897D01*
X921353Y774894D01*
X921316Y774873D01*
X921306Y774870D01*
X921301Y774865D01*
X921288Y774858D01*
X918872Y772999D01*
X916212Y771552D01*
X913358Y770540D01*
X910380Y769988D01*
X907334Y769909D01*
X907320Y769905D01*
X907307Y769907D01*
X907255Y769884D01*
X907200Y769867D01*
X907192Y769856D01*
X907179Y769850D01*
X907147Y769803D01*
X907111Y769759D01*
X907110Y769745D01*
X907102Y769734D01*
X907091Y769660D01*
X907091Y755360D01*
X907096Y755344D01*
X907093Y755327D01*
X907115Y755277D01*
X907130Y755226D01*
X907143Y755215D01*
X907150Y755199D01*
X907195Y755169D01*
X907235Y755134D01*
X907252Y755131D01*
X907267Y755122D01*
X907340Y755111D01*
X926740Y755111D01*
X926756Y755116D01*
G37*
G36*
X667676Y755116D02*
X667676Y755116D01*
X667693Y755113D01*
X667743Y755135D01*
X667794Y755150D01*
X667805Y755163D01*
X667821Y755170D01*
X667851Y755215D01*
X667886Y755255D01*
X667889Y755272D01*
X667898Y755287D01*
X667909Y755360D01*
X667909Y774660D01*
X667904Y774676D01*
X667907Y774693D01*
X667885Y774743D01*
X667870Y774794D01*
X667857Y774805D01*
X667850Y774821D01*
X667805Y774851D01*
X667765Y774886D01*
X667748Y774889D01*
X667734Y774898D01*
X667660Y774909D01*
X662360Y774909D01*
X662317Y774897D01*
X662273Y774894D01*
X662236Y774873D01*
X662226Y774870D01*
X662221Y774865D01*
X662208Y774858D01*
X659792Y772999D01*
X657132Y771552D01*
X654278Y770540D01*
X651300Y769988D01*
X648254Y769909D01*
X648240Y769905D01*
X648227Y769907D01*
X648175Y769884D01*
X648120Y769867D01*
X648112Y769856D01*
X648099Y769850D01*
X648067Y769803D01*
X648031Y769759D01*
X648030Y769745D01*
X648022Y769734D01*
X648011Y769660D01*
X648011Y755360D01*
X648016Y755344D01*
X648013Y755327D01*
X648035Y755277D01*
X648050Y755226D01*
X648063Y755215D01*
X648070Y755199D01*
X648115Y755169D01*
X648155Y755134D01*
X648172Y755131D01*
X648187Y755122D01*
X648260Y755111D01*
X667660Y755111D01*
X667676Y755116D01*
G37*
G36*
X408596Y1646656D02*
X408596Y1646656D01*
X408613Y1646653D01*
X408663Y1646675D01*
X408714Y1646690D01*
X408725Y1646703D01*
X408741Y1646710D01*
X408771Y1646755D01*
X408806Y1646795D01*
X408809Y1646812D01*
X408818Y1646827D01*
X408829Y1646900D01*
X408829Y1666200D01*
X408824Y1666216D01*
X408827Y1666233D01*
X408805Y1666283D01*
X408790Y1666334D01*
X408777Y1666345D01*
X408770Y1666361D01*
X408725Y1666391D01*
X408685Y1666426D01*
X408668Y1666429D01*
X408654Y1666438D01*
X408580Y1666449D01*
X403280Y1666449D01*
X403237Y1666437D01*
X403193Y1666434D01*
X403156Y1666413D01*
X403146Y1666410D01*
X403141Y1666405D01*
X403128Y1666398D01*
X400712Y1664539D01*
X398052Y1663092D01*
X395198Y1662080D01*
X392220Y1661528D01*
X389174Y1661449D01*
X389160Y1661445D01*
X389147Y1661447D01*
X389095Y1661424D01*
X389040Y1661407D01*
X389032Y1661396D01*
X389019Y1661390D01*
X388987Y1661343D01*
X388951Y1661299D01*
X388950Y1661285D01*
X388942Y1661274D01*
X388931Y1661200D01*
X388931Y1646900D01*
X388936Y1646884D01*
X388933Y1646867D01*
X388955Y1646817D01*
X388970Y1646766D01*
X388983Y1646755D01*
X388990Y1646739D01*
X389035Y1646709D01*
X389075Y1646674D01*
X389092Y1646671D01*
X389107Y1646662D01*
X389180Y1646651D01*
X408580Y1646651D01*
X408596Y1646656D01*
G37*
G36*
X667676Y1646656D02*
X667676Y1646656D01*
X667693Y1646653D01*
X667743Y1646675D01*
X667794Y1646690D01*
X667805Y1646703D01*
X667821Y1646710D01*
X667851Y1646755D01*
X667886Y1646795D01*
X667889Y1646812D01*
X667898Y1646827D01*
X667909Y1646900D01*
X667909Y1666200D01*
X667904Y1666216D01*
X667907Y1666233D01*
X667885Y1666283D01*
X667870Y1666334D01*
X667857Y1666345D01*
X667850Y1666361D01*
X667805Y1666391D01*
X667765Y1666426D01*
X667748Y1666429D01*
X667734Y1666438D01*
X667660Y1666449D01*
X662360Y1666449D01*
X662317Y1666437D01*
X662273Y1666434D01*
X662236Y1666413D01*
X662226Y1666410D01*
X662221Y1666405D01*
X662208Y1666398D01*
X659792Y1664539D01*
X657132Y1663092D01*
X654278Y1662080D01*
X651300Y1661528D01*
X648254Y1661449D01*
X648240Y1661445D01*
X648227Y1661447D01*
X648175Y1661424D01*
X648120Y1661407D01*
X648112Y1661396D01*
X648099Y1661390D01*
X648067Y1661343D01*
X648031Y1661299D01*
X648030Y1661285D01*
X648022Y1661274D01*
X648011Y1661200D01*
X648011Y1646900D01*
X648016Y1646884D01*
X648013Y1646867D01*
X648035Y1646817D01*
X648050Y1646766D01*
X648063Y1646755D01*
X648070Y1646739D01*
X648115Y1646709D01*
X648155Y1646674D01*
X648172Y1646671D01*
X648187Y1646662D01*
X648260Y1646651D01*
X667660Y1646651D01*
X667676Y1646656D01*
G37*
G36*
X408596Y755116D02*
X408596Y755116D01*
X408613Y755113D01*
X408663Y755135D01*
X408714Y755150D01*
X408725Y755163D01*
X408741Y755170D01*
X408771Y755215D01*
X408806Y755255D01*
X408809Y755272D01*
X408818Y755287D01*
X408829Y755360D01*
X408829Y774660D01*
X408824Y774676D01*
X408827Y774693D01*
X408805Y774743D01*
X408790Y774794D01*
X408777Y774805D01*
X408770Y774821D01*
X408725Y774851D01*
X408685Y774886D01*
X408668Y774889D01*
X408654Y774898D01*
X408580Y774909D01*
X403280Y774909D01*
X403237Y774897D01*
X403193Y774894D01*
X403156Y774873D01*
X403146Y774870D01*
X403141Y774865D01*
X403128Y774858D01*
X400712Y772999D01*
X398052Y771552D01*
X395198Y770540D01*
X392220Y769988D01*
X389174Y769909D01*
X389160Y769905D01*
X389147Y769907D01*
X389095Y769884D01*
X389040Y769867D01*
X389032Y769856D01*
X389019Y769850D01*
X388987Y769803D01*
X388951Y769759D01*
X388950Y769745D01*
X388942Y769734D01*
X388931Y769660D01*
X388931Y755360D01*
X388936Y755344D01*
X388933Y755327D01*
X388955Y755277D01*
X388970Y755226D01*
X388983Y755215D01*
X388990Y755199D01*
X389035Y755169D01*
X389075Y755134D01*
X389092Y755131D01*
X389107Y755122D01*
X389180Y755111D01*
X408580Y755111D01*
X408596Y755116D01*
G37*
G36*
X926756Y1646656D02*
X926756Y1646656D01*
X926773Y1646653D01*
X926823Y1646675D01*
X926874Y1646690D01*
X926885Y1646703D01*
X926901Y1646710D01*
X926931Y1646755D01*
X926966Y1646795D01*
X926969Y1646812D01*
X926978Y1646827D01*
X926989Y1646900D01*
X926989Y1666200D01*
X926984Y1666216D01*
X926987Y1666233D01*
X926965Y1666283D01*
X926950Y1666334D01*
X926937Y1666345D01*
X926930Y1666361D01*
X926885Y1666391D01*
X926845Y1666426D01*
X926828Y1666429D01*
X926814Y1666438D01*
X926740Y1666449D01*
X921440Y1666449D01*
X921397Y1666437D01*
X921353Y1666434D01*
X921316Y1666413D01*
X921306Y1666410D01*
X921301Y1666405D01*
X921288Y1666398D01*
X918872Y1664539D01*
X916212Y1663092D01*
X913358Y1662080D01*
X910380Y1661528D01*
X907334Y1661449D01*
X907320Y1661445D01*
X907307Y1661447D01*
X907255Y1661424D01*
X907200Y1661407D01*
X907192Y1661396D01*
X907179Y1661390D01*
X907147Y1661343D01*
X907111Y1661299D01*
X907110Y1661285D01*
X907102Y1661274D01*
X907091Y1661200D01*
X907091Y1646900D01*
X907096Y1646884D01*
X907093Y1646867D01*
X907115Y1646817D01*
X907130Y1646766D01*
X907143Y1646755D01*
X907150Y1646739D01*
X907195Y1646709D01*
X907235Y1646674D01*
X907252Y1646671D01*
X907267Y1646662D01*
X907340Y1646651D01*
X926740Y1646651D01*
X926756Y1646656D01*
G37*
G36*
X149516Y1646656D02*
X149516Y1646656D01*
X149533Y1646653D01*
X149583Y1646675D01*
X149634Y1646690D01*
X149645Y1646703D01*
X149661Y1646710D01*
X149691Y1646755D01*
X149726Y1646795D01*
X149729Y1646812D01*
X149738Y1646827D01*
X149749Y1646900D01*
X149749Y1666200D01*
X149744Y1666216D01*
X149747Y1666233D01*
X149725Y1666283D01*
X149710Y1666334D01*
X149697Y1666345D01*
X149690Y1666361D01*
X149645Y1666391D01*
X149605Y1666426D01*
X149588Y1666429D01*
X149574Y1666438D01*
X149500Y1666449D01*
X144200Y1666449D01*
X144157Y1666437D01*
X144113Y1666434D01*
X144076Y1666413D01*
X144066Y1666410D01*
X144061Y1666405D01*
X144048Y1666398D01*
X141632Y1664539D01*
X138972Y1663092D01*
X136118Y1662080D01*
X133140Y1661528D01*
X130094Y1661449D01*
X130080Y1661445D01*
X130067Y1661447D01*
X130015Y1661424D01*
X129960Y1661407D01*
X129952Y1661396D01*
X129939Y1661390D01*
X129907Y1661343D01*
X129871Y1661299D01*
X129870Y1661285D01*
X129862Y1661274D01*
X129851Y1661200D01*
X129851Y1646900D01*
X129856Y1646884D01*
X129853Y1646867D01*
X129875Y1646817D01*
X129890Y1646766D01*
X129903Y1646755D01*
X129910Y1646739D01*
X129955Y1646709D01*
X129995Y1646674D01*
X130012Y1646671D01*
X130027Y1646662D01*
X130100Y1646651D01*
X149500Y1646651D01*
X149516Y1646656D01*
G37*
G36*
X149516Y457936D02*
X149516Y457936D01*
X149533Y457933D01*
X149583Y457955D01*
X149634Y457970D01*
X149645Y457983D01*
X149661Y457990D01*
X149691Y458035D01*
X149726Y458075D01*
X149729Y458092D01*
X149738Y458107D01*
X149749Y458180D01*
X149749Y477480D01*
X149744Y477496D01*
X149747Y477513D01*
X149725Y477563D01*
X149710Y477614D01*
X149697Y477625D01*
X149690Y477641D01*
X149645Y477671D01*
X149605Y477706D01*
X149588Y477709D01*
X149574Y477718D01*
X149500Y477729D01*
X144200Y477729D01*
X144157Y477717D01*
X144113Y477714D01*
X144076Y477693D01*
X144066Y477690D01*
X144061Y477685D01*
X144048Y477678D01*
X141632Y475819D01*
X138972Y474372D01*
X136118Y473360D01*
X133140Y472808D01*
X130094Y472729D01*
X130080Y472725D01*
X130067Y472727D01*
X130015Y472704D01*
X129960Y472687D01*
X129952Y472676D01*
X129939Y472670D01*
X129907Y472623D01*
X129871Y472579D01*
X129870Y472565D01*
X129862Y472554D01*
X129851Y472480D01*
X129851Y458180D01*
X129856Y458164D01*
X129853Y458147D01*
X129875Y458097D01*
X129890Y458046D01*
X129903Y458035D01*
X129910Y458019D01*
X129955Y457989D01*
X129995Y457954D01*
X130012Y457951D01*
X130027Y457942D01*
X130100Y457931D01*
X149500Y457931D01*
X149516Y457936D01*
G37*
G36*
X1185836Y457936D02*
X1185836Y457936D01*
X1185853Y457933D01*
X1185903Y457955D01*
X1185954Y457970D01*
X1185965Y457983D01*
X1185981Y457990D01*
X1186011Y458035D01*
X1186046Y458075D01*
X1186049Y458092D01*
X1186058Y458107D01*
X1186069Y458180D01*
X1186069Y477480D01*
X1186064Y477496D01*
X1186067Y477513D01*
X1186045Y477563D01*
X1186030Y477614D01*
X1186017Y477625D01*
X1186010Y477641D01*
X1185965Y477671D01*
X1185925Y477706D01*
X1185908Y477709D01*
X1185894Y477718D01*
X1185820Y477729D01*
X1180520Y477729D01*
X1180477Y477717D01*
X1180433Y477714D01*
X1180396Y477693D01*
X1180386Y477690D01*
X1180381Y477685D01*
X1180368Y477678D01*
X1177952Y475819D01*
X1175292Y474372D01*
X1172438Y473360D01*
X1169460Y472808D01*
X1166414Y472729D01*
X1166400Y472725D01*
X1166387Y472727D01*
X1166335Y472704D01*
X1166280Y472687D01*
X1166272Y472676D01*
X1166259Y472670D01*
X1166227Y472623D01*
X1166191Y472579D01*
X1166190Y472565D01*
X1166182Y472554D01*
X1166171Y472480D01*
X1166171Y458180D01*
X1166176Y458164D01*
X1166173Y458147D01*
X1166195Y458097D01*
X1166210Y458046D01*
X1166223Y458035D01*
X1166230Y458019D01*
X1166275Y457989D01*
X1166315Y457954D01*
X1166332Y457951D01*
X1166347Y457942D01*
X1166420Y457931D01*
X1185820Y457931D01*
X1185836Y457936D01*
G37*
G36*
X408596Y457936D02*
X408596Y457936D01*
X408613Y457933D01*
X408663Y457955D01*
X408714Y457970D01*
X408725Y457983D01*
X408741Y457990D01*
X408771Y458035D01*
X408806Y458075D01*
X408809Y458092D01*
X408818Y458107D01*
X408829Y458180D01*
X408829Y477480D01*
X408824Y477496D01*
X408827Y477513D01*
X408805Y477563D01*
X408790Y477614D01*
X408777Y477625D01*
X408770Y477641D01*
X408725Y477671D01*
X408685Y477706D01*
X408668Y477709D01*
X408654Y477718D01*
X408580Y477729D01*
X403280Y477729D01*
X403237Y477717D01*
X403193Y477714D01*
X403156Y477693D01*
X403146Y477690D01*
X403141Y477685D01*
X403128Y477678D01*
X400712Y475819D01*
X398052Y474372D01*
X395198Y473360D01*
X392220Y472808D01*
X389174Y472729D01*
X389160Y472725D01*
X389147Y472727D01*
X389095Y472704D01*
X389040Y472687D01*
X389032Y472676D01*
X389019Y472670D01*
X388987Y472623D01*
X388951Y472579D01*
X388950Y472565D01*
X388942Y472554D01*
X388931Y472480D01*
X388931Y458180D01*
X388936Y458164D01*
X388933Y458147D01*
X388955Y458097D01*
X388970Y458046D01*
X388983Y458035D01*
X388990Y458019D01*
X389035Y457989D01*
X389075Y457954D01*
X389092Y457951D01*
X389107Y457942D01*
X389180Y457931D01*
X408580Y457931D01*
X408596Y457936D01*
G37*
G36*
X667676Y457936D02*
X667676Y457936D01*
X667693Y457933D01*
X667743Y457955D01*
X667794Y457970D01*
X667805Y457983D01*
X667821Y457990D01*
X667851Y458035D01*
X667886Y458075D01*
X667889Y458092D01*
X667898Y458107D01*
X667909Y458180D01*
X667909Y477480D01*
X667904Y477496D01*
X667907Y477513D01*
X667885Y477563D01*
X667870Y477614D01*
X667857Y477625D01*
X667850Y477641D01*
X667805Y477671D01*
X667765Y477706D01*
X667748Y477709D01*
X667734Y477718D01*
X667660Y477729D01*
X662360Y477729D01*
X662317Y477717D01*
X662273Y477714D01*
X662236Y477693D01*
X662226Y477690D01*
X662221Y477685D01*
X662208Y477678D01*
X659792Y475819D01*
X657132Y474372D01*
X654278Y473360D01*
X651300Y472808D01*
X648254Y472729D01*
X648240Y472725D01*
X648227Y472727D01*
X648175Y472704D01*
X648120Y472687D01*
X648112Y472676D01*
X648099Y472670D01*
X648067Y472623D01*
X648031Y472579D01*
X648030Y472565D01*
X648022Y472554D01*
X648011Y472480D01*
X648011Y458180D01*
X648016Y458164D01*
X648013Y458147D01*
X648035Y458097D01*
X648050Y458046D01*
X648063Y458035D01*
X648070Y458019D01*
X648115Y457989D01*
X648155Y457954D01*
X648172Y457951D01*
X648187Y457942D01*
X648260Y457931D01*
X667660Y457931D01*
X667676Y457936D01*
G37*
G36*
X926756Y457936D02*
X926756Y457936D01*
X926773Y457933D01*
X926823Y457955D01*
X926874Y457970D01*
X926885Y457983D01*
X926901Y457990D01*
X926931Y458035D01*
X926966Y458075D01*
X926969Y458092D01*
X926978Y458107D01*
X926989Y458180D01*
X926989Y477480D01*
X926984Y477496D01*
X926987Y477513D01*
X926965Y477563D01*
X926950Y477614D01*
X926937Y477625D01*
X926930Y477641D01*
X926885Y477671D01*
X926845Y477706D01*
X926828Y477709D01*
X926814Y477718D01*
X926740Y477729D01*
X921440Y477729D01*
X921397Y477717D01*
X921353Y477714D01*
X921316Y477693D01*
X921306Y477690D01*
X921301Y477685D01*
X921288Y477678D01*
X918872Y475819D01*
X916212Y474372D01*
X913358Y473360D01*
X910380Y472808D01*
X907334Y472729D01*
X907320Y472725D01*
X907307Y472727D01*
X907255Y472704D01*
X907200Y472687D01*
X907192Y472676D01*
X907179Y472670D01*
X907147Y472623D01*
X907111Y472579D01*
X907110Y472565D01*
X907102Y472554D01*
X907091Y472480D01*
X907091Y458180D01*
X907096Y458164D01*
X907093Y458147D01*
X907115Y458097D01*
X907130Y458046D01*
X907143Y458035D01*
X907150Y458019D01*
X907195Y457989D01*
X907235Y457954D01*
X907252Y457951D01*
X907267Y457942D01*
X907340Y457931D01*
X926740Y457931D01*
X926756Y457936D01*
G37*
G36*
X1185836Y1349476D02*
X1185836Y1349476D01*
X1185853Y1349473D01*
X1185903Y1349495D01*
X1185954Y1349510D01*
X1185965Y1349523D01*
X1185981Y1349530D01*
X1186011Y1349575D01*
X1186046Y1349615D01*
X1186049Y1349632D01*
X1186058Y1349647D01*
X1186069Y1349720D01*
X1186069Y1369020D01*
X1186064Y1369036D01*
X1186067Y1369053D01*
X1186045Y1369103D01*
X1186030Y1369154D01*
X1186017Y1369165D01*
X1186010Y1369181D01*
X1185965Y1369211D01*
X1185925Y1369246D01*
X1185908Y1369249D01*
X1185894Y1369258D01*
X1185820Y1369269D01*
X1180520Y1369269D01*
X1180477Y1369257D01*
X1180433Y1369254D01*
X1180396Y1369233D01*
X1180386Y1369230D01*
X1180381Y1369225D01*
X1180368Y1369218D01*
X1177952Y1367359D01*
X1175292Y1365912D01*
X1172438Y1364900D01*
X1169460Y1364348D01*
X1166414Y1364269D01*
X1166400Y1364265D01*
X1166387Y1364267D01*
X1166335Y1364244D01*
X1166280Y1364227D01*
X1166272Y1364216D01*
X1166259Y1364210D01*
X1166227Y1364163D01*
X1166191Y1364119D01*
X1166190Y1364105D01*
X1166182Y1364094D01*
X1166171Y1364020D01*
X1166171Y1349720D01*
X1166176Y1349704D01*
X1166173Y1349687D01*
X1166195Y1349637D01*
X1166210Y1349586D01*
X1166223Y1349575D01*
X1166230Y1349559D01*
X1166275Y1349529D01*
X1166315Y1349494D01*
X1166332Y1349491D01*
X1166347Y1349482D01*
X1166420Y1349471D01*
X1185820Y1349471D01*
X1185836Y1349476D01*
G37*
G36*
X149516Y1349476D02*
X149516Y1349476D01*
X149533Y1349473D01*
X149583Y1349495D01*
X149634Y1349510D01*
X149645Y1349523D01*
X149661Y1349530D01*
X149691Y1349575D01*
X149726Y1349615D01*
X149729Y1349632D01*
X149738Y1349647D01*
X149749Y1349720D01*
X149749Y1369020D01*
X149744Y1369036D01*
X149747Y1369053D01*
X149725Y1369103D01*
X149710Y1369154D01*
X149697Y1369165D01*
X149690Y1369181D01*
X149645Y1369211D01*
X149605Y1369246D01*
X149588Y1369249D01*
X149574Y1369258D01*
X149500Y1369269D01*
X144200Y1369269D01*
X144157Y1369257D01*
X144113Y1369254D01*
X144076Y1369233D01*
X144066Y1369230D01*
X144061Y1369225D01*
X144048Y1369218D01*
X141632Y1367359D01*
X138972Y1365912D01*
X136118Y1364900D01*
X133140Y1364348D01*
X130094Y1364269D01*
X130080Y1364265D01*
X130067Y1364267D01*
X130015Y1364244D01*
X129960Y1364227D01*
X129952Y1364216D01*
X129939Y1364210D01*
X129907Y1364163D01*
X129871Y1364119D01*
X129870Y1364105D01*
X129862Y1364094D01*
X129851Y1364020D01*
X129851Y1349720D01*
X129856Y1349704D01*
X129853Y1349687D01*
X129875Y1349637D01*
X129890Y1349586D01*
X129903Y1349575D01*
X129910Y1349559D01*
X129955Y1349529D01*
X129995Y1349494D01*
X130012Y1349491D01*
X130027Y1349482D01*
X130100Y1349471D01*
X149500Y1349471D01*
X149516Y1349476D01*
G37*
G36*
X408596Y1349476D02*
X408596Y1349476D01*
X408613Y1349473D01*
X408663Y1349495D01*
X408714Y1349510D01*
X408725Y1349523D01*
X408741Y1349530D01*
X408771Y1349575D01*
X408806Y1349615D01*
X408809Y1349632D01*
X408818Y1349647D01*
X408829Y1349720D01*
X408829Y1369020D01*
X408824Y1369036D01*
X408827Y1369053D01*
X408805Y1369103D01*
X408790Y1369154D01*
X408777Y1369165D01*
X408770Y1369181D01*
X408725Y1369211D01*
X408685Y1369246D01*
X408668Y1369249D01*
X408654Y1369258D01*
X408580Y1369269D01*
X403280Y1369269D01*
X403237Y1369257D01*
X403193Y1369254D01*
X403156Y1369233D01*
X403146Y1369230D01*
X403141Y1369225D01*
X403128Y1369218D01*
X400712Y1367359D01*
X398052Y1365912D01*
X395198Y1364900D01*
X392220Y1364348D01*
X389174Y1364269D01*
X389160Y1364265D01*
X389147Y1364267D01*
X389095Y1364244D01*
X389040Y1364227D01*
X389032Y1364216D01*
X389019Y1364210D01*
X388987Y1364163D01*
X388951Y1364119D01*
X388950Y1364105D01*
X388942Y1364094D01*
X388931Y1364020D01*
X388931Y1349720D01*
X388936Y1349704D01*
X388933Y1349687D01*
X388955Y1349637D01*
X388970Y1349586D01*
X388983Y1349575D01*
X388990Y1349559D01*
X389035Y1349529D01*
X389075Y1349494D01*
X389092Y1349491D01*
X389107Y1349482D01*
X389180Y1349471D01*
X408580Y1349471D01*
X408596Y1349476D01*
G37*
G36*
X667676Y1349476D02*
X667676Y1349476D01*
X667693Y1349473D01*
X667743Y1349495D01*
X667794Y1349510D01*
X667805Y1349523D01*
X667821Y1349530D01*
X667851Y1349575D01*
X667886Y1349615D01*
X667889Y1349632D01*
X667898Y1349647D01*
X667909Y1349720D01*
X667909Y1369020D01*
X667904Y1369036D01*
X667907Y1369053D01*
X667885Y1369103D01*
X667870Y1369154D01*
X667857Y1369165D01*
X667850Y1369181D01*
X667805Y1369211D01*
X667765Y1369246D01*
X667748Y1369249D01*
X667734Y1369258D01*
X667660Y1369269D01*
X662360Y1369269D01*
X662317Y1369257D01*
X662273Y1369254D01*
X662236Y1369233D01*
X662226Y1369230D01*
X662221Y1369225D01*
X662208Y1369218D01*
X659792Y1367359D01*
X657132Y1365912D01*
X654278Y1364900D01*
X651300Y1364348D01*
X648254Y1364269D01*
X648240Y1364265D01*
X648227Y1364267D01*
X648175Y1364244D01*
X648120Y1364227D01*
X648112Y1364216D01*
X648099Y1364210D01*
X648067Y1364163D01*
X648031Y1364119D01*
X648030Y1364105D01*
X648022Y1364094D01*
X648011Y1364020D01*
X648011Y1349720D01*
X648016Y1349704D01*
X648013Y1349687D01*
X648035Y1349637D01*
X648050Y1349586D01*
X648063Y1349575D01*
X648070Y1349559D01*
X648115Y1349529D01*
X648155Y1349494D01*
X648172Y1349491D01*
X648187Y1349482D01*
X648260Y1349471D01*
X667660Y1349471D01*
X667676Y1349476D01*
G37*
G36*
X926756Y1349476D02*
X926756Y1349476D01*
X926773Y1349473D01*
X926823Y1349495D01*
X926874Y1349510D01*
X926885Y1349523D01*
X926901Y1349530D01*
X926931Y1349575D01*
X926966Y1349615D01*
X926969Y1349632D01*
X926978Y1349647D01*
X926989Y1349720D01*
X926989Y1369020D01*
X926984Y1369036D01*
X926987Y1369053D01*
X926965Y1369103D01*
X926950Y1369154D01*
X926937Y1369165D01*
X926930Y1369181D01*
X926885Y1369211D01*
X926845Y1369246D01*
X926828Y1369249D01*
X926814Y1369258D01*
X926740Y1369269D01*
X921440Y1369269D01*
X921397Y1369257D01*
X921353Y1369254D01*
X921316Y1369233D01*
X921306Y1369230D01*
X921301Y1369225D01*
X921288Y1369218D01*
X918872Y1367359D01*
X916212Y1365912D01*
X913358Y1364900D01*
X910380Y1364348D01*
X907334Y1364269D01*
X907320Y1364265D01*
X907307Y1364267D01*
X907255Y1364244D01*
X907200Y1364227D01*
X907192Y1364216D01*
X907179Y1364210D01*
X907147Y1364163D01*
X907111Y1364119D01*
X907110Y1364105D01*
X907102Y1364094D01*
X907091Y1364020D01*
X907091Y1349720D01*
X907096Y1349704D01*
X907093Y1349687D01*
X907115Y1349637D01*
X907130Y1349586D01*
X907143Y1349575D01*
X907150Y1349559D01*
X907195Y1349529D01*
X907235Y1349494D01*
X907252Y1349491D01*
X907267Y1349482D01*
X907340Y1349471D01*
X926740Y1349471D01*
X926756Y1349476D01*
G37*
G36*
X667676Y160756D02*
X667676Y160756D01*
X667693Y160753D01*
X667743Y160775D01*
X667794Y160790D01*
X667805Y160803D01*
X667821Y160810D01*
X667851Y160855D01*
X667886Y160895D01*
X667889Y160912D01*
X667898Y160927D01*
X667909Y161000D01*
X667909Y180300D01*
X667904Y180316D01*
X667907Y180333D01*
X667885Y180383D01*
X667870Y180434D01*
X667857Y180445D01*
X667850Y180461D01*
X667805Y180491D01*
X667765Y180526D01*
X667748Y180529D01*
X667734Y180538D01*
X667660Y180549D01*
X662360Y180549D01*
X662317Y180537D01*
X662273Y180534D01*
X662236Y180513D01*
X662226Y180510D01*
X662221Y180505D01*
X662208Y180498D01*
X659792Y178639D01*
X657132Y177192D01*
X654278Y176180D01*
X651300Y175628D01*
X648254Y175549D01*
X648240Y175545D01*
X648227Y175547D01*
X648175Y175524D01*
X648120Y175507D01*
X648112Y175496D01*
X648099Y175490D01*
X648067Y175443D01*
X648031Y175399D01*
X648030Y175385D01*
X648022Y175374D01*
X648011Y175300D01*
X648011Y161000D01*
X648016Y160984D01*
X648013Y160967D01*
X648035Y160917D01*
X648050Y160866D01*
X648063Y160855D01*
X648070Y160839D01*
X648115Y160809D01*
X648155Y160774D01*
X648172Y160771D01*
X648187Y160762D01*
X648260Y160751D01*
X667660Y160751D01*
X667676Y160756D01*
G37*
G36*
X926756Y160756D02*
X926756Y160756D01*
X926773Y160753D01*
X926823Y160775D01*
X926874Y160790D01*
X926885Y160803D01*
X926901Y160810D01*
X926931Y160855D01*
X926966Y160895D01*
X926969Y160912D01*
X926978Y160927D01*
X926989Y161000D01*
X926989Y180300D01*
X926984Y180316D01*
X926987Y180333D01*
X926965Y180383D01*
X926950Y180434D01*
X926937Y180445D01*
X926930Y180461D01*
X926885Y180491D01*
X926845Y180526D01*
X926828Y180529D01*
X926814Y180538D01*
X926740Y180549D01*
X921440Y180549D01*
X921397Y180537D01*
X921353Y180534D01*
X921316Y180513D01*
X921306Y180510D01*
X921301Y180505D01*
X921288Y180498D01*
X918872Y178639D01*
X916212Y177192D01*
X913358Y176180D01*
X910380Y175628D01*
X907334Y175549D01*
X907320Y175545D01*
X907307Y175547D01*
X907255Y175524D01*
X907200Y175507D01*
X907192Y175496D01*
X907179Y175490D01*
X907147Y175443D01*
X907111Y175399D01*
X907110Y175385D01*
X907102Y175374D01*
X907091Y175300D01*
X907091Y161000D01*
X907096Y160984D01*
X907093Y160967D01*
X907115Y160917D01*
X907130Y160866D01*
X907143Y160855D01*
X907150Y160839D01*
X907195Y160809D01*
X907235Y160774D01*
X907252Y160771D01*
X907267Y160762D01*
X907340Y160751D01*
X926740Y160751D01*
X926756Y160756D01*
G37*
G36*
X149516Y1052296D02*
X149516Y1052296D01*
X149533Y1052293D01*
X149583Y1052315D01*
X149634Y1052330D01*
X149645Y1052343D01*
X149661Y1052350D01*
X149691Y1052395D01*
X149726Y1052435D01*
X149729Y1052452D01*
X149738Y1052467D01*
X149749Y1052540D01*
X149749Y1071840D01*
X149744Y1071856D01*
X149747Y1071873D01*
X149725Y1071923D01*
X149710Y1071974D01*
X149697Y1071985D01*
X149690Y1072001D01*
X149645Y1072031D01*
X149605Y1072066D01*
X149588Y1072069D01*
X149574Y1072078D01*
X149500Y1072089D01*
X144200Y1072089D01*
X144157Y1072077D01*
X144113Y1072074D01*
X144076Y1072053D01*
X144066Y1072050D01*
X144061Y1072045D01*
X144048Y1072038D01*
X141632Y1070179D01*
X138972Y1068732D01*
X136118Y1067720D01*
X133140Y1067168D01*
X130094Y1067089D01*
X130080Y1067085D01*
X130067Y1067087D01*
X130015Y1067064D01*
X129960Y1067047D01*
X129952Y1067036D01*
X129939Y1067030D01*
X129907Y1066983D01*
X129871Y1066939D01*
X129870Y1066925D01*
X129862Y1066914D01*
X129851Y1066840D01*
X129851Y1052540D01*
X129856Y1052524D01*
X129853Y1052507D01*
X129875Y1052457D01*
X129890Y1052406D01*
X129903Y1052395D01*
X129910Y1052379D01*
X129955Y1052349D01*
X129995Y1052314D01*
X130012Y1052311D01*
X130027Y1052302D01*
X130100Y1052291D01*
X149500Y1052291D01*
X149516Y1052296D01*
G37*
G36*
X408596Y160756D02*
X408596Y160756D01*
X408613Y160753D01*
X408663Y160775D01*
X408714Y160790D01*
X408725Y160803D01*
X408741Y160810D01*
X408771Y160855D01*
X408806Y160895D01*
X408809Y160912D01*
X408818Y160927D01*
X408829Y161000D01*
X408829Y180300D01*
X408824Y180316D01*
X408827Y180333D01*
X408805Y180383D01*
X408790Y180434D01*
X408777Y180445D01*
X408770Y180461D01*
X408725Y180491D01*
X408685Y180526D01*
X408668Y180529D01*
X408654Y180538D01*
X408580Y180549D01*
X403280Y180549D01*
X403237Y180537D01*
X403193Y180534D01*
X403156Y180513D01*
X403146Y180510D01*
X403141Y180505D01*
X403128Y180498D01*
X400712Y178639D01*
X398052Y177192D01*
X395198Y176180D01*
X392220Y175628D01*
X389174Y175549D01*
X389160Y175545D01*
X389147Y175547D01*
X389095Y175524D01*
X389040Y175507D01*
X389032Y175496D01*
X389019Y175490D01*
X388987Y175443D01*
X388951Y175399D01*
X388950Y175385D01*
X388942Y175374D01*
X388931Y175300D01*
X388931Y161000D01*
X388936Y160984D01*
X388933Y160967D01*
X388955Y160917D01*
X388970Y160866D01*
X388983Y160855D01*
X388990Y160839D01*
X389035Y160809D01*
X389075Y160774D01*
X389092Y160771D01*
X389107Y160762D01*
X389180Y160751D01*
X408580Y160751D01*
X408596Y160756D01*
G37*
G36*
X149516Y160756D02*
X149516Y160756D01*
X149533Y160753D01*
X149583Y160775D01*
X149634Y160790D01*
X149645Y160803D01*
X149661Y160810D01*
X149691Y160855D01*
X149726Y160895D01*
X149729Y160912D01*
X149738Y160927D01*
X149749Y161000D01*
X149749Y180300D01*
X149744Y180316D01*
X149747Y180333D01*
X149725Y180383D01*
X149710Y180434D01*
X149697Y180445D01*
X149690Y180461D01*
X149645Y180491D01*
X149605Y180526D01*
X149588Y180529D01*
X149574Y180538D01*
X149500Y180549D01*
X144200Y180549D01*
X144157Y180537D01*
X144113Y180534D01*
X144076Y180513D01*
X144066Y180510D01*
X144061Y180505D01*
X144048Y180498D01*
X141632Y178639D01*
X138972Y177192D01*
X136118Y176180D01*
X133140Y175628D01*
X130094Y175549D01*
X130080Y175545D01*
X130067Y175547D01*
X130015Y175524D01*
X129960Y175507D01*
X129952Y175496D01*
X129939Y175490D01*
X129907Y175443D01*
X129871Y175399D01*
X129870Y175385D01*
X129862Y175374D01*
X129851Y175300D01*
X129851Y161000D01*
X129856Y160984D01*
X129853Y160967D01*
X129875Y160917D01*
X129890Y160866D01*
X129903Y160855D01*
X129910Y160839D01*
X129955Y160809D01*
X129995Y160774D01*
X130012Y160771D01*
X130027Y160762D01*
X130100Y160751D01*
X149500Y160751D01*
X149516Y160756D01*
G37*
G36*
X926756Y1052296D02*
X926756Y1052296D01*
X926773Y1052293D01*
X926823Y1052315D01*
X926874Y1052330D01*
X926885Y1052343D01*
X926901Y1052350D01*
X926931Y1052395D01*
X926966Y1052435D01*
X926969Y1052452D01*
X926978Y1052467D01*
X926989Y1052540D01*
X926989Y1071840D01*
X926984Y1071856D01*
X926987Y1071873D01*
X926965Y1071923D01*
X926950Y1071974D01*
X926937Y1071985D01*
X926930Y1072001D01*
X926885Y1072031D01*
X926845Y1072066D01*
X926828Y1072069D01*
X926814Y1072078D01*
X926740Y1072089D01*
X921440Y1072089D01*
X921397Y1072077D01*
X921353Y1072074D01*
X921316Y1072053D01*
X921306Y1072050D01*
X921301Y1072045D01*
X921288Y1072038D01*
X918872Y1070179D01*
X916212Y1068732D01*
X913358Y1067720D01*
X910380Y1067168D01*
X907334Y1067089D01*
X907320Y1067085D01*
X907307Y1067087D01*
X907255Y1067064D01*
X907200Y1067047D01*
X907192Y1067036D01*
X907179Y1067030D01*
X907147Y1066983D01*
X907111Y1066939D01*
X907110Y1066925D01*
X907102Y1066914D01*
X907091Y1066840D01*
X907091Y1052540D01*
X907096Y1052524D01*
X907093Y1052507D01*
X907115Y1052457D01*
X907130Y1052406D01*
X907143Y1052395D01*
X907150Y1052379D01*
X907195Y1052349D01*
X907235Y1052314D01*
X907252Y1052311D01*
X907267Y1052302D01*
X907340Y1052291D01*
X926740Y1052291D01*
X926756Y1052296D01*
G37*
G36*
X667676Y1052296D02*
X667676Y1052296D01*
X667693Y1052293D01*
X667743Y1052315D01*
X667794Y1052330D01*
X667805Y1052343D01*
X667821Y1052350D01*
X667851Y1052395D01*
X667886Y1052435D01*
X667889Y1052452D01*
X667898Y1052467D01*
X667909Y1052540D01*
X667909Y1071840D01*
X667904Y1071856D01*
X667907Y1071873D01*
X667885Y1071923D01*
X667870Y1071974D01*
X667857Y1071985D01*
X667850Y1072001D01*
X667805Y1072031D01*
X667765Y1072066D01*
X667748Y1072069D01*
X667734Y1072078D01*
X667660Y1072089D01*
X662360Y1072089D01*
X662317Y1072077D01*
X662273Y1072074D01*
X662236Y1072053D01*
X662226Y1072050D01*
X662221Y1072045D01*
X662208Y1072038D01*
X659792Y1070179D01*
X657132Y1068732D01*
X654278Y1067720D01*
X651300Y1067168D01*
X648254Y1067089D01*
X648240Y1067085D01*
X648227Y1067087D01*
X648175Y1067064D01*
X648120Y1067047D01*
X648112Y1067036D01*
X648099Y1067030D01*
X648067Y1066983D01*
X648031Y1066939D01*
X648030Y1066925D01*
X648022Y1066914D01*
X648011Y1066840D01*
X648011Y1052540D01*
X648016Y1052524D01*
X648013Y1052507D01*
X648035Y1052457D01*
X648050Y1052406D01*
X648063Y1052395D01*
X648070Y1052379D01*
X648115Y1052349D01*
X648155Y1052314D01*
X648172Y1052311D01*
X648187Y1052302D01*
X648260Y1052291D01*
X667660Y1052291D01*
X667676Y1052296D01*
G37*
G36*
X408596Y1052296D02*
X408596Y1052296D01*
X408613Y1052293D01*
X408663Y1052315D01*
X408714Y1052330D01*
X408725Y1052343D01*
X408741Y1052350D01*
X408771Y1052395D01*
X408806Y1052435D01*
X408809Y1052452D01*
X408818Y1052467D01*
X408829Y1052540D01*
X408829Y1071840D01*
X408824Y1071856D01*
X408827Y1071873D01*
X408805Y1071923D01*
X408790Y1071974D01*
X408777Y1071985D01*
X408770Y1072001D01*
X408725Y1072031D01*
X408685Y1072066D01*
X408668Y1072069D01*
X408654Y1072078D01*
X408580Y1072089D01*
X403280Y1072089D01*
X403237Y1072077D01*
X403193Y1072074D01*
X403156Y1072053D01*
X403146Y1072050D01*
X403141Y1072045D01*
X403128Y1072038D01*
X400712Y1070179D01*
X398052Y1068732D01*
X395198Y1067720D01*
X392220Y1067168D01*
X389174Y1067089D01*
X389160Y1067085D01*
X389147Y1067087D01*
X389095Y1067064D01*
X389040Y1067047D01*
X389032Y1067036D01*
X389019Y1067030D01*
X388987Y1066983D01*
X388951Y1066939D01*
X388950Y1066925D01*
X388942Y1066914D01*
X388931Y1066840D01*
X388931Y1052540D01*
X388936Y1052524D01*
X388933Y1052507D01*
X388955Y1052457D01*
X388970Y1052406D01*
X388983Y1052395D01*
X388990Y1052379D01*
X389035Y1052349D01*
X389075Y1052314D01*
X389092Y1052311D01*
X389107Y1052302D01*
X389180Y1052291D01*
X408580Y1052291D01*
X408596Y1052296D01*
G37*
G36*
X1185836Y1052296D02*
X1185836Y1052296D01*
X1185853Y1052293D01*
X1185903Y1052315D01*
X1185954Y1052330D01*
X1185965Y1052343D01*
X1185981Y1052350D01*
X1186011Y1052395D01*
X1186046Y1052435D01*
X1186049Y1052452D01*
X1186058Y1052467D01*
X1186069Y1052540D01*
X1186069Y1071840D01*
X1186064Y1071856D01*
X1186067Y1071873D01*
X1186045Y1071923D01*
X1186030Y1071974D01*
X1186017Y1071985D01*
X1186010Y1072001D01*
X1185965Y1072031D01*
X1185925Y1072066D01*
X1185908Y1072069D01*
X1185894Y1072078D01*
X1185820Y1072089D01*
X1180520Y1072089D01*
X1180477Y1072077D01*
X1180433Y1072074D01*
X1180396Y1072053D01*
X1180386Y1072050D01*
X1180381Y1072045D01*
X1180368Y1072038D01*
X1177952Y1070179D01*
X1175292Y1068732D01*
X1172438Y1067720D01*
X1169460Y1067168D01*
X1166414Y1067089D01*
X1166400Y1067085D01*
X1166387Y1067087D01*
X1166335Y1067064D01*
X1166280Y1067047D01*
X1166272Y1067036D01*
X1166259Y1067030D01*
X1166227Y1066983D01*
X1166191Y1066939D01*
X1166190Y1066925D01*
X1166182Y1066914D01*
X1166171Y1066840D01*
X1166171Y1052540D01*
X1166176Y1052524D01*
X1166173Y1052507D01*
X1166195Y1052457D01*
X1166210Y1052406D01*
X1166223Y1052395D01*
X1166230Y1052379D01*
X1166275Y1052349D01*
X1166315Y1052314D01*
X1166332Y1052311D01*
X1166347Y1052302D01*
X1166420Y1052291D01*
X1185820Y1052291D01*
X1185836Y1052296D01*
G37*
G36*
X1185836Y160756D02*
X1185836Y160756D01*
X1185853Y160753D01*
X1185903Y160775D01*
X1185954Y160790D01*
X1185965Y160803D01*
X1185981Y160810D01*
X1186011Y160855D01*
X1186046Y160895D01*
X1186049Y160912D01*
X1186058Y160927D01*
X1186069Y161000D01*
X1186069Y180300D01*
X1186064Y180316D01*
X1186067Y180333D01*
X1186045Y180383D01*
X1186030Y180434D01*
X1186017Y180445D01*
X1186010Y180461D01*
X1185965Y180491D01*
X1185925Y180526D01*
X1185908Y180529D01*
X1185894Y180538D01*
X1185820Y180549D01*
X1180520Y180549D01*
X1180477Y180537D01*
X1180433Y180534D01*
X1180396Y180513D01*
X1180386Y180510D01*
X1180381Y180505D01*
X1180368Y180498D01*
X1177952Y178639D01*
X1175292Y177192D01*
X1172438Y176180D01*
X1169460Y175628D01*
X1166414Y175549D01*
X1166400Y175545D01*
X1166387Y175547D01*
X1166335Y175524D01*
X1166280Y175507D01*
X1166272Y175496D01*
X1166259Y175490D01*
X1166227Y175443D01*
X1166191Y175399D01*
X1166190Y175385D01*
X1166182Y175374D01*
X1166171Y175300D01*
X1166171Y161000D01*
X1166176Y160984D01*
X1166173Y160967D01*
X1166195Y160917D01*
X1166210Y160866D01*
X1166223Y160855D01*
X1166230Y160839D01*
X1166275Y160809D01*
X1166315Y160774D01*
X1166332Y160771D01*
X1166347Y160762D01*
X1166420Y160751D01*
X1185820Y160751D01*
X1185836Y160756D01*
G37*
D10*
X26990Y178870D02*
X33970Y178870D01*
X33970Y171890D01*
X26990Y171890D01*
X26990Y178870D01*
X26990Y176690D02*
X33970Y176690D01*
X33970Y196410D02*
X26990Y196410D01*
X33970Y196410D02*
X33970Y189430D01*
X26990Y189430D01*
X26990Y196410D01*
X26990Y194230D02*
X33970Y194230D01*
D11*
X10160Y6350D03*
X241300Y198120D03*
D12*
X228600Y228600D03*
X25400Y228600D03*
X25400Y25400D03*
D13*
X14050Y155000D03*
X14050Y99000D03*
D14*
X50800Y142000D03*
X50800Y132000D03*
X50800Y122000D03*
X50800Y112000D03*
D13*
X239950Y99000D03*
X239950Y155000D03*
D14*
X203200Y112000D03*
X203200Y122000D03*
X203200Y132000D03*
X203200Y142000D03*
D15*
X63500Y12700D03*
X88900Y12700D03*
X114300Y12700D03*
X139700Y12700D03*
D16*
X222250Y174770D03*
X222250Y191770D03*
X205740Y174770D03*
X205740Y191770D03*
X13970Y192260D03*
X13970Y175260D03*
D17*
G36*
X135613Y63715D02*
X132408Y60510D01*
X127437Y65481D01*
X130642Y68686D01*
X135613Y63715D01*
G37*
G36*
X140210Y68311D02*
X137005Y65106D01*
X132034Y70077D01*
X135239Y73282D01*
X140210Y68311D01*
G37*
G36*
X144806Y72907D02*
X141601Y69702D01*
X136630Y74673D01*
X139835Y77878D01*
X144806Y72907D01*
G37*
G36*
X141601Y87071D02*
X144806Y83866D01*
X139835Y78895D01*
X136630Y82100D01*
X141601Y87071D01*
G37*
G36*
X137005Y91667D02*
X140210Y88462D01*
X135239Y83491D01*
X132034Y86696D01*
X137005Y91667D01*
G37*
G36*
X132408Y96263D02*
X135613Y93058D01*
X130642Y88087D01*
X127437Y91292D01*
X132408Y96263D01*
G37*
G36*
X118245Y93058D02*
X121450Y96263D01*
X126421Y91292D01*
X123216Y88087D01*
X118245Y93058D01*
G37*
G36*
X113649Y88462D02*
X116854Y91667D01*
X121825Y86696D01*
X118620Y83491D01*
X113649Y88462D01*
G37*
G36*
X109053Y83866D02*
X112258Y87071D01*
X117229Y82100D01*
X114024Y78895D01*
X109053Y83866D01*
G37*
G36*
X112258Y69702D02*
X109053Y72907D01*
X114024Y77878D01*
X117229Y74673D01*
X112258Y69702D01*
G37*
G36*
X116854Y65106D02*
X113649Y68311D01*
X118620Y73282D01*
X121825Y70077D01*
X116854Y65106D01*
G37*
G36*
X121450Y60510D02*
X118245Y63715D01*
X123216Y68686D01*
X126421Y65481D01*
X121450Y60510D01*
G37*
D18*
X140100Y162200D03*
X114100Y162200D03*
D19*
G36*
X150111Y99034D02*
X159325Y89820D01*
X150817Y81312D01*
X141603Y90526D01*
X150111Y99034D01*
G37*
G36*
X138091Y111055D02*
X147305Y101841D01*
X138797Y93333D01*
X129583Y102547D01*
X138091Y111055D01*
G37*
D15*
X241300Y12700D03*
X215900Y12700D03*
X190500Y12700D03*
X165100Y12700D03*
D19*
X238624Y81280D03*
X221624Y81280D03*
G36*
X160465Y109567D02*
X169679Y100353D01*
X161171Y91845D01*
X151957Y101059D01*
X160465Y109567D01*
G37*
G36*
X148445Y121587D02*
X157659Y112373D01*
X149151Y103865D01*
X139937Y113079D01*
X148445Y121587D01*
G37*
D15*
X13970Y68580D03*
D10*
X286070Y178870D02*
X293050Y178870D01*
X293050Y171890D01*
X286070Y171890D01*
X286070Y178870D01*
X286070Y176690D02*
X293050Y176690D01*
X293050Y196410D02*
X286070Y196410D01*
X293050Y196410D02*
X293050Y189430D01*
X286070Y189430D01*
X286070Y196410D01*
X286070Y194230D02*
X293050Y194230D01*
D11*
X269240Y6350D03*
X500380Y198120D03*
D12*
X487680Y228600D03*
X284480Y228600D03*
X284480Y25400D03*
D13*
X273130Y155000D03*
X273130Y99000D03*
D14*
X309880Y142000D03*
X309880Y132000D03*
X309880Y122000D03*
X309880Y112000D03*
D13*
X499030Y99000D03*
X499030Y155000D03*
D14*
X462280Y112000D03*
X462280Y122000D03*
X462280Y132000D03*
X462280Y142000D03*
D15*
X322580Y12700D03*
X347980Y12700D03*
X373380Y12700D03*
X398780Y12700D03*
D16*
X481330Y174770D03*
X481330Y191770D03*
X464820Y174770D03*
X464820Y191770D03*
X273050Y192260D03*
X273050Y175260D03*
D17*
G36*
X394693Y63715D02*
X391488Y60510D01*
X386517Y65481D01*
X389722Y68686D01*
X394693Y63715D01*
G37*
G36*
X399290Y68311D02*
X396085Y65106D01*
X391114Y70077D01*
X394319Y73282D01*
X399290Y68311D01*
G37*
G36*
X403886Y72907D02*
X400681Y69702D01*
X395710Y74673D01*
X398915Y77878D01*
X403886Y72907D01*
G37*
G36*
X400681Y87071D02*
X403886Y83866D01*
X398915Y78895D01*
X395710Y82100D01*
X400681Y87071D01*
G37*
G36*
X396085Y91667D02*
X399290Y88462D01*
X394319Y83491D01*
X391114Y86696D01*
X396085Y91667D01*
G37*
G36*
X391488Y96263D02*
X394693Y93058D01*
X389722Y88087D01*
X386517Y91292D01*
X391488Y96263D01*
G37*
G36*
X377325Y93058D02*
X380530Y96263D01*
X385501Y91292D01*
X382296Y88087D01*
X377325Y93058D01*
G37*
G36*
X372729Y88462D02*
X375934Y91667D01*
X380905Y86696D01*
X377700Y83491D01*
X372729Y88462D01*
G37*
G36*
X368133Y83866D02*
X371338Y87071D01*
X376309Y82100D01*
X373104Y78895D01*
X368133Y83866D01*
G37*
G36*
X371338Y69702D02*
X368133Y72907D01*
X373104Y77878D01*
X376309Y74673D01*
X371338Y69702D01*
G37*
G36*
X375934Y65106D02*
X372729Y68311D01*
X377700Y73282D01*
X380905Y70077D01*
X375934Y65106D01*
G37*
G36*
X380530Y60510D02*
X377325Y63715D01*
X382296Y68686D01*
X385501Y65481D01*
X380530Y60510D01*
G37*
D18*
X399180Y162200D03*
X373180Y162200D03*
D19*
G36*
X409191Y99034D02*
X418405Y89820D01*
X409897Y81312D01*
X400683Y90526D01*
X409191Y99034D01*
G37*
G36*
X397171Y111055D02*
X406385Y101841D01*
X397877Y93333D01*
X388663Y102547D01*
X397171Y111055D01*
G37*
D15*
X500380Y12700D03*
X474980Y12700D03*
X449580Y12700D03*
X424180Y12700D03*
D19*
X497704Y81280D03*
X480704Y81280D03*
G36*
X419545Y109567D02*
X428759Y100353D01*
X420251Y91845D01*
X411037Y101059D01*
X419545Y109567D01*
G37*
G36*
X407525Y121587D02*
X416739Y112373D01*
X408231Y103865D01*
X399017Y113079D01*
X407525Y121587D01*
G37*
D15*
X273050Y68580D03*
D10*
X545150Y178870D02*
X552130Y178870D01*
X552130Y171890D01*
X545150Y171890D01*
X545150Y178870D01*
X545150Y176690D02*
X552130Y176690D01*
X552130Y196410D02*
X545150Y196410D01*
X552130Y196410D02*
X552130Y189430D01*
X545150Y189430D01*
X545150Y196410D01*
X545150Y194230D02*
X552130Y194230D01*
D11*
X528320Y6350D03*
X759460Y198120D03*
D12*
X746760Y228600D03*
X543560Y228600D03*
X543560Y25400D03*
D13*
X532210Y155000D03*
X532210Y99000D03*
D14*
X568960Y142000D03*
X568960Y132000D03*
X568960Y122000D03*
X568960Y112000D03*
D13*
X758110Y99000D03*
X758110Y155000D03*
D14*
X721360Y112000D03*
X721360Y122000D03*
X721360Y132000D03*
X721360Y142000D03*
D15*
X581660Y12700D03*
X607060Y12700D03*
X632460Y12700D03*
X657860Y12700D03*
D16*
X740410Y174770D03*
X740410Y191770D03*
X723900Y174770D03*
X723900Y191770D03*
X532130Y192260D03*
X532130Y175260D03*
D17*
G36*
X653773Y63715D02*
X650568Y60510D01*
X645597Y65481D01*
X648802Y68686D01*
X653773Y63715D01*
G37*
G36*
X658370Y68311D02*
X655165Y65106D01*
X650194Y70077D01*
X653399Y73282D01*
X658370Y68311D01*
G37*
G36*
X662966Y72907D02*
X659761Y69702D01*
X654790Y74673D01*
X657995Y77878D01*
X662966Y72907D01*
G37*
G36*
X659761Y87071D02*
X662966Y83866D01*
X657995Y78895D01*
X654790Y82100D01*
X659761Y87071D01*
G37*
G36*
X655165Y91667D02*
X658370Y88462D01*
X653399Y83491D01*
X650194Y86696D01*
X655165Y91667D01*
G37*
G36*
X650568Y96263D02*
X653773Y93058D01*
X648802Y88087D01*
X645597Y91292D01*
X650568Y96263D01*
G37*
G36*
X636405Y93058D02*
X639610Y96263D01*
X644581Y91292D01*
X641376Y88087D01*
X636405Y93058D01*
G37*
G36*
X631809Y88462D02*
X635014Y91667D01*
X639985Y86696D01*
X636780Y83491D01*
X631809Y88462D01*
G37*
G36*
X627213Y83866D02*
X630418Y87071D01*
X635389Y82100D01*
X632184Y78895D01*
X627213Y83866D01*
G37*
G36*
X630418Y69702D02*
X627213Y72907D01*
X632184Y77878D01*
X635389Y74673D01*
X630418Y69702D01*
G37*
G36*
X635014Y65106D02*
X631809Y68311D01*
X636780Y73282D01*
X639985Y70077D01*
X635014Y65106D01*
G37*
G36*
X639610Y60510D02*
X636405Y63715D01*
X641376Y68686D01*
X644581Y65481D01*
X639610Y60510D01*
G37*
D18*
X658260Y162200D03*
X632260Y162200D03*
D19*
G36*
X668271Y99034D02*
X677485Y89820D01*
X668977Y81312D01*
X659763Y90526D01*
X668271Y99034D01*
G37*
G36*
X656251Y111055D02*
X665465Y101841D01*
X656957Y93333D01*
X647743Y102547D01*
X656251Y111055D01*
G37*
D15*
X759460Y12700D03*
X734060Y12700D03*
X708660Y12700D03*
X683260Y12700D03*
D19*
X756784Y81280D03*
X739784Y81280D03*
G36*
X678625Y109567D02*
X687839Y100353D01*
X679331Y91845D01*
X670117Y101059D01*
X678625Y109567D01*
G37*
G36*
X666605Y121587D02*
X675819Y112373D01*
X667311Y103865D01*
X658097Y113079D01*
X666605Y121587D01*
G37*
D15*
X532130Y68580D03*
D10*
X804230Y178870D02*
X811210Y178870D01*
X811210Y171890D01*
X804230Y171890D01*
X804230Y178870D01*
X804230Y176690D02*
X811210Y176690D01*
X811210Y196410D02*
X804230Y196410D01*
X811210Y196410D02*
X811210Y189430D01*
X804230Y189430D01*
X804230Y196410D01*
X804230Y194230D02*
X811210Y194230D01*
D11*
X787400Y6350D03*
X1018540Y198120D03*
D12*
X1005840Y228600D03*
X802640Y228600D03*
X802640Y25400D03*
D13*
X791290Y155000D03*
X791290Y99000D03*
D14*
X828040Y142000D03*
X828040Y132000D03*
X828040Y122000D03*
X828040Y112000D03*
D13*
X1017190Y99000D03*
X1017190Y155000D03*
D14*
X980440Y112000D03*
X980440Y122000D03*
X980440Y132000D03*
X980440Y142000D03*
D15*
X840740Y12700D03*
X866140Y12700D03*
X891540Y12700D03*
X916940Y12700D03*
D16*
X999490Y174770D03*
X999490Y191770D03*
X982980Y174770D03*
X982980Y191770D03*
X791210Y192260D03*
X791210Y175260D03*
D17*
G36*
X912853Y63715D02*
X909648Y60510D01*
X904677Y65481D01*
X907882Y68686D01*
X912853Y63715D01*
G37*
G36*
X917450Y68311D02*
X914245Y65106D01*
X909274Y70077D01*
X912479Y73282D01*
X917450Y68311D01*
G37*
G36*
X922046Y72907D02*
X918841Y69702D01*
X913870Y74673D01*
X917075Y77878D01*
X922046Y72907D01*
G37*
G36*
X918841Y87071D02*
X922046Y83866D01*
X917075Y78895D01*
X913870Y82100D01*
X918841Y87071D01*
G37*
G36*
X914245Y91667D02*
X917450Y88462D01*
X912479Y83491D01*
X909274Y86696D01*
X914245Y91667D01*
G37*
G36*
X909648Y96263D02*
X912853Y93058D01*
X907882Y88087D01*
X904677Y91292D01*
X909648Y96263D01*
G37*
G36*
X895485Y93058D02*
X898690Y96263D01*
X903661Y91292D01*
X900456Y88087D01*
X895485Y93058D01*
G37*
G36*
X890889Y88462D02*
X894094Y91667D01*
X899065Y86696D01*
X895860Y83491D01*
X890889Y88462D01*
G37*
G36*
X886293Y83866D02*
X889498Y87071D01*
X894469Y82100D01*
X891264Y78895D01*
X886293Y83866D01*
G37*
G36*
X889498Y69702D02*
X886293Y72907D01*
X891264Y77878D01*
X894469Y74673D01*
X889498Y69702D01*
G37*
G36*
X894094Y65106D02*
X890889Y68311D01*
X895860Y73282D01*
X899065Y70077D01*
X894094Y65106D01*
G37*
G36*
X898690Y60510D02*
X895485Y63715D01*
X900456Y68686D01*
X903661Y65481D01*
X898690Y60510D01*
G37*
D18*
X917340Y162200D03*
X891340Y162200D03*
D19*
G36*
X927351Y99034D02*
X936565Y89820D01*
X928057Y81312D01*
X918843Y90526D01*
X927351Y99034D01*
G37*
G36*
X915331Y111055D02*
X924545Y101841D01*
X916037Y93333D01*
X906823Y102547D01*
X915331Y111055D01*
G37*
D15*
X1018540Y12700D03*
X993140Y12700D03*
X967740Y12700D03*
X942340Y12700D03*
D19*
X1015864Y81280D03*
X998864Y81280D03*
G36*
X937705Y109567D02*
X946919Y100353D01*
X938411Y91845D01*
X929197Y101059D01*
X937705Y109567D01*
G37*
G36*
X925685Y121587D02*
X934899Y112373D01*
X926391Y103865D01*
X917177Y113079D01*
X925685Y121587D01*
G37*
D15*
X791210Y68580D03*
D10*
X1063310Y178870D02*
X1070290Y178870D01*
X1070290Y171890D01*
X1063310Y171890D01*
X1063310Y178870D01*
X1063310Y176690D02*
X1070290Y176690D01*
X1070290Y196410D02*
X1063310Y196410D01*
X1070290Y196410D02*
X1070290Y189430D01*
X1063310Y189430D01*
X1063310Y196410D01*
X1063310Y194230D02*
X1070290Y194230D01*
D11*
X1046480Y6350D03*
X1277620Y198120D03*
D12*
X1264920Y228600D03*
X1061720Y228600D03*
X1061720Y25400D03*
D13*
X1050370Y155000D03*
X1050370Y99000D03*
D14*
X1087120Y142000D03*
X1087120Y132000D03*
X1087120Y122000D03*
X1087120Y112000D03*
D13*
X1276270Y99000D03*
X1276270Y155000D03*
D14*
X1239520Y112000D03*
X1239520Y122000D03*
X1239520Y132000D03*
X1239520Y142000D03*
D15*
X1099820Y12700D03*
X1125220Y12700D03*
X1150620Y12700D03*
X1176020Y12700D03*
D16*
X1258570Y174770D03*
X1258570Y191770D03*
X1242060Y174770D03*
X1242060Y191770D03*
X1050290Y192260D03*
X1050290Y175260D03*
D17*
G36*
X1171933Y63715D02*
X1168728Y60510D01*
X1163757Y65481D01*
X1166962Y68686D01*
X1171933Y63715D01*
G37*
G36*
X1176530Y68311D02*
X1173325Y65106D01*
X1168354Y70077D01*
X1171559Y73282D01*
X1176530Y68311D01*
G37*
G36*
X1181126Y72907D02*
X1177921Y69702D01*
X1172950Y74673D01*
X1176155Y77878D01*
X1181126Y72907D01*
G37*
G36*
X1177921Y87071D02*
X1181126Y83866D01*
X1176155Y78895D01*
X1172950Y82100D01*
X1177921Y87071D01*
G37*
G36*
X1173325Y91667D02*
X1176530Y88462D01*
X1171559Y83491D01*
X1168354Y86696D01*
X1173325Y91667D01*
G37*
G36*
X1168728Y96263D02*
X1171933Y93058D01*
X1166962Y88087D01*
X1163757Y91292D01*
X1168728Y96263D01*
G37*
G36*
X1154565Y93058D02*
X1157770Y96263D01*
X1162741Y91292D01*
X1159536Y88087D01*
X1154565Y93058D01*
G37*
G36*
X1149969Y88462D02*
X1153174Y91667D01*
X1158145Y86696D01*
X1154940Y83491D01*
X1149969Y88462D01*
G37*
G36*
X1145373Y83866D02*
X1148578Y87071D01*
X1153549Y82100D01*
X1150344Y78895D01*
X1145373Y83866D01*
G37*
G36*
X1148578Y69702D02*
X1145373Y72907D01*
X1150344Y77878D01*
X1153549Y74673D01*
X1148578Y69702D01*
G37*
G36*
X1153174Y65106D02*
X1149969Y68311D01*
X1154940Y73282D01*
X1158145Y70077D01*
X1153174Y65106D01*
G37*
G36*
X1157770Y60510D02*
X1154565Y63715D01*
X1159536Y68686D01*
X1162741Y65481D01*
X1157770Y60510D01*
G37*
D18*
X1176420Y162200D03*
X1150420Y162200D03*
D19*
G36*
X1186431Y99034D02*
X1195645Y89820D01*
X1187137Y81312D01*
X1177923Y90526D01*
X1186431Y99034D01*
G37*
G36*
X1174411Y111055D02*
X1183625Y101841D01*
X1175117Y93333D01*
X1165903Y102547D01*
X1174411Y111055D01*
G37*
D15*
X1277620Y12700D03*
X1252220Y12700D03*
X1226820Y12700D03*
X1201420Y12700D03*
D19*
X1274944Y81280D03*
X1257944Y81280D03*
G36*
X1196785Y109567D02*
X1205999Y100353D01*
X1197491Y91845D01*
X1188277Y101059D01*
X1196785Y109567D01*
G37*
G36*
X1184765Y121587D02*
X1193979Y112373D01*
X1185471Y103865D01*
X1176257Y113079D01*
X1184765Y121587D01*
G37*
D15*
X1050290Y68580D03*
D10*
X33970Y476050D02*
X26990Y476050D01*
X33970Y476050D02*
X33970Y469070D01*
X26990Y469070D01*
X26990Y476050D01*
X26990Y473870D02*
X33970Y473870D01*
X33970Y493590D02*
X26990Y493590D01*
X33970Y493590D02*
X33970Y486610D01*
X26990Y486610D01*
X26990Y493590D01*
X26990Y491410D02*
X33970Y491410D01*
D11*
X10160Y303530D03*
X241300Y495300D03*
D12*
X228600Y525780D03*
X25400Y525780D03*
X25400Y322580D03*
D13*
X14050Y452180D03*
X14050Y396180D03*
D14*
X50800Y439180D03*
X50800Y429180D03*
X50800Y419180D03*
X50800Y409180D03*
D13*
X239950Y396180D03*
X239950Y452180D03*
D14*
X203200Y409180D03*
X203200Y419180D03*
X203200Y429180D03*
X203200Y439180D03*
D15*
X63500Y309880D03*
X88900Y309880D03*
X114300Y309880D03*
X139700Y309880D03*
D16*
X222250Y471950D03*
X222250Y488950D03*
X205740Y471950D03*
X205740Y488950D03*
X13970Y489440D03*
X13970Y472440D03*
D17*
G36*
X135613Y360895D02*
X132408Y357690D01*
X127437Y362661D01*
X130642Y365866D01*
X135613Y360895D01*
G37*
G36*
X140210Y365491D02*
X137005Y362286D01*
X132034Y367257D01*
X135239Y370462D01*
X140210Y365491D01*
G37*
G36*
X144806Y370087D02*
X141601Y366882D01*
X136630Y371853D01*
X139835Y375058D01*
X144806Y370087D01*
G37*
G36*
X141601Y384251D02*
X144806Y381046D01*
X139835Y376075D01*
X136630Y379280D01*
X141601Y384251D01*
G37*
G36*
X137005Y388847D02*
X140210Y385642D01*
X135239Y380671D01*
X132034Y383876D01*
X137005Y388847D01*
G37*
G36*
X132408Y393443D02*
X135613Y390238D01*
X130642Y385267D01*
X127437Y388472D01*
X132408Y393443D01*
G37*
G36*
X118245Y390238D02*
X121450Y393443D01*
X126421Y388472D01*
X123216Y385267D01*
X118245Y390238D01*
G37*
G36*
X113649Y385642D02*
X116854Y388847D01*
X121825Y383876D01*
X118620Y380671D01*
X113649Y385642D01*
G37*
G36*
X109053Y381046D02*
X112258Y384251D01*
X117229Y379280D01*
X114024Y376075D01*
X109053Y381046D01*
G37*
G36*
X112258Y366882D02*
X109053Y370087D01*
X114024Y375058D01*
X117229Y371853D01*
X112258Y366882D01*
G37*
G36*
X116854Y362286D02*
X113649Y365491D01*
X118620Y370462D01*
X121825Y367257D01*
X116854Y362286D01*
G37*
G36*
X121450Y357690D02*
X118245Y360895D01*
X123216Y365866D01*
X126421Y362661D01*
X121450Y357690D01*
G37*
D18*
X140100Y459380D03*
X114100Y459380D03*
D19*
G36*
X150111Y396214D02*
X159325Y387000D01*
X150817Y378492D01*
X141603Y387706D01*
X150111Y396214D01*
G37*
G36*
X138091Y408235D02*
X147305Y399021D01*
X138797Y390513D01*
X129583Y399727D01*
X138091Y408235D01*
G37*
D15*
X241300Y309880D03*
X215900Y309880D03*
X190500Y309880D03*
X165100Y309880D03*
D19*
X238624Y378460D03*
X221624Y378460D03*
G36*
X160465Y406747D02*
X169679Y397533D01*
X161171Y389025D01*
X151957Y398239D01*
X160465Y406747D01*
G37*
G36*
X148445Y418767D02*
X157659Y409553D01*
X149151Y401045D01*
X139937Y410259D01*
X148445Y418767D01*
G37*
D15*
X13970Y365760D03*
D10*
X286070Y476050D02*
X293050Y476050D01*
X293050Y469070D01*
X286070Y469070D01*
X286070Y476050D01*
X286070Y473870D02*
X293050Y473870D01*
X293050Y493590D02*
X286070Y493590D01*
X293050Y493590D02*
X293050Y486610D01*
X286070Y486610D01*
X286070Y493590D01*
X286070Y491410D02*
X293050Y491410D01*
D11*
X269240Y303530D03*
X500380Y495300D03*
D12*
X487680Y525780D03*
X284480Y525780D03*
X284480Y322580D03*
D13*
X273130Y452180D03*
X273130Y396180D03*
D14*
X309880Y439180D03*
X309880Y429180D03*
X309880Y419180D03*
X309880Y409180D03*
D13*
X499030Y396180D03*
X499030Y452180D03*
D14*
X462280Y409180D03*
X462280Y419180D03*
X462280Y429180D03*
X462280Y439180D03*
D15*
X322580Y309880D03*
X347980Y309880D03*
X373380Y309880D03*
X398780Y309880D03*
D16*
X481330Y471950D03*
X481330Y488950D03*
X464820Y471950D03*
X464820Y488950D03*
X273050Y489440D03*
X273050Y472440D03*
D17*
G36*
X394693Y360895D02*
X391488Y357690D01*
X386517Y362661D01*
X389722Y365866D01*
X394693Y360895D01*
G37*
G36*
X399290Y365491D02*
X396085Y362286D01*
X391114Y367257D01*
X394319Y370462D01*
X399290Y365491D01*
G37*
G36*
X403886Y370087D02*
X400681Y366882D01*
X395710Y371853D01*
X398915Y375058D01*
X403886Y370087D01*
G37*
G36*
X400681Y384251D02*
X403886Y381046D01*
X398915Y376075D01*
X395710Y379280D01*
X400681Y384251D01*
G37*
G36*
X396085Y388847D02*
X399290Y385642D01*
X394319Y380671D01*
X391114Y383876D01*
X396085Y388847D01*
G37*
G36*
X391488Y393443D02*
X394693Y390238D01*
X389722Y385267D01*
X386517Y388472D01*
X391488Y393443D01*
G37*
G36*
X377325Y390238D02*
X380530Y393443D01*
X385501Y388472D01*
X382296Y385267D01*
X377325Y390238D01*
G37*
G36*
X372729Y385642D02*
X375934Y388847D01*
X380905Y383876D01*
X377700Y380671D01*
X372729Y385642D01*
G37*
G36*
X368133Y381046D02*
X371338Y384251D01*
X376309Y379280D01*
X373104Y376075D01*
X368133Y381046D01*
G37*
G36*
X371338Y366882D02*
X368133Y370087D01*
X373104Y375058D01*
X376309Y371853D01*
X371338Y366882D01*
G37*
G36*
X375934Y362286D02*
X372729Y365491D01*
X377700Y370462D01*
X380905Y367257D01*
X375934Y362286D01*
G37*
G36*
X380530Y357690D02*
X377325Y360895D01*
X382296Y365866D01*
X385501Y362661D01*
X380530Y357690D01*
G37*
D18*
X399180Y459380D03*
X373180Y459380D03*
D19*
G36*
X409191Y396214D02*
X418405Y387000D01*
X409897Y378492D01*
X400683Y387706D01*
X409191Y396214D01*
G37*
G36*
X397171Y408235D02*
X406385Y399021D01*
X397877Y390513D01*
X388663Y399727D01*
X397171Y408235D01*
G37*
D15*
X500380Y309880D03*
X474980Y309880D03*
X449580Y309880D03*
X424180Y309880D03*
D19*
X497704Y378460D03*
X480704Y378460D03*
G36*
X419545Y406747D02*
X428759Y397533D01*
X420251Y389025D01*
X411037Y398239D01*
X419545Y406747D01*
G37*
G36*
X407525Y418767D02*
X416739Y409553D01*
X408231Y401045D01*
X399017Y410259D01*
X407525Y418767D01*
G37*
D15*
X273050Y365760D03*
D10*
X545150Y476050D02*
X552130Y476050D01*
X552130Y469070D01*
X545150Y469070D01*
X545150Y476050D01*
X545150Y473870D02*
X552130Y473870D01*
X552130Y493590D02*
X545150Y493590D01*
X552130Y493590D02*
X552130Y486610D01*
X545150Y486610D01*
X545150Y493590D01*
X545150Y491410D02*
X552130Y491410D01*
D11*
X528320Y303530D03*
X759460Y495300D03*
D12*
X746760Y525780D03*
X543560Y525780D03*
X543560Y322580D03*
D13*
X532210Y452180D03*
X532210Y396180D03*
D14*
X568960Y439180D03*
X568960Y429180D03*
X568960Y419180D03*
X568960Y409180D03*
D13*
X758110Y396180D03*
X758110Y452180D03*
D14*
X721360Y409180D03*
X721360Y419180D03*
X721360Y429180D03*
X721360Y439180D03*
D15*
X581660Y309880D03*
X607060Y309880D03*
X632460Y309880D03*
X657860Y309880D03*
D16*
X740410Y471950D03*
X740410Y488950D03*
X723900Y471950D03*
X723900Y488950D03*
X532130Y489440D03*
X532130Y472440D03*
D17*
G36*
X653773Y360895D02*
X650568Y357690D01*
X645597Y362661D01*
X648802Y365866D01*
X653773Y360895D01*
G37*
G36*
X658370Y365491D02*
X655165Y362286D01*
X650194Y367257D01*
X653399Y370462D01*
X658370Y365491D01*
G37*
G36*
X662966Y370087D02*
X659761Y366882D01*
X654790Y371853D01*
X657995Y375058D01*
X662966Y370087D01*
G37*
G36*
X659761Y384251D02*
X662966Y381046D01*
X657995Y376075D01*
X654790Y379280D01*
X659761Y384251D01*
G37*
G36*
X655165Y388847D02*
X658370Y385642D01*
X653399Y380671D01*
X650194Y383876D01*
X655165Y388847D01*
G37*
G36*
X650568Y393443D02*
X653773Y390238D01*
X648802Y385267D01*
X645597Y388472D01*
X650568Y393443D01*
G37*
G36*
X636405Y390238D02*
X639610Y393443D01*
X644581Y388472D01*
X641376Y385267D01*
X636405Y390238D01*
G37*
G36*
X631809Y385642D02*
X635014Y388847D01*
X639985Y383876D01*
X636780Y380671D01*
X631809Y385642D01*
G37*
G36*
X627213Y381046D02*
X630418Y384251D01*
X635389Y379280D01*
X632184Y376075D01*
X627213Y381046D01*
G37*
G36*
X630418Y366882D02*
X627213Y370087D01*
X632184Y375058D01*
X635389Y371853D01*
X630418Y366882D01*
G37*
G36*
X635014Y362286D02*
X631809Y365491D01*
X636780Y370462D01*
X639985Y367257D01*
X635014Y362286D01*
G37*
G36*
X639610Y357690D02*
X636405Y360895D01*
X641376Y365866D01*
X644581Y362661D01*
X639610Y357690D01*
G37*
D18*
X658260Y459380D03*
X632260Y459380D03*
D19*
G36*
X668271Y396214D02*
X677485Y387000D01*
X668977Y378492D01*
X659763Y387706D01*
X668271Y396214D01*
G37*
G36*
X656251Y408235D02*
X665465Y399021D01*
X656957Y390513D01*
X647743Y399727D01*
X656251Y408235D01*
G37*
D15*
X759460Y309880D03*
X734060Y309880D03*
X708660Y309880D03*
X683260Y309880D03*
D19*
X756784Y378460D03*
X739784Y378460D03*
G36*
X678625Y406747D02*
X687839Y397533D01*
X679331Y389025D01*
X670117Y398239D01*
X678625Y406747D01*
G37*
G36*
X666605Y418767D02*
X675819Y409553D01*
X667311Y401045D01*
X658097Y410259D01*
X666605Y418767D01*
G37*
D15*
X532130Y365760D03*
D10*
X804230Y476050D02*
X811210Y476050D01*
X811210Y469070D01*
X804230Y469070D01*
X804230Y476050D01*
X804230Y473870D02*
X811210Y473870D01*
X811210Y493590D02*
X804230Y493590D01*
X811210Y493590D02*
X811210Y486610D01*
X804230Y486610D01*
X804230Y493590D01*
X804230Y491410D02*
X811210Y491410D01*
D11*
X787400Y303530D03*
X1018540Y495300D03*
D12*
X1005840Y525780D03*
X802640Y525780D03*
X802640Y322580D03*
D13*
X791290Y452180D03*
X791290Y396180D03*
D14*
X828040Y439180D03*
X828040Y429180D03*
X828040Y419180D03*
X828040Y409180D03*
D13*
X1017190Y396180D03*
X1017190Y452180D03*
D14*
X980440Y409180D03*
X980440Y419180D03*
X980440Y429180D03*
X980440Y439180D03*
D15*
X840740Y309880D03*
X866140Y309880D03*
X891540Y309880D03*
X916940Y309880D03*
D16*
X999490Y471950D03*
X999490Y488950D03*
X982980Y471950D03*
X982980Y488950D03*
X791210Y489440D03*
X791210Y472440D03*
D17*
G36*
X912853Y360895D02*
X909648Y357690D01*
X904677Y362661D01*
X907882Y365866D01*
X912853Y360895D01*
G37*
G36*
X917450Y365491D02*
X914245Y362286D01*
X909274Y367257D01*
X912479Y370462D01*
X917450Y365491D01*
G37*
G36*
X922046Y370087D02*
X918841Y366882D01*
X913870Y371853D01*
X917075Y375058D01*
X922046Y370087D01*
G37*
G36*
X918841Y384251D02*
X922046Y381046D01*
X917075Y376075D01*
X913870Y379280D01*
X918841Y384251D01*
G37*
G36*
X914245Y388847D02*
X917450Y385642D01*
X912479Y380671D01*
X909274Y383876D01*
X914245Y388847D01*
G37*
G36*
X909648Y393443D02*
X912853Y390238D01*
X907882Y385267D01*
X904677Y388472D01*
X909648Y393443D01*
G37*
G36*
X895485Y390238D02*
X898690Y393443D01*
X903661Y388472D01*
X900456Y385267D01*
X895485Y390238D01*
G37*
G36*
X890889Y385642D02*
X894094Y388847D01*
X899065Y383876D01*
X895860Y380671D01*
X890889Y385642D01*
G37*
G36*
X886293Y381046D02*
X889498Y384251D01*
X894469Y379280D01*
X891264Y376075D01*
X886293Y381046D01*
G37*
G36*
X889498Y366882D02*
X886293Y370087D01*
X891264Y375058D01*
X894469Y371853D01*
X889498Y366882D01*
G37*
G36*
X894094Y362286D02*
X890889Y365491D01*
X895860Y370462D01*
X899065Y367257D01*
X894094Y362286D01*
G37*
G36*
X898690Y357690D02*
X895485Y360895D01*
X900456Y365866D01*
X903661Y362661D01*
X898690Y357690D01*
G37*
D18*
X917340Y459380D03*
X891340Y459380D03*
D19*
G36*
X927351Y396214D02*
X936565Y387000D01*
X928057Y378492D01*
X918843Y387706D01*
X927351Y396214D01*
G37*
G36*
X915331Y408235D02*
X924545Y399021D01*
X916037Y390513D01*
X906823Y399727D01*
X915331Y408235D01*
G37*
D15*
X1018540Y309880D03*
X993140Y309880D03*
X967740Y309880D03*
X942340Y309880D03*
D19*
X1015864Y378460D03*
X998864Y378460D03*
G36*
X937705Y406747D02*
X946919Y397533D01*
X938411Y389025D01*
X929197Y398239D01*
X937705Y406747D01*
G37*
G36*
X925685Y418767D02*
X934899Y409553D01*
X926391Y401045D01*
X917177Y410259D01*
X925685Y418767D01*
G37*
D15*
X791210Y365760D03*
D10*
X1063310Y476050D02*
X1070290Y476050D01*
X1070290Y469070D01*
X1063310Y469070D01*
X1063310Y476050D01*
X1063310Y473870D02*
X1070290Y473870D01*
X1070290Y493590D02*
X1063310Y493590D01*
X1070290Y493590D02*
X1070290Y486610D01*
X1063310Y486610D01*
X1063310Y493590D01*
X1063310Y491410D02*
X1070290Y491410D01*
D11*
X1046480Y303530D03*
X1277620Y495300D03*
D12*
X1264920Y525780D03*
X1061720Y525780D03*
X1061720Y322580D03*
D13*
X1050370Y452180D03*
X1050370Y396180D03*
D14*
X1087120Y439180D03*
X1087120Y429180D03*
X1087120Y419180D03*
X1087120Y409180D03*
D13*
X1276270Y396180D03*
X1276270Y452180D03*
D14*
X1239520Y409180D03*
X1239520Y419180D03*
X1239520Y429180D03*
X1239520Y439180D03*
D15*
X1099820Y309880D03*
X1125220Y309880D03*
X1150620Y309880D03*
X1176020Y309880D03*
D16*
X1258570Y471950D03*
X1258570Y488950D03*
X1242060Y471950D03*
X1242060Y488950D03*
X1050290Y489440D03*
X1050290Y472440D03*
D17*
G36*
X1171933Y360895D02*
X1168728Y357690D01*
X1163757Y362661D01*
X1166962Y365866D01*
X1171933Y360895D01*
G37*
G36*
X1176530Y365491D02*
X1173325Y362286D01*
X1168354Y367257D01*
X1171559Y370462D01*
X1176530Y365491D01*
G37*
G36*
X1181126Y370087D02*
X1177921Y366882D01*
X1172950Y371853D01*
X1176155Y375058D01*
X1181126Y370087D01*
G37*
G36*
X1177921Y384251D02*
X1181126Y381046D01*
X1176155Y376075D01*
X1172950Y379280D01*
X1177921Y384251D01*
G37*
G36*
X1173325Y388847D02*
X1176530Y385642D01*
X1171559Y380671D01*
X1168354Y383876D01*
X1173325Y388847D01*
G37*
G36*
X1168728Y393443D02*
X1171933Y390238D01*
X1166962Y385267D01*
X1163757Y388472D01*
X1168728Y393443D01*
G37*
G36*
X1154565Y390238D02*
X1157770Y393443D01*
X1162741Y388472D01*
X1159536Y385267D01*
X1154565Y390238D01*
G37*
G36*
X1149969Y385642D02*
X1153174Y388847D01*
X1158145Y383876D01*
X1154940Y380671D01*
X1149969Y385642D01*
G37*
G36*
X1145373Y381046D02*
X1148578Y384251D01*
X1153549Y379280D01*
X1150344Y376075D01*
X1145373Y381046D01*
G37*
G36*
X1148578Y366882D02*
X1145373Y370087D01*
X1150344Y375058D01*
X1153549Y371853D01*
X1148578Y366882D01*
G37*
G36*
X1153174Y362286D02*
X1149969Y365491D01*
X1154940Y370462D01*
X1158145Y367257D01*
X1153174Y362286D01*
G37*
G36*
X1157770Y357690D02*
X1154565Y360895D01*
X1159536Y365866D01*
X1162741Y362661D01*
X1157770Y357690D01*
G37*
D18*
X1176420Y459380D03*
X1150420Y459380D03*
D19*
G36*
X1186431Y396214D02*
X1195645Y387000D01*
X1187137Y378492D01*
X1177923Y387706D01*
X1186431Y396214D01*
G37*
G36*
X1174411Y408235D02*
X1183625Y399021D01*
X1175117Y390513D01*
X1165903Y399727D01*
X1174411Y408235D01*
G37*
D15*
X1277620Y309880D03*
X1252220Y309880D03*
X1226820Y309880D03*
X1201420Y309880D03*
D19*
X1274944Y378460D03*
X1257944Y378460D03*
G36*
X1196785Y406747D02*
X1205999Y397533D01*
X1197491Y389025D01*
X1188277Y398239D01*
X1196785Y406747D01*
G37*
G36*
X1184765Y418767D02*
X1193979Y409553D01*
X1185471Y401045D01*
X1176257Y410259D01*
X1184765Y418767D01*
G37*
D15*
X1050290Y365760D03*
D10*
X33970Y773230D02*
X26990Y773230D01*
X33970Y773230D02*
X33970Y766250D01*
X26990Y766250D01*
X26990Y773230D01*
X26990Y771050D02*
X33970Y771050D01*
X33970Y790770D02*
X26990Y790770D01*
X33970Y790770D02*
X33970Y783790D01*
X26990Y783790D01*
X26990Y790770D01*
X26990Y788590D02*
X33970Y788590D01*
D11*
X10160Y600710D03*
X241300Y792480D03*
D12*
X228600Y822960D03*
X25400Y822960D03*
X25400Y619760D03*
D13*
X14050Y749360D03*
X14050Y693360D03*
D14*
X50800Y736360D03*
X50800Y726360D03*
X50800Y716360D03*
X50800Y706360D03*
D13*
X239950Y693360D03*
X239950Y749360D03*
D14*
X203200Y706360D03*
X203200Y716360D03*
X203200Y726360D03*
X203200Y736360D03*
D15*
X63500Y607060D03*
X88900Y607060D03*
X114300Y607060D03*
X139700Y607060D03*
D16*
X222250Y769130D03*
X222250Y786130D03*
X205740Y769130D03*
X205740Y786130D03*
X13970Y786620D03*
X13970Y769620D03*
D17*
G36*
X135613Y658075D02*
X132408Y654870D01*
X127437Y659841D01*
X130642Y663046D01*
X135613Y658075D01*
G37*
G36*
X140210Y662671D02*
X137005Y659466D01*
X132034Y664437D01*
X135239Y667642D01*
X140210Y662671D01*
G37*
G36*
X144806Y667267D02*
X141601Y664062D01*
X136630Y669033D01*
X139835Y672238D01*
X144806Y667267D01*
G37*
G36*
X141601Y681431D02*
X144806Y678226D01*
X139835Y673255D01*
X136630Y676460D01*
X141601Y681431D01*
G37*
G36*
X137005Y686027D02*
X140210Y682822D01*
X135239Y677851D01*
X132034Y681056D01*
X137005Y686027D01*
G37*
G36*
X132408Y690623D02*
X135613Y687418D01*
X130642Y682447D01*
X127437Y685652D01*
X132408Y690623D01*
G37*
G36*
X118245Y687418D02*
X121450Y690623D01*
X126421Y685652D01*
X123216Y682447D01*
X118245Y687418D01*
G37*
G36*
X113649Y682822D02*
X116854Y686027D01*
X121825Y681056D01*
X118620Y677851D01*
X113649Y682822D01*
G37*
G36*
X109053Y678226D02*
X112258Y681431D01*
X117229Y676460D01*
X114024Y673255D01*
X109053Y678226D01*
G37*
G36*
X112258Y664062D02*
X109053Y667267D01*
X114024Y672238D01*
X117229Y669033D01*
X112258Y664062D01*
G37*
G36*
X116854Y659466D02*
X113649Y662671D01*
X118620Y667642D01*
X121825Y664437D01*
X116854Y659466D01*
G37*
G36*
X121450Y654870D02*
X118245Y658075D01*
X123216Y663046D01*
X126421Y659841D01*
X121450Y654870D01*
G37*
D18*
X140100Y756560D03*
X114100Y756560D03*
D19*
G36*
X150111Y693394D02*
X159325Y684180D01*
X150817Y675672D01*
X141603Y684886D01*
X150111Y693394D01*
G37*
G36*
X138091Y705415D02*
X147305Y696201D01*
X138797Y687693D01*
X129583Y696907D01*
X138091Y705415D01*
G37*
D15*
X241300Y607060D03*
X215900Y607060D03*
X190500Y607060D03*
X165100Y607060D03*
D19*
X238624Y675640D03*
X221624Y675640D03*
G36*
X160465Y703927D02*
X169679Y694713D01*
X161171Y686205D01*
X151957Y695419D01*
X160465Y703927D01*
G37*
G36*
X148445Y715947D02*
X157659Y706733D01*
X149151Y698225D01*
X139937Y707439D01*
X148445Y715947D01*
G37*
D15*
X13970Y662940D03*
D10*
X286070Y773230D02*
X293050Y773230D01*
X293050Y766250D01*
X286070Y766250D01*
X286070Y773230D01*
X286070Y771050D02*
X293050Y771050D01*
X293050Y790770D02*
X286070Y790770D01*
X293050Y790770D02*
X293050Y783790D01*
X286070Y783790D01*
X286070Y790770D01*
X286070Y788590D02*
X293050Y788590D01*
D11*
X269240Y600710D03*
X500380Y792480D03*
D12*
X487680Y822960D03*
X284480Y822960D03*
X284480Y619760D03*
D13*
X273130Y749360D03*
X273130Y693360D03*
D14*
X309880Y736360D03*
X309880Y726360D03*
X309880Y716360D03*
X309880Y706360D03*
D13*
X499030Y693360D03*
X499030Y749360D03*
D14*
X462280Y706360D03*
X462280Y716360D03*
X462280Y726360D03*
X462280Y736360D03*
D15*
X322580Y607060D03*
X347980Y607060D03*
X373380Y607060D03*
X398780Y607060D03*
D16*
X481330Y769130D03*
X481330Y786130D03*
X464820Y769130D03*
X464820Y786130D03*
X273050Y786620D03*
X273050Y769620D03*
D17*
G36*
X394693Y658075D02*
X391488Y654870D01*
X386517Y659841D01*
X389722Y663046D01*
X394693Y658075D01*
G37*
G36*
X399290Y662671D02*
X396085Y659466D01*
X391114Y664437D01*
X394319Y667642D01*
X399290Y662671D01*
G37*
G36*
X403886Y667267D02*
X400681Y664062D01*
X395710Y669033D01*
X398915Y672238D01*
X403886Y667267D01*
G37*
G36*
X400681Y681431D02*
X403886Y678226D01*
X398915Y673255D01*
X395710Y676460D01*
X400681Y681431D01*
G37*
G36*
X396085Y686027D02*
X399290Y682822D01*
X394319Y677851D01*
X391114Y681056D01*
X396085Y686027D01*
G37*
G36*
X391488Y690623D02*
X394693Y687418D01*
X389722Y682447D01*
X386517Y685652D01*
X391488Y690623D01*
G37*
G36*
X377325Y687418D02*
X380530Y690623D01*
X385501Y685652D01*
X382296Y682447D01*
X377325Y687418D01*
G37*
G36*
X372729Y682822D02*
X375934Y686027D01*
X380905Y681056D01*
X377700Y677851D01*
X372729Y682822D01*
G37*
G36*
X368133Y678226D02*
X371338Y681431D01*
X376309Y676460D01*
X373104Y673255D01*
X368133Y678226D01*
G37*
G36*
X371338Y664062D02*
X368133Y667267D01*
X373104Y672238D01*
X376309Y669033D01*
X371338Y664062D01*
G37*
G36*
X375934Y659466D02*
X372729Y662671D01*
X377700Y667642D01*
X380905Y664437D01*
X375934Y659466D01*
G37*
G36*
X380530Y654870D02*
X377325Y658075D01*
X382296Y663046D01*
X385501Y659841D01*
X380530Y654870D01*
G37*
D18*
X399180Y756560D03*
X373180Y756560D03*
D19*
G36*
X409191Y693394D02*
X418405Y684180D01*
X409897Y675672D01*
X400683Y684886D01*
X409191Y693394D01*
G37*
G36*
X397171Y705415D02*
X406385Y696201D01*
X397877Y687693D01*
X388663Y696907D01*
X397171Y705415D01*
G37*
D15*
X500380Y607060D03*
X474980Y607060D03*
X449580Y607060D03*
X424180Y607060D03*
D19*
X497704Y675640D03*
X480704Y675640D03*
G36*
X419545Y703927D02*
X428759Y694713D01*
X420251Y686205D01*
X411037Y695419D01*
X419545Y703927D01*
G37*
G36*
X407525Y715947D02*
X416739Y706733D01*
X408231Y698225D01*
X399017Y707439D01*
X407525Y715947D01*
G37*
D15*
X273050Y662940D03*
D10*
X545150Y773230D02*
X552130Y773230D01*
X552130Y766250D01*
X545150Y766250D01*
X545150Y773230D01*
X545150Y771050D02*
X552130Y771050D01*
X552130Y790770D02*
X545150Y790770D01*
X552130Y790770D02*
X552130Y783790D01*
X545150Y783790D01*
X545150Y790770D01*
X545150Y788590D02*
X552130Y788590D01*
D11*
X528320Y600710D03*
X759460Y792480D03*
D12*
X746760Y822960D03*
X543560Y822960D03*
X543560Y619760D03*
D13*
X532210Y749360D03*
X532210Y693360D03*
D14*
X568960Y736360D03*
X568960Y726360D03*
X568960Y716360D03*
X568960Y706360D03*
D13*
X758110Y693360D03*
X758110Y749360D03*
D14*
X721360Y706360D03*
X721360Y716360D03*
X721360Y726360D03*
X721360Y736360D03*
D15*
X581660Y607060D03*
X607060Y607060D03*
X632460Y607060D03*
X657860Y607060D03*
D16*
X740410Y769130D03*
X740410Y786130D03*
X723900Y769130D03*
X723900Y786130D03*
X532130Y786620D03*
X532130Y769620D03*
D17*
G36*
X653773Y658075D02*
X650568Y654870D01*
X645597Y659841D01*
X648802Y663046D01*
X653773Y658075D01*
G37*
G36*
X658370Y662671D02*
X655165Y659466D01*
X650194Y664437D01*
X653399Y667642D01*
X658370Y662671D01*
G37*
G36*
X662966Y667267D02*
X659761Y664062D01*
X654790Y669033D01*
X657995Y672238D01*
X662966Y667267D01*
G37*
G36*
X659761Y681431D02*
X662966Y678226D01*
X657995Y673255D01*
X654790Y676460D01*
X659761Y681431D01*
G37*
G36*
X655165Y686027D02*
X658370Y682822D01*
X653399Y677851D01*
X650194Y681056D01*
X655165Y686027D01*
G37*
G36*
X650568Y690623D02*
X653773Y687418D01*
X648802Y682447D01*
X645597Y685652D01*
X650568Y690623D01*
G37*
G36*
X636405Y687418D02*
X639610Y690623D01*
X644581Y685652D01*
X641376Y682447D01*
X636405Y687418D01*
G37*
G36*
X631809Y682822D02*
X635014Y686027D01*
X639985Y681056D01*
X636780Y677851D01*
X631809Y682822D01*
G37*
G36*
X627213Y678226D02*
X630418Y681431D01*
X635389Y676460D01*
X632184Y673255D01*
X627213Y678226D01*
G37*
G36*
X630418Y664062D02*
X627213Y667267D01*
X632184Y672238D01*
X635389Y669033D01*
X630418Y664062D01*
G37*
G36*
X635014Y659466D02*
X631809Y662671D01*
X636780Y667642D01*
X639985Y664437D01*
X635014Y659466D01*
G37*
G36*
X639610Y654870D02*
X636405Y658075D01*
X641376Y663046D01*
X644581Y659841D01*
X639610Y654870D01*
G37*
D18*
X658260Y756560D03*
X632260Y756560D03*
D19*
G36*
X668271Y693394D02*
X677485Y684180D01*
X668977Y675672D01*
X659763Y684886D01*
X668271Y693394D01*
G37*
G36*
X656251Y705415D02*
X665465Y696201D01*
X656957Y687693D01*
X647743Y696907D01*
X656251Y705415D01*
G37*
D15*
X759460Y607060D03*
X734060Y607060D03*
X708660Y607060D03*
X683260Y607060D03*
D19*
X756784Y675640D03*
X739784Y675640D03*
G36*
X678625Y703927D02*
X687839Y694713D01*
X679331Y686205D01*
X670117Y695419D01*
X678625Y703927D01*
G37*
G36*
X666605Y715947D02*
X675819Y706733D01*
X667311Y698225D01*
X658097Y707439D01*
X666605Y715947D01*
G37*
D15*
X532130Y662940D03*
D10*
X804230Y773230D02*
X811210Y773230D01*
X811210Y766250D01*
X804230Y766250D01*
X804230Y773230D01*
X804230Y771050D02*
X811210Y771050D01*
X811210Y790770D02*
X804230Y790770D01*
X811210Y790770D02*
X811210Y783790D01*
X804230Y783790D01*
X804230Y790770D01*
X804230Y788590D02*
X811210Y788590D01*
D11*
X787400Y600710D03*
X1018540Y792480D03*
D12*
X1005840Y822960D03*
X802640Y822960D03*
X802640Y619760D03*
D13*
X791290Y749360D03*
X791290Y693360D03*
D14*
X828040Y736360D03*
X828040Y726360D03*
X828040Y716360D03*
X828040Y706360D03*
D13*
X1017190Y693360D03*
X1017190Y749360D03*
D14*
X980440Y706360D03*
X980440Y716360D03*
X980440Y726360D03*
X980440Y736360D03*
D15*
X840740Y607060D03*
X866140Y607060D03*
X891540Y607060D03*
X916940Y607060D03*
D16*
X999490Y769130D03*
X999490Y786130D03*
X982980Y769130D03*
X982980Y786130D03*
X791210Y786620D03*
X791210Y769620D03*
D17*
G36*
X912853Y658075D02*
X909648Y654870D01*
X904677Y659841D01*
X907882Y663046D01*
X912853Y658075D01*
G37*
G36*
X917450Y662671D02*
X914245Y659466D01*
X909274Y664437D01*
X912479Y667642D01*
X917450Y662671D01*
G37*
G36*
X922046Y667267D02*
X918841Y664062D01*
X913870Y669033D01*
X917075Y672238D01*
X922046Y667267D01*
G37*
G36*
X918841Y681431D02*
X922046Y678226D01*
X917075Y673255D01*
X913870Y676460D01*
X918841Y681431D01*
G37*
G36*
X914245Y686027D02*
X917450Y682822D01*
X912479Y677851D01*
X909274Y681056D01*
X914245Y686027D01*
G37*
G36*
X909648Y690623D02*
X912853Y687418D01*
X907882Y682447D01*
X904677Y685652D01*
X909648Y690623D01*
G37*
G36*
X895485Y687418D02*
X898690Y690623D01*
X903661Y685652D01*
X900456Y682447D01*
X895485Y687418D01*
G37*
G36*
X890889Y682822D02*
X894094Y686027D01*
X899065Y681056D01*
X895860Y677851D01*
X890889Y682822D01*
G37*
G36*
X886293Y678226D02*
X889498Y681431D01*
X894469Y676460D01*
X891264Y673255D01*
X886293Y678226D01*
G37*
G36*
X889498Y664062D02*
X886293Y667267D01*
X891264Y672238D01*
X894469Y669033D01*
X889498Y664062D01*
G37*
G36*
X894094Y659466D02*
X890889Y662671D01*
X895860Y667642D01*
X899065Y664437D01*
X894094Y659466D01*
G37*
G36*
X898690Y654870D02*
X895485Y658075D01*
X900456Y663046D01*
X903661Y659841D01*
X898690Y654870D01*
G37*
D18*
X917340Y756560D03*
X891340Y756560D03*
D19*
G36*
X927351Y693394D02*
X936565Y684180D01*
X928057Y675672D01*
X918843Y684886D01*
X927351Y693394D01*
G37*
G36*
X915331Y705415D02*
X924545Y696201D01*
X916037Y687693D01*
X906823Y696907D01*
X915331Y705415D01*
G37*
D15*
X1018540Y607060D03*
X993140Y607060D03*
X967740Y607060D03*
X942340Y607060D03*
D19*
X1015864Y675640D03*
X998864Y675640D03*
G36*
X937705Y703927D02*
X946919Y694713D01*
X938411Y686205D01*
X929197Y695419D01*
X937705Y703927D01*
G37*
G36*
X925685Y715947D02*
X934899Y706733D01*
X926391Y698225D01*
X917177Y707439D01*
X925685Y715947D01*
G37*
D15*
X791210Y662940D03*
D10*
X1063310Y773230D02*
X1070290Y773230D01*
X1070290Y766250D01*
X1063310Y766250D01*
X1063310Y773230D01*
X1063310Y771050D02*
X1070290Y771050D01*
X1070290Y790770D02*
X1063310Y790770D01*
X1070290Y790770D02*
X1070290Y783790D01*
X1063310Y783790D01*
X1063310Y790770D01*
X1063310Y788590D02*
X1070290Y788590D01*
D11*
X1046480Y600710D03*
X1277620Y792480D03*
D12*
X1264920Y822960D03*
X1061720Y822960D03*
X1061720Y619760D03*
D13*
X1050370Y749360D03*
X1050370Y693360D03*
D14*
X1087120Y736360D03*
X1087120Y726360D03*
X1087120Y716360D03*
X1087120Y706360D03*
D13*
X1276270Y693360D03*
X1276270Y749360D03*
D14*
X1239520Y706360D03*
X1239520Y716360D03*
X1239520Y726360D03*
X1239520Y736360D03*
D15*
X1099820Y607060D03*
X1125220Y607060D03*
X1150620Y607060D03*
X1176020Y607060D03*
D16*
X1258570Y769130D03*
X1258570Y786130D03*
X1242060Y769130D03*
X1242060Y786130D03*
X1050290Y786620D03*
X1050290Y769620D03*
D17*
G36*
X1171933Y658075D02*
X1168728Y654870D01*
X1163757Y659841D01*
X1166962Y663046D01*
X1171933Y658075D01*
G37*
G36*
X1176530Y662671D02*
X1173325Y659466D01*
X1168354Y664437D01*
X1171559Y667642D01*
X1176530Y662671D01*
G37*
G36*
X1181126Y667267D02*
X1177921Y664062D01*
X1172950Y669033D01*
X1176155Y672238D01*
X1181126Y667267D01*
G37*
G36*
X1177921Y681431D02*
X1181126Y678226D01*
X1176155Y673255D01*
X1172950Y676460D01*
X1177921Y681431D01*
G37*
G36*
X1173325Y686027D02*
X1176530Y682822D01*
X1171559Y677851D01*
X1168354Y681056D01*
X1173325Y686027D01*
G37*
G36*
X1168728Y690623D02*
X1171933Y687418D01*
X1166962Y682447D01*
X1163757Y685652D01*
X1168728Y690623D01*
G37*
G36*
X1154565Y687418D02*
X1157770Y690623D01*
X1162741Y685652D01*
X1159536Y682447D01*
X1154565Y687418D01*
G37*
G36*
X1149969Y682822D02*
X1153174Y686027D01*
X1158145Y681056D01*
X1154940Y677851D01*
X1149969Y682822D01*
G37*
G36*
X1145373Y678226D02*
X1148578Y681431D01*
X1153549Y676460D01*
X1150344Y673255D01*
X1145373Y678226D01*
G37*
G36*
X1148578Y664062D02*
X1145373Y667267D01*
X1150344Y672238D01*
X1153549Y669033D01*
X1148578Y664062D01*
G37*
G36*
X1153174Y659466D02*
X1149969Y662671D01*
X1154940Y667642D01*
X1158145Y664437D01*
X1153174Y659466D01*
G37*
G36*
X1157770Y654870D02*
X1154565Y658075D01*
X1159536Y663046D01*
X1162741Y659841D01*
X1157770Y654870D01*
G37*
D18*
X1176420Y756560D03*
X1150420Y756560D03*
D19*
G36*
X1186431Y693394D02*
X1195645Y684180D01*
X1187137Y675672D01*
X1177923Y684886D01*
X1186431Y693394D01*
G37*
G36*
X1174411Y705415D02*
X1183625Y696201D01*
X1175117Y687693D01*
X1165903Y696907D01*
X1174411Y705415D01*
G37*
D15*
X1277620Y607060D03*
X1252220Y607060D03*
X1226820Y607060D03*
X1201420Y607060D03*
D19*
X1274944Y675640D03*
X1257944Y675640D03*
G36*
X1196785Y703927D02*
X1205999Y694713D01*
X1197491Y686205D01*
X1188277Y695419D01*
X1196785Y703927D01*
G37*
G36*
X1184765Y715947D02*
X1193979Y706733D01*
X1185471Y698225D01*
X1176257Y707439D01*
X1184765Y715947D01*
G37*
D15*
X1050290Y662940D03*
D10*
X33970Y1070410D02*
X26990Y1070410D01*
X33970Y1070410D02*
X33970Y1063430D01*
X26990Y1063430D01*
X26990Y1070410D01*
X26990Y1068230D02*
X33970Y1068230D01*
X33970Y1087950D02*
X26990Y1087950D01*
X33970Y1087950D02*
X33970Y1080970D01*
X26990Y1080970D01*
X26990Y1087950D01*
X26990Y1085770D02*
X33970Y1085770D01*
D11*
X10160Y897890D03*
X241300Y1089660D03*
D12*
X228600Y1120140D03*
X25400Y1120140D03*
X25400Y916940D03*
D13*
X14050Y1046540D03*
X14050Y990540D03*
D14*
X50800Y1033540D03*
X50800Y1023540D03*
X50800Y1013540D03*
X50800Y1003540D03*
D13*
X239950Y990540D03*
X239950Y1046540D03*
D14*
X203200Y1003540D03*
X203200Y1013540D03*
X203200Y1023540D03*
X203200Y1033540D03*
D15*
X63500Y904240D03*
X88900Y904240D03*
X114300Y904240D03*
X139700Y904240D03*
D16*
X222250Y1066310D03*
X222250Y1083310D03*
X205740Y1066310D03*
X205740Y1083310D03*
X13970Y1083800D03*
X13970Y1066800D03*
D17*
G36*
X135613Y955255D02*
X132408Y952050D01*
X127437Y957021D01*
X130642Y960226D01*
X135613Y955255D01*
G37*
G36*
X140210Y959851D02*
X137005Y956646D01*
X132034Y961617D01*
X135239Y964822D01*
X140210Y959851D01*
G37*
G36*
X144806Y964447D02*
X141601Y961242D01*
X136630Y966213D01*
X139835Y969418D01*
X144806Y964447D01*
G37*
G36*
X141601Y978611D02*
X144806Y975406D01*
X139835Y970435D01*
X136630Y973640D01*
X141601Y978611D01*
G37*
G36*
X137005Y983207D02*
X140210Y980002D01*
X135239Y975031D01*
X132034Y978236D01*
X137005Y983207D01*
G37*
G36*
X132408Y987803D02*
X135613Y984598D01*
X130642Y979627D01*
X127437Y982832D01*
X132408Y987803D01*
G37*
G36*
X118245Y984598D02*
X121450Y987803D01*
X126421Y982832D01*
X123216Y979627D01*
X118245Y984598D01*
G37*
G36*
X113649Y980002D02*
X116854Y983207D01*
X121825Y978236D01*
X118620Y975031D01*
X113649Y980002D01*
G37*
G36*
X109053Y975406D02*
X112258Y978611D01*
X117229Y973640D01*
X114024Y970435D01*
X109053Y975406D01*
G37*
G36*
X112258Y961242D02*
X109053Y964447D01*
X114024Y969418D01*
X117229Y966213D01*
X112258Y961242D01*
G37*
G36*
X116854Y956646D02*
X113649Y959851D01*
X118620Y964822D01*
X121825Y961617D01*
X116854Y956646D01*
G37*
G36*
X121450Y952050D02*
X118245Y955255D01*
X123216Y960226D01*
X126421Y957021D01*
X121450Y952050D01*
G37*
D18*
X140100Y1053740D03*
X114100Y1053740D03*
D19*
G36*
X150111Y990574D02*
X159325Y981360D01*
X150817Y972852D01*
X141603Y982066D01*
X150111Y990574D01*
G37*
G36*
X138091Y1002595D02*
X147305Y993381D01*
X138797Y984873D01*
X129583Y994087D01*
X138091Y1002595D01*
G37*
D15*
X241300Y904240D03*
X215900Y904240D03*
X190500Y904240D03*
X165100Y904240D03*
D19*
X238624Y972820D03*
X221624Y972820D03*
G36*
X160465Y1001107D02*
X169679Y991893D01*
X161171Y983385D01*
X151957Y992599D01*
X160465Y1001107D01*
G37*
G36*
X148445Y1013127D02*
X157659Y1003913D01*
X149151Y995405D01*
X139937Y1004619D01*
X148445Y1013127D01*
G37*
D15*
X13970Y960120D03*
D10*
X286070Y1070410D02*
X293050Y1070410D01*
X293050Y1063430D01*
X286070Y1063430D01*
X286070Y1070410D01*
X286070Y1068230D02*
X293050Y1068230D01*
X293050Y1087950D02*
X286070Y1087950D01*
X293050Y1087950D02*
X293050Y1080970D01*
X286070Y1080970D01*
X286070Y1087950D01*
X286070Y1085770D02*
X293050Y1085770D01*
D11*
X269240Y897890D03*
X500380Y1089660D03*
D12*
X487680Y1120140D03*
X284480Y1120140D03*
X284480Y916940D03*
D13*
X273130Y1046540D03*
X273130Y990540D03*
D14*
X309880Y1033540D03*
X309880Y1023540D03*
X309880Y1013540D03*
X309880Y1003540D03*
D13*
X499030Y990540D03*
X499030Y1046540D03*
D14*
X462280Y1003540D03*
X462280Y1013540D03*
X462280Y1023540D03*
X462280Y1033540D03*
D15*
X322580Y904240D03*
X347980Y904240D03*
X373380Y904240D03*
X398780Y904240D03*
D16*
X481330Y1066310D03*
X481330Y1083310D03*
X464820Y1066310D03*
X464820Y1083310D03*
X273050Y1083800D03*
X273050Y1066800D03*
D17*
G36*
X394693Y955255D02*
X391488Y952050D01*
X386517Y957021D01*
X389722Y960226D01*
X394693Y955255D01*
G37*
G36*
X399290Y959851D02*
X396085Y956646D01*
X391114Y961617D01*
X394319Y964822D01*
X399290Y959851D01*
G37*
G36*
X403886Y964447D02*
X400681Y961242D01*
X395710Y966213D01*
X398915Y969418D01*
X403886Y964447D01*
G37*
G36*
X400681Y978611D02*
X403886Y975406D01*
X398915Y970435D01*
X395710Y973640D01*
X400681Y978611D01*
G37*
G36*
X396085Y983207D02*
X399290Y980002D01*
X394319Y975031D01*
X391114Y978236D01*
X396085Y983207D01*
G37*
G36*
X391488Y987803D02*
X394693Y984598D01*
X389722Y979627D01*
X386517Y982832D01*
X391488Y987803D01*
G37*
G36*
X377325Y984598D02*
X380530Y987803D01*
X385501Y982832D01*
X382296Y979627D01*
X377325Y984598D01*
G37*
G36*
X372729Y980002D02*
X375934Y983207D01*
X380905Y978236D01*
X377700Y975031D01*
X372729Y980002D01*
G37*
G36*
X368133Y975406D02*
X371338Y978611D01*
X376309Y973640D01*
X373104Y970435D01*
X368133Y975406D01*
G37*
G36*
X371338Y961242D02*
X368133Y964447D01*
X373104Y969418D01*
X376309Y966213D01*
X371338Y961242D01*
G37*
G36*
X375934Y956646D02*
X372729Y959851D01*
X377700Y964822D01*
X380905Y961617D01*
X375934Y956646D01*
G37*
G36*
X380530Y952050D02*
X377325Y955255D01*
X382296Y960226D01*
X385501Y957021D01*
X380530Y952050D01*
G37*
D18*
X399180Y1053740D03*
X373180Y1053740D03*
D19*
G36*
X409191Y990574D02*
X418405Y981360D01*
X409897Y972852D01*
X400683Y982066D01*
X409191Y990574D01*
G37*
G36*
X397171Y1002595D02*
X406385Y993381D01*
X397877Y984873D01*
X388663Y994087D01*
X397171Y1002595D01*
G37*
D15*
X500380Y904240D03*
X474980Y904240D03*
X449580Y904240D03*
X424180Y904240D03*
D19*
X497704Y972820D03*
X480704Y972820D03*
G36*
X419545Y1001107D02*
X428759Y991893D01*
X420251Y983385D01*
X411037Y992599D01*
X419545Y1001107D01*
G37*
G36*
X407525Y1013127D02*
X416739Y1003913D01*
X408231Y995405D01*
X399017Y1004619D01*
X407525Y1013127D01*
G37*
D15*
X273050Y960120D03*
D10*
X545150Y1070410D02*
X552130Y1070410D01*
X552130Y1063430D01*
X545150Y1063430D01*
X545150Y1070410D01*
X545150Y1068230D02*
X552130Y1068230D01*
X552130Y1087950D02*
X545150Y1087950D01*
X552130Y1087950D02*
X552130Y1080970D01*
X545150Y1080970D01*
X545150Y1087950D01*
X545150Y1085770D02*
X552130Y1085770D01*
D11*
X528320Y897890D03*
X759460Y1089660D03*
D12*
X746760Y1120140D03*
X543560Y1120140D03*
X543560Y916940D03*
D13*
X532210Y1046540D03*
X532210Y990540D03*
D14*
X568960Y1033540D03*
X568960Y1023540D03*
X568960Y1013540D03*
X568960Y1003540D03*
D13*
X758110Y990540D03*
X758110Y1046540D03*
D14*
X721360Y1003540D03*
X721360Y1013540D03*
X721360Y1023540D03*
X721360Y1033540D03*
D15*
X581660Y904240D03*
X607060Y904240D03*
X632460Y904240D03*
X657860Y904240D03*
D16*
X740410Y1066310D03*
X740410Y1083310D03*
X723900Y1066310D03*
X723900Y1083310D03*
X532130Y1083800D03*
X532130Y1066800D03*
D17*
G36*
X653773Y955255D02*
X650568Y952050D01*
X645597Y957021D01*
X648802Y960226D01*
X653773Y955255D01*
G37*
G36*
X658370Y959851D02*
X655165Y956646D01*
X650194Y961617D01*
X653399Y964822D01*
X658370Y959851D01*
G37*
G36*
X662966Y964447D02*
X659761Y961242D01*
X654790Y966213D01*
X657995Y969418D01*
X662966Y964447D01*
G37*
G36*
X659761Y978611D02*
X662966Y975406D01*
X657995Y970435D01*
X654790Y973640D01*
X659761Y978611D01*
G37*
G36*
X655165Y983207D02*
X658370Y980002D01*
X653399Y975031D01*
X650194Y978236D01*
X655165Y983207D01*
G37*
G36*
X650568Y987803D02*
X653773Y984598D01*
X648802Y979627D01*
X645597Y982832D01*
X650568Y987803D01*
G37*
G36*
X636405Y984598D02*
X639610Y987803D01*
X644581Y982832D01*
X641376Y979627D01*
X636405Y984598D01*
G37*
G36*
X631809Y980002D02*
X635014Y983207D01*
X639985Y978236D01*
X636780Y975031D01*
X631809Y980002D01*
G37*
G36*
X627213Y975406D02*
X630418Y978611D01*
X635389Y973640D01*
X632184Y970435D01*
X627213Y975406D01*
G37*
G36*
X630418Y961242D02*
X627213Y964447D01*
X632184Y969418D01*
X635389Y966213D01*
X630418Y961242D01*
G37*
G36*
X635014Y956646D02*
X631809Y959851D01*
X636780Y964822D01*
X639985Y961617D01*
X635014Y956646D01*
G37*
G36*
X639610Y952050D02*
X636405Y955255D01*
X641376Y960226D01*
X644581Y957021D01*
X639610Y952050D01*
G37*
D18*
X658260Y1053740D03*
X632260Y1053740D03*
D19*
G36*
X668271Y990574D02*
X677485Y981360D01*
X668977Y972852D01*
X659763Y982066D01*
X668271Y990574D01*
G37*
G36*
X656251Y1002595D02*
X665465Y993381D01*
X656957Y984873D01*
X647743Y994087D01*
X656251Y1002595D01*
G37*
D15*
X759460Y904240D03*
X734060Y904240D03*
X708660Y904240D03*
X683260Y904240D03*
D19*
X756784Y972820D03*
X739784Y972820D03*
G36*
X678625Y1001107D02*
X687839Y991893D01*
X679331Y983385D01*
X670117Y992599D01*
X678625Y1001107D01*
G37*
G36*
X666605Y1013127D02*
X675819Y1003913D01*
X667311Y995405D01*
X658097Y1004619D01*
X666605Y1013127D01*
G37*
D15*
X532130Y960120D03*
D10*
X804230Y1070410D02*
X811210Y1070410D01*
X811210Y1063430D01*
X804230Y1063430D01*
X804230Y1070410D01*
X804230Y1068230D02*
X811210Y1068230D01*
X811210Y1087950D02*
X804230Y1087950D01*
X811210Y1087950D02*
X811210Y1080970D01*
X804230Y1080970D01*
X804230Y1087950D01*
X804230Y1085770D02*
X811210Y1085770D01*
D11*
X787400Y897890D03*
X1018540Y1089660D03*
D12*
X1005840Y1120140D03*
X802640Y1120140D03*
X802640Y916940D03*
D13*
X791290Y1046540D03*
X791290Y990540D03*
D14*
X828040Y1033540D03*
X828040Y1023540D03*
X828040Y1013540D03*
X828040Y1003540D03*
D13*
X1017190Y990540D03*
X1017190Y1046540D03*
D14*
X980440Y1003540D03*
X980440Y1013540D03*
X980440Y1023540D03*
X980440Y1033540D03*
D15*
X840740Y904240D03*
X866140Y904240D03*
X891540Y904240D03*
X916940Y904240D03*
D16*
X999490Y1066310D03*
X999490Y1083310D03*
X982980Y1066310D03*
X982980Y1083310D03*
X791210Y1083800D03*
X791210Y1066800D03*
D17*
G36*
X912853Y955255D02*
X909648Y952050D01*
X904677Y957021D01*
X907882Y960226D01*
X912853Y955255D01*
G37*
G36*
X917450Y959851D02*
X914245Y956646D01*
X909274Y961617D01*
X912479Y964822D01*
X917450Y959851D01*
G37*
G36*
X922046Y964447D02*
X918841Y961242D01*
X913870Y966213D01*
X917075Y969418D01*
X922046Y964447D01*
G37*
G36*
X918841Y978611D02*
X922046Y975406D01*
X917075Y970435D01*
X913870Y973640D01*
X918841Y978611D01*
G37*
G36*
X914245Y983207D02*
X917450Y980002D01*
X912479Y975031D01*
X909274Y978236D01*
X914245Y983207D01*
G37*
G36*
X909648Y987803D02*
X912853Y984598D01*
X907882Y979627D01*
X904677Y982832D01*
X909648Y987803D01*
G37*
G36*
X895485Y984598D02*
X898690Y987803D01*
X903661Y982832D01*
X900456Y979627D01*
X895485Y984598D01*
G37*
G36*
X890889Y980002D02*
X894094Y983207D01*
X899065Y978236D01*
X895860Y975031D01*
X890889Y980002D01*
G37*
G36*
X886293Y975406D02*
X889498Y978611D01*
X894469Y973640D01*
X891264Y970435D01*
X886293Y975406D01*
G37*
G36*
X889498Y961242D02*
X886293Y964447D01*
X891264Y969418D01*
X894469Y966213D01*
X889498Y961242D01*
G37*
G36*
X894094Y956646D02*
X890889Y959851D01*
X895860Y964822D01*
X899065Y961617D01*
X894094Y956646D01*
G37*
G36*
X898690Y952050D02*
X895485Y955255D01*
X900456Y960226D01*
X903661Y957021D01*
X898690Y952050D01*
G37*
D18*
X917340Y1053740D03*
X891340Y1053740D03*
D19*
G36*
X927351Y990574D02*
X936565Y981360D01*
X928057Y972852D01*
X918843Y982066D01*
X927351Y990574D01*
G37*
G36*
X915331Y1002595D02*
X924545Y993381D01*
X916037Y984873D01*
X906823Y994087D01*
X915331Y1002595D01*
G37*
D15*
X1018540Y904240D03*
X993140Y904240D03*
X967740Y904240D03*
X942340Y904240D03*
D19*
X1015864Y972820D03*
X998864Y972820D03*
G36*
X937705Y1001107D02*
X946919Y991893D01*
X938411Y983385D01*
X929197Y992599D01*
X937705Y1001107D01*
G37*
G36*
X925685Y1013127D02*
X934899Y1003913D01*
X926391Y995405D01*
X917177Y1004619D01*
X925685Y1013127D01*
G37*
D15*
X791210Y960120D03*
D10*
X1063310Y1070410D02*
X1070290Y1070410D01*
X1070290Y1063430D01*
X1063310Y1063430D01*
X1063310Y1070410D01*
X1063310Y1068230D02*
X1070290Y1068230D01*
X1070290Y1087950D02*
X1063310Y1087950D01*
X1070290Y1087950D02*
X1070290Y1080970D01*
X1063310Y1080970D01*
X1063310Y1087950D01*
X1063310Y1085770D02*
X1070290Y1085770D01*
D11*
X1046480Y897890D03*
X1277620Y1089660D03*
D12*
X1264920Y1120140D03*
X1061720Y1120140D03*
X1061720Y916940D03*
D13*
X1050370Y1046540D03*
X1050370Y990540D03*
D14*
X1087120Y1033540D03*
X1087120Y1023540D03*
X1087120Y1013540D03*
X1087120Y1003540D03*
D13*
X1276270Y990540D03*
X1276270Y1046540D03*
D14*
X1239520Y1003540D03*
X1239520Y1013540D03*
X1239520Y1023540D03*
X1239520Y1033540D03*
D15*
X1099820Y904240D03*
X1125220Y904240D03*
X1150620Y904240D03*
X1176020Y904240D03*
D16*
X1258570Y1066310D03*
X1258570Y1083310D03*
X1242060Y1066310D03*
X1242060Y1083310D03*
X1050290Y1083800D03*
X1050290Y1066800D03*
D17*
G36*
X1171933Y955255D02*
X1168728Y952050D01*
X1163757Y957021D01*
X1166962Y960226D01*
X1171933Y955255D01*
G37*
G36*
X1176530Y959851D02*
X1173325Y956646D01*
X1168354Y961617D01*
X1171559Y964822D01*
X1176530Y959851D01*
G37*
G36*
X1181126Y964447D02*
X1177921Y961242D01*
X1172950Y966213D01*
X1176155Y969418D01*
X1181126Y964447D01*
G37*
G36*
X1177921Y978611D02*
X1181126Y975406D01*
X1176155Y970435D01*
X1172950Y973640D01*
X1177921Y978611D01*
G37*
G36*
X1173325Y983207D02*
X1176530Y980002D01*
X1171559Y975031D01*
X1168354Y978236D01*
X1173325Y983207D01*
G37*
G36*
X1168728Y987803D02*
X1171933Y984598D01*
X1166962Y979627D01*
X1163757Y982832D01*
X1168728Y987803D01*
G37*
G36*
X1154565Y984598D02*
X1157770Y987803D01*
X1162741Y982832D01*
X1159536Y979627D01*
X1154565Y984598D01*
G37*
G36*
X1149969Y980002D02*
X1153174Y983207D01*
X1158145Y978236D01*
X1154940Y975031D01*
X1149969Y980002D01*
G37*
G36*
X1145373Y975406D02*
X1148578Y978611D01*
X1153549Y973640D01*
X1150344Y970435D01*
X1145373Y975406D01*
G37*
G36*
X1148578Y961242D02*
X1145373Y964447D01*
X1150344Y969418D01*
X1153549Y966213D01*
X1148578Y961242D01*
G37*
G36*
X1153174Y956646D02*
X1149969Y959851D01*
X1154940Y964822D01*
X1158145Y961617D01*
X1153174Y956646D01*
G37*
G36*
X1157770Y952050D02*
X1154565Y955255D01*
X1159536Y960226D01*
X1162741Y957021D01*
X1157770Y952050D01*
G37*
D18*
X1176420Y1053740D03*
X1150420Y1053740D03*
D19*
G36*
X1186431Y990574D02*
X1195645Y981360D01*
X1187137Y972852D01*
X1177923Y982066D01*
X1186431Y990574D01*
G37*
G36*
X1174411Y1002595D02*
X1183625Y993381D01*
X1175117Y984873D01*
X1165903Y994087D01*
X1174411Y1002595D01*
G37*
D15*
X1277620Y904240D03*
X1252220Y904240D03*
X1226820Y904240D03*
X1201420Y904240D03*
D19*
X1274944Y972820D03*
X1257944Y972820D03*
G36*
X1196785Y1001107D02*
X1205999Y991893D01*
X1197491Y983385D01*
X1188277Y992599D01*
X1196785Y1001107D01*
G37*
G36*
X1184765Y1013127D02*
X1193979Y1003913D01*
X1185471Y995405D01*
X1176257Y1004619D01*
X1184765Y1013127D01*
G37*
D15*
X1050290Y960120D03*
D10*
X33970Y1367590D02*
X26990Y1367590D01*
X33970Y1367590D02*
X33970Y1360610D01*
X26990Y1360610D01*
X26990Y1367590D01*
X26990Y1365410D02*
X33970Y1365410D01*
X33970Y1385130D02*
X26990Y1385130D01*
X33970Y1385130D02*
X33970Y1378150D01*
X26990Y1378150D01*
X26990Y1385130D01*
X26990Y1382950D02*
X33970Y1382950D01*
D11*
X10160Y1195070D03*
X241300Y1386840D03*
D12*
X228600Y1417320D03*
X25400Y1417320D03*
X25400Y1214120D03*
D13*
X14050Y1343720D03*
X14050Y1287720D03*
D14*
X50800Y1330720D03*
X50800Y1320720D03*
X50800Y1310720D03*
X50800Y1300720D03*
D13*
X239950Y1287720D03*
X239950Y1343720D03*
D14*
X203200Y1300720D03*
X203200Y1310720D03*
X203200Y1320720D03*
X203200Y1330720D03*
D15*
X63500Y1201420D03*
X88900Y1201420D03*
X114300Y1201420D03*
X139700Y1201420D03*
D16*
X222250Y1363490D03*
X222250Y1380490D03*
X205740Y1363490D03*
X205740Y1380490D03*
X13970Y1380980D03*
X13970Y1363980D03*
D17*
G36*
X135613Y1252435D02*
X132408Y1249230D01*
X127437Y1254201D01*
X130642Y1257406D01*
X135613Y1252435D01*
G37*
G36*
X140210Y1257031D02*
X137005Y1253826D01*
X132034Y1258797D01*
X135239Y1262002D01*
X140210Y1257031D01*
G37*
G36*
X144806Y1261627D02*
X141601Y1258422D01*
X136630Y1263393D01*
X139835Y1266598D01*
X144806Y1261627D01*
G37*
G36*
X141601Y1275791D02*
X144806Y1272586D01*
X139835Y1267615D01*
X136630Y1270820D01*
X141601Y1275791D01*
G37*
G36*
X137005Y1280387D02*
X140210Y1277182D01*
X135239Y1272211D01*
X132034Y1275416D01*
X137005Y1280387D01*
G37*
G36*
X132408Y1284983D02*
X135613Y1281778D01*
X130642Y1276807D01*
X127437Y1280012D01*
X132408Y1284983D01*
G37*
G36*
X118245Y1281778D02*
X121450Y1284983D01*
X126421Y1280012D01*
X123216Y1276807D01*
X118245Y1281778D01*
G37*
G36*
X113649Y1277182D02*
X116854Y1280387D01*
X121825Y1275416D01*
X118620Y1272211D01*
X113649Y1277182D01*
G37*
G36*
X109053Y1272586D02*
X112258Y1275791D01*
X117229Y1270820D01*
X114024Y1267615D01*
X109053Y1272586D01*
G37*
G36*
X112258Y1258422D02*
X109053Y1261627D01*
X114024Y1266598D01*
X117229Y1263393D01*
X112258Y1258422D01*
G37*
G36*
X116854Y1253826D02*
X113649Y1257031D01*
X118620Y1262002D01*
X121825Y1258797D01*
X116854Y1253826D01*
G37*
G36*
X121450Y1249230D02*
X118245Y1252435D01*
X123216Y1257406D01*
X126421Y1254201D01*
X121450Y1249230D01*
G37*
D18*
X140100Y1350920D03*
X114100Y1350920D03*
D19*
G36*
X150111Y1287754D02*
X159325Y1278540D01*
X150817Y1270032D01*
X141603Y1279246D01*
X150111Y1287754D01*
G37*
G36*
X138091Y1299775D02*
X147305Y1290561D01*
X138797Y1282053D01*
X129583Y1291267D01*
X138091Y1299775D01*
G37*
D15*
X241300Y1201420D03*
X215900Y1201420D03*
X190500Y1201420D03*
X165100Y1201420D03*
D19*
X238624Y1270000D03*
X221624Y1270000D03*
G36*
X160465Y1298287D02*
X169679Y1289073D01*
X161171Y1280565D01*
X151957Y1289779D01*
X160465Y1298287D01*
G37*
G36*
X148445Y1310307D02*
X157659Y1301093D01*
X149151Y1292585D01*
X139937Y1301799D01*
X148445Y1310307D01*
G37*
D15*
X13970Y1257300D03*
D10*
X286070Y1367590D02*
X293050Y1367590D01*
X293050Y1360610D01*
X286070Y1360610D01*
X286070Y1367590D01*
X286070Y1365410D02*
X293050Y1365410D01*
X293050Y1385130D02*
X286070Y1385130D01*
X293050Y1385130D02*
X293050Y1378150D01*
X286070Y1378150D01*
X286070Y1385130D01*
X286070Y1382950D02*
X293050Y1382950D01*
D11*
X269240Y1195070D03*
X500380Y1386840D03*
D12*
X487680Y1417320D03*
X284480Y1417320D03*
X284480Y1214120D03*
D13*
X273130Y1343720D03*
X273130Y1287720D03*
D14*
X309880Y1330720D03*
X309880Y1320720D03*
X309880Y1310720D03*
X309880Y1300720D03*
D13*
X499030Y1287720D03*
X499030Y1343720D03*
D14*
X462280Y1300720D03*
X462280Y1310720D03*
X462280Y1320720D03*
X462280Y1330720D03*
D15*
X322580Y1201420D03*
X347980Y1201420D03*
X373380Y1201420D03*
X398780Y1201420D03*
D16*
X481330Y1363490D03*
X481330Y1380490D03*
X464820Y1363490D03*
X464820Y1380490D03*
X273050Y1380980D03*
X273050Y1363980D03*
D17*
G36*
X394693Y1252435D02*
X391488Y1249230D01*
X386517Y1254201D01*
X389722Y1257406D01*
X394693Y1252435D01*
G37*
G36*
X399290Y1257031D02*
X396085Y1253826D01*
X391114Y1258797D01*
X394319Y1262002D01*
X399290Y1257031D01*
G37*
G36*
X403886Y1261627D02*
X400681Y1258422D01*
X395710Y1263393D01*
X398915Y1266598D01*
X403886Y1261627D01*
G37*
G36*
X400681Y1275791D02*
X403886Y1272586D01*
X398915Y1267615D01*
X395710Y1270820D01*
X400681Y1275791D01*
G37*
G36*
X396085Y1280387D02*
X399290Y1277182D01*
X394319Y1272211D01*
X391114Y1275416D01*
X396085Y1280387D01*
G37*
G36*
X391488Y1284983D02*
X394693Y1281778D01*
X389722Y1276807D01*
X386517Y1280012D01*
X391488Y1284983D01*
G37*
G36*
X377325Y1281778D02*
X380530Y1284983D01*
X385501Y1280012D01*
X382296Y1276807D01*
X377325Y1281778D01*
G37*
G36*
X372729Y1277182D02*
X375934Y1280387D01*
X380905Y1275416D01*
X377700Y1272211D01*
X372729Y1277182D01*
G37*
G36*
X368133Y1272586D02*
X371338Y1275791D01*
X376309Y1270820D01*
X373104Y1267615D01*
X368133Y1272586D01*
G37*
G36*
X371338Y1258422D02*
X368133Y1261627D01*
X373104Y1266598D01*
X376309Y1263393D01*
X371338Y1258422D01*
G37*
G36*
X375934Y1253826D02*
X372729Y1257031D01*
X377700Y1262002D01*
X380905Y1258797D01*
X375934Y1253826D01*
G37*
G36*
X380530Y1249230D02*
X377325Y1252435D01*
X382296Y1257406D01*
X385501Y1254201D01*
X380530Y1249230D01*
G37*
D18*
X399180Y1350920D03*
X373180Y1350920D03*
D19*
G36*
X409191Y1287754D02*
X418405Y1278540D01*
X409897Y1270032D01*
X400683Y1279246D01*
X409191Y1287754D01*
G37*
G36*
X397171Y1299775D02*
X406385Y1290561D01*
X397877Y1282053D01*
X388663Y1291267D01*
X397171Y1299775D01*
G37*
D15*
X500380Y1201420D03*
X474980Y1201420D03*
X449580Y1201420D03*
X424180Y1201420D03*
D19*
X497704Y1270000D03*
X480704Y1270000D03*
G36*
X419545Y1298287D02*
X428759Y1289073D01*
X420251Y1280565D01*
X411037Y1289779D01*
X419545Y1298287D01*
G37*
G36*
X407525Y1310307D02*
X416739Y1301093D01*
X408231Y1292585D01*
X399017Y1301799D01*
X407525Y1310307D01*
G37*
D15*
X273050Y1257300D03*
D10*
X545150Y1367590D02*
X552130Y1367590D01*
X552130Y1360610D01*
X545150Y1360610D01*
X545150Y1367590D01*
X545150Y1365410D02*
X552130Y1365410D01*
X552130Y1385130D02*
X545150Y1385130D01*
X552130Y1385130D02*
X552130Y1378150D01*
X545150Y1378150D01*
X545150Y1385130D01*
X545150Y1382950D02*
X552130Y1382950D01*
D11*
X528320Y1195070D03*
X759460Y1386840D03*
D12*
X746760Y1417320D03*
X543560Y1417320D03*
X543560Y1214120D03*
D13*
X532210Y1343720D03*
X532210Y1287720D03*
D14*
X568960Y1330720D03*
X568960Y1320720D03*
X568960Y1310720D03*
X568960Y1300720D03*
D13*
X758110Y1287720D03*
X758110Y1343720D03*
D14*
X721360Y1300720D03*
X721360Y1310720D03*
X721360Y1320720D03*
X721360Y1330720D03*
D15*
X581660Y1201420D03*
X607060Y1201420D03*
X632460Y1201420D03*
X657860Y1201420D03*
D16*
X740410Y1363490D03*
X740410Y1380490D03*
X723900Y1363490D03*
X723900Y1380490D03*
X532130Y1380980D03*
X532130Y1363980D03*
D17*
G36*
X653773Y1252435D02*
X650568Y1249230D01*
X645597Y1254201D01*
X648802Y1257406D01*
X653773Y1252435D01*
G37*
G36*
X658370Y1257031D02*
X655165Y1253826D01*
X650194Y1258797D01*
X653399Y1262002D01*
X658370Y1257031D01*
G37*
G36*
X662966Y1261627D02*
X659761Y1258422D01*
X654790Y1263393D01*
X657995Y1266598D01*
X662966Y1261627D01*
G37*
G36*
X659761Y1275791D02*
X662966Y1272586D01*
X657995Y1267615D01*
X654790Y1270820D01*
X659761Y1275791D01*
G37*
G36*
X655165Y1280387D02*
X658370Y1277182D01*
X653399Y1272211D01*
X650194Y1275416D01*
X655165Y1280387D01*
G37*
G36*
X650568Y1284983D02*
X653773Y1281778D01*
X648802Y1276807D01*
X645597Y1280012D01*
X650568Y1284983D01*
G37*
G36*
X636405Y1281778D02*
X639610Y1284983D01*
X644581Y1280012D01*
X641376Y1276807D01*
X636405Y1281778D01*
G37*
G36*
X631809Y1277182D02*
X635014Y1280387D01*
X639985Y1275416D01*
X636780Y1272211D01*
X631809Y1277182D01*
G37*
G36*
X627213Y1272586D02*
X630418Y1275791D01*
X635389Y1270820D01*
X632184Y1267615D01*
X627213Y1272586D01*
G37*
G36*
X630418Y1258422D02*
X627213Y1261627D01*
X632184Y1266598D01*
X635389Y1263393D01*
X630418Y1258422D01*
G37*
G36*
X635014Y1253826D02*
X631809Y1257031D01*
X636780Y1262002D01*
X639985Y1258797D01*
X635014Y1253826D01*
G37*
G36*
X639610Y1249230D02*
X636405Y1252435D01*
X641376Y1257406D01*
X644581Y1254201D01*
X639610Y1249230D01*
G37*
D18*
X658260Y1350920D03*
X632260Y1350920D03*
D19*
G36*
X668271Y1287754D02*
X677485Y1278540D01*
X668977Y1270032D01*
X659763Y1279246D01*
X668271Y1287754D01*
G37*
G36*
X656251Y1299775D02*
X665465Y1290561D01*
X656957Y1282053D01*
X647743Y1291267D01*
X656251Y1299775D01*
G37*
D15*
X759460Y1201420D03*
X734060Y1201420D03*
X708660Y1201420D03*
X683260Y1201420D03*
D19*
X756784Y1270000D03*
X739784Y1270000D03*
G36*
X678625Y1298287D02*
X687839Y1289073D01*
X679331Y1280565D01*
X670117Y1289779D01*
X678625Y1298287D01*
G37*
G36*
X666605Y1310307D02*
X675819Y1301093D01*
X667311Y1292585D01*
X658097Y1301799D01*
X666605Y1310307D01*
G37*
D15*
X532130Y1257300D03*
D10*
X804230Y1367590D02*
X811210Y1367590D01*
X811210Y1360610D01*
X804230Y1360610D01*
X804230Y1367590D01*
X804230Y1365410D02*
X811210Y1365410D01*
X811210Y1385130D02*
X804230Y1385130D01*
X811210Y1385130D02*
X811210Y1378150D01*
X804230Y1378150D01*
X804230Y1385130D01*
X804230Y1382950D02*
X811210Y1382950D01*
D11*
X787400Y1195070D03*
X1018540Y1386840D03*
D12*
X1005840Y1417320D03*
X802640Y1417320D03*
X802640Y1214120D03*
D13*
X791290Y1343720D03*
X791290Y1287720D03*
D14*
X828040Y1330720D03*
X828040Y1320720D03*
X828040Y1310720D03*
X828040Y1300720D03*
D13*
X1017190Y1287720D03*
X1017190Y1343720D03*
D14*
X980440Y1300720D03*
X980440Y1310720D03*
X980440Y1320720D03*
X980440Y1330720D03*
D15*
X840740Y1201420D03*
X866140Y1201420D03*
X891540Y1201420D03*
X916940Y1201420D03*
D16*
X999490Y1363490D03*
X999490Y1380490D03*
X982980Y1363490D03*
X982980Y1380490D03*
X791210Y1380980D03*
X791210Y1363980D03*
D17*
G36*
X912853Y1252435D02*
X909648Y1249230D01*
X904677Y1254201D01*
X907882Y1257406D01*
X912853Y1252435D01*
G37*
G36*
X917450Y1257031D02*
X914245Y1253826D01*
X909274Y1258797D01*
X912479Y1262002D01*
X917450Y1257031D01*
G37*
G36*
X922046Y1261627D02*
X918841Y1258422D01*
X913870Y1263393D01*
X917075Y1266598D01*
X922046Y1261627D01*
G37*
G36*
X918841Y1275791D02*
X922046Y1272586D01*
X917075Y1267615D01*
X913870Y1270820D01*
X918841Y1275791D01*
G37*
G36*
X914245Y1280387D02*
X917450Y1277182D01*
X912479Y1272211D01*
X909274Y1275416D01*
X914245Y1280387D01*
G37*
G36*
X909648Y1284983D02*
X912853Y1281778D01*
X907882Y1276807D01*
X904677Y1280012D01*
X909648Y1284983D01*
G37*
G36*
X895485Y1281778D02*
X898690Y1284983D01*
X903661Y1280012D01*
X900456Y1276807D01*
X895485Y1281778D01*
G37*
G36*
X890889Y1277182D02*
X894094Y1280387D01*
X899065Y1275416D01*
X895860Y1272211D01*
X890889Y1277182D01*
G37*
G36*
X886293Y1272586D02*
X889498Y1275791D01*
X894469Y1270820D01*
X891264Y1267615D01*
X886293Y1272586D01*
G37*
G36*
X889498Y1258422D02*
X886293Y1261627D01*
X891264Y1266598D01*
X894469Y1263393D01*
X889498Y1258422D01*
G37*
G36*
X894094Y1253826D02*
X890889Y1257031D01*
X895860Y1262002D01*
X899065Y1258797D01*
X894094Y1253826D01*
G37*
G36*
X898690Y1249230D02*
X895485Y1252435D01*
X900456Y1257406D01*
X903661Y1254201D01*
X898690Y1249230D01*
G37*
D18*
X917340Y1350920D03*
X891340Y1350920D03*
D19*
G36*
X927351Y1287754D02*
X936565Y1278540D01*
X928057Y1270032D01*
X918843Y1279246D01*
X927351Y1287754D01*
G37*
G36*
X915331Y1299775D02*
X924545Y1290561D01*
X916037Y1282053D01*
X906823Y1291267D01*
X915331Y1299775D01*
G37*
D15*
X1018540Y1201420D03*
X993140Y1201420D03*
X967740Y1201420D03*
X942340Y1201420D03*
D19*
X1015864Y1270000D03*
X998864Y1270000D03*
G36*
X937705Y1298287D02*
X946919Y1289073D01*
X938411Y1280565D01*
X929197Y1289779D01*
X937705Y1298287D01*
G37*
G36*
X925685Y1310307D02*
X934899Y1301093D01*
X926391Y1292585D01*
X917177Y1301799D01*
X925685Y1310307D01*
G37*
D15*
X791210Y1257300D03*
D10*
X1063310Y1367590D02*
X1070290Y1367590D01*
X1070290Y1360610D01*
X1063310Y1360610D01*
X1063310Y1367590D01*
X1063310Y1365410D02*
X1070290Y1365410D01*
X1070290Y1385130D02*
X1063310Y1385130D01*
X1070290Y1385130D02*
X1070290Y1378150D01*
X1063310Y1378150D01*
X1063310Y1385130D01*
X1063310Y1382950D02*
X1070290Y1382950D01*
D11*
X1046480Y1195070D03*
X1277620Y1386840D03*
D12*
X1264920Y1417320D03*
X1061720Y1417320D03*
X1061720Y1214120D03*
D13*
X1050370Y1343720D03*
X1050370Y1287720D03*
D14*
X1087120Y1330720D03*
X1087120Y1320720D03*
X1087120Y1310720D03*
X1087120Y1300720D03*
D13*
X1276270Y1287720D03*
X1276270Y1343720D03*
D14*
X1239520Y1300720D03*
X1239520Y1310720D03*
X1239520Y1320720D03*
X1239520Y1330720D03*
D15*
X1099820Y1201420D03*
X1125220Y1201420D03*
X1150620Y1201420D03*
X1176020Y1201420D03*
D16*
X1258570Y1363490D03*
X1258570Y1380490D03*
X1242060Y1363490D03*
X1242060Y1380490D03*
X1050290Y1380980D03*
X1050290Y1363980D03*
D17*
G36*
X1171933Y1252435D02*
X1168728Y1249230D01*
X1163757Y1254201D01*
X1166962Y1257406D01*
X1171933Y1252435D01*
G37*
G36*
X1176530Y1257031D02*
X1173325Y1253826D01*
X1168354Y1258797D01*
X1171559Y1262002D01*
X1176530Y1257031D01*
G37*
G36*
X1181126Y1261627D02*
X1177921Y1258422D01*
X1172950Y1263393D01*
X1176155Y1266598D01*
X1181126Y1261627D01*
G37*
G36*
X1177921Y1275791D02*
X1181126Y1272586D01*
X1176155Y1267615D01*
X1172950Y1270820D01*
X1177921Y1275791D01*
G37*
G36*
X1173325Y1280387D02*
X1176530Y1277182D01*
X1171559Y1272211D01*
X1168354Y1275416D01*
X1173325Y1280387D01*
G37*
G36*
X1168728Y1284983D02*
X1171933Y1281778D01*
X1166962Y1276807D01*
X1163757Y1280012D01*
X1168728Y1284983D01*
G37*
G36*
X1154565Y1281778D02*
X1157770Y1284983D01*
X1162741Y1280012D01*
X1159536Y1276807D01*
X1154565Y1281778D01*
G37*
G36*
X1149969Y1277182D02*
X1153174Y1280387D01*
X1158145Y1275416D01*
X1154940Y1272211D01*
X1149969Y1277182D01*
G37*
G36*
X1145373Y1272586D02*
X1148578Y1275791D01*
X1153549Y1270820D01*
X1150344Y1267615D01*
X1145373Y1272586D01*
G37*
G36*
X1148578Y1258422D02*
X1145373Y1261627D01*
X1150344Y1266598D01*
X1153549Y1263393D01*
X1148578Y1258422D01*
G37*
G36*
X1153174Y1253826D02*
X1149969Y1257031D01*
X1154940Y1262002D01*
X1158145Y1258797D01*
X1153174Y1253826D01*
G37*
G36*
X1157770Y1249230D02*
X1154565Y1252435D01*
X1159536Y1257406D01*
X1162741Y1254201D01*
X1157770Y1249230D01*
G37*
D18*
X1176420Y1350920D03*
X1150420Y1350920D03*
D19*
G36*
X1186431Y1287754D02*
X1195645Y1278540D01*
X1187137Y1270032D01*
X1177923Y1279246D01*
X1186431Y1287754D01*
G37*
G36*
X1174411Y1299775D02*
X1183625Y1290561D01*
X1175117Y1282053D01*
X1165903Y1291267D01*
X1174411Y1299775D01*
G37*
D15*
X1277620Y1201420D03*
X1252220Y1201420D03*
X1226820Y1201420D03*
X1201420Y1201420D03*
D19*
X1274944Y1270000D03*
X1257944Y1270000D03*
G36*
X1196785Y1298287D02*
X1205999Y1289073D01*
X1197491Y1280565D01*
X1188277Y1289779D01*
X1196785Y1298287D01*
G37*
G36*
X1184765Y1310307D02*
X1193979Y1301093D01*
X1185471Y1292585D01*
X1176257Y1301799D01*
X1184765Y1310307D01*
G37*
D15*
X1050290Y1257300D03*
D10*
X33970Y1664770D02*
X26990Y1664770D01*
X33970Y1664770D02*
X33970Y1657790D01*
X26990Y1657790D01*
X26990Y1664770D01*
X26990Y1662590D02*
X33970Y1662590D01*
X33970Y1682310D02*
X26990Y1682310D01*
X33970Y1682310D02*
X33970Y1675330D01*
X26990Y1675330D01*
X26990Y1682310D01*
X26990Y1680130D02*
X33970Y1680130D01*
D11*
X10160Y1492250D03*
X241300Y1684020D03*
D12*
X228600Y1714500D03*
X25400Y1714500D03*
X25400Y1511300D03*
D13*
X14050Y1640900D03*
X14050Y1584900D03*
D14*
X50800Y1627900D03*
X50800Y1617900D03*
X50800Y1607900D03*
X50800Y1597900D03*
D13*
X239950Y1584900D03*
X239950Y1640900D03*
D14*
X203200Y1597900D03*
X203200Y1607900D03*
X203200Y1617900D03*
X203200Y1627900D03*
D15*
X63500Y1498600D03*
X88900Y1498600D03*
X114300Y1498600D03*
X139700Y1498600D03*
D16*
X222250Y1660670D03*
X222250Y1677670D03*
X205740Y1660670D03*
X205740Y1677670D03*
X13970Y1678160D03*
X13970Y1661160D03*
D17*
G36*
X135613Y1549615D02*
X132408Y1546410D01*
X127437Y1551381D01*
X130642Y1554586D01*
X135613Y1549615D01*
G37*
G36*
X140210Y1554211D02*
X137005Y1551006D01*
X132034Y1555977D01*
X135239Y1559182D01*
X140210Y1554211D01*
G37*
G36*
X144806Y1558807D02*
X141601Y1555602D01*
X136630Y1560573D01*
X139835Y1563778D01*
X144806Y1558807D01*
G37*
G36*
X141601Y1572971D02*
X144806Y1569766D01*
X139835Y1564795D01*
X136630Y1568000D01*
X141601Y1572971D01*
G37*
G36*
X137005Y1577567D02*
X140210Y1574362D01*
X135239Y1569391D01*
X132034Y1572596D01*
X137005Y1577567D01*
G37*
G36*
X132408Y1582163D02*
X135613Y1578958D01*
X130642Y1573987D01*
X127437Y1577192D01*
X132408Y1582163D01*
G37*
G36*
X118245Y1578958D02*
X121450Y1582163D01*
X126421Y1577192D01*
X123216Y1573987D01*
X118245Y1578958D01*
G37*
G36*
X113649Y1574362D02*
X116854Y1577567D01*
X121825Y1572596D01*
X118620Y1569391D01*
X113649Y1574362D01*
G37*
G36*
X109053Y1569766D02*
X112258Y1572971D01*
X117229Y1568000D01*
X114024Y1564795D01*
X109053Y1569766D01*
G37*
G36*
X112258Y1555602D02*
X109053Y1558807D01*
X114024Y1563778D01*
X117229Y1560573D01*
X112258Y1555602D01*
G37*
G36*
X116854Y1551006D02*
X113649Y1554211D01*
X118620Y1559182D01*
X121825Y1555977D01*
X116854Y1551006D01*
G37*
G36*
X121450Y1546410D02*
X118245Y1549615D01*
X123216Y1554586D01*
X126421Y1551381D01*
X121450Y1546410D01*
G37*
D18*
X140100Y1648100D03*
X114100Y1648100D03*
D19*
G36*
X150111Y1584934D02*
X159325Y1575720D01*
X150817Y1567212D01*
X141603Y1576426D01*
X150111Y1584934D01*
G37*
G36*
X138091Y1596955D02*
X147305Y1587741D01*
X138797Y1579233D01*
X129583Y1588447D01*
X138091Y1596955D01*
G37*
D15*
X241300Y1498600D03*
X215900Y1498600D03*
X190500Y1498600D03*
X165100Y1498600D03*
D19*
X238624Y1567180D03*
X221624Y1567180D03*
G36*
X160465Y1595467D02*
X169679Y1586253D01*
X161171Y1577745D01*
X151957Y1586959D01*
X160465Y1595467D01*
G37*
G36*
X148445Y1607487D02*
X157659Y1598273D01*
X149151Y1589765D01*
X139937Y1598979D01*
X148445Y1607487D01*
G37*
D15*
X13970Y1554480D03*
D10*
X286070Y1664770D02*
X293050Y1664770D01*
X293050Y1657790D01*
X286070Y1657790D01*
X286070Y1664770D01*
X286070Y1662590D02*
X293050Y1662590D01*
X293050Y1682310D02*
X286070Y1682310D01*
X293050Y1682310D02*
X293050Y1675330D01*
X286070Y1675330D01*
X286070Y1682310D01*
X286070Y1680130D02*
X293050Y1680130D01*
D11*
X269240Y1492250D03*
X500380Y1684020D03*
D12*
X487680Y1714500D03*
X284480Y1714500D03*
X284480Y1511300D03*
D13*
X273130Y1640900D03*
X273130Y1584900D03*
D14*
X309880Y1627900D03*
X309880Y1617900D03*
X309880Y1607900D03*
X309880Y1597900D03*
D13*
X499030Y1584900D03*
X499030Y1640900D03*
D14*
X462280Y1597900D03*
X462280Y1607900D03*
X462280Y1617900D03*
X462280Y1627900D03*
D15*
X322580Y1498600D03*
X347980Y1498600D03*
X373380Y1498600D03*
X398780Y1498600D03*
D16*
X481330Y1660670D03*
X481330Y1677670D03*
X464820Y1660670D03*
X464820Y1677670D03*
X273050Y1678160D03*
X273050Y1661160D03*
D17*
G36*
X394693Y1549615D02*
X391488Y1546410D01*
X386517Y1551381D01*
X389722Y1554586D01*
X394693Y1549615D01*
G37*
G36*
X399290Y1554211D02*
X396085Y1551006D01*
X391114Y1555977D01*
X394319Y1559182D01*
X399290Y1554211D01*
G37*
G36*
X403886Y1558807D02*
X400681Y1555602D01*
X395710Y1560573D01*
X398915Y1563778D01*
X403886Y1558807D01*
G37*
G36*
X400681Y1572971D02*
X403886Y1569766D01*
X398915Y1564795D01*
X395710Y1568000D01*
X400681Y1572971D01*
G37*
G36*
X396085Y1577567D02*
X399290Y1574362D01*
X394319Y1569391D01*
X391114Y1572596D01*
X396085Y1577567D01*
G37*
G36*
X391488Y1582163D02*
X394693Y1578958D01*
X389722Y1573987D01*
X386517Y1577192D01*
X391488Y1582163D01*
G37*
G36*
X377325Y1578958D02*
X380530Y1582163D01*
X385501Y1577192D01*
X382296Y1573987D01*
X377325Y1578958D01*
G37*
G36*
X372729Y1574362D02*
X375934Y1577567D01*
X380905Y1572596D01*
X377700Y1569391D01*
X372729Y1574362D01*
G37*
G36*
X368133Y1569766D02*
X371338Y1572971D01*
X376309Y1568000D01*
X373104Y1564795D01*
X368133Y1569766D01*
G37*
G36*
X371338Y1555602D02*
X368133Y1558807D01*
X373104Y1563778D01*
X376309Y1560573D01*
X371338Y1555602D01*
G37*
G36*
X375934Y1551006D02*
X372729Y1554211D01*
X377700Y1559182D01*
X380905Y1555977D01*
X375934Y1551006D01*
G37*
G36*
X380530Y1546410D02*
X377325Y1549615D01*
X382296Y1554586D01*
X385501Y1551381D01*
X380530Y1546410D01*
G37*
D18*
X399180Y1648100D03*
X373180Y1648100D03*
D19*
G36*
X409191Y1584934D02*
X418405Y1575720D01*
X409897Y1567212D01*
X400683Y1576426D01*
X409191Y1584934D01*
G37*
G36*
X397171Y1596955D02*
X406385Y1587741D01*
X397877Y1579233D01*
X388663Y1588447D01*
X397171Y1596955D01*
G37*
D15*
X500380Y1498600D03*
X474980Y1498600D03*
X449580Y1498600D03*
X424180Y1498600D03*
D19*
X497704Y1567180D03*
X480704Y1567180D03*
G36*
X419545Y1595467D02*
X428759Y1586253D01*
X420251Y1577745D01*
X411037Y1586959D01*
X419545Y1595467D01*
G37*
G36*
X407525Y1607487D02*
X416739Y1598273D01*
X408231Y1589765D01*
X399017Y1598979D01*
X407525Y1607487D01*
G37*
D15*
X273050Y1554480D03*
D10*
X545150Y1664770D02*
X552130Y1664770D01*
X552130Y1657790D01*
X545150Y1657790D01*
X545150Y1664770D01*
X545150Y1662590D02*
X552130Y1662590D01*
X552130Y1682310D02*
X545150Y1682310D01*
X552130Y1682310D02*
X552130Y1675330D01*
X545150Y1675330D01*
X545150Y1682310D01*
X545150Y1680130D02*
X552130Y1680130D01*
D11*
X528320Y1492250D03*
X759460Y1684020D03*
D12*
X746760Y1714500D03*
X543560Y1714500D03*
X543560Y1511300D03*
D13*
X532210Y1640900D03*
X532210Y1584900D03*
D14*
X568960Y1627900D03*
X568960Y1617900D03*
X568960Y1607900D03*
X568960Y1597900D03*
D13*
X758110Y1584900D03*
X758110Y1640900D03*
D14*
X721360Y1597900D03*
X721360Y1607900D03*
X721360Y1617900D03*
X721360Y1627900D03*
D15*
X581660Y1498600D03*
X607060Y1498600D03*
X632460Y1498600D03*
X657860Y1498600D03*
D16*
X740410Y1660670D03*
X740410Y1677670D03*
X723900Y1660670D03*
X723900Y1677670D03*
X532130Y1678160D03*
X532130Y1661160D03*
D17*
G36*
X653773Y1549615D02*
X650568Y1546410D01*
X645597Y1551381D01*
X648802Y1554586D01*
X653773Y1549615D01*
G37*
G36*
X658370Y1554211D02*
X655165Y1551006D01*
X650194Y1555977D01*
X653399Y1559182D01*
X658370Y1554211D01*
G37*
G36*
X662966Y1558807D02*
X659761Y1555602D01*
X654790Y1560573D01*
X657995Y1563778D01*
X662966Y1558807D01*
G37*
G36*
X659761Y1572971D02*
X662966Y1569766D01*
X657995Y1564795D01*
X654790Y1568000D01*
X659761Y1572971D01*
G37*
G36*
X655165Y1577567D02*
X658370Y1574362D01*
X653399Y1569391D01*
X650194Y1572596D01*
X655165Y1577567D01*
G37*
G36*
X650568Y1582163D02*
X653773Y1578958D01*
X648802Y1573987D01*
X645597Y1577192D01*
X650568Y1582163D01*
G37*
G36*
X636405Y1578958D02*
X639610Y1582163D01*
X644581Y1577192D01*
X641376Y1573987D01*
X636405Y1578958D01*
G37*
G36*
X631809Y1574362D02*
X635014Y1577567D01*
X639985Y1572596D01*
X636780Y1569391D01*
X631809Y1574362D01*
G37*
G36*
X627213Y1569766D02*
X630418Y1572971D01*
X635389Y1568000D01*
X632184Y1564795D01*
X627213Y1569766D01*
G37*
G36*
X630418Y1555602D02*
X627213Y1558807D01*
X632184Y1563778D01*
X635389Y1560573D01*
X630418Y1555602D01*
G37*
G36*
X635014Y1551006D02*
X631809Y1554211D01*
X636780Y1559182D01*
X639985Y1555977D01*
X635014Y1551006D01*
G37*
G36*
X639610Y1546410D02*
X636405Y1549615D01*
X641376Y1554586D01*
X644581Y1551381D01*
X639610Y1546410D01*
G37*
D18*
X658260Y1648100D03*
X632260Y1648100D03*
D19*
G36*
X668271Y1584934D02*
X677485Y1575720D01*
X668977Y1567212D01*
X659763Y1576426D01*
X668271Y1584934D01*
G37*
G36*
X656251Y1596955D02*
X665465Y1587741D01*
X656957Y1579233D01*
X647743Y1588447D01*
X656251Y1596955D01*
G37*
D15*
X759460Y1498600D03*
X734060Y1498600D03*
X708660Y1498600D03*
X683260Y1498600D03*
D19*
X756784Y1567180D03*
X739784Y1567180D03*
G36*
X678625Y1595467D02*
X687839Y1586253D01*
X679331Y1577745D01*
X670117Y1586959D01*
X678625Y1595467D01*
G37*
G36*
X666605Y1607487D02*
X675819Y1598273D01*
X667311Y1589765D01*
X658097Y1598979D01*
X666605Y1607487D01*
G37*
D15*
X532130Y1554480D03*
D10*
X804230Y1664770D02*
X811210Y1664770D01*
X811210Y1657790D01*
X804230Y1657790D01*
X804230Y1664770D01*
X804230Y1662590D02*
X811210Y1662590D01*
X811210Y1682310D02*
X804230Y1682310D01*
X811210Y1682310D02*
X811210Y1675330D01*
X804230Y1675330D01*
X804230Y1682310D01*
X804230Y1680130D02*
X811210Y1680130D01*
D11*
X787400Y1492250D03*
X1018540Y1684020D03*
D12*
X1005840Y1714500D03*
X802640Y1714500D03*
X802640Y1511300D03*
D13*
X791290Y1640900D03*
X791290Y1584900D03*
D14*
X828040Y1627900D03*
X828040Y1617900D03*
X828040Y1607900D03*
X828040Y1597900D03*
D13*
X1017190Y1584900D03*
X1017190Y1640900D03*
D14*
X980440Y1597900D03*
X980440Y1607900D03*
X980440Y1617900D03*
X980440Y1627900D03*
D15*
X840740Y1498600D03*
X866140Y1498600D03*
X891540Y1498600D03*
X916940Y1498600D03*
D16*
X999490Y1660670D03*
X999490Y1677670D03*
X982980Y1660670D03*
X982980Y1677670D03*
X791210Y1678160D03*
X791210Y1661160D03*
D17*
G36*
X912853Y1549615D02*
X909648Y1546410D01*
X904677Y1551381D01*
X907882Y1554586D01*
X912853Y1549615D01*
G37*
G36*
X917450Y1554211D02*
X914245Y1551006D01*
X909274Y1555977D01*
X912479Y1559182D01*
X917450Y1554211D01*
G37*
G36*
X922046Y1558807D02*
X918841Y1555602D01*
X913870Y1560573D01*
X917075Y1563778D01*
X922046Y1558807D01*
G37*
G36*
X918841Y1572971D02*
X922046Y1569766D01*
X917075Y1564795D01*
X913870Y1568000D01*
X918841Y1572971D01*
G37*
G36*
X914245Y1577567D02*
X917450Y1574362D01*
X912479Y1569391D01*
X909274Y1572596D01*
X914245Y1577567D01*
G37*
G36*
X909648Y1582163D02*
X912853Y1578958D01*
X907882Y1573987D01*
X904677Y1577192D01*
X909648Y1582163D01*
G37*
G36*
X895485Y1578958D02*
X898690Y1582163D01*
X903661Y1577192D01*
X900456Y1573987D01*
X895485Y1578958D01*
G37*
G36*
X890889Y1574362D02*
X894094Y1577567D01*
X899065Y1572596D01*
X895860Y1569391D01*
X890889Y1574362D01*
G37*
G36*
X886293Y1569766D02*
X889498Y1572971D01*
X894469Y1568000D01*
X891264Y1564795D01*
X886293Y1569766D01*
G37*
G36*
X889498Y1555602D02*
X886293Y1558807D01*
X891264Y1563778D01*
X894469Y1560573D01*
X889498Y1555602D01*
G37*
G36*
X894094Y1551006D02*
X890889Y1554211D01*
X895860Y1559182D01*
X899065Y1555977D01*
X894094Y1551006D01*
G37*
G36*
X898690Y1546410D02*
X895485Y1549615D01*
X900456Y1554586D01*
X903661Y1551381D01*
X898690Y1546410D01*
G37*
D18*
X917340Y1648100D03*
X891340Y1648100D03*
D19*
G36*
X927351Y1584934D02*
X936565Y1575720D01*
X928057Y1567212D01*
X918843Y1576426D01*
X927351Y1584934D01*
G37*
G36*
X915331Y1596955D02*
X924545Y1587741D01*
X916037Y1579233D01*
X906823Y1588447D01*
X915331Y1596955D01*
G37*
D15*
X1018540Y1498600D03*
X993140Y1498600D03*
X967740Y1498600D03*
X942340Y1498600D03*
D19*
X1015864Y1567180D03*
X998864Y1567180D03*
G36*
X937705Y1595467D02*
X946919Y1586253D01*
X938411Y1577745D01*
X929197Y1586959D01*
X937705Y1595467D01*
G37*
G36*
X925685Y1607487D02*
X934899Y1598273D01*
X926391Y1589765D01*
X917177Y1598979D01*
X925685Y1607487D01*
G37*
D15*
X791210Y1554480D03*
D10*
X1063310Y1664770D02*
X1070290Y1664770D01*
X1070290Y1657790D01*
X1063310Y1657790D01*
X1063310Y1664770D01*
X1063310Y1662590D02*
X1070290Y1662590D01*
X1070290Y1682310D02*
X1063310Y1682310D01*
X1070290Y1682310D02*
X1070290Y1675330D01*
X1063310Y1675330D01*
X1063310Y1682310D01*
X1063310Y1680130D02*
X1070290Y1680130D01*
D11*
X1046480Y1492250D03*
X1277620Y1684020D03*
D12*
X1264920Y1714500D03*
X1061720Y1714500D03*
X1061720Y1511300D03*
D13*
X1050370Y1640900D03*
X1050370Y1584900D03*
D14*
X1087120Y1627900D03*
X1087120Y1617900D03*
X1087120Y1607900D03*
X1087120Y1597900D03*
D13*
X1276270Y1584900D03*
X1276270Y1640900D03*
D14*
X1239520Y1597900D03*
X1239520Y1607900D03*
X1239520Y1617900D03*
X1239520Y1627900D03*
D15*
X1099820Y1498600D03*
X1125220Y1498600D03*
X1150620Y1498600D03*
X1176020Y1498600D03*
D16*
X1258570Y1660670D03*
X1258570Y1677670D03*
X1242060Y1660670D03*
X1242060Y1677670D03*
X1050290Y1678160D03*
X1050290Y1661160D03*
D17*
G36*
X1171933Y1549615D02*
X1168728Y1546410D01*
X1163757Y1551381D01*
X1166962Y1554586D01*
X1171933Y1549615D01*
G37*
G36*
X1176530Y1554211D02*
X1173325Y1551006D01*
X1168354Y1555977D01*
X1171559Y1559182D01*
X1176530Y1554211D01*
G37*
G36*
X1181126Y1558807D02*
X1177921Y1555602D01*
X1172950Y1560573D01*
X1176155Y1563778D01*
X1181126Y1558807D01*
G37*
G36*
X1177921Y1572971D02*
X1181126Y1569766D01*
X1176155Y1564795D01*
X1172950Y1568000D01*
X1177921Y1572971D01*
G37*
G36*
X1173325Y1577567D02*
X1176530Y1574362D01*
X1171559Y1569391D01*
X1168354Y1572596D01*
X1173325Y1577567D01*
G37*
G36*
X1168728Y1582163D02*
X1171933Y1578958D01*
X1166962Y1573987D01*
X1163757Y1577192D01*
X1168728Y1582163D01*
G37*
G36*
X1154565Y1578958D02*
X1157770Y1582163D01*
X1162741Y1577192D01*
X1159536Y1573987D01*
X1154565Y1578958D01*
G37*
G36*
X1149969Y1574362D02*
X1153174Y1577567D01*
X1158145Y1572596D01*
X1154940Y1569391D01*
X1149969Y1574362D01*
G37*
G36*
X1145373Y1569766D02*
X1148578Y1572971D01*
X1153549Y1568000D01*
X1150344Y1564795D01*
X1145373Y1569766D01*
G37*
G36*
X1148578Y1555602D02*
X1145373Y1558807D01*
X1150344Y1563778D01*
X1153549Y1560573D01*
X1148578Y1555602D01*
G37*
G36*
X1153174Y1551006D02*
X1149969Y1554211D01*
X1154940Y1559182D01*
X1158145Y1555977D01*
X1153174Y1551006D01*
G37*
G36*
X1157770Y1546410D02*
X1154565Y1549615D01*
X1159536Y1554586D01*
X1162741Y1551381D01*
X1157770Y1546410D01*
G37*
D18*
X1176420Y1648100D03*
X1150420Y1648100D03*
D19*
G36*
X1186431Y1584934D02*
X1195645Y1575720D01*
X1187137Y1567212D01*
X1177923Y1576426D01*
X1186431Y1584934D01*
G37*
G36*
X1174411Y1596955D02*
X1183625Y1587741D01*
X1175117Y1579233D01*
X1165903Y1588447D01*
X1174411Y1596955D01*
G37*
D15*
X1277620Y1498600D03*
X1252220Y1498600D03*
X1226820Y1498600D03*
X1201420Y1498600D03*
D19*
X1274944Y1567180D03*
X1257944Y1567180D03*
G36*
X1196785Y1595467D02*
X1205999Y1586253D01*
X1197491Y1577745D01*
X1188277Y1586959D01*
X1196785Y1595467D01*
G37*
G36*
X1184765Y1607487D02*
X1193979Y1598273D01*
X1185471Y1589765D01*
X1176257Y1598979D01*
X1184765Y1607487D01*
G37*
D15*
X1050290Y1554480D03*
D20*
X68580Y1798955D03*
X1221105Y1798955D03*
D21*
X59525Y-20955D02*
X59528Y-20733D01*
X59536Y-20511D01*
X59550Y-20289D01*
X59569Y-20067D01*
X59593Y-19847D01*
X59623Y-19626D01*
X59658Y-19407D01*
X59699Y-19188D01*
X59745Y-18971D01*
X59796Y-18755D01*
X59853Y-18540D01*
X59915Y-18326D01*
X59982Y-18115D01*
X60054Y-17904D01*
X60132Y-17696D01*
X60214Y-17490D01*
X60302Y-17286D01*
X60394Y-17083D01*
X60492Y-16884D01*
X60594Y-16687D01*
X60701Y-16492D01*
X60813Y-16300D01*
X60930Y-16111D01*
X61051Y-15924D01*
X61177Y-15741D01*
X61307Y-15561D01*
X61442Y-15384D01*
X61580Y-15211D01*
X61723Y-15041D01*
X61871Y-14874D01*
X62022Y-14711D01*
X62177Y-14552D01*
X62336Y-14397D01*
X62499Y-14246D01*
X62666Y-14098D01*
X62836Y-13955D01*
X63009Y-13817D01*
X63186Y-13682D01*
X63366Y-13552D01*
X63549Y-13426D01*
X63736Y-13305D01*
X63925Y-13188D01*
X64117Y-13076D01*
X64312Y-12969D01*
X64509Y-12867D01*
X64708Y-12769D01*
X64911Y-12677D01*
X65115Y-12589D01*
X65321Y-12507D01*
X65529Y-12429D01*
X65740Y-12357D01*
X65951Y-12290D01*
X66165Y-12228D01*
X66380Y-12171D01*
X66596Y-12120D01*
X66813Y-12074D01*
X67032Y-12033D01*
X67251Y-11998D01*
X67472Y-11968D01*
X67692Y-11944D01*
X67914Y-11925D01*
X68136Y-11911D01*
X68358Y-11903D01*
X68580Y-11900D01*
X68802Y-11903D01*
X69024Y-11911D01*
X69246Y-11925D01*
X69468Y-11944D01*
X69688Y-11968D01*
X69909Y-11998D01*
X70128Y-12033D01*
X70347Y-12074D01*
X70564Y-12120D01*
X70780Y-12171D01*
X70995Y-12228D01*
X71209Y-12290D01*
X71420Y-12357D01*
X71631Y-12429D01*
X71839Y-12507D01*
X72045Y-12589D01*
X72249Y-12677D01*
X72452Y-12769D01*
X72651Y-12867D01*
X72848Y-12969D01*
X73043Y-13076D01*
X73235Y-13188D01*
X73424Y-13305D01*
X73611Y-13426D01*
X73794Y-13552D01*
X73974Y-13682D01*
X74151Y-13817D01*
X74324Y-13955D01*
X74494Y-14098D01*
X74661Y-14246D01*
X74824Y-14397D01*
X74983Y-14552D01*
X75138Y-14711D01*
X75289Y-14874D01*
X75437Y-15041D01*
X75580Y-15211D01*
X75718Y-15384D01*
X75853Y-15561D01*
X75983Y-15741D01*
X76109Y-15924D01*
X76230Y-16111D01*
X76347Y-16300D01*
X76459Y-16492D01*
X76566Y-16687D01*
X76668Y-16884D01*
X76766Y-17083D01*
X76858Y-17286D01*
X76946Y-17490D01*
X77028Y-17696D01*
X77106Y-17904D01*
X77178Y-18115D01*
X77245Y-18326D01*
X77307Y-18540D01*
X77364Y-18755D01*
X77415Y-18971D01*
X77461Y-19188D01*
X77502Y-19407D01*
X77537Y-19626D01*
X77567Y-19847D01*
X77591Y-20067D01*
X77610Y-20289D01*
X77624Y-20511D01*
X77632Y-20733D01*
X77635Y-20955D01*
X77632Y-21177D01*
X77624Y-21399D01*
X77610Y-21621D01*
X77591Y-21843D01*
X77567Y-22063D01*
X77537Y-22284D01*
X77502Y-22503D01*
X77461Y-22722D01*
X77415Y-22939D01*
X77364Y-23155D01*
X77307Y-23370D01*
X77245Y-23584D01*
X77178Y-23795D01*
X77106Y-24006D01*
X77028Y-24214D01*
X76946Y-24420D01*
X76858Y-24624D01*
X76766Y-24827D01*
X76668Y-25026D01*
X76566Y-25223D01*
X76459Y-25418D01*
X76347Y-25610D01*
X76230Y-25799D01*
X76109Y-25986D01*
X75983Y-26169D01*
X75853Y-26349D01*
X75718Y-26526D01*
X75580Y-26699D01*
X75437Y-26869D01*
X75289Y-27036D01*
X75138Y-27199D01*
X74983Y-27358D01*
X74824Y-27513D01*
X74661Y-27664D01*
X74494Y-27812D01*
X74324Y-27955D01*
X74151Y-28093D01*
X73974Y-28228D01*
X73794Y-28358D01*
X73611Y-28484D01*
X73424Y-28605D01*
X73235Y-28722D01*
X73043Y-28834D01*
X72848Y-28941D01*
X72651Y-29043D01*
X72452Y-29141D01*
X72249Y-29233D01*
X72045Y-29321D01*
X71839Y-29403D01*
X71631Y-29481D01*
X71420Y-29553D01*
X71209Y-29620D01*
X70995Y-29682D01*
X70780Y-29739D01*
X70564Y-29790D01*
X70347Y-29836D01*
X70128Y-29877D01*
X69909Y-29912D01*
X69688Y-29942D01*
X69468Y-29966D01*
X69246Y-29985D01*
X69024Y-29999D01*
X68802Y-30007D01*
X68580Y-30010D01*
X68358Y-30007D01*
X68136Y-29999D01*
X67914Y-29985D01*
X67692Y-29966D01*
X67472Y-29942D01*
X67251Y-29912D01*
X67032Y-29877D01*
X66813Y-29836D01*
X66596Y-29790D01*
X66380Y-29739D01*
X66165Y-29682D01*
X65951Y-29620D01*
X65740Y-29553D01*
X65529Y-29481D01*
X65321Y-29403D01*
X65115Y-29321D01*
X64911Y-29233D01*
X64708Y-29141D01*
X64509Y-29043D01*
X64312Y-28941D01*
X64117Y-28834D01*
X63925Y-28722D01*
X63736Y-28605D01*
X63549Y-28484D01*
X63366Y-28358D01*
X63186Y-28228D01*
X63009Y-28093D01*
X62836Y-27955D01*
X62666Y-27812D01*
X62499Y-27664D01*
X62336Y-27513D01*
X62177Y-27358D01*
X62022Y-27199D01*
X61871Y-27036D01*
X61723Y-26869D01*
X61580Y-26699D01*
X61442Y-26526D01*
X61307Y-26349D01*
X61177Y-26169D01*
X61051Y-25986D01*
X60930Y-25799D01*
X60813Y-25610D01*
X60701Y-25418D01*
X60594Y-25223D01*
X60492Y-25026D01*
X60394Y-24827D01*
X60302Y-24624D01*
X60214Y-24420D01*
X60132Y-24214D01*
X60054Y-24006D01*
X59982Y-23795D01*
X59915Y-23584D01*
X59853Y-23370D01*
X59796Y-23155D01*
X59745Y-22939D01*
X59699Y-22722D01*
X59658Y-22503D01*
X59623Y-22284D01*
X59593Y-22063D01*
X59569Y-21843D01*
X59550Y-21621D01*
X59536Y-21399D01*
X59528Y-21177D01*
X59525Y-20955D01*
D22*
X68580Y-20955D03*
M02*
