G04 EAGLE Gerber RS-274X export*
G75*
%MOMM*%
%FSLAX34Y34*%
%LPD*%
%INSilkscreen Top*%
%IPPOS*%
%AMOC8*
5,1,8,0,0,1.08239X$1,22.5*%
G01*
%ADD10C,0.203200*%
%ADD11C,0.100000*%
%ADD12C,0.567956*%

G36*
X17542Y74273D02*
X17542Y74273D01*
X45039Y74273D01*
X45041Y74274D01*
X45043Y74273D01*
X45570Y74306D01*
X45571Y74306D01*
X45573Y74306D01*
X46625Y74412D01*
X46627Y74414D01*
X46631Y74413D01*
X47147Y74520D01*
X47149Y74522D01*
X47152Y74521D01*
X48163Y74835D01*
X48164Y74837D01*
X48168Y74837D01*
X48653Y75042D01*
X48655Y75044D01*
X48659Y75044D01*
X49588Y75549D01*
X49590Y75552D01*
X49594Y75552D01*
X50028Y75850D01*
X50029Y75853D01*
X50032Y75854D01*
X50848Y76527D01*
X50849Y76530D01*
X50853Y76532D01*
X51218Y76911D01*
X51219Y76913D01*
X51221Y76915D01*
X51894Y77730D01*
X51895Y77734D01*
X51899Y77737D01*
X52180Y78182D01*
X52180Y78184D01*
X52182Y78186D01*
X52687Y79115D01*
X52686Y79119D01*
X52690Y79123D01*
X52876Y79616D01*
X52875Y79618D01*
X52877Y79620D01*
X53191Y80630D01*
X53190Y80634D01*
X53193Y80638D01*
X53278Y81158D01*
X53277Y81159D01*
X53279Y81162D01*
X53385Y82214D01*
X53383Y82217D01*
X53385Y82221D01*
X53377Y82747D01*
X53375Y82749D01*
X53376Y82753D01*
X53270Y83805D01*
X53268Y83807D01*
X53269Y83811D01*
X53167Y84327D01*
X53165Y84329D01*
X53165Y84333D01*
X52852Y85343D01*
X52849Y85345D01*
X52850Y85349D01*
X52648Y85835D01*
X52646Y85837D01*
X52646Y85841D01*
X52141Y86770D01*
X52139Y86772D01*
X52138Y86776D01*
X51843Y87212D01*
X51841Y87213D01*
X51840Y87217D01*
X51167Y88032D01*
X51164Y88033D01*
X51162Y88037D01*
X50785Y88405D01*
X50783Y88406D01*
X50782Y88409D01*
X49966Y89082D01*
X49962Y89082D01*
X49960Y89086D01*
X49516Y89370D01*
X49514Y89370D01*
X49513Y89373D01*
X48583Y89877D01*
X48579Y89877D01*
X48576Y89881D01*
X48084Y90070D01*
X48082Y90070D01*
X48080Y90071D01*
X47070Y90385D01*
X47067Y90384D01*
X47062Y90387D01*
X46544Y90477D01*
X46542Y90476D01*
X46539Y90477D01*
X45487Y90583D01*
X45246Y90608D01*
X45243Y90606D01*
X45240Y90608D01*
X11924Y90608D01*
X11395Y90603D01*
X11393Y90601D01*
X11390Y90602D01*
X9811Y90443D01*
X9807Y90440D01*
X9799Y90441D01*
X8284Y89971D01*
X8280Y89966D01*
X8272Y89966D01*
X6879Y89209D01*
X6876Y89204D01*
X6869Y89202D01*
X5651Y88186D01*
X5649Y88181D01*
X5642Y88177D01*
X4644Y86946D01*
X4644Y86941D01*
X4638Y86936D01*
X4133Y86007D01*
X4134Y86006D01*
X4132Y86005D01*
X3897Y85533D01*
X3898Y85528D01*
X3893Y85523D01*
X3580Y84513D01*
X3580Y84512D01*
X3579Y84511D01*
X3440Y84003D01*
X3441Y83998D01*
X3438Y83992D01*
X3285Y82414D01*
X3288Y82409D01*
X3285Y82401D01*
X3445Y80823D01*
X3448Y80819D01*
X3447Y80811D01*
X3913Y79295D01*
X3917Y79291D01*
X3918Y79283D01*
X4669Y77887D01*
X4674Y77884D01*
X4676Y77877D01*
X4739Y77801D01*
X4946Y77550D01*
X4947Y77550D01*
X5154Y77299D01*
X5362Y77048D01*
X5570Y76797D01*
X5687Y76655D01*
X5693Y76653D01*
X5696Y76646D01*
X6926Y75645D01*
X6931Y75645D01*
X6936Y75639D01*
X8336Y74895D01*
X8341Y74896D01*
X8347Y74890D01*
X9865Y74433D01*
X9870Y74435D01*
X9877Y74431D01*
X11455Y74273D01*
X11458Y74274D01*
X11461Y74273D01*
X13958Y74273D01*
X13977Y74285D01*
X14000Y74289D01*
X14006Y74304D01*
X14015Y74309D01*
X14013Y74320D01*
X14020Y74336D01*
X14019Y74485D01*
X14019Y78868D01*
X14012Y78879D01*
X14014Y78892D01*
X13995Y78905D01*
X13982Y78925D01*
X13969Y78923D01*
X13958Y78931D01*
X13924Y78917D01*
X13915Y78915D01*
X13913Y78912D01*
X13910Y78911D01*
X13688Y78672D01*
X13307Y78318D01*
X12874Y78034D01*
X12402Y77821D01*
X11900Y77695D01*
X11384Y77638D01*
X10863Y77659D01*
X10344Y77708D01*
X9842Y77845D01*
X9351Y78015D01*
X8898Y78269D01*
X8481Y78577D01*
X8094Y78923D01*
X7786Y79342D01*
X7509Y79782D01*
X7294Y80257D01*
X7134Y80752D01*
X7009Y81259D01*
X6910Y82301D01*
X6975Y83345D01*
X7090Y83854D01*
X7223Y84359D01*
X7439Y84832D01*
X7693Y85287D01*
X7999Y85707D01*
X8371Y86068D01*
X8774Y86393D01*
X9228Y86646D01*
X9712Y86834D01*
X10209Y86985D01*
X11250Y87065D01*
X11767Y87016D01*
X12273Y86901D01*
X12755Y86711D01*
X13197Y86442D01*
X13598Y86109D01*
X13913Y85814D01*
X13924Y85812D01*
X13930Y85803D01*
X13955Y85807D01*
X13980Y85802D01*
X13986Y85811D01*
X13997Y85813D01*
X14016Y85854D01*
X14019Y85858D01*
X14018Y85859D01*
X14019Y85860D01*
X14019Y86915D01*
X14023Y86968D01*
X16968Y86968D01*
X16968Y74328D01*
X16980Y74309D01*
X16984Y74286D01*
X16999Y74280D01*
X17004Y74271D01*
X17015Y74273D01*
X17031Y74266D01*
X17542Y74273D01*
G37*
G36*
X197026Y20410D02*
X197026Y20410D01*
X197039Y20410D01*
X197339Y20810D01*
X197339Y20818D01*
X197343Y20821D01*
X197339Y20825D01*
X197339Y20832D01*
X197349Y20840D01*
X197349Y60540D01*
X197335Y60558D01*
X197338Y60571D01*
X196938Y61071D01*
X196924Y61075D01*
X196922Y61084D01*
X190822Y64084D01*
X190806Y64081D01*
X190800Y64089D01*
X190200Y64089D01*
X190187Y64080D01*
X190178Y64084D01*
X184178Y61084D01*
X184175Y61077D01*
X184169Y61078D01*
X183669Y60678D01*
X183662Y60648D01*
X183651Y60640D01*
X183651Y20740D01*
X183673Y20710D01*
X183675Y20698D01*
X184175Y20398D01*
X184193Y20400D01*
X184200Y20391D01*
X197000Y20391D01*
X197026Y20410D01*
G37*
G36*
X247611Y20499D02*
X247611Y20499D01*
X247618Y20494D01*
X248118Y20694D01*
X248133Y20718D01*
X248140Y20724D01*
X248138Y20727D01*
X248143Y20735D01*
X248149Y20740D01*
X248149Y60140D01*
X248146Y60145D01*
X248149Y60148D01*
X248049Y60748D01*
X248025Y60771D01*
X248023Y60784D01*
X241423Y64184D01*
X241390Y64178D01*
X241378Y64184D01*
X240778Y63884D01*
X234678Y60884D01*
X234666Y60860D01*
X234653Y60856D01*
X234453Y60256D01*
X234455Y60251D01*
X234453Y60249D01*
X234456Y60244D01*
X234451Y60240D01*
X234451Y20940D01*
X234464Y20922D01*
X234461Y20910D01*
X234761Y20510D01*
X234792Y20502D01*
X234800Y20491D01*
X247600Y20491D01*
X247611Y20499D01*
G37*
G36*
X95426Y20540D02*
X95426Y20540D01*
X95439Y20540D01*
X95739Y20940D01*
X95739Y20948D01*
X95743Y20951D01*
X95739Y20955D01*
X95739Y20962D01*
X95749Y20970D01*
X95749Y55170D01*
X95746Y55174D01*
X95749Y55177D01*
X95649Y55877D01*
X95644Y55882D01*
X95647Y55886D01*
X95447Y56485D01*
X95247Y57184D01*
X95246Y57185D01*
X95247Y57186D01*
X95047Y57786D01*
X95039Y57791D01*
X95041Y57797D01*
X94643Y58395D01*
X94344Y58992D01*
X94334Y58997D01*
X94335Y59005D01*
X93835Y59505D01*
X93831Y59505D01*
X93831Y59508D01*
X92831Y60308D01*
X92827Y60309D01*
X92827Y60311D01*
X92227Y60711D01*
X92223Y60711D01*
X92222Y60714D01*
X91022Y61314D01*
X91011Y61312D01*
X91007Y61319D01*
X90308Y61419D01*
X89708Y61519D01*
X89707Y61518D01*
X89707Y61519D01*
X89007Y61619D01*
X89002Y61616D01*
X89000Y61619D01*
X88300Y61619D01*
X88296Y61616D01*
X88293Y61619D01*
X87593Y61519D01*
X87588Y61514D01*
X87584Y61517D01*
X86384Y61117D01*
X86383Y61114D01*
X86381Y61115D01*
X85681Y60815D01*
X85678Y60811D01*
X85675Y60812D01*
X85175Y60512D01*
X85174Y60511D01*
X85173Y60511D01*
X84573Y60111D01*
X84570Y60104D01*
X84565Y60105D01*
X84065Y59605D01*
X84065Y59601D01*
X84062Y59601D01*
X83262Y58601D01*
X83261Y58597D01*
X83259Y58597D01*
X82859Y57997D01*
X82859Y57993D01*
X82856Y57992D01*
X82556Y57392D01*
X82557Y57385D01*
X82553Y57384D01*
X82353Y56685D01*
X82153Y56086D01*
X82157Y56075D01*
X82151Y56070D01*
X82151Y55373D01*
X82051Y54677D01*
X82054Y54672D01*
X82051Y54670D01*
X82051Y20870D01*
X82070Y20844D01*
X82070Y20831D01*
X82470Y20531D01*
X82492Y20531D01*
X82500Y20521D01*
X95400Y20521D01*
X95426Y20540D01*
G37*
G36*
X222318Y20534D02*
X222318Y20534D01*
X222330Y20531D01*
X222730Y20831D01*
X222734Y20847D01*
X222741Y20852D01*
X222737Y20858D01*
X222739Y20862D01*
X222749Y20870D01*
X222749Y57670D01*
X222742Y57679D01*
X222747Y57686D01*
X222547Y58286D01*
X222524Y58301D01*
X222522Y58314D01*
X216422Y61314D01*
X216417Y61313D01*
X216416Y61317D01*
X215816Y61517D01*
X215790Y61508D01*
X215778Y61514D01*
X209178Y58214D01*
X209163Y58183D01*
X209151Y58177D01*
X209051Y57477D01*
X209054Y57472D01*
X209053Y57472D01*
X209053Y57471D01*
X209051Y57470D01*
X209051Y20970D01*
X209067Y20949D01*
X209065Y20935D01*
X209465Y20535D01*
X209492Y20532D01*
X209500Y20521D01*
X222300Y20521D01*
X222318Y20534D01*
G37*
G36*
X146447Y20457D02*
X146447Y20457D01*
X146445Y20460D01*
X146449Y20462D01*
X146549Y21062D01*
X146546Y21067D01*
X146549Y21070D01*
X146549Y54870D01*
X146544Y54877D01*
X146547Y54886D01*
X146534Y54890D01*
X146513Y54917D01*
X146494Y54903D01*
X146493Y54904D01*
X146529Y54930D01*
X146539Y54962D01*
X146549Y54970D01*
X146549Y58270D01*
X146513Y58317D01*
X146506Y58312D01*
X146500Y58319D01*
X133000Y58319D01*
X132953Y58283D01*
X132955Y58280D01*
X132951Y58278D01*
X132851Y57678D01*
X132854Y57673D01*
X132851Y57670D01*
X132851Y20470D01*
X132887Y20423D01*
X132894Y20428D01*
X132900Y20421D01*
X146400Y20421D01*
X146447Y20457D01*
G37*
G36*
X121047Y19487D02*
X121047Y19487D01*
X121045Y19490D01*
X121049Y19492D01*
X121149Y20092D01*
X121146Y20097D01*
X121149Y20100D01*
X121149Y56500D01*
X121120Y56538D01*
X121118Y56546D01*
X120618Y56746D01*
X120605Y56742D01*
X120600Y56749D01*
X107700Y56749D01*
X107662Y56720D01*
X107654Y56718D01*
X107454Y56218D01*
X107457Y56208D01*
X107453Y56205D01*
X107454Y56203D01*
X107451Y56200D01*
X107451Y19600D01*
X107487Y19553D01*
X107490Y19555D01*
X107492Y19551D01*
X108092Y19451D01*
X108097Y19454D01*
X108100Y19451D01*
X121000Y19451D01*
X121047Y19487D01*
G37*
G36*
X69811Y20659D02*
X69811Y20659D01*
X69818Y20654D01*
X70318Y20854D01*
X70333Y20878D01*
X70340Y20884D01*
X70338Y20887D01*
X70343Y20895D01*
X70349Y20900D01*
X70349Y52100D01*
X70346Y52105D01*
X70349Y52108D01*
X70249Y52704D01*
X70249Y53400D01*
X70242Y53409D01*
X70247Y53416D01*
X70047Y54015D01*
X69847Y54714D01*
X69842Y54718D01*
X69844Y54722D01*
X69544Y55322D01*
X69540Y55324D01*
X69541Y55327D01*
X69141Y55927D01*
X69138Y55928D01*
X69138Y55931D01*
X68338Y56931D01*
X68334Y56932D01*
X68335Y56935D01*
X67835Y57435D01*
X67828Y57436D01*
X67827Y57441D01*
X67227Y57841D01*
X67223Y57841D01*
X67222Y57844D01*
X66022Y58444D01*
X66017Y58443D01*
X66016Y58447D01*
X65416Y58647D01*
X65414Y58646D01*
X65414Y58647D01*
X64714Y58847D01*
X64704Y58844D01*
X64700Y58849D01*
X64004Y58849D01*
X63408Y58949D01*
X63398Y58943D01*
X63393Y58949D01*
X61993Y58749D01*
X61988Y58744D01*
X61984Y58747D01*
X61385Y58547D01*
X60686Y58347D01*
X60682Y58342D01*
X60678Y58344D01*
X60078Y58044D01*
X60075Y58037D01*
X60069Y58038D01*
X59571Y57640D01*
X58973Y57241D01*
X58970Y57234D01*
X58965Y57235D01*
X58465Y56735D01*
X58465Y56731D01*
X58462Y56731D01*
X58062Y56231D01*
X58061Y56227D01*
X58059Y56227D01*
X57659Y55627D01*
X57659Y55623D01*
X57656Y55622D01*
X57056Y54422D01*
X57057Y54417D01*
X57053Y54416D01*
X56853Y53816D01*
X56855Y53811D01*
X56852Y53809D01*
X56853Y53808D01*
X56851Y53807D01*
X56651Y52407D01*
X56654Y52402D01*
X56651Y52400D01*
X56651Y21200D01*
X56659Y21189D01*
X56654Y21182D01*
X56854Y20682D01*
X56895Y20657D01*
X56900Y20651D01*
X69800Y20651D01*
X69811Y20659D01*
G37*
G36*
X171305Y20484D02*
X171305Y20484D01*
X171308Y20481D01*
X171908Y20581D01*
X171949Y20625D01*
X171946Y20628D01*
X171949Y20630D01*
X171949Y56330D01*
X171913Y56377D01*
X171906Y56372D01*
X171900Y56379D01*
X171500Y56379D01*
X171487Y56369D01*
X171478Y56374D01*
X165388Y53279D01*
X164812Y53279D01*
X158823Y56374D01*
X158806Y56371D01*
X158800Y56379D01*
X158300Y56379D01*
X158253Y56343D01*
X158258Y56336D01*
X158251Y56330D01*
X158251Y21130D01*
X158254Y21125D01*
X158251Y21122D01*
X158351Y20522D01*
X158395Y20481D01*
X158398Y20484D01*
X158400Y20481D01*
X171300Y20481D01*
X171305Y20484D01*
G37*
G36*
X184849Y220401D02*
X184849Y220401D01*
X184911Y220403D01*
X184933Y220416D01*
X184959Y220420D01*
X185030Y220468D01*
X185063Y220486D01*
X185069Y220494D01*
X185079Y220501D01*
X185579Y221001D01*
X185598Y221032D01*
X185636Y221074D01*
X185912Y221534D01*
X186379Y222001D01*
X186387Y222014D01*
X186402Y222027D01*
X186891Y222613D01*
X188079Y223801D01*
X188086Y223812D01*
X188099Y223823D01*
X189289Y225212D01*
X190246Y226168D01*
X191144Y226707D01*
X191641Y226790D01*
X193510Y226790D01*
X193536Y226796D01*
X193573Y226795D01*
X194773Y226995D01*
X194788Y227002D01*
X194810Y227003D01*
X195910Y227303D01*
X195927Y227312D01*
X195951Y227317D01*
X196951Y227717D01*
X196973Y227732D01*
X197006Y227744D01*
X198006Y228344D01*
X198026Y228364D01*
X198060Y228384D01*
X198860Y229084D01*
X198867Y229093D01*
X198879Y229101D01*
X199679Y229901D01*
X199690Y229919D01*
X199710Y229937D01*
X200410Y230837D01*
X200421Y230860D01*
X200442Y230885D01*
X201442Y232685D01*
X201453Y232721D01*
X201478Y232773D01*
X201978Y234673D01*
X201979Y234705D01*
X201990Y234748D01*
X202090Y236448D01*
X202083Y236484D01*
X202084Y236540D01*
X201784Y238140D01*
X201775Y238161D01*
X201771Y238190D01*
X201271Y239690D01*
X201252Y239721D01*
X201231Y239774D01*
X200531Y240874D01*
X200512Y240893D01*
X200494Y240923D01*
X200269Y241176D01*
X199931Y241556D01*
X199694Y241823D01*
X199662Y241845D01*
X199612Y241892D01*
X198812Y242392D01*
X198782Y242403D01*
X198762Y242417D01*
X198727Y242423D01*
X198682Y242443D01*
X198665Y242443D01*
X198648Y242448D01*
X198616Y242444D01*
X198610Y242444D01*
X198602Y242442D01*
X198579Y242439D01*
X198509Y242437D01*
X198494Y242428D01*
X198476Y242426D01*
X198446Y242406D01*
X198441Y242405D01*
X198427Y242393D01*
X198418Y242387D01*
X198357Y242354D01*
X198347Y242339D01*
X198332Y242329D01*
X198316Y242301D01*
X198308Y242295D01*
X198294Y242264D01*
X198257Y242212D01*
X198254Y242193D01*
X198246Y242179D01*
X198244Y242153D01*
X198237Y242136D01*
X198238Y242111D01*
X198230Y242070D01*
X198230Y241232D01*
X198158Y241016D01*
X198098Y240895D01*
X197905Y240702D01*
X197748Y240650D01*
X197557Y240650D01*
X196843Y240829D01*
X196501Y241000D01*
X196230Y241181D01*
X195860Y241458D01*
X195306Y242012D01*
X194963Y242526D01*
X194890Y242817D01*
X194890Y243308D01*
X194962Y243524D01*
X195040Y243679D01*
X195190Y243905D01*
X195511Y244145D01*
X195834Y244307D01*
X196285Y244397D01*
X196292Y244401D01*
X196302Y244401D01*
X196657Y244490D01*
X197120Y244490D01*
X197240Y244430D01*
X197255Y244426D01*
X197268Y244417D01*
X197402Y244391D01*
X197409Y244390D01*
X197410Y244390D01*
X197510Y244390D01*
X197535Y244396D01*
X197561Y244393D01*
X197619Y244415D01*
X197679Y244429D01*
X197699Y244446D01*
X197723Y244455D01*
X197765Y244500D01*
X197812Y244539D01*
X197823Y244563D01*
X197840Y244582D01*
X197858Y244641D01*
X197883Y244698D01*
X197882Y244723D01*
X197890Y244748D01*
X197879Y244809D01*
X197877Y244871D01*
X197864Y244893D01*
X197860Y244919D01*
X197812Y244990D01*
X197794Y245023D01*
X197786Y245029D01*
X197779Y245039D01*
X197679Y245139D01*
X197659Y245151D01*
X197638Y245174D01*
X197238Y245474D01*
X197212Y245486D01*
X197180Y245510D01*
X195780Y246210D01*
X195768Y246213D01*
X195759Y246219D01*
X195730Y246225D01*
X195693Y246241D01*
X194793Y246441D01*
X194759Y246441D01*
X194710Y246450D01*
X193710Y246450D01*
X193682Y246444D01*
X193642Y246444D01*
X192542Y246244D01*
X192507Y246229D01*
X192450Y246211D01*
X192435Y246207D01*
X192432Y246205D01*
X192428Y246204D01*
X191328Y245604D01*
X191308Y245586D01*
X191277Y245570D01*
X190377Y244870D01*
X190357Y244846D01*
X190288Y244772D01*
X189788Y243972D01*
X189776Y243938D01*
X189749Y243890D01*
X189449Y242990D01*
X189446Y242953D01*
X189430Y242870D01*
X189430Y242070D01*
X189437Y242037D01*
X189439Y241988D01*
X189639Y241088D01*
X189656Y241052D01*
X189678Y240985D01*
X190178Y240085D01*
X190200Y240061D01*
X190224Y240020D01*
X190924Y239220D01*
X190925Y239219D01*
X190926Y239217D01*
X191726Y238317D01*
X191734Y238312D01*
X191741Y238301D01*
X192383Y237659D01*
X192630Y237001D01*
X192630Y236432D01*
X192471Y235955D01*
X192150Y235554D01*
X191654Y235223D01*
X190963Y235050D01*
X190248Y235050D01*
X189819Y235136D01*
X189424Y235294D01*
X188906Y235812D01*
X188755Y236039D01*
X188690Y236232D01*
X188690Y236508D01*
X188742Y236665D01*
X189215Y237138D01*
X189430Y237209D01*
X189450Y237222D01*
X189480Y237230D01*
X189880Y237430D01*
X189909Y237454D01*
X189979Y237501D01*
X190079Y237601D01*
X190092Y237622D01*
X190111Y237638D01*
X190137Y237695D01*
X190170Y237748D01*
X190173Y237773D01*
X190183Y237796D01*
X190181Y237859D01*
X190187Y237921D01*
X190178Y237944D01*
X190177Y237969D01*
X190147Y238024D01*
X190125Y238083D01*
X190107Y238100D01*
X190095Y238122D01*
X190025Y238176D01*
X189998Y238200D01*
X189989Y238203D01*
X189980Y238210D01*
X189580Y238410D01*
X189565Y238414D01*
X189552Y238423D01*
X189418Y238449D01*
X189412Y238450D01*
X189411Y238450D01*
X189410Y238450D01*
X188210Y238450D01*
X188184Y238444D01*
X188148Y238445D01*
X187548Y238345D01*
X187542Y238343D01*
X187535Y238343D01*
X187035Y238243D01*
X187009Y238231D01*
X186969Y238223D01*
X186469Y238023D01*
X186438Y238001D01*
X186382Y237974D01*
X185982Y237674D01*
X185978Y237670D01*
X185972Y237667D01*
X185472Y237267D01*
X185455Y237244D01*
X185384Y237166D01*
X184784Y236166D01*
X184772Y236130D01*
X184744Y236074D01*
X184544Y235374D01*
X184543Y235349D01*
X184533Y235317D01*
X184433Y234517D01*
X184435Y234496D01*
X184430Y234470D01*
X184430Y220770D01*
X184436Y220745D01*
X184433Y220719D01*
X184455Y220662D01*
X184469Y220601D01*
X184486Y220581D01*
X184495Y220557D01*
X184540Y220515D01*
X184579Y220468D01*
X184603Y220457D01*
X184622Y220440D01*
X184681Y220422D01*
X184738Y220397D01*
X184763Y220398D01*
X184788Y220390D01*
X184849Y220401D01*
G37*
%LPC*%
G36*
X23454Y77749D02*
X23454Y77749D01*
X20955Y77749D01*
X20941Y77803D01*
X20939Y77805D01*
X20939Y77808D01*
X17625Y86967D01*
X17724Y86968D01*
X20599Y86968D01*
X20652Y86769D01*
X20653Y86768D01*
X20653Y86767D01*
X22448Y80701D01*
X22458Y80694D01*
X22458Y80688D01*
X22464Y80685D01*
X22468Y80672D01*
X22486Y80669D01*
X22500Y80657D01*
X22517Y80665D01*
X22535Y80662D01*
X22551Y80681D01*
X22562Y80686D01*
X22563Y80695D01*
X22569Y80702D01*
X24334Y86797D01*
X24383Y86968D01*
X27229Y86957D01*
X29047Y80734D01*
X29059Y80723D01*
X29062Y80708D01*
X29083Y80703D01*
X29099Y80689D01*
X29113Y80696D01*
X29128Y80692D01*
X29150Y80713D01*
X29160Y80718D01*
X29161Y80724D01*
X29166Y80728D01*
X29264Y80973D01*
X29264Y80976D01*
X29266Y80979D01*
X30912Y86557D01*
X31036Y86968D01*
X33685Y86968D01*
X33874Y86971D01*
X33909Y86971D01*
X30586Y77907D01*
X30522Y77749D01*
X27585Y77749D01*
X27468Y78106D01*
X25910Y83159D01*
X25909Y83160D01*
X25909Y83163D01*
X25803Y83440D01*
X25790Y83449D01*
X25786Y83464D01*
X25765Y83468D01*
X25748Y83480D01*
X25735Y83472D01*
X25719Y83475D01*
X25699Y83453D01*
X25689Y83447D01*
X25689Y83441D01*
X25685Y83436D01*
X23918Y77749D01*
X23454Y77749D01*
G37*
%LPD*%
G36*
X47090Y176072D02*
X47090Y176072D01*
X47102Y176066D01*
X47502Y176266D01*
X47511Y176284D01*
X47523Y176286D01*
X47923Y176986D01*
X47922Y176994D01*
X47927Y176996D01*
X48127Y177696D01*
X48117Y177724D01*
X48121Y177737D01*
X47721Y178337D01*
X47700Y178345D01*
X47696Y178357D01*
X43307Y179853D01*
X43171Y179988D01*
X46996Y181263D01*
X46999Y181268D01*
X47002Y181266D01*
X47602Y181566D01*
X47609Y181579D01*
X47618Y181579D01*
X48018Y182079D01*
X48019Y182100D01*
X48026Y182105D01*
X48022Y182110D01*
X48029Y182117D01*
X47929Y182817D01*
X47921Y182825D01*
X47924Y182832D01*
X47624Y183432D01*
X47603Y183443D01*
X47599Y183455D01*
X46899Y183755D01*
X46897Y183755D01*
X46896Y183757D01*
X43171Y185031D01*
X43306Y185167D01*
X47194Y186363D01*
X47198Y186368D01*
X47202Y186366D01*
X47802Y186666D01*
X47812Y186686D01*
X47824Y186688D01*
X48124Y187288D01*
X48119Y187313D01*
X48127Y187324D01*
X47927Y188024D01*
X47919Y188030D01*
X47921Y188037D01*
X47521Y188637D01*
X47496Y188646D01*
X47490Y188658D01*
X46990Y188758D01*
X46979Y188753D01*
X46973Y188759D01*
X46273Y188659D01*
X46268Y188654D01*
X46264Y188656D01*
X39164Y186156D01*
X39157Y186147D01*
X39149Y186148D01*
X38649Y185748D01*
X38645Y185733D01*
X38637Y185727D01*
X38633Y185726D01*
X38433Y185126D01*
X38438Y185110D01*
X38431Y185103D01*
X38531Y184403D01*
X38552Y184383D01*
X38553Y184369D01*
X39153Y183969D01*
X39162Y183970D01*
X39164Y183963D01*
X41463Y183164D01*
X43434Y182413D01*
X39664Y181157D01*
X39064Y180957D01*
X39055Y180943D01*
X39045Y180945D01*
X38545Y180445D01*
X38542Y180424D01*
X38531Y180418D01*
X38431Y179818D01*
X38441Y179801D01*
X38435Y179791D01*
X38735Y179091D01*
X38753Y179080D01*
X38755Y179068D01*
X39255Y178768D01*
X39262Y178769D01*
X39264Y178764D01*
X46364Y176264D01*
X46366Y176264D01*
X46366Y176263D01*
X47066Y176063D01*
X47090Y176072D01*
G37*
%LPC*%
G36*
X186130Y25685D02*
X186130Y25685D01*
X185849Y26154D01*
X185849Y31537D01*
X185947Y32220D01*
X186329Y32698D01*
X186916Y32893D01*
X186942Y32932D01*
X186947Y32936D01*
X186946Y32938D01*
X186949Y32940D01*
X186949Y34740D01*
X186913Y34787D01*
X186910Y34785D01*
X186908Y34789D01*
X186320Y34887D01*
X185946Y35167D01*
X185850Y35940D01*
X185946Y36713D01*
X186316Y36991D01*
X194491Y36991D01*
X194966Y36800D01*
X195251Y36326D01*
X195251Y35454D01*
X194967Y34981D01*
X194392Y34789D01*
X187000Y34789D01*
X186953Y34753D01*
X186958Y34746D01*
X186951Y34740D01*
X186951Y32940D01*
X186987Y32893D01*
X186990Y32895D01*
X186992Y32891D01*
X187582Y32793D01*
X188171Y32400D01*
X188663Y32006D01*
X189058Y31414D01*
X190058Y29715D01*
X190060Y29714D01*
X190059Y29713D01*
X190459Y29113D01*
X190466Y29110D01*
X190465Y29105D01*
X190965Y28605D01*
X190977Y28604D01*
X190978Y28596D01*
X191578Y28296D01*
X191589Y28298D01*
X191592Y28291D01*
X192192Y28191D01*
X192215Y28203D01*
X192227Y28199D01*
X192827Y28599D01*
X192832Y28614D01*
X192842Y28615D01*
X193142Y29115D01*
X193140Y29133D01*
X193149Y29140D01*
X193149Y29840D01*
X193135Y29859D01*
X193138Y29872D01*
X192638Y30472D01*
X192619Y30476D01*
X192616Y30487D01*
X192016Y30687D01*
X192008Y30684D01*
X192004Y30684D01*
X192000Y30689D01*
X191320Y30689D01*
X190946Y31063D01*
X190850Y31740D01*
X190946Y32513D01*
X191320Y32793D01*
X192000Y32890D01*
X192689Y32792D01*
X193281Y32594D01*
X193873Y32298D01*
X194367Y31903D01*
X194859Y31411D01*
X195154Y30821D01*
X195351Y30232D01*
X195351Y28748D01*
X195154Y28159D01*
X194858Y27567D01*
X194463Y27073D01*
X193971Y26581D01*
X193381Y26286D01*
X192789Y26088D01*
X192097Y25989D01*
X191407Y25989D01*
X190718Y26186D01*
X190127Y26482D01*
X189635Y26875D01*
X189138Y27471D01*
X188742Y27967D01*
X188444Y28562D01*
X188441Y28563D01*
X188442Y28565D01*
X188142Y29065D01*
X188125Y29072D01*
X188113Y29087D01*
X188104Y29081D01*
X188087Y29088D01*
X188075Y29059D01*
X188051Y29040D01*
X188051Y26643D01*
X187955Y25970D01*
X187483Y25687D01*
X186800Y25590D01*
X186130Y25685D01*
G37*
%LPD*%
G36*
X40194Y166463D02*
X40194Y166463D01*
X40200Y166472D01*
X40207Y166469D01*
X40503Y166666D01*
X41794Y167163D01*
X42267Y167257D01*
X42749Y166872D01*
X42757Y166871D01*
X42758Y166866D01*
X43358Y166566D01*
X43365Y166567D01*
X43366Y166563D01*
X44066Y166363D01*
X44076Y166366D01*
X44080Y166361D01*
X44780Y166361D01*
X44784Y166364D01*
X44787Y166361D01*
X45487Y166461D01*
X45492Y166466D01*
X45496Y166463D01*
X46096Y166663D01*
X46101Y166671D01*
X46107Y166669D01*
X46707Y167069D01*
X46710Y167076D01*
X46715Y167075D01*
X47115Y167475D01*
X47123Y167534D01*
X47114Y167535D01*
X47115Y167545D01*
X46630Y168029D01*
X47147Y167573D01*
X47207Y167569D01*
X47208Y167580D01*
X47218Y167579D01*
X47618Y168079D01*
X47619Y168089D01*
X47625Y168091D01*
X47925Y168791D01*
X47923Y168799D01*
X47929Y168802D01*
X48129Y170002D01*
X48126Y170007D01*
X48129Y170010D01*
X48129Y172810D01*
X48123Y172818D01*
X48127Y172824D01*
X47927Y173524D01*
X47907Y173539D01*
X47905Y173552D01*
X47405Y173852D01*
X47387Y173850D01*
X47380Y173859D01*
X39880Y173859D01*
X39876Y173856D01*
X39873Y173859D01*
X39173Y173759D01*
X39167Y173753D01*
X39162Y173756D01*
X38662Y173556D01*
X38645Y173528D01*
X38633Y173524D01*
X38433Y172824D01*
X38438Y172810D01*
X38431Y172804D01*
X38531Y172004D01*
X38547Y171988D01*
X38545Y171975D01*
X38945Y171575D01*
X38966Y171572D01*
X38972Y171561D01*
X39572Y171461D01*
X39577Y171464D01*
X39580Y171461D01*
X40947Y171461D01*
X41131Y171001D01*
X41131Y169637D01*
X40357Y169154D01*
X38760Y168455D01*
X38750Y168437D01*
X38738Y168435D01*
X38438Y167935D01*
X38440Y167911D01*
X38431Y167902D01*
X38531Y167302D01*
X38541Y167293D01*
X38537Y167286D01*
X38937Y166586D01*
X38953Y166579D01*
X38955Y166568D01*
X39455Y166268D01*
X39483Y166271D01*
X39494Y166263D01*
X40194Y166463D01*
G37*
%LPC*%
G36*
X136149Y35570D02*
X136149Y35570D01*
X136113Y35617D01*
X136110Y35615D01*
X136108Y35619D01*
X135524Y35716D01*
X135147Y36093D01*
X135049Y36873D01*
X135049Y37450D01*
X135632Y38033D01*
X140430Y41631D01*
X140434Y41647D01*
X140447Y41657D01*
X140440Y41667D01*
X140446Y41688D01*
X140418Y41696D01*
X140400Y41719D01*
X135714Y41719D01*
X135241Y42003D01*
X135049Y42578D01*
X135049Y43450D01*
X135424Y43824D01*
X136004Y43921D01*
X143496Y43921D01*
X144071Y43825D01*
X144451Y43255D01*
X144451Y42578D01*
X144258Y41999D01*
X143669Y41509D01*
X139970Y38709D01*
X139170Y38109D01*
X139169Y38104D01*
X139165Y38105D01*
X138965Y37905D01*
X138963Y37891D01*
X138953Y37883D01*
X138961Y37873D01*
X138957Y37846D01*
X138984Y37842D01*
X139000Y37821D01*
X143780Y37821D01*
X144451Y37150D01*
X144451Y36384D01*
X144166Y35910D01*
X143688Y35718D01*
X142897Y35619D01*
X136200Y35619D01*
X136153Y35583D01*
X136157Y35577D01*
X136151Y35572D01*
X136149Y35541D01*
X136149Y35570D01*
G37*
%LPD*%
%LPC*%
G36*
X159809Y36579D02*
X159809Y36579D01*
X159334Y36770D01*
X159049Y37244D01*
X159049Y38121D01*
X159241Y38599D01*
X164330Y42491D01*
X164346Y42548D01*
X164333Y42552D01*
X164335Y42565D01*
X164235Y42665D01*
X164208Y42669D01*
X164200Y42679D01*
X160104Y42679D01*
X159520Y42777D01*
X159147Y43057D01*
X159050Y43926D01*
X159241Y44593D01*
X159709Y44781D01*
X167886Y44781D01*
X168358Y44498D01*
X168550Y43827D01*
X168453Y43150D01*
X168165Y42765D01*
X167370Y42169D01*
X164771Y40170D01*
X163072Y38970D01*
X163069Y38961D01*
X163059Y38958D01*
X163064Y38945D01*
X163054Y38914D01*
X163077Y38906D01*
X163084Y38883D01*
X163384Y38783D01*
X163395Y38787D01*
X163400Y38781D01*
X167496Y38781D01*
X168076Y38684D01*
X168356Y38404D01*
X168550Y37727D01*
X168454Y37056D01*
X167980Y36677D01*
X167297Y36579D01*
X159809Y36579D01*
G37*
%LPD*%
G36*
X45393Y190370D02*
X45393Y190370D01*
X45402Y190366D01*
X46202Y190766D01*
X46205Y190773D01*
X46211Y190772D01*
X46711Y191172D01*
X46712Y191176D01*
X46715Y191175D01*
X47215Y191675D01*
X47216Y191682D01*
X47221Y191683D01*
X47621Y192283D01*
X47621Y192287D01*
X47624Y192288D01*
X47924Y192888D01*
X47922Y192899D01*
X47929Y192903D01*
X48029Y193603D01*
X48026Y193608D01*
X48029Y193610D01*
X48029Y197010D01*
X48022Y197019D01*
X48027Y197026D01*
X47827Y197626D01*
X47802Y197643D01*
X47798Y197656D01*
X47298Y197856D01*
X47285Y197852D01*
X47280Y197859D01*
X39080Y197859D01*
X39067Y197850D01*
X39058Y197854D01*
X38658Y197654D01*
X38645Y197628D01*
X38633Y197624D01*
X38433Y196924D01*
X38436Y196914D01*
X38431Y196910D01*
X38431Y196010D01*
X38447Y195989D01*
X38445Y195975D01*
X38845Y195575D01*
X38866Y195572D01*
X38872Y195561D01*
X39472Y195461D01*
X39477Y195464D01*
X39480Y195461D01*
X40850Y195461D01*
X41031Y195098D01*
X41031Y193710D01*
X41034Y193705D01*
X41031Y193702D01*
X41131Y193102D01*
X41136Y193098D01*
X41133Y193094D01*
X41333Y192494D01*
X41341Y192489D01*
X41339Y192483D01*
X42139Y191283D01*
X42149Y191279D01*
X42149Y191272D01*
X42649Y190872D01*
X42659Y190871D01*
X42661Y190865D01*
X43361Y190565D01*
X43369Y190567D01*
X43372Y190561D01*
X43972Y190461D01*
X43973Y190462D01*
X43973Y190461D01*
X44673Y190361D01*
X44678Y190364D01*
X44680Y190361D01*
X45380Y190361D01*
X45393Y190370D01*
G37*
%LPC*%
G36*
X138807Y25419D02*
X138807Y25419D01*
X138118Y25616D01*
X137523Y25913D01*
X137029Y26210D01*
X136435Y26705D01*
X136040Y27199D01*
X135643Y27795D01*
X135346Y28389D01*
X135148Y28981D01*
X135049Y29673D01*
X135049Y32367D01*
X135147Y33051D01*
X135427Y33424D01*
X136103Y33521D01*
X142373Y33521D01*
X141861Y31319D01*
X137900Y31319D01*
X137895Y31316D01*
X137892Y31319D01*
X137292Y31219D01*
X137251Y31175D01*
X137254Y31173D01*
X137251Y31170D01*
X137251Y29170D01*
X137260Y29157D01*
X137256Y29148D01*
X137356Y28948D01*
X137366Y28943D01*
X137365Y28935D01*
X138365Y27935D01*
X138377Y27934D01*
X138378Y27926D01*
X138978Y27626D01*
X138989Y27628D01*
X138993Y27621D01*
X139693Y27521D01*
X139702Y27526D01*
X139707Y27521D01*
X140407Y27621D01*
X140415Y27629D01*
X140422Y27626D01*
X141022Y27926D01*
X141025Y27933D01*
X141031Y27932D01*
X141531Y28332D01*
X141533Y28339D01*
X141538Y28339D01*
X141938Y28839D01*
X141939Y28847D01*
X141944Y28848D01*
X142244Y29448D01*
X142241Y29464D01*
X142249Y29470D01*
X142249Y30870D01*
X142236Y30888D01*
X142239Y30900D01*
X141953Y31281D01*
X142474Y33521D01*
X143596Y33521D01*
X144170Y33425D01*
X144451Y32956D01*
X144451Y29674D01*
X144352Y29081D01*
X144154Y28388D01*
X143857Y27793D01*
X143560Y27299D01*
X143065Y26705D01*
X142569Y26308D01*
X142073Y25912D01*
X141482Y25616D01*
X140793Y25419D01*
X138807Y25419D01*
G37*
%LPD*%
%LPC*%
G36*
X190649Y48743D02*
X190649Y48743D01*
X190610Y48788D01*
X190605Y48783D01*
X190600Y48789D01*
X187320Y48789D01*
X186441Y49669D01*
X186146Y50259D01*
X185948Y50851D01*
X185849Y51643D01*
X185849Y53033D01*
X186047Y53725D01*
X186245Y54319D01*
X186540Y54811D01*
X187037Y55407D01*
X187533Y55903D01*
X188027Y56298D01*
X188619Y56594D01*
X189215Y56793D01*
X189910Y56992D01*
X190600Y57090D01*
X191292Y56991D01*
X191889Y56892D01*
X192582Y56694D01*
X193173Y56398D01*
X193669Y56002D01*
X194165Y55605D01*
X194660Y55011D01*
X194957Y54517D01*
X195254Y53922D01*
X195452Y53229D01*
X195551Y52636D01*
X195551Y51943D01*
X195452Y51251D01*
X195254Y50659D01*
X194957Y50065D01*
X194562Y49471D01*
X194087Y48996D01*
X193524Y49184D01*
X192938Y49673D01*
X192655Y50144D01*
X192845Y50621D01*
X193145Y51321D01*
X193145Y51324D01*
X193147Y51324D01*
X193347Y51924D01*
X193342Y51939D01*
X193349Y51946D01*
X193249Y52746D01*
X193248Y52747D01*
X193249Y52748D01*
X193149Y53348D01*
X193138Y53358D01*
X193141Y53367D01*
X192741Y53967D01*
X192731Y53971D01*
X192731Y53978D01*
X192231Y54378D01*
X192226Y54379D01*
X192225Y54382D01*
X191725Y54682D01*
X191711Y54681D01*
X191707Y54689D01*
X191007Y54789D01*
X191002Y54786D01*
X191000Y54789D01*
X190300Y54789D01*
X190292Y54783D01*
X190286Y54787D01*
X189586Y54587D01*
X189581Y54580D01*
X189575Y54582D01*
X189075Y54282D01*
X189071Y54274D01*
X189065Y54275D01*
X188565Y53775D01*
X188564Y53768D01*
X188559Y53767D01*
X188159Y53167D01*
X188160Y53160D01*
X188154Y53155D01*
X188157Y53151D01*
X188151Y53148D01*
X188051Y52548D01*
X188054Y52543D01*
X188051Y52540D01*
X188051Y51840D01*
X188057Y51832D01*
X188053Y51826D01*
X188253Y51126D01*
X188285Y51102D01*
X188290Y51092D01*
X188790Y50992D01*
X188797Y50995D01*
X188800Y50991D01*
X189500Y50991D01*
X189526Y51010D01*
X189539Y51010D01*
X189839Y51410D01*
X189839Y51432D01*
X189849Y51440D01*
X189849Y52132D01*
X190037Y52696D01*
X190601Y52790D01*
X191270Y52695D01*
X191552Y52224D01*
X191651Y51437D01*
X191651Y50143D01*
X191552Y49356D01*
X191270Y48885D01*
X190692Y48789D01*
X190651Y48745D01*
X190655Y48741D01*
X190651Y48738D01*
X190653Y48679D01*
X190649Y48743D01*
G37*
%LPD*%
%LPC*%
G36*
X136908Y46219D02*
X136908Y46219D01*
X136327Y46413D01*
X135839Y46901D01*
X135543Y47393D01*
X135247Y47985D01*
X135149Y48577D01*
X135049Y49373D01*
X135049Y50067D01*
X135149Y50762D01*
X135247Y51355D01*
X135543Y51945D01*
X135938Y52539D01*
X136933Y53533D01*
X137427Y53928D01*
X138018Y54224D01*
X138711Y54422D01*
X139304Y54521D01*
X139997Y54521D01*
X141389Y54322D01*
X141978Y54125D01*
X142571Y53730D01*
X143067Y53333D01*
X143563Y52837D01*
X143958Y52343D01*
X144256Y51748D01*
X144552Y51155D01*
X144651Y50463D01*
X144652Y50462D01*
X144651Y50462D01*
X144750Y49869D01*
X144651Y49177D01*
X144552Y48481D01*
X144354Y47889D01*
X144057Y47295D01*
X143668Y46711D01*
X143104Y46523D01*
X142527Y46812D01*
X141945Y47297D01*
X141851Y47764D01*
X142445Y49049D01*
X142443Y49059D01*
X142449Y49062D01*
X142549Y49662D01*
X142543Y49672D01*
X142549Y49677D01*
X142449Y50377D01*
X142445Y50381D01*
X142447Y50384D01*
X142247Y51084D01*
X142236Y51092D01*
X142238Y51101D01*
X141838Y51601D01*
X141831Y51603D01*
X141831Y51608D01*
X141331Y52008D01*
X141317Y52009D01*
X141314Y52017D01*
X140614Y52217D01*
X140609Y52216D01*
X140607Y52219D01*
X139907Y52319D01*
X139898Y52314D01*
X139893Y52319D01*
X139193Y52219D01*
X139188Y52214D01*
X139184Y52217D01*
X138584Y52017D01*
X138577Y52006D01*
X138569Y52008D01*
X138069Y51608D01*
X138067Y51601D01*
X138062Y51602D01*
X137562Y51002D01*
X137562Y50988D01*
X137553Y50986D01*
X137353Y50386D01*
X137355Y50381D01*
X137353Y50379D01*
X137351Y50378D01*
X137251Y49778D01*
X137254Y49773D01*
X137251Y49770D01*
X137251Y49070D01*
X137260Y49057D01*
X137256Y49048D01*
X137556Y48448D01*
X137593Y48430D01*
X137600Y48421D01*
X138900Y48421D01*
X138947Y48457D01*
X138943Y48463D01*
X138949Y48467D01*
X139048Y49848D01*
X139420Y50221D01*
X140092Y50221D01*
X140661Y50031D01*
X140851Y49462D01*
X140851Y47277D01*
X140657Y46600D01*
X140281Y46317D01*
X139597Y46219D01*
X136908Y46219D01*
G37*
%LPD*%
%LPC*%
G36*
X212817Y46117D02*
X212817Y46117D01*
X212333Y46408D01*
X211940Y46898D01*
X211644Y47392D01*
X211348Y48084D01*
X211249Y48773D01*
X211249Y50167D01*
X211348Y50859D01*
X211545Y51448D01*
X211940Y52041D01*
X212337Y52537D01*
X213329Y53529D01*
X214515Y54123D01*
X215108Y54221D01*
X215803Y54321D01*
X216497Y54321D01*
X217192Y54221D01*
X217785Y54123D01*
X218375Y53827D01*
X218971Y53430D01*
X219467Y53033D01*
X219965Y52535D01*
X219996Y52531D01*
X219968Y52508D01*
X219955Y52449D01*
X219959Y52449D01*
X219958Y52445D01*
X220257Y51947D01*
X220554Y51351D01*
X220753Y50755D01*
X220951Y50063D01*
X220951Y49374D01*
X220851Y48778D01*
X220852Y48777D01*
X220851Y48777D01*
X220752Y48085D01*
X220457Y47495D01*
X220060Y46899D01*
X219676Y46419D01*
X219113Y46419D01*
X218433Y46808D01*
X218053Y47283D01*
X218147Y47755D01*
X218445Y48451D01*
X218445Y48454D01*
X218447Y48454D01*
X218647Y49054D01*
X218645Y49061D01*
X218649Y49063D01*
X218749Y49763D01*
X218742Y49776D01*
X218747Y49784D01*
X218547Y50484D01*
X218542Y50488D01*
X218544Y50492D01*
X218244Y51092D01*
X218237Y51095D01*
X218238Y51101D01*
X217838Y51601D01*
X217824Y51604D01*
X217822Y51614D01*
X217222Y51914D01*
X217217Y51913D01*
X217216Y51917D01*
X216616Y52117D01*
X216605Y52113D01*
X216600Y52119D01*
X215900Y52119D01*
X215896Y52116D01*
X215893Y52119D01*
X215193Y52019D01*
X215185Y52011D01*
X215178Y52014D01*
X214578Y51714D01*
X214573Y51704D01*
X214565Y51705D01*
X214065Y51205D01*
X214064Y51198D01*
X214059Y51197D01*
X213659Y50597D01*
X213660Y50588D01*
X213653Y50586D01*
X213453Y49986D01*
X213457Y49975D01*
X213451Y49970D01*
X213451Y49270D01*
X213454Y49265D01*
X213451Y49262D01*
X213551Y48662D01*
X213567Y48647D01*
X213565Y48635D01*
X213965Y48235D01*
X213992Y48232D01*
X214000Y48221D01*
X214700Y48221D01*
X214715Y48232D01*
X214725Y48228D01*
X215225Y48528D01*
X215239Y48562D01*
X215249Y48570D01*
X215249Y49840D01*
X215808Y50119D01*
X216483Y50023D01*
X216954Y49740D01*
X217051Y48869D01*
X216951Y46879D01*
X216761Y46309D01*
X216191Y46119D01*
X213503Y46019D01*
X212817Y46117D01*
G37*
%LPD*%
%LPC*%
G36*
X238507Y48689D02*
X238507Y48689D01*
X237829Y48883D01*
X237440Y49368D01*
X237143Y49863D01*
X236847Y50455D01*
X236749Y51047D01*
X236649Y51843D01*
X236649Y52537D01*
X236748Y53229D01*
X236947Y53824D01*
X237145Y54418D01*
X237538Y55009D01*
X238531Y56002D01*
X239123Y56396D01*
X239616Y56593D01*
X240314Y56793D01*
X240315Y56794D01*
X240316Y56793D01*
X240908Y56991D01*
X241697Y56991D01*
X242392Y56891D01*
X242985Y56793D01*
X244173Y56198D01*
X244667Y55803D01*
X245162Y55309D01*
X245558Y54714D01*
X245856Y54218D01*
X246152Y53526D01*
X246251Y52932D01*
X246350Y52240D01*
X246251Y51548D01*
X246152Y50952D01*
X245954Y50359D01*
X245659Y49767D01*
X245170Y49181D01*
X244701Y48993D01*
X244028Y49282D01*
X243545Y49764D01*
X243451Y50235D01*
X243745Y50919D01*
X244044Y51518D01*
X244042Y51529D01*
X244049Y51533D01*
X244149Y52233D01*
X244144Y52242D01*
X244149Y52247D01*
X244049Y52947D01*
X244041Y52955D01*
X244044Y52962D01*
X243744Y53562D01*
X243737Y53565D01*
X243738Y53571D01*
X243338Y54071D01*
X243331Y54073D01*
X243331Y54078D01*
X242831Y54478D01*
X242818Y54479D01*
X242816Y54487D01*
X242216Y54687D01*
X242209Y54685D01*
X242207Y54689D01*
X241507Y54789D01*
X241498Y54784D01*
X241493Y54789D01*
X240793Y54689D01*
X240785Y54681D01*
X240778Y54684D01*
X240178Y54384D01*
X240176Y54380D01*
X240173Y54381D01*
X239573Y53981D01*
X239568Y53968D01*
X239559Y53967D01*
X239159Y53367D01*
X239159Y53363D01*
X239156Y53362D01*
X238856Y52762D01*
X238859Y52746D01*
X238851Y52740D01*
X238851Y52140D01*
X238854Y52136D01*
X238851Y52133D01*
X238951Y51433D01*
X238957Y51427D01*
X238954Y51422D01*
X239154Y50922D01*
X239195Y50897D01*
X239200Y50891D01*
X240600Y50891D01*
X240647Y50927D01*
X240642Y50934D01*
X240649Y50940D01*
X240649Y52320D01*
X241020Y52691D01*
X241786Y52691D01*
X242259Y52407D01*
X242451Y51832D01*
X242451Y49747D01*
X242257Y49070D01*
X241881Y48787D01*
X241197Y48689D01*
X238507Y48689D01*
G37*
%LPD*%
%LPC*%
G36*
X112110Y24748D02*
X112110Y24748D01*
X111420Y24946D01*
X110931Y25239D01*
X110438Y25731D01*
X110045Y26322D01*
X109847Y26916D01*
X109649Y27508D01*
X109649Y28992D01*
X109847Y29584D01*
X110045Y30178D01*
X110438Y30769D01*
X110831Y31162D01*
X111421Y31555D01*
X112111Y31752D01*
X112683Y31847D01*
X113056Y31474D01*
X113250Y30796D01*
X113153Y30023D01*
X112771Y29641D01*
X112178Y29344D01*
X112170Y29328D01*
X112159Y29327D01*
X111759Y28727D01*
X111759Y28723D01*
X111760Y28707D01*
X111751Y28700D01*
X111751Y28000D01*
X111758Y27991D01*
X111753Y27984D01*
X111953Y27384D01*
X111967Y27375D01*
X111965Y27365D01*
X112465Y26865D01*
X112507Y26860D01*
X112516Y26853D01*
X113116Y27053D01*
X113127Y27070D01*
X113138Y27069D01*
X113538Y27569D01*
X113539Y27588D01*
X113549Y27594D01*
X113649Y28392D01*
X113744Y28869D01*
X114216Y29152D01*
X115091Y29249D01*
X115656Y28967D01*
X115751Y28492D01*
X115851Y27694D01*
X115861Y27683D01*
X115858Y27675D01*
X116158Y27175D01*
X116202Y27157D01*
X116208Y27151D01*
X116808Y27251D01*
X116829Y27273D01*
X116842Y27275D01*
X117142Y27775D01*
X117140Y27793D01*
X117149Y27800D01*
X117149Y28500D01*
X117137Y28516D01*
X117141Y28527D01*
X116741Y29127D01*
X116731Y29131D01*
X116731Y29138D01*
X116238Y29533D01*
X115952Y30010D01*
X116047Y30583D01*
X116433Y31259D01*
X117000Y31448D01*
X117578Y31255D01*
X118169Y30862D01*
X118661Y30370D01*
X118956Y29878D01*
X119252Y29186D01*
X119351Y28596D01*
X119351Y26720D01*
X118367Y25737D01*
X117873Y25342D01*
X117282Y25046D01*
X116597Y24850D01*
X115911Y24948D01*
X115329Y25142D01*
X114938Y25631D01*
X114908Y25638D01*
X114900Y25649D01*
X114500Y25649D01*
X114479Y25633D01*
X114465Y25635D01*
X113969Y25138D01*
X113382Y24747D01*
X112799Y24650D01*
X112110Y24748D01*
G37*
%LPD*%
%LPC*%
G36*
X112403Y45749D02*
X112403Y45749D01*
X111715Y45848D01*
X111129Y46141D01*
X110637Y46633D01*
X110240Y47128D01*
X109946Y47620D01*
X109748Y48310D01*
X109649Y49003D01*
X109649Y49697D01*
X109748Y50389D01*
X109946Y50981D01*
X110242Y51573D01*
X110635Y52065D01*
X111126Y52457D01*
X111814Y52752D01*
X112400Y52850D01*
X112963Y52756D01*
X113152Y52189D01*
X113249Y51411D01*
X112963Y50935D01*
X112373Y50541D01*
X112370Y50534D01*
X112365Y50535D01*
X111965Y50135D01*
X111963Y50117D01*
X111953Y50114D01*
X111753Y49414D01*
X111754Y49409D01*
X111753Y49408D01*
X111756Y49404D01*
X111758Y49400D01*
X111751Y49393D01*
X111851Y48693D01*
X111861Y48683D01*
X111858Y48675D01*
X112158Y48175D01*
X112180Y48166D01*
X112184Y48153D01*
X112784Y47953D01*
X112815Y47963D01*
X112827Y47959D01*
X113427Y48359D01*
X113435Y48382D01*
X113447Y48386D01*
X113647Y49086D01*
X113644Y49096D01*
X113649Y49100D01*
X113649Y49686D01*
X113932Y50158D01*
X114602Y50349D01*
X115475Y50155D01*
X115754Y49877D01*
X115851Y49193D01*
X115951Y48394D01*
X115979Y48366D01*
X115982Y48354D01*
X116482Y48154D01*
X116515Y48164D01*
X116516Y48164D01*
X116519Y48165D01*
X116531Y48162D01*
X117031Y48562D01*
X117037Y48585D01*
X117045Y48591D01*
X117049Y48593D01*
X117149Y49293D01*
X117143Y49303D01*
X117149Y49308D01*
X117049Y49908D01*
X117033Y49923D01*
X117035Y49935D01*
X116535Y50435D01*
X116528Y50436D01*
X116527Y50441D01*
X115949Y50826D01*
X115949Y51390D01*
X116240Y52069D01*
X116717Y52451D01*
X117288Y52451D01*
X117873Y52159D01*
X118465Y51665D01*
X118858Y51173D01*
X119152Y50585D01*
X119251Y49893D01*
X119351Y49197D01*
X119351Y47916D01*
X119063Y47532D01*
X118069Y46538D01*
X117478Y46145D01*
X116892Y45949D01*
X116303Y45949D01*
X115620Y46047D01*
X115135Y46435D01*
X114738Y46931D01*
X114681Y46945D01*
X114677Y46931D01*
X114662Y46932D01*
X114165Y46335D01*
X113676Y45944D01*
X113092Y45749D01*
X112403Y45749D01*
G37*
%LPD*%
%LPC*%
G36*
X61211Y44948D02*
X61211Y44948D01*
X60619Y45146D01*
X60029Y45441D01*
X59541Y45929D01*
X58947Y47115D01*
X58849Y47704D01*
X58849Y49093D01*
X59046Y49782D01*
X59342Y50373D01*
X59837Y50967D01*
X60232Y51363D01*
X60616Y51651D01*
X61183Y51651D01*
X61663Y51266D01*
X62051Y50685D01*
X62051Y50216D01*
X61161Y49030D01*
X61161Y49023D01*
X61156Y49022D01*
X60856Y48422D01*
X60860Y48398D01*
X60852Y48388D01*
X61052Y47588D01*
X61067Y47576D01*
X61065Y47565D01*
X61465Y47165D01*
X61492Y47162D01*
X61500Y47151D01*
X62100Y47151D01*
X62125Y47170D01*
X62138Y47169D01*
X62538Y47669D01*
X62539Y47682D01*
X62547Y47684D01*
X62747Y48284D01*
X62745Y48291D01*
X62749Y48293D01*
X62848Y48987D01*
X63145Y49681D01*
X63145Y49684D01*
X63147Y49684D01*
X63344Y50276D01*
X63735Y50765D01*
X64226Y51157D01*
X64914Y51452D01*
X65504Y51551D01*
X66193Y51551D01*
X66877Y51355D01*
X67369Y50962D01*
X67863Y50566D01*
X68255Y49978D01*
X68452Y49389D01*
X68551Y48697D01*
X68551Y48003D01*
X68452Y47314D01*
X68156Y46622D01*
X67860Y46129D01*
X67373Y45545D01*
X66910Y45452D01*
X66331Y45838D01*
X65849Y46320D01*
X65849Y46886D01*
X66542Y47974D01*
X66540Y47997D01*
X66549Y48006D01*
X66449Y48806D01*
X66433Y48822D01*
X66435Y48835D01*
X66035Y49235D01*
X66008Y49239D01*
X66000Y49249D01*
X65400Y49249D01*
X65375Y49230D01*
X65362Y49231D01*
X64962Y48731D01*
X64961Y48717D01*
X64953Y48714D01*
X64353Y46714D01*
X64156Y46124D01*
X63763Y45633D01*
X63273Y45143D01*
X62689Y44948D01*
X62000Y44850D01*
X61211Y44948D01*
G37*
%LPD*%
%LPC*%
G36*
X86800Y45319D02*
X86800Y45319D01*
X86849Y47569D01*
X86814Y47617D01*
X86810Y47614D01*
X86808Y47619D01*
X86215Y47717D01*
X85629Y48011D01*
X85137Y48503D01*
X84742Y48997D01*
X84446Y49588D01*
X84249Y50277D01*
X84249Y51567D01*
X84348Y52255D01*
X84643Y52845D01*
X85038Y53439D01*
X85532Y53933D01*
X85923Y54226D01*
X86494Y54416D01*
X86967Y54132D01*
X87451Y53552D01*
X87451Y52985D01*
X87060Y52399D01*
X86662Y51901D01*
X86661Y51895D01*
X86657Y51894D01*
X86257Y51194D01*
X86260Y51172D01*
X86258Y51170D01*
X86255Y51168D01*
X86255Y51167D01*
X86251Y51163D01*
X86351Y50463D01*
X86361Y50453D01*
X86358Y50445D01*
X86658Y49945D01*
X86686Y49933D01*
X86693Y49921D01*
X87393Y49821D01*
X87399Y49825D01*
X87405Y49825D01*
X87418Y49835D01*
X87431Y49832D01*
X87931Y50232D01*
X87935Y50247D01*
X87943Y50253D01*
X87947Y50254D01*
X88147Y50854D01*
X88145Y50860D01*
X88149Y50862D01*
X88248Y51459D01*
X88446Y52153D01*
X88744Y52848D01*
X89039Y53340D01*
X89529Y53829D01*
X90115Y54122D01*
X90803Y54221D01*
X91496Y54221D01*
X92085Y54123D01*
X92671Y53829D01*
X93163Y53337D01*
X93556Y52846D01*
X93753Y52255D01*
X93951Y51563D01*
X93951Y50873D01*
X93852Y50180D01*
X93654Y49488D01*
X93358Y48897D01*
X92967Y48408D01*
X92498Y48126D01*
X91927Y48412D01*
X91341Y48900D01*
X91153Y49369D01*
X91443Y50044D01*
X91838Y50539D01*
X91839Y50547D01*
X91842Y50550D01*
X91839Y50554D01*
X91839Y50558D01*
X91849Y50563D01*
X91949Y51263D01*
X91939Y51281D01*
X91944Y51292D01*
X91644Y51892D01*
X91613Y51907D01*
X91607Y51919D01*
X90907Y52019D01*
X90879Y52003D01*
X90865Y52005D01*
X90465Y51605D01*
X90463Y51592D01*
X90455Y51589D01*
X90155Y50889D01*
X90157Y50881D01*
X90151Y50878D01*
X90052Y50281D01*
X89853Y49585D01*
X89654Y48989D01*
X89362Y48404D01*
X88774Y48012D01*
X88283Y47717D01*
X87597Y47619D01*
X86900Y47619D01*
X86853Y47583D01*
X86858Y47576D01*
X86852Y47572D01*
X86851Y47571D01*
X86802Y45319D01*
X86800Y45319D01*
G37*
%LPD*%
%LPC*%
G36*
X88304Y37119D02*
X88304Y37119D01*
X87714Y37218D01*
X87021Y37515D01*
X86427Y37812D01*
X85931Y38208D01*
X85437Y38604D01*
X85041Y39197D01*
X84645Y39792D01*
X84447Y40386D01*
X84266Y40929D01*
X86470Y41216D01*
X86855Y40350D01*
X86866Y40344D01*
X86865Y40335D01*
X87265Y39935D01*
X87272Y39934D01*
X87273Y39929D01*
X87873Y39529D01*
X87882Y39530D01*
X87884Y39523D01*
X88484Y39323D01*
X88495Y39327D01*
X88500Y39321D01*
X89200Y39321D01*
X89204Y39324D01*
X89207Y39321D01*
X89907Y39421D01*
X89918Y39432D01*
X89927Y39429D01*
X90527Y39829D01*
X90531Y39839D01*
X90538Y39839D01*
X91338Y40839D01*
X91339Y40847D01*
X91340Y40848D01*
X91339Y40850D01*
X91339Y40858D01*
X91349Y40863D01*
X91449Y41563D01*
X91446Y41568D01*
X91449Y41570D01*
X91449Y42970D01*
X91413Y43017D01*
X91406Y43012D01*
X91400Y43019D01*
X86850Y43019D01*
X86898Y45221D01*
X93084Y45221D01*
X93457Y44941D01*
X93651Y44263D01*
X93651Y41078D01*
X93254Y39889D01*
X92957Y39295D01*
X92562Y38701D01*
X92067Y38207D01*
X91573Y37812D01*
X90978Y37514D01*
X90385Y37218D01*
X89697Y37119D01*
X88304Y37119D01*
G37*
%LPD*%
%LPC*%
G36*
X66324Y34844D02*
X66324Y34844D01*
X65741Y35330D01*
X65552Y35802D01*
X65745Y36379D01*
X66042Y36875D01*
X66041Y36884D01*
X66047Y36886D01*
X66247Y37586D01*
X66244Y37596D01*
X66249Y37600D01*
X66249Y38300D01*
X66242Y38309D01*
X66247Y38316D01*
X66047Y38916D01*
X66044Y38917D01*
X66045Y38919D01*
X65745Y39619D01*
X65731Y39628D01*
X65731Y39638D01*
X65231Y40038D01*
X65227Y40039D01*
X65227Y40041D01*
X64627Y40441D01*
X64612Y40440D01*
X64607Y40449D01*
X63907Y40549D01*
X63905Y40548D01*
X63901Y40548D01*
X63900Y40549D01*
X63200Y40549D01*
X63198Y40548D01*
X63196Y40548D01*
X63190Y40543D01*
X63184Y40547D01*
X62584Y40347D01*
X62581Y40342D01*
X62578Y40344D01*
X61978Y40044D01*
X61971Y40031D01*
X61962Y40031D01*
X61562Y39531D01*
X61561Y39525D01*
X61557Y39524D01*
X61157Y38824D01*
X61159Y38812D01*
X61151Y38808D01*
X61051Y38208D01*
X61054Y38203D01*
X61051Y38200D01*
X61051Y37500D01*
X61058Y37491D01*
X61053Y37484D01*
X61253Y36884D01*
X61258Y36881D01*
X61256Y36878D01*
X61746Y35898D01*
X61559Y35430D01*
X60976Y34944D01*
X60384Y34747D01*
X60360Y34712D01*
X60351Y34706D01*
X60348Y34680D01*
X60349Y34696D01*
X60327Y34732D01*
X60325Y34742D01*
X59833Y35038D01*
X59440Y35528D01*
X59146Y36019D01*
X58948Y36810D01*
X58849Y37503D01*
X58849Y38097D01*
X58949Y38793D01*
X59048Y39485D01*
X59344Y40078D01*
X59642Y40673D01*
X60037Y41167D01*
X60531Y41662D01*
X61125Y42057D01*
X61719Y42354D01*
X62916Y42753D01*
X62949Y42802D01*
X62948Y42803D01*
X62949Y42805D01*
X62948Y42816D01*
X62951Y42793D01*
X62994Y42751D01*
X62997Y42755D01*
X63000Y42751D01*
X64392Y42751D01*
X64984Y42553D01*
X65582Y42354D01*
X66274Y42057D01*
X66767Y41663D01*
X67263Y41167D01*
X67658Y40673D01*
X67955Y40079D01*
X68252Y39386D01*
X68351Y38792D01*
X68451Y38097D01*
X68451Y37503D01*
X68352Y36810D01*
X68154Y36118D01*
X67858Y35527D01*
X67465Y35035D01*
X66989Y34654D01*
X66324Y34844D01*
G37*
%LPD*%
%LPC*%
G36*
X117907Y34149D02*
X117907Y34149D01*
X117218Y34346D01*
X110525Y37643D01*
X109937Y38035D01*
X109649Y38514D01*
X109649Y39188D01*
X109937Y39763D01*
X110522Y40056D01*
X117222Y43356D01*
X117822Y43656D01*
X117845Y43702D01*
X117855Y43680D01*
X117894Y43659D01*
X117900Y43651D01*
X118380Y43651D01*
X118858Y43172D01*
X119147Y42498D01*
X118958Y41930D01*
X118574Y41642D01*
X117979Y41344D01*
X113380Y39345D01*
X113379Y39343D01*
X113378Y39344D01*
X112778Y39044D01*
X112777Y39043D01*
X112776Y39043D01*
X112775Y39039D01*
X112768Y39023D01*
X112759Y39016D01*
X112762Y39012D01*
X112752Y38991D01*
X112768Y38983D01*
X112765Y38965D01*
X113065Y38665D01*
X113078Y38663D01*
X113079Y38655D01*
X118079Y36355D01*
X118083Y36356D01*
X118084Y36353D01*
X118671Y36158D01*
X119051Y35683D01*
X119051Y35109D01*
X118858Y34628D01*
X118380Y34149D01*
X117907Y34149D01*
G37*
%LPD*%
%LPC*%
G36*
X84736Y26106D02*
X84736Y26106D01*
X84347Y26787D01*
X84252Y27360D01*
X84535Y27832D01*
X85122Y28126D01*
X86322Y28726D01*
X86341Y28763D01*
X86349Y28770D01*
X86349Y32096D01*
X88151Y31337D01*
X88151Y30070D01*
X88172Y30042D01*
X88173Y30029D01*
X88473Y29829D01*
X88487Y29830D01*
X88488Y29829D01*
X88516Y29829D01*
X88522Y29826D01*
X89722Y30426D01*
X89731Y30445D01*
X89746Y30456D01*
X89740Y30463D01*
X89748Y30479D01*
X89740Y30484D01*
X89744Y30492D01*
X89544Y30892D01*
X89521Y30903D01*
X89518Y30916D01*
X88250Y31404D01*
X88294Y33911D01*
X93074Y31628D01*
X93558Y31241D01*
X93750Y30665D01*
X93654Y29996D01*
X93169Y29608D01*
X93162Y29578D01*
X93151Y29570D01*
X93151Y29501D01*
X85781Y26016D01*
X85206Y25824D01*
X84736Y26106D01*
G37*
%LPD*%
%LPC*%
G36*
X169942Y23979D02*
X169942Y23979D01*
X169849Y24534D01*
X169849Y49211D01*
X171151Y49508D01*
X171151Y24072D01*
X170596Y23979D01*
X169942Y23979D01*
G37*
%LPD*%
%LPC*%
G36*
X240503Y25689D02*
X240503Y25689D01*
X239811Y25788D01*
X238619Y26186D01*
X238027Y26482D01*
X237535Y26875D01*
X237142Y27367D01*
X236846Y27959D01*
X236649Y28548D01*
X236649Y29932D01*
X236846Y30522D01*
X237142Y31212D01*
X237631Y31701D01*
X238123Y31997D01*
X239315Y32593D01*
X239908Y32691D01*
X240603Y32791D01*
X242097Y32791D01*
X242792Y32691D01*
X243389Y32592D01*
X244082Y32394D01*
X244168Y32351D01*
X243469Y30302D01*
X242916Y30487D01*
X242908Y30484D01*
X242905Y30489D01*
X242005Y30589D01*
X242002Y30587D01*
X242000Y30589D01*
X240900Y30589D01*
X240897Y30587D01*
X240896Y30587D01*
X240894Y30589D01*
X240094Y30489D01*
X240085Y30480D01*
X240078Y30484D01*
X239478Y30184D01*
X239477Y30181D01*
X239475Y30182D01*
X238975Y29882D01*
X238966Y29862D01*
X238965Y29857D01*
X238952Y29852D01*
X238852Y29452D01*
X238856Y29444D01*
X238851Y29440D01*
X238851Y29140D01*
X238856Y29133D01*
X238852Y29128D01*
X238952Y28728D01*
X238967Y28716D01*
X238965Y28705D01*
X239365Y28305D01*
X239377Y28304D01*
X239378Y28296D01*
X239978Y27996D01*
X239990Y27998D01*
X239994Y27991D01*
X240794Y27891D01*
X240798Y27893D01*
X240800Y27891D01*
X241800Y27891D01*
X241803Y27893D01*
X241805Y27891D01*
X242705Y27991D01*
X242706Y27992D01*
X242707Y27991D01*
X243364Y28085D01*
X243939Y26074D01*
X243289Y25888D01*
X242692Y25789D01*
X241997Y25689D01*
X240503Y25689D01*
G37*
%LPD*%
%LPC*%
G36*
X167123Y25876D02*
X167123Y25876D01*
X166749Y26250D01*
X166749Y28930D01*
X166720Y28968D01*
X166718Y28976D01*
X166218Y29176D01*
X166205Y29172D01*
X166200Y29179D01*
X160103Y29179D01*
X159426Y29276D01*
X159049Y29747D01*
X159049Y30522D01*
X159240Y31093D01*
X159709Y31281D01*
X166500Y31281D01*
X166543Y31313D01*
X166547Y31314D01*
X166747Y31914D01*
X166743Y31925D01*
X166749Y31930D01*
X166749Y33927D01*
X166844Y34593D01*
X167405Y34780D01*
X168077Y34684D01*
X168453Y34307D01*
X168551Y33427D01*
X168551Y26637D01*
X168360Y25969D01*
X167795Y25780D01*
X167123Y25876D01*
G37*
%LPD*%
%LPC*%
G36*
X46078Y77706D02*
X46078Y77706D01*
X44527Y77973D01*
X44085Y78232D01*
X43198Y78794D01*
X42843Y79150D01*
X42270Y80029D01*
X42016Y80473D01*
X41742Y82019D01*
X41727Y82529D01*
X41999Y84078D01*
X42207Y84539D01*
X42863Y85521D01*
X42863Y85532D01*
X43088Y85823D01*
X44407Y86666D01*
X44899Y86798D01*
X46452Y87069D01*
X46991Y87049D01*
X46997Y86657D01*
X46997Y84637D01*
X46647Y84656D01*
X46641Y84653D01*
X46631Y84655D01*
X46113Y84558D01*
X46109Y84553D01*
X46100Y84554D01*
X45626Y84352D01*
X45622Y84346D01*
X45611Y84343D01*
X45196Y84017D01*
X45193Y84007D01*
X45179Y83997D01*
X44930Y83531D01*
X44930Y83526D01*
X44926Y83521D01*
X44758Y83028D01*
X44759Y83023D01*
X44755Y83017D01*
X44678Y82494D01*
X44680Y82489D01*
X44677Y82481D01*
X44709Y81958D01*
X44710Y81956D01*
X44710Y81952D01*
X44786Y81429D01*
X44792Y81423D01*
X44792Y81410D01*
X45030Y80940D01*
X45035Y80937D01*
X45037Y80930D01*
X45354Y80521D01*
X45360Y80518D01*
X45365Y80509D01*
X45782Y80185D01*
X45793Y80184D01*
X45807Y80173D01*
X46324Y80061D01*
X46328Y80062D01*
X46334Y80059D01*
X46999Y80026D01*
X46997Y79790D01*
X46997Y79789D01*
X46997Y77659D01*
X46595Y77649D01*
X46078Y77706D01*
G37*
%LPD*%
%LPC*%
G36*
X59414Y25649D02*
X59414Y25649D01*
X58945Y25930D01*
X58849Y26603D01*
X58849Y31397D01*
X58945Y32065D01*
X59413Y32252D01*
X60103Y32351D01*
X67586Y32351D01*
X68059Y32067D01*
X68250Y31495D01*
X68152Y30716D01*
X67870Y30245D01*
X67296Y30149D01*
X60700Y30149D01*
X60653Y30113D01*
X60658Y30106D01*
X60651Y30100D01*
X60651Y26703D01*
X60554Y26026D01*
X60083Y25649D01*
X59414Y25649D01*
G37*
%LPD*%
%LPC*%
G36*
X242203Y39089D02*
X242203Y39089D01*
X241515Y39188D01*
X240927Y39482D01*
X240433Y39877D01*
X239941Y40369D01*
X239644Y40962D01*
X239348Y41555D01*
X239249Y42243D01*
X239249Y43540D01*
X239246Y43545D01*
X239249Y43548D01*
X239149Y44148D01*
X239105Y44189D01*
X239103Y44186D01*
X239100Y44189D01*
X237025Y44189D01*
X236747Y44559D01*
X236650Y45340D01*
X236745Y46105D01*
X237213Y46292D01*
X237903Y46391D01*
X241953Y46391D01*
X242049Y44181D01*
X241492Y44089D01*
X241451Y44045D01*
X241454Y44043D01*
X241451Y44040D01*
X241451Y42640D01*
X241457Y42632D01*
X241453Y42626D01*
X241753Y41626D01*
X241775Y41609D01*
X241778Y41596D01*
X242378Y41296D01*
X242398Y41300D01*
X242407Y41291D01*
X243107Y41391D01*
X243120Y41404D01*
X243131Y41402D01*
X243596Y41774D01*
X245134Y40236D01*
X244768Y39779D01*
X243578Y39184D01*
X243552Y39131D01*
X243562Y39126D01*
X243558Y39115D01*
X243573Y39089D01*
X242203Y39089D01*
G37*
%LPD*%
%LPC*%
G36*
X34394Y77749D02*
X34394Y77749D01*
X34400Y78119D01*
X34400Y78120D01*
X34400Y86968D01*
X34416Y86968D01*
X34417Y86968D01*
X37332Y86968D01*
X37332Y77846D01*
X37333Y77844D01*
X37332Y77841D01*
X37339Y77749D01*
X34394Y77749D01*
G37*
%LPD*%
%LPC*%
G36*
X38073Y77749D02*
X38073Y77749D01*
X38079Y78170D01*
X38078Y78171D01*
X38079Y78171D01*
X38104Y86968D01*
X38146Y86968D01*
X41010Y86968D01*
X41010Y77799D01*
X41004Y77749D01*
X38073Y77749D01*
G37*
%LPD*%
%LPC*%
G36*
X217203Y36419D02*
X217203Y36419D01*
X216511Y36518D01*
X215918Y36716D01*
X215231Y37010D01*
X214838Y37501D01*
X214834Y37502D01*
X214835Y37505D01*
X214341Y37999D01*
X214069Y38543D01*
X216184Y39312D01*
X216562Y38839D01*
X216582Y38834D01*
X216586Y38823D01*
X217286Y38623D01*
X217306Y38630D01*
X217316Y38623D01*
X217916Y38823D01*
X217928Y38842D01*
X217941Y38843D01*
X218341Y39443D01*
X218340Y39457D01*
X218349Y39462D01*
X218449Y40062D01*
X218446Y40067D01*
X218449Y40070D01*
X218449Y41470D01*
X218413Y41517D01*
X218406Y41512D01*
X218400Y41519D01*
X216447Y41519D01*
X216351Y43721D01*
X220180Y43721D01*
X220553Y43347D01*
X220651Y42567D01*
X220651Y39873D01*
X220552Y39181D01*
X220354Y38589D01*
X220058Y37997D01*
X219663Y37503D01*
X219171Y37011D01*
X218579Y36715D01*
X217890Y36419D01*
X217203Y36419D01*
G37*
%LPD*%
%LPC*%
G36*
X191604Y39089D02*
X191604Y39089D01*
X191014Y39188D01*
X190322Y39484D01*
X189831Y39779D01*
X189338Y40271D01*
X188971Y40823D01*
X190887Y41877D01*
X191262Y41409D01*
X191292Y41402D01*
X191300Y41391D01*
X192000Y41391D01*
X192009Y41398D01*
X192016Y41393D01*
X192616Y41593D01*
X192628Y41612D01*
X192641Y41613D01*
X193041Y42213D01*
X193040Y42233D01*
X193049Y42240D01*
X193049Y43540D01*
X193046Y43545D01*
X193049Y43548D01*
X192949Y44148D01*
X192905Y44189D01*
X192903Y44186D01*
X192900Y44189D01*
X190947Y44189D01*
X190851Y46391D01*
X194296Y46391D01*
X194872Y46295D01*
X195153Y45921D01*
X195251Y45137D01*
X195251Y42443D01*
X195152Y41751D01*
X194955Y41162D01*
X194560Y40569D01*
X194165Y40075D01*
X193671Y39680D01*
X193073Y39281D01*
X193056Y39232D01*
X193046Y39257D01*
X192996Y39289D01*
X192992Y39283D01*
X192986Y39287D01*
X192293Y39089D01*
X191604Y39089D01*
G37*
%LPD*%
%LPC*%
G36*
X211620Y25919D02*
X211620Y25919D01*
X211249Y26290D01*
X211249Y27166D01*
X211345Y27740D01*
X211817Y28023D01*
X212503Y28121D01*
X216600Y28121D01*
X216643Y28153D01*
X216647Y28154D01*
X216747Y28454D01*
X216738Y28480D01*
X216744Y28492D01*
X216452Y29077D01*
X216545Y29546D01*
X217128Y30128D01*
X217598Y30316D01*
X218170Y30030D01*
X220062Y28038D01*
X220359Y27642D01*
X220651Y27156D01*
X220651Y26482D01*
X220370Y25919D01*
X211620Y25919D01*
G37*
%LPD*%
%LPC*%
G36*
X211814Y32119D02*
X211814Y32119D01*
X211346Y32400D01*
X211250Y33170D01*
X211346Y33943D01*
X211720Y34223D01*
X212304Y34321D01*
X219792Y34321D01*
X220370Y34128D01*
X220651Y33754D01*
X220651Y32878D01*
X220461Y32309D01*
X219892Y32119D01*
X211814Y32119D01*
G37*
%LPD*%
%LPC*%
G36*
X237508Y34689D02*
X237508Y34689D01*
X236933Y34881D01*
X236649Y35354D01*
X236649Y36232D01*
X236838Y36797D01*
X237305Y36891D01*
X244800Y36891D01*
X244806Y36895D01*
X244812Y36892D01*
X244817Y36903D01*
X244847Y36927D01*
X244834Y36944D01*
X244837Y36950D01*
X244858Y36915D01*
X244893Y36901D01*
X244900Y36891D01*
X245391Y36891D01*
X245859Y36703D01*
X246050Y36036D01*
X245953Y35163D01*
X245576Y34786D01*
X244996Y34689D01*
X237508Y34689D01*
G37*
%LPD*%
%LPC*%
G36*
X160004Y46979D02*
X160004Y46979D01*
X159428Y47075D01*
X159147Y47449D01*
X159050Y48325D01*
X159240Y48893D01*
X159713Y49082D01*
X160403Y49181D01*
X167786Y49181D01*
X168275Y48888D01*
X168301Y48891D01*
X168311Y48882D01*
X168356Y48892D01*
X168451Y48326D01*
X168451Y47450D01*
X168076Y47076D01*
X167496Y46979D01*
X160004Y46979D01*
G37*
%LPD*%
%LPC*%
G36*
X188646Y41459D02*
X188646Y41459D01*
X188449Y42048D01*
X188449Y44040D01*
X188413Y44087D01*
X188410Y44085D01*
X188408Y44089D01*
X187808Y44189D01*
X187803Y44186D01*
X187800Y44189D01*
X187104Y44189D01*
X186512Y44288D01*
X185944Y44477D01*
X185849Y45143D01*
X185849Y45920D01*
X186224Y46294D01*
X186804Y46391D01*
X190704Y46391D01*
X190850Y44148D01*
X190654Y43658D01*
X190656Y43653D01*
X190653Y43650D01*
X190657Y43645D01*
X190651Y43640D01*
X190651Y42340D01*
X190656Y42333D01*
X190652Y42328D01*
X190743Y41964D01*
X188921Y40909D01*
X188646Y41459D01*
G37*
%LPD*%
%LPC*%
G36*
X213949Y39278D02*
X213949Y39278D01*
X213849Y39874D01*
X213849Y41270D01*
X213820Y41308D01*
X213818Y41316D01*
X213318Y41516D01*
X213305Y41512D01*
X213300Y41519D01*
X212008Y41519D01*
X211439Y41709D01*
X211249Y42278D01*
X211249Y43156D01*
X211531Y43625D01*
X212104Y43721D01*
X216253Y43721D01*
X216350Y41485D01*
X216061Y41100D01*
X216061Y41078D01*
X216051Y41070D01*
X216051Y39770D01*
X216056Y39763D01*
X216052Y39758D01*
X216141Y39403D01*
X214039Y38734D01*
X213949Y39278D01*
G37*
%LPD*%
%LPC*%
G36*
X243657Y41854D02*
X243657Y41854D01*
X243847Y42424D01*
X243843Y42435D01*
X243849Y42440D01*
X243849Y43740D01*
X243833Y43761D01*
X243835Y43775D01*
X243435Y44175D01*
X243411Y44178D01*
X243409Y44180D01*
X243407Y44180D01*
X243400Y44189D01*
X242147Y44189D01*
X242051Y46391D01*
X245386Y46391D01*
X245859Y46107D01*
X246051Y45532D01*
X246051Y42147D01*
X245853Y41455D01*
X245655Y40862D01*
X245291Y40316D01*
X243657Y41854D01*
G37*
%LPD*%
G36*
X12306Y79994D02*
X12306Y79994D01*
X12310Y79997D01*
X12317Y79996D01*
X12825Y80124D01*
X12832Y80131D01*
X12847Y80135D01*
X13269Y80453D01*
X13272Y80460D01*
X13280Y80464D01*
X13604Y80868D01*
X13604Y80873D01*
X13609Y80877D01*
X13866Y81339D01*
X13865Y81348D01*
X13873Y81360D01*
X13953Y81883D01*
X13952Y81884D01*
X13953Y81886D01*
X14003Y82409D01*
X14000Y82415D01*
X14003Y82424D01*
X13923Y82947D01*
X13921Y82950D01*
X13921Y82955D01*
X13777Y83455D01*
X13773Y83459D01*
X13772Y83468D01*
X13515Y83930D01*
X13507Y83934D01*
X13502Y83946D01*
X13117Y84296D01*
X13111Y84297D01*
X13106Y84304D01*
X12657Y84563D01*
X12649Y84563D01*
X12638Y84570D01*
X12121Y84677D01*
X12114Y84674D01*
X12103Y84678D01*
X11585Y84635D01*
X11581Y84632D01*
X11575Y84634D01*
X11067Y84505D01*
X11060Y84498D01*
X11045Y84494D01*
X10622Y84178D01*
X10619Y84171D01*
X10610Y84167D01*
X10286Y83764D01*
X10285Y83759D01*
X10280Y83755D01*
X10022Y83293D01*
X10023Y83284D01*
X10015Y83272D01*
X9935Y82750D01*
X9935Y82748D01*
X9934Y82746D01*
X9884Y82224D01*
X9887Y82218D01*
X9884Y82208D01*
X9965Y81686D01*
X9967Y81683D01*
X9967Y81678D01*
X10113Y81178D01*
X10118Y81174D01*
X10119Y81165D01*
X10376Y80703D01*
X10384Y80699D01*
X10389Y80687D01*
X10775Y80338D01*
X10781Y80337D01*
X10786Y80331D01*
X11235Y80071D01*
X11243Y80071D01*
X11253Y80063D01*
X11771Y79957D01*
X11778Y79960D01*
X11788Y79956D01*
X12306Y79994D01*
G37*
%LPC*%
G36*
X243457Y28217D02*
X243457Y28217D01*
X243925Y28498D01*
X243933Y28516D01*
X243944Y28518D01*
X244144Y28918D01*
X244141Y28934D01*
X244149Y28940D01*
X244149Y29440D01*
X244140Y29453D01*
X244144Y29462D01*
X243944Y29862D01*
X243934Y29867D01*
X243935Y29875D01*
X243557Y30253D01*
X244257Y32307D01*
X244677Y32097D01*
X245175Y31798D01*
X245662Y31505D01*
X245956Y30918D01*
X246252Y30325D01*
X246351Y29637D01*
X246351Y28943D01*
X246252Y28251D01*
X246055Y27662D01*
X245663Y27074D01*
X245171Y26680D01*
X244578Y26285D01*
X244034Y26103D01*
X243457Y28217D01*
G37*
%LPD*%
%LPC*%
G36*
X84249Y44462D02*
X84249Y44462D01*
X84440Y45033D01*
X84909Y45221D01*
X86700Y45221D01*
X86651Y42982D01*
X86456Y42592D01*
X86459Y42576D01*
X86451Y42570D01*
X86451Y41313D01*
X84249Y41026D01*
X84249Y44462D01*
G37*
%LPD*%
%LPC*%
G36*
X86328Y32212D02*
X86328Y32212D01*
X85935Y32605D01*
X85922Y32607D01*
X85921Y32615D01*
X84631Y33210D01*
X84249Y33687D01*
X84249Y34257D01*
X84638Y34937D01*
X85114Y35318D01*
X85683Y35223D01*
X86376Y34827D01*
X86378Y34828D01*
X86379Y34826D01*
X88196Y33958D01*
X88152Y31444D01*
X86328Y32212D01*
G37*
%LPD*%
%LPC*%
G36*
X44197Y168759D02*
X44197Y168759D01*
X43723Y169139D01*
X43529Y169817D01*
X43529Y171461D01*
X45455Y171461D01*
X45731Y171094D01*
X45731Y169722D01*
X45442Y169144D01*
X44865Y168759D01*
X44197Y168759D01*
G37*
%LPD*%
%LPC*%
G36*
X44194Y192859D02*
X44194Y192859D01*
X43714Y193147D01*
X43429Y193526D01*
X43429Y195461D01*
X45355Y195461D01*
X45631Y195094D01*
X45631Y193818D01*
X45439Y193242D01*
X44865Y192859D01*
X44194Y192859D01*
G37*
%LPD*%
%LPC*%
G36*
X169849Y49497D02*
X169849Y49497D01*
X170309Y49681D01*
X171151Y49681D01*
X171151Y49614D01*
X169849Y49325D01*
X169849Y49497D01*
G37*
%LPD*%
D10*
X35243Y168275D02*
X25718Y168275D01*
X4800Y142000D02*
X4800Y112000D01*
X30800Y157000D02*
X47300Y157000D01*
X47300Y104500D02*
X47300Y97000D01*
X30800Y97000D01*
X47300Y149500D02*
X47300Y157000D01*
X52784Y152000D02*
X52786Y152063D01*
X52792Y152126D01*
X52802Y152189D01*
X52815Y152250D01*
X52833Y152311D01*
X52854Y152370D01*
X52879Y152429D01*
X52907Y152485D01*
X52939Y152540D01*
X52974Y152592D01*
X53013Y152642D01*
X53054Y152690D01*
X53099Y152735D01*
X53146Y152777D01*
X53195Y152816D01*
X53247Y152852D01*
X53301Y152885D01*
X53357Y152914D01*
X53415Y152940D01*
X53474Y152962D01*
X53534Y152981D01*
X53596Y152995D01*
X53658Y153006D01*
X53721Y153013D01*
X53784Y153016D01*
X53847Y153015D01*
X53910Y153010D01*
X53973Y153001D01*
X54035Y152988D01*
X54096Y152972D01*
X54156Y152952D01*
X54214Y152928D01*
X54271Y152900D01*
X54326Y152869D01*
X54379Y152835D01*
X54430Y152797D01*
X54478Y152756D01*
X54524Y152713D01*
X54567Y152666D01*
X54607Y152617D01*
X54644Y152566D01*
X54677Y152513D01*
X54707Y152457D01*
X54734Y152400D01*
X54757Y152341D01*
X54776Y152281D01*
X54792Y152219D01*
X54804Y152157D01*
X54812Y152095D01*
X54816Y152032D01*
X54816Y151968D01*
X54812Y151905D01*
X54804Y151843D01*
X54792Y151781D01*
X54776Y151719D01*
X54757Y151659D01*
X54734Y151600D01*
X54707Y151543D01*
X54677Y151487D01*
X54644Y151434D01*
X54607Y151383D01*
X54567Y151334D01*
X54524Y151287D01*
X54478Y151244D01*
X54430Y151203D01*
X54379Y151165D01*
X54326Y151131D01*
X54271Y151100D01*
X54214Y151072D01*
X54156Y151048D01*
X54096Y151028D01*
X54035Y151012D01*
X53973Y150999D01*
X53910Y150990D01*
X53847Y150985D01*
X53784Y150984D01*
X53721Y150987D01*
X53658Y150994D01*
X53596Y151005D01*
X53534Y151019D01*
X53474Y151038D01*
X53415Y151060D01*
X53357Y151086D01*
X53301Y151115D01*
X53247Y151148D01*
X53195Y151184D01*
X53146Y151223D01*
X53099Y151265D01*
X53054Y151310D01*
X53013Y151358D01*
X52974Y151408D01*
X52939Y151460D01*
X52907Y151515D01*
X52879Y151571D01*
X52854Y151630D01*
X52833Y151689D01*
X52815Y151750D01*
X52802Y151811D01*
X52792Y151874D01*
X52786Y151937D01*
X52784Y152000D01*
X249200Y142000D02*
X249200Y112000D01*
X223200Y97000D02*
X206700Y97000D01*
X206700Y149500D02*
X206700Y157000D01*
X223200Y157000D01*
X206700Y104500D02*
X206700Y97000D01*
X199184Y102000D02*
X199186Y102063D01*
X199192Y102126D01*
X199202Y102189D01*
X199215Y102250D01*
X199233Y102311D01*
X199254Y102370D01*
X199279Y102429D01*
X199307Y102485D01*
X199339Y102540D01*
X199374Y102592D01*
X199413Y102642D01*
X199454Y102690D01*
X199499Y102735D01*
X199546Y102777D01*
X199595Y102816D01*
X199647Y102852D01*
X199701Y102885D01*
X199757Y102914D01*
X199815Y102940D01*
X199874Y102962D01*
X199934Y102981D01*
X199996Y102995D01*
X200058Y103006D01*
X200121Y103013D01*
X200184Y103016D01*
X200247Y103015D01*
X200310Y103010D01*
X200373Y103001D01*
X200435Y102988D01*
X200496Y102972D01*
X200556Y102952D01*
X200614Y102928D01*
X200671Y102900D01*
X200726Y102869D01*
X200779Y102835D01*
X200830Y102797D01*
X200878Y102756D01*
X200924Y102713D01*
X200967Y102666D01*
X201007Y102617D01*
X201044Y102566D01*
X201077Y102513D01*
X201107Y102457D01*
X201134Y102400D01*
X201157Y102341D01*
X201176Y102281D01*
X201192Y102219D01*
X201204Y102157D01*
X201212Y102095D01*
X201216Y102032D01*
X201216Y101968D01*
X201212Y101905D01*
X201204Y101843D01*
X201192Y101781D01*
X201176Y101719D01*
X201157Y101659D01*
X201134Y101600D01*
X201107Y101543D01*
X201077Y101487D01*
X201044Y101434D01*
X201007Y101383D01*
X200967Y101334D01*
X200924Y101287D01*
X200878Y101244D01*
X200830Y101203D01*
X200779Y101165D01*
X200726Y101131D01*
X200671Y101100D01*
X200614Y101072D01*
X200556Y101048D01*
X200496Y101028D01*
X200435Y101012D01*
X200373Y100999D01*
X200310Y100990D01*
X200247Y100985D01*
X200184Y100984D01*
X200121Y100987D01*
X200058Y100994D01*
X199996Y101005D01*
X199934Y101019D01*
X199874Y101038D01*
X199815Y101060D01*
X199757Y101086D01*
X199701Y101115D01*
X199647Y101148D01*
X199595Y101184D01*
X199546Y101223D01*
X199499Y101265D01*
X199454Y101310D01*
X199413Y101358D01*
X199374Y101408D01*
X199339Y101460D01*
X199307Y101515D01*
X199279Y101571D01*
X199254Y101630D01*
X199233Y101689D01*
X199215Y101750D01*
X199202Y101811D01*
X199192Y101874D01*
X199186Y101937D01*
X199184Y102000D01*
D11*
X148142Y78386D02*
X126929Y99600D01*
X105716Y78386D01*
X126929Y57173D01*
X148142Y78386D01*
D12*
X127000Y51799D03*
D11*
X153500Y254100D02*
X100500Y254100D01*
X100500Y220100D01*
X153500Y220100D02*
X153500Y254100D01*
X153500Y220100D02*
X100500Y220100D01*
M02*
