M48
;GenerationSoftware,Autodesk,EAGLE,9.6.2*%
;CreationDate,2020-11-19T20:38:22Z*%
FMAT,2
ICI,OFF
METRIC,TZ,000.000
T4C0.381
T3C1.016
T2C1.300
T1C3.048
%
G90
M71
T1
X22860Y22860
X2540Y22860
X2540Y2540
T2
X11390Y23380
X13990Y23380
T3
X13970Y1270
X11430Y1270
X8890Y1270
X6350Y1270
X24130Y1270
X21590Y1270
X19050Y1270
X16510Y1270
T4
X2540Y13843
X21760Y11260
X16925Y10532
X12465Y10353
X18887Y10700
X3727Y15473
X8172Y7345
X16300Y7726
X22904Y11790
X18713Y6583
X22777Y4170
X18982Y14143
X9633Y7120
X18998Y13213
X10160Y6223
X3175Y16492
X23400Y18400
X20416Y20305
X18130Y5467
M30