M48
;GenerationSoftware,Autodesk,EAGLE,9.6.2*%
;CreationDate,2021-02-19T15:16:00Z*%
FMAT,2
ICI,OFF
METRIC,TZ,000.000
T5C0.305
T4C0.381
T3C1.016
T2C1.300
T1C3.048
%
G90
M71
T1
X28448Y22860
X28448Y2540
X54356Y2540
X106172Y22860
X106172Y151130
X2540Y2540
X28448Y32258
X100584Y22860
X2540Y52578
X74676Y22860
X2540Y32258
X22860Y52578
X54356Y22860
X2540Y22860
X48768Y52578
X48768Y22860
X80264Y2540
X106172Y2540
X22860Y22860
X126492Y22860
X28448Y52578
X80264Y22860
X74676Y52578
X54356Y52578
X54356Y32258
X100584Y52578
X80264Y52578
X80264Y32258
X126492Y52578
X106172Y52578
X106172Y32258
X22860Y82296
X2540Y82296
X2540Y61976
X48768Y82296
X28448Y82296
X28448Y61976
X74676Y82296
X54356Y82296
X54356Y61976
X100584Y82296
X80264Y82296
X80264Y61976
X126492Y82296
X106172Y82296
X106172Y61976
X22860Y112014
X2540Y112014
X2540Y91694
X48768Y112014
X28448Y112014
X28448Y91694
X74676Y112014
X54356Y112014
X54356Y91694
X100584Y112014
X80264Y112014
X80264Y91694
X126492Y112014
X106172Y112014
X106172Y91694
X22860Y141732
X2540Y141732
X2540Y121412
X48768Y141732
X28448Y141732
X28448Y121412
X74676Y141732
X54356Y141732
X54356Y121412
X100584Y141732
X80264Y141732
X80264Y121412
X126492Y141732
X106172Y141732
X106172Y121412
X22860Y171450
X2540Y171450
X2540Y151130
X48768Y171450
X28448Y171450
X28448Y151130
X74676Y171450
X54356Y171450
X54356Y151130
X100584Y171450
X80264Y171450
X80264Y151130
X126492Y171450
X106172Y171450
T2
X117642Y45938
X115042Y45938
X11410Y75656
X91734Y45938
X89134Y45938
X14010Y16220
X11410Y16220
X65826Y16220
X63226Y16220
X39918Y45938
X14010Y45938
X11410Y45938
X37318Y45938
X117642Y16220
X115042Y16220
X14010Y75656
X39918Y16220
X37318Y16220
X65826Y45938
X63226Y45938
X91734Y16220
X89134Y16220
X39918Y75656
X37318Y75656
X65826Y75656
X63226Y75656
X91734Y75656
X89134Y75656
X117642Y75656
X115042Y75656
X14010Y105374
X11410Y105374
X39918Y105374
X37318Y105374
X65826Y105374
X63226Y105374
X91734Y105374
X89134Y105374
X117642Y105374
X115042Y105374
X14010Y135092
X11410Y135092
X39918Y135092
X37318Y135092
X65826Y135092
X63226Y135092
X91734Y135092
X89134Y135092
X117642Y135092
X115042Y135092
X14010Y164810
X11410Y164810
X39918Y164810
X37318Y164810
X65826Y164810
X63226Y164810
X91734Y164810
X89134Y164810
X117642Y164810
X115042Y164810
T3
X112522Y1270
X115062Y1270
X117602Y1270
X127762Y1270
X125222Y1270
X122682Y1270
X120142Y1270
X105029Y6858
X6350Y30988
X8890Y30988
X11430Y30988
X13970Y30988
X24130Y30988
X21590Y30988
X19050Y30988
X16510Y30988
X1397Y36576
X32258Y30988
X34798Y30988
X37338Y30988
X39878Y30988
X50038Y30988
X47498Y30988
X44958Y30988
X42418Y30988
X27305Y36576
X58166Y30988
X60706Y30988
X63246Y30988
X65786Y30988
X75946Y30988
X73406Y30988
X70866Y30988
X68326Y30988
X53213Y36576
X84074Y30988
X86614Y30988
X89154Y30988
X91694Y30988
X101854Y30988
X99314Y30988
X96774Y30988
X94234Y30988
X79121Y36576
X109982Y30988
X112522Y30988
X115062Y30988
X117602Y30988
X127762Y30988
X125222Y30988
X122682Y30988
X120142Y30988
X105029Y36576
X6350Y60706
X8890Y60706
X11430Y60706
X13970Y60706
X24130Y60706
X21590Y60706
X19050Y60706
X16510Y60706
X1397Y66294
X32258Y60706
X34798Y60706
X37338Y60706
X39878Y60706
X91694Y60706
X6350Y1270
X50038Y60706
X47498Y60706
X44958Y60706
X42418Y60706
X27305Y66294
X58166Y60706
X60706Y60706
X63246Y60706
X65786Y60706
X8890Y1270
X11430Y1270
X75946Y60706
X73406Y60706
X70866Y60706
X68326Y60706
X53213Y66294
X84074Y60706
X86614Y60706
X89154Y60706
X13970Y1270
X24130Y1270
X101854Y60706
X99314Y60706
X96774Y60706
X94234Y60706
X79121Y66294
X109982Y60706
X112522Y60706
X115062Y60706
X117602Y60706
X21590Y1270
X19050Y1270
X127762Y60706
X125222Y60706
X122682Y60706
X120142Y60706
X105029Y66294
X6350Y90424
X8890Y90424
X11430Y90424
X13970Y90424
X16510Y1270
X1397Y6858
X24130Y90424
X21590Y90424
X19050Y90424
X16510Y90424
X1397Y96012
X32258Y90424
X34798Y90424
X37338Y90424
X39878Y90424
X32258Y1270
X34798Y1270
X50038Y90424
X47498Y90424
X44958Y90424
X42418Y90424
X27305Y96012
X58166Y90424
X60706Y90424
X63246Y90424
X65786Y90424
X37338Y1270
X39878Y1270
X75946Y90424
X73406Y90424
X70866Y90424
X68326Y90424
X53213Y96012
X84074Y90424
X86614Y90424
X89154Y90424
X91694Y90424
X50038Y1270
X47498Y1270
X101854Y90424
X99314Y90424
X96774Y90424
X94234Y90424
X79121Y96012
X109982Y90424
X112522Y90424
X115062Y90424
X117602Y90424
X44958Y1270
X42418Y1270
X127762Y90424
X125222Y90424
X122682Y90424
X120142Y90424
X105029Y96012
X6350Y120142
X8890Y120142
X11430Y120142
X13970Y120142
X27305Y6858
X58166Y1270
X24130Y120142
X21590Y120142
X19050Y120142
X16510Y120142
X1397Y125730
X32258Y120142
X34798Y120142
X37338Y120142
X39878Y120142
X60706Y1270
X63246Y1270
X50038Y120142
X47498Y120142
X44958Y120142
X42418Y120142
X27305Y125730
X58166Y120142
X60706Y120142
X63246Y120142
X65786Y120142
X65786Y1270
X75946Y1270
X75946Y120142
X73406Y120142
X70866Y120142
X68326Y120142
X53213Y125730
X84074Y120142
X86614Y120142
X89154Y120142
X91694Y120142
X73406Y1270
X70866Y1270
X101854Y120142
X99314Y120142
X96774Y120142
X94234Y120142
X79121Y125730
X109982Y120142
X112522Y120142
X115062Y120142
X117602Y120142
X68326Y1270
X53213Y6858
X127762Y120142
X125222Y120142
X122682Y120142
X120142Y120142
X105029Y125730
X6350Y149860
X8890Y149860
X11430Y149860
X13970Y149860
X84074Y1270
X86614Y1270
X24130Y149860
X21590Y149860
X19050Y149860
X16510Y149860
X1397Y155448
X32258Y149860
X34798Y149860
X37338Y149860
X39878Y149860
X89154Y1270
X91694Y1270
X50038Y149860
X47498Y149860
X44958Y149860
X42418Y149860
X27305Y155448
X58166Y149860
X60706Y149860
X63246Y149860
X65786Y149860
X101854Y1270
X99314Y1270
X75946Y149860
X73406Y149860
X70866Y149860
X68326Y149860
X53213Y155448
X84074Y149860
X86614Y149860
X89154Y149860
X91694Y149860
X96774Y1270
X94234Y1270
X101854Y149860
X99314Y149860
X96774Y149860
X94234Y149860
X79121Y155448
X109982Y149860
X112522Y149860
X115062Y149860
X117602Y149860
X79121Y6858
X109982Y1270
X127762Y149860
X125222Y149860
X122682Y149860
X120142Y149860
X105029Y155448
T4
X49308Y77836
X46324Y79741
X43835Y64928
X48260Y70358
X31628Y67493
X28448Y73660
X36068Y68580
X47498Y71628
X32289Y72167
X64058Y70261
X70601Y70466
X70529Y66019
X74593Y63606
X65083Y71079
X55423Y73762
X70195Y75292
X75935Y77019
X63290Y63987
X58293Y77724
X57404Y86106
X58166Y74676
X70333Y77724
X70866Y86106
X56584Y65054
X55543Y67543
X74676Y66294
X59963Y66705
X56838Y69575
X76316Y70720
X70899Y73325
X62649Y64986
X70154Y72268
X61976Y65659
X54991Y75928
X75216Y77836
X72232Y79741
X69743Y64928
X74168Y70358
X57536Y67493
X54356Y73660
X61976Y68580
X73406Y71628
X58197Y72167
X89966Y70261
X96509Y70466
X96437Y66019
X100501Y63606
X90991Y71079
X81331Y73762
X96103Y75292
X101843Y77019
X89198Y63987
X84201Y77724
X83312Y86106
X84074Y74676
X96241Y77724
X96774Y86106
X82492Y65054
X81451Y67543
X100584Y66294
X85871Y66705
X82746Y69575
X102224Y70720
X96807Y73325
X88557Y64986
X96062Y72268
X87884Y65659
X80899Y75928
X101124Y77836
X98140Y79741
X95651Y64928
X100076Y70358
X83444Y67493
X80264Y73660
X87884Y68580
X99314Y71628
X84105Y72167
X115874Y70261
X122417Y70466
X122345Y66019
X126409Y63606
X116899Y71079
X107239Y73762
X122011Y75292
X127751Y77019
X115106Y63987
X110109Y77724
X109220Y86106
X109982Y74676
X122149Y77724
X122682Y86106
X108400Y65054
X107359Y67543
X126492Y66294
X111779Y66705
X108654Y69575
X128132Y70720
X122715Y73325
X114465Y64986
X121970Y72268
X113792Y65659
X106807Y75928
X127032Y77836
X124048Y79741
X121559Y64928
X125984Y70358
X109352Y67493
X106172Y73660
X113792Y68580
X125222Y71628
X110013Y72167
X12242Y99979
X18785Y100184
X18713Y95737
X22777Y93324
X13267Y100797
X3607Y103480
X18379Y105010
X24119Y106737
X11474Y93705
X6477Y107442
X5588Y115824
X6350Y104394
X18517Y107442
X19050Y115824
X4768Y94772
X3727Y97261
X22860Y96012
X8147Y96423
X5022Y99293
X24500Y100438
X19083Y103043
X10833Y94704
X18338Y101986
X10160Y95377
X3175Y105646
X23400Y107554
X20416Y109459
X17927Y94646
X22352Y100076
X5720Y97211
X2540Y103378
X10160Y98298
X21590Y101346
X6381Y101885
X38150Y99979
X44693Y100184
X44621Y95737
X48685Y93324
X39175Y100797
X29515Y103480
X44287Y105010
X50027Y106737
X37382Y93705
X32385Y107442
X31496Y115824
X32258Y104394
X44425Y107442
X44958Y115824
X30676Y94772
X29635Y97261
X48768Y96012
X34055Y96423
X30930Y99293
X50408Y100438
X44991Y103043
X36741Y94704
X44246Y101986
X36068Y95377
X29083Y105646
X49308Y107554
X46324Y109459
X43835Y94646
X48260Y100076
X31628Y97211
X28448Y103378
X36068Y98298
X47498Y101346
X32289Y101885
X64058Y99979
X70601Y100184
X70529Y95737
X74593Y93324
X65083Y100797
X55423Y103480
X70195Y105010
X75935Y106737
X63290Y93705
X58293Y107442
X57404Y115824
X58166Y104394
X70333Y107442
X70866Y115824
X56584Y94772
X55543Y97261
X74676Y96012
X59963Y96423
X56838Y99293
X76316Y100438
X70899Y103043
X62649Y94704
X70154Y101986
X61976Y95377
X54991Y105646
X75216Y107554
X72232Y109459
X69743Y94646
X74168Y100076
X57536Y97211
X54356Y103378
X61976Y98298
X73406Y101346
X58197Y101885
X89966Y99979
X96509Y100184
X96437Y95737
X100501Y93324
X90991Y100797
X81331Y103480
X96103Y105010
X101843Y106737
X89198Y93705
X84201Y107442
X83312Y115824
X84074Y104394
X96241Y107442
X96774Y115824
X82492Y94772
X81451Y97261
X100584Y96012
X85871Y96423
X82746Y99293
X102224Y100438
X96807Y103043
X88557Y94704
X96062Y101986
X87884Y95377
X80899Y105646
X101124Y107554
X98140Y109459
X95651Y94646
X100076Y100076
X83444Y97211
X80264Y103378
X87884Y98298
X99314Y101346
X84105Y101885
X115874Y99979
X122417Y100184
X122345Y95737
X126409Y93324
X116899Y100797
X107239Y103480
X122011Y105010
X127751Y106737
X115106Y93705
X110109Y107442
X109220Y115824
X109982Y104394
X122149Y107442
X122682Y115824
X108400Y94772
X107359Y97261
X126492Y96012
X111779Y96423
X108654Y99293
X128132Y100438
X122715Y103043
X114465Y94704
X121970Y101986
X113792Y95377
X106807Y105646
X127032Y107554
X124048Y109459
X121559Y94646
X125984Y100076
X109352Y97211
X106172Y103378
X113792Y98298
X125222Y101346
X110013Y101885
X12242Y129697
X18785Y129902
X18713Y125455
X22777Y123042
X13267Y130515
X3607Y133198
X18379Y134728
X24119Y136455
X11474Y123423
X6477Y137160
X5588Y145542
X6350Y134112
X18517Y137160
X19050Y145542
X4768Y124490
X3727Y126979
X22860Y125730
X8147Y126141
X5022Y129011
X24500Y130156
X19083Y132761
X10833Y124422
X18338Y131704
X10160Y125095
X3175Y135364
X23400Y137272
X20416Y139177
X17927Y124364
X22352Y129794
X5720Y126929
X2540Y133096
X10160Y128016
X21590Y131064
X6381Y131603
X11474Y34269
X44693Y129902
X44621Y125455
X48685Y123042
X39175Y130515
X29515Y133198
X44287Y134728
X50027Y136455
X37382Y123423
X32385Y137160
X31496Y145542
X32258Y134112
X44425Y137160
X44958Y145542
X30676Y124490
X29635Y126979
X48768Y125730
X34055Y126141
X30930Y129011
X50408Y130156
X44991Y132761
X36741Y124422
X44246Y131704
X36068Y125095
X29083Y135364
X49308Y137272
X46324Y139177
X43835Y124364
X48260Y129794
X31628Y126929
X28448Y133096
X36068Y128016
X47498Y131064
X32289Y131603
X64058Y129697
X70601Y129902
X70529Y125455
X74593Y123042
X65083Y130515
X55423Y133198
X70195Y134728
X75935Y136455
X63290Y123423
X58293Y137160
X57404Y145542
X58166Y134112
X70333Y137160
X70866Y145542
X56584Y124490
X55543Y126979
X74676Y125730
X59963Y126141
X56838Y129011
X76316Y130156
X70899Y132761
X62649Y124422
X70154Y131704
X61976Y125095
X54991Y135364
X75216Y137272
X72232Y139177
X69743Y124364
X74168Y129794
X57536Y126929
X54356Y133096
X61976Y128016
X73406Y131064
X58197Y131603
X89966Y129697
X96509Y129902
X96437Y125455
X100501Y123042
X90991Y130515
X81331Y133198
X96103Y134728
X101843Y136455
X89198Y123423
X84201Y137160
X83312Y145542
X84074Y134112
X96241Y137160
X96774Y145542
X82492Y124490
X81451Y126979
X100584Y125730
X85871Y126141
X82746Y129011
X102224Y130156
X96807Y132761
X88557Y124422
X96062Y131704
X87884Y125095
X80899Y135364
X101124Y137272
X98140Y139177
X95651Y124364
X100076Y129794
X83444Y126929
X80264Y133096
X87884Y128016
X99314Y131064
X84105Y131603
X115874Y129697
X122417Y129902
X122345Y125455
X126409Y123042
X116899Y130515
X107239Y133198
X122011Y134728
X127751Y136455
X115106Y123423
X110109Y137160
X109220Y145542
X109982Y134112
X122149Y137160
X122682Y145542
X108400Y124490
X107359Y126979
X126492Y125730
X111779Y126141
X108654Y129011
X128132Y130156
X122715Y132761
X114465Y124422
X121970Y131704
X113792Y125095
X106807Y135364
X127032Y137272
X124048Y139177
X121559Y124364
X125984Y129794
X109352Y126929
X106172Y133096
X113792Y128016
X125222Y131064
X110013Y131603
X12242Y159415
X18785Y159620
X18713Y155173
X22777Y152760
X13267Y160233
X3607Y162916
X18379Y164446
X24119Y166173
X11474Y153141
X6477Y166878
X5588Y175260
X6350Y163830
X18517Y166878
X19050Y175260
X4768Y154208
X3727Y156697
X22860Y155448
X8147Y155859
X5022Y158729
X24500Y159874
X19083Y162479
X10833Y154140
X18338Y161422
X10160Y154813
X3175Y165082
X23400Y166990
X20416Y168895
X17927Y154082
X22352Y159512
X5720Y156647
X2540Y162814
X10160Y157734
X21590Y160782
X6381Y161321
X38150Y159415
X44693Y159620
X44621Y155173
X48685Y152760
X39175Y160233
X29515Y162916
X44287Y164446
X50027Y166173
X37382Y153141
X32385Y166878
X31496Y175260
X32258Y163830
X44425Y166878
X44958Y175260
X30676Y154208
X29635Y156697
X48768Y155448
X34055Y155859
X30930Y158729
X50408Y159874
X44991Y162479
X36741Y154140
X44246Y161422
X36068Y154813
X29083Y165082
X49308Y166990
X46324Y168895
X43835Y154082
X48260Y159512
X31628Y156647
X28448Y162814
X36068Y157734
X47498Y160782
X32289Y161321
X64058Y159415
X70601Y159620
X70529Y155173
X74593Y152760
X65083Y160233
X55423Y162916
X70195Y164446
X75935Y166173
X63290Y153141
X58293Y166878
X57404Y175260
X58166Y163830
X70333Y166878
X70866Y175260
X56584Y154208
X55543Y156697
X74676Y155448
X59963Y155859
X56838Y158729
X76316Y159874
X70899Y162479
X62649Y154140
X70154Y161422
X61976Y154813
X54991Y165082
X75216Y166990
X72232Y168895
X69743Y154082
X74168Y159512
X57536Y156647
X54356Y162814
X61976Y157734
X73406Y160782
X58197Y161321
X89966Y159415
X96509Y159620
X96437Y155173
X100501Y152760
X90991Y160233
X81331Y162916
X96103Y164446
X101843Y166173
X89198Y153141
X84201Y166878
X83312Y175260
X84074Y163830
X96241Y166878
X96774Y175260
X82492Y154208
X81451Y156697
X100584Y155448
X85871Y155859
X82746Y158729
X102224Y159874
X96807Y162479
X88557Y154140
X96062Y161422
X87884Y154813
X80899Y165082
X101124Y166990
X98140Y168895
X95651Y154082
X100076Y159512
X83444Y156647
X80264Y162814
X87884Y157734
X99314Y160782
X84105Y161321
X115874Y159415
X122417Y159620
X122345Y155173
X126409Y152760
X116899Y160233
X107239Y162916
X122011Y164446
X127751Y166173
X115106Y153141
X110109Y166878
X109220Y175260
X109982Y163830
X122149Y166878
X122682Y175260
X108400Y154208
X107359Y156697
X126492Y155448
X111779Y155859
X108654Y158729
X128132Y159874
X122715Y162479
X114465Y154140
X121970Y161422
X113792Y154813
X106807Y165082
X127032Y166990
X124048Y168895
X121559Y154082
X125984Y159512
X109352Y156647
X106172Y162814
X113792Y157734
X125222Y160782
X110013Y161321
X12242Y10825
X18785Y11030
X18713Y6583
X22777Y4170
X13267Y11643
X3607Y14326
X18379Y15856
X24119Y17583
X11474Y4551
X6477Y18288
X5588Y26670
X6350Y15240
X18517Y18288
X19050Y26670
X4768Y5618
X3727Y8107
X22860Y6858
X8147Y7269
X5022Y10139
X24500Y11284
X19083Y13889
X10833Y5550
X18338Y12832
X10160Y6223
X3175Y16492
X23400Y18400
X20416Y20305
X17927Y5492
X22352Y10922
X5720Y8057
X2540Y14224
X10160Y9144
X21590Y12192
X6381Y12731
X38150Y10825
X44693Y11030
X44621Y6583
X48685Y4170
X39175Y11643
X29515Y14326
X44287Y15856
X50027Y17583
X37382Y4551
X32385Y18288
X31496Y26670
X32258Y15240
X44425Y18288
X44958Y26670
X30676Y5618
X29635Y8107
X48768Y6858
X34055Y7269
X30930Y10139
X50408Y11284
X44991Y13889
X36741Y5550
X44246Y12832
X36068Y6223
X29083Y16492
X49308Y18400
X46324Y20305
X43835Y5492
X48260Y10922
X31628Y8057
X28448Y14224
X36068Y9144
X47498Y12192
X32289Y12731
X64058Y10825
X70601Y11030
X70529Y6583
X74593Y4170
X65083Y11643
X55423Y14326
X70195Y15856
X75935Y17583
X63290Y4551
X58293Y18288
X57404Y26670
X58166Y15240
X70333Y18288
X70866Y26670
X56584Y5618
X55543Y8107
X74676Y6858
X59963Y7269
X56838Y10139
X76316Y11284
X70899Y13889
X62649Y5550
X70154Y12832
X61976Y6223
X54991Y16492
X75216Y18400
X72232Y20305
X69743Y5492
X74168Y10922
X57536Y8057
X54356Y14224
X61976Y9144
X73406Y12192
X58197Y12731
X89966Y10825
X96509Y11030
X96437Y6583
X100501Y4170
X90991Y11643
X81331Y14326
X96103Y15856
X101843Y17583
X89198Y4551
X84201Y18288
X83312Y26670
X84074Y15240
X96241Y18288
X96774Y26670
X82492Y5618
X81451Y8107
X100584Y6858
X85871Y7269
X82746Y10139
X102224Y11284
X96807Y13889
X88557Y5550
X96062Y12832
X87884Y6223
X80899Y16492
X101124Y18400
X98140Y20305
X95651Y5492
X100076Y10922
X83444Y8057
X80264Y14224
X87884Y9144
X99314Y12192
X84105Y12731
X115874Y10825
X122417Y11030
X122345Y6583
X126409Y4170
X116899Y11643
X107239Y14326
X122011Y15856
X127751Y17583
X115106Y4551
X110109Y18288
X109220Y26670
X109982Y15240
X122149Y18288
X122682Y26670
X108400Y5618
X107359Y8107
X126492Y6858
X111779Y7269
X108654Y10139
X128132Y11284
X122715Y13889
X114465Y5550
X121970Y12832
X113792Y6223
X106807Y16492
X127032Y18400
X124048Y20305
X121559Y5492
X125984Y10922
X109352Y8057
X106172Y14224
X113792Y9144
X125222Y12192
X110013Y12731
X12242Y40543
X18785Y40748
X18713Y36301
X22777Y33888
X13267Y41361
X3607Y44044
X18379Y45574
X24119Y47301
X6477Y48006
X5588Y56388
X6350Y44958
X18517Y48006
X19050Y56388
X4768Y35336
X3727Y37825
X22860Y36576
X8147Y36987
X5022Y39857
X24500Y41002
X19083Y43607
X10833Y35268
X18338Y42550
X10160Y35941
X3175Y46210
X23400Y48118
X20416Y50023
X17927Y35210
X22352Y40640
X5720Y37775
X2540Y43942
X10160Y38862
X21590Y41910
X6381Y42449
X38150Y40543
X44693Y40748
X44621Y36301
X48685Y33888
X39175Y41361
X29515Y44044
X44287Y45574
X50027Y47301
X37382Y34269
X32385Y48006
X31496Y56388
X32258Y44958
X38150Y129697
X44425Y48006
X44958Y56388
X30676Y35336
X29635Y37825
X48768Y36576
X34055Y36987
X30930Y39857
X50408Y41002
X44991Y43607
X36741Y35268
X44246Y42550
X36068Y35941
X29083Y46210
X49308Y48118
X46324Y50023
X43835Y35210
X48260Y40640
X31628Y37775
X28448Y43942
X36068Y38862
X47498Y41910
X32289Y42449
X64058Y40543
X70601Y40748
X70529Y36301
X74593Y33888
X65083Y41361
X55423Y44044
X70195Y45574
X75935Y47301
X63290Y34269
X58293Y48006
X57404Y56388
X58166Y44958
X70333Y48006
X70866Y56388
X56584Y35336
X55543Y37825
X74676Y36576
X59963Y36987
X56838Y39857
X76316Y41002
X70899Y43607
X62649Y35268
X70154Y42550
X61976Y35941
X54991Y46210
X75216Y48118
X72232Y50023
X69743Y35210
X74168Y40640
X57536Y37775
X54356Y43942
X61976Y38862
X73406Y41910
X58197Y42449
X89966Y40543
X96509Y40748
X96437Y36301
X100501Y33888
X90991Y41361
X81331Y44044
X96103Y45574
X101843Y47301
X89198Y34269
X84201Y48006
X83312Y56388
X84074Y44958
X96241Y48006
X96774Y56388
X82492Y35336
X81451Y37825
X100584Y36576
X85871Y36987
X82746Y39857
X102224Y41002
X96807Y43607
X88557Y35268
X96062Y42550
X87884Y35941
X80899Y46210
X101124Y48118
X98140Y50023
X95651Y35210
X100076Y40640
X83444Y37775
X80264Y43942
X87884Y38862
X99314Y41910
X84105Y42449
X115874Y40543
X122417Y40748
X122345Y36301
X126409Y33888
X116899Y41361
X107239Y44044
X122011Y45574
X127751Y47301
X115106Y34269
X110109Y48006
X109220Y56388
X109982Y44958
X122149Y48006
X122682Y56388
X108400Y35336
X107359Y37825
X126492Y36576
X111779Y36987
X108654Y39857
X128132Y41002
X122715Y43607
X114465Y35268
X121970Y42550
X113792Y35941
X106807Y46210
X127032Y48118
X124048Y50023
X121559Y35210
X125984Y40640
X109352Y37775
X106172Y43942
X113792Y38862
X125222Y41910
X110013Y42449
X12242Y70261
X18785Y70466
X18713Y66019
X22777Y63606
X13267Y71079
X3607Y73762
X18379Y75292
X24119Y77019
X11474Y63987
X6477Y77724
X5588Y86106
X6350Y74676
X18517Y77724
X19050Y86106
X4768Y65054
X3727Y67543
X22860Y66294
X8147Y66705
X5022Y69575
X24500Y70720
X19083Y73325
X10833Y64986
X18338Y72268
X10160Y65659
X3175Y75928
X23400Y77836
X20416Y79741
X17927Y64928
X22352Y70358
X5720Y67493
X2540Y73660
X10160Y68580
X21590Y71628
X6381Y72167
X38150Y70261
X44693Y70466
X44621Y66019
X48685Y63606
X39175Y71079
X29515Y73762
X44287Y75292
X50027Y77019
X37382Y63987
X32385Y77724
X31496Y86106
X32258Y74676
X44425Y77724
X44958Y86106
X30676Y65054
X29635Y67543
X48768Y66294
X34055Y66705
X30930Y69575
X50408Y70720
X44991Y73325
X36741Y64986
X44246Y72268
X36068Y65659
X29083Y75928
T5
X12090Y126721
X115722Y97003
X89814Y97003
X63906Y97003
X37998Y97003
X12090Y97003
X115722Y67285
X89814Y67285
X63906Y67285
X37998Y67285
X12090Y67285
X115722Y37567
X89814Y37567
X63906Y37567
X37998Y37567
X12090Y37567
X115722Y7849
X89814Y7849
X63906Y7849
X37998Y7849
X12090Y7849
X63906Y156439
X89814Y126721
X115722Y156439
X37998Y156439
X12090Y156439
X37998Y126721
X115722Y126721
X63906Y126721
X89814Y156439
M30