G04 EAGLE Gerber RS-274X export*
G75*
%MOMM*%
%FSLAX34Y34*%
%LPD*%
%INSolderpaste Top*%
%IPPOS*%
%AMOC8*
5,1,8,0,0,1.08239X$1,22.5*%
G01*
%ADD10C,0.300000*%
%ADD11R,2.000000X1.200000*%
%ADD12R,1.350000X0.600000*%
%ADD13R,1.000000X1.100000*%
%ADD14R,0.250000X0.500000*%
%ADD15R,1.100000X1.000000*%


D10*
X26980Y178880D02*
X33980Y178880D01*
X33980Y171880D01*
X26980Y171880D01*
X26980Y178880D01*
X26980Y174730D02*
X33980Y174730D01*
X33980Y177580D02*
X26980Y177580D01*
X26980Y196420D02*
X33980Y196420D01*
X33980Y189420D01*
X26980Y189420D01*
X26980Y196420D01*
X26980Y192270D02*
X33980Y192270D01*
X33980Y195120D02*
X26980Y195120D01*
D11*
X14050Y155000D03*
X14050Y99000D03*
D12*
X50800Y142000D03*
X50800Y132000D03*
X50800Y122000D03*
X50800Y112000D03*
D11*
X239950Y99000D03*
X239950Y155000D03*
D12*
X203200Y112000D03*
X203200Y122000D03*
X203200Y132000D03*
X203200Y142000D03*
D13*
X222250Y174770D03*
X222250Y191770D03*
X205740Y174770D03*
X205740Y191770D03*
X13970Y192260D03*
X13970Y175260D03*
D14*
G36*
X134176Y63715D02*
X132408Y61947D01*
X128874Y65481D01*
X130642Y67249D01*
X134176Y63715D01*
G37*
G36*
X138773Y68311D02*
X137005Y66543D01*
X133471Y70077D01*
X135239Y71845D01*
X138773Y68311D01*
G37*
G36*
X143369Y72907D02*
X141601Y71139D01*
X138067Y74673D01*
X139835Y76441D01*
X143369Y72907D01*
G37*
G36*
X141601Y85634D02*
X143369Y83866D01*
X139835Y80332D01*
X138067Y82100D01*
X141601Y85634D01*
G37*
G36*
X137005Y90230D02*
X138773Y88462D01*
X135239Y84928D01*
X133471Y86696D01*
X137005Y90230D01*
G37*
G36*
X132408Y94826D02*
X134176Y93058D01*
X130642Y89524D01*
X128874Y91292D01*
X132408Y94826D01*
G37*
G36*
X119682Y93058D02*
X121450Y94826D01*
X124984Y91292D01*
X123216Y89524D01*
X119682Y93058D01*
G37*
G36*
X115086Y88462D02*
X116854Y90230D01*
X120388Y86696D01*
X118620Y84928D01*
X115086Y88462D01*
G37*
G36*
X110490Y83866D02*
X112258Y85634D01*
X115792Y82100D01*
X114024Y80332D01*
X110490Y83866D01*
G37*
G36*
X112258Y71139D02*
X110490Y72907D01*
X114024Y76441D01*
X115792Y74673D01*
X112258Y71139D01*
G37*
G36*
X116854Y66543D02*
X115086Y68311D01*
X118620Y71845D01*
X120388Y70077D01*
X116854Y66543D01*
G37*
G36*
X121450Y61947D02*
X119682Y63715D01*
X123216Y67249D01*
X124984Y65481D01*
X121450Y61947D01*
G37*
D15*
G36*
X150111Y97597D02*
X157888Y89820D01*
X150817Y82749D01*
X143040Y90526D01*
X150111Y97597D01*
G37*
G36*
X138091Y109618D02*
X145868Y101841D01*
X138797Y94770D01*
X131020Y102547D01*
X138091Y109618D01*
G37*
X241926Y81788D03*
X224926Y81788D03*
M02*
